<?xml version="1.0" encoding="UTF-8" standalone="no"?><svg xmlns="http://www.w3.org/2000/svg" xmlns:xlink="http://www.w3.org/1999/xlink" clip-rule="evenodd" stroke-miterlimit="4.00" viewBox="0 0 617 218"><desc>SVG generated by Keynote</desc><defs></defs><g transform="matrix(1.00, 0.00, -0.00, -1.00, 0.0, 218.0)"><g><clipPath id="clip-221"><path d="M 1.0 1.0 L 615.0 1.0 L 615.0 216.0 L 1.0 216.0 Z M 1.0 1.0 "></path></clipPath><g clip-path="url(#clip-221)"><text xml:space="preserve" font-family="Helvetica" font-size="16.2" fill="#979797" transform="matrix(1.00, 0.00, -0.00, -1.00, 1.0, 204.0)">0</text><text xml:space="preserve" font-family="Helvetica" font-size="16.2" fill="#979797" transform="matrix(1.00, 0.00, -0.00, -1.00, 13.3, 204.0)">4</text><text xml:space="preserve" font-family="Helvetica" font-size="16.2" fill="#979797" transform="matrix(1.00, 0.00, -0.00, -1.00, 31.0, 204.0)">F</text><text xml:space="preserve" font-family="Helvetica" font-size="16.2" fill="#979797" transform="matrix(1.00, 0.00, -0.00, -1.00, 44.2, 204.0)">U</text><text xml:space="preserve" font-family="Helvetica" font-size="16.2" fill="#979797" transform="matrix(1.00, 0.00, -0.00, -1.00, 59.2, 204.0)">L</text><text xml:space="preserve" font-family="Helvetica" font-size="16.2" fill="#979797" transform="matrix(1.00, 0.00, -0.00, -1.00, 71.3, 204.0)">L</text><text xml:space="preserve" font-family="Helvetica" font-size="16.2" fill="#979797" transform="matrix(1.00, 0.00, -0.00, -1.00, 83.5, 204.0)"> </text><text xml:space="preserve" font-family="Helvetica" font-size="16.2" fill="#979797" transform="matrix(1.00, 0.00, -0.00, -1.00, 90.5, 204.0)">A</text><text xml:space="preserve" font-family="Helvetica" font-size="16.2" fill="#979797" transform="matrix(1.00, 0.00, -0.00, -1.00, 104.6, 204.0)">R</text><text xml:space="preserve" font-family="Helvetica" font-size="16.2" fill="#979797" transform="matrix(1.00, 0.00, -0.00, -1.00, 119.3, 204.0)">T</text><text xml:space="preserve" font-family="Helvetica" font-size="16.2" fill="#979797" transform="matrix(1.00, 0.00, -0.00, -1.00, 132.4, 204.0)">I</text><text xml:space="preserve" font-family="Helvetica" font-size="16.2" fill="#979797" transform="matrix(1.00, 0.00, -0.00, -1.00, 140.2, 204.0)">C</text><text xml:space="preserve" font-family="Helvetica" font-size="16.2" fill="#979797" transform="matrix(1.00, 0.00, -0.00, -1.00, 155.2, 204.0)">L</text><text xml:space="preserve" font-family="Helvetica" font-size="16.2" fill="#979797" transform="matrix(1.00, 0.00, -0.00, -1.00, 167.5, 204.0)">E</text><text xml:space="preserve" font-family="Helvetica" font-size="16.2" fill="#979797" transform="matrix(1.00, 0.00, -0.00, -1.00, 181.6, 204.0)">S</text><path d="M 0.5 1.9 L 255.8 1.9 " fill="none" stroke="#979797" stroke-width="0.62" stroke-miterlimit="0.00" stroke-linecap="square" transform="matrix(1.00, 0.00, 0.00, -1.00, 208.0, 211.0)"></path><path d="M 0.6 1.0 L 463.5 1.0 " fill="none" stroke="#979797" stroke-width="0.62" stroke-miterlimit="0.00" stroke-linecap="square" transform="matrix(1.00, 0.00, 0.00, -1.00, 1.0, 152.0)"></path></g></g><g><clipPath id="clip-222"><path d="M 1.0 1.0 L 615.0 1.0 L 615.0 138.0 L 1.0 138.0 Z M 1.0 1.0 "></path></clipPath><g clip-path="url(#clip-222)"><text xml:space="preserve" font-family="Helvetica" font-size="21.2" fill="#4A4A4A" transform="matrix(1.00, 0.00, -0.00, -1.00, 1.0, 106.0)">H</text><text xml:space="preserve" font-family="Helvetica" font-size="21.2" fill="#4A4A4A" transform="matrix(1.00, 0.00, -0.00, -1.00, 16.6, 106.0)">e</text><text xml:space="preserve" font-family="Helvetica" font-size="21.2" fill="#4A4A4A" transform="matrix(1.00, 0.00, -0.00, -1.00, 29.2, 106.0)">l</text><text xml:space="preserve" font-family="Helvetica" font-size="21.2" fill="#4A4A4A" transform="matrix(1.00, 0.00, -0.00, -1.00, 34.6, 106.0)">p</text><text xml:space="preserve" font-family="Helvetica" font-size="21.2" fill="#4A4A4A" transform="matrix(1.00, 0.00, -0.00, -1.00, 47.1, 106.0)"> </text><text xml:space="preserve" font-family="Helvetica" font-size="21.2" fill="#4A4A4A" transform="matrix(1.00, 0.00, -0.00, -1.00, 53.7, 106.0)">c</text><text xml:space="preserve" font-family="Helvetica" font-size="21.2" fill="#4A4A4A" transform="matrix(1.00, 0.00, -0.00, -1.00, 65.1, 106.0)">e</text><text xml:space="preserve" font-family="Helvetica" font-size="21.2" fill="#4A4A4A" transform="matrix(1.00, 0.00, -0.00, -1.00, 77.6, 106.0)">m</text><text xml:space="preserve" font-family="Helvetica" font-size="21.2" fill="#4A4A4A" transform="matrix(1.00, 0.00, -0.00, -1.00, 96.0, 106.0)">e</text><text xml:space="preserve" font-family="Helvetica" font-size="21.2" fill="#4A4A4A" transform="matrix(1.00, 0.00, -0.00, -1.00, 108.5, 106.0)">n</text><text xml:space="preserve" font-family="Helvetica" font-size="21.2" fill="#4A4A4A" transform="matrix(1.00, 0.00, -0.00, -1.00, 121.1, 106.0)">t</text><text xml:space="preserve" font-family="Helvetica" font-size="21.2" fill="#4A4A4A" transform="matrix(1.00, 0.00, -0.00, -1.00, 127.7, 106.0)"> </text><text xml:space="preserve" font-family="Helvetica" font-size="21.2" fill="#4A4A4A" transform="matrix(1.00, 0.00, -0.00, -1.00, 134.3, 106.0)">b</text><text xml:space="preserve" font-family="Helvetica" font-size="21.2" fill="#4A4A4A" transform="matrix(1.00, 0.00, -0.00, -1.00, 146.8, 106.0)">e</text><text xml:space="preserve" font-family="Helvetica" font-size="21.2" fill="#4A4A4A" transform="matrix(1.00, 0.00, -0.00, -1.00, 159.3, 106.0)">t</text><text xml:space="preserve" font-family="Helvetica" font-size="21.2" fill="#4A4A4A" transform="matrix(1.00, 0.00, -0.00, -1.00, 165.6, 106.0)">t</text><text xml:space="preserve" font-family="Helvetica" font-size="21.2" fill="#4A4A4A" transform="matrix(1.00, 0.00, -0.00, -1.00, 172.2, 106.0)">e</text><text xml:space="preserve" font-family="Helvetica" font-size="21.2" fill="#4A4A4A" transform="matrix(1.00, 0.00, -0.00, -1.00, 184.8, 106.0)">r</text><text xml:space="preserve" font-family="Helvetica" font-size="21.2" fill="#4A4A4A" transform="matrix(1.00, 0.00, -0.00, -1.00, 192.6, 106.0)"> </text><text xml:space="preserve" font-family="Helvetica" font-size="21.2" fill="#4A4A4A" transform="matrix(1.00, 0.00, -0.00, -1.00, 199.2, 106.0)">n</text><text xml:space="preserve" font-family="Helvetica" font-size="21.2" fill="#4A4A4A" transform="matrix(1.00, 0.00, -0.00, -1.00, 211.7, 106.0)">e</text><text xml:space="preserve" font-family="Helvetica" font-size="21.2" fill="#4A4A4A" transform="matrix(1.00, 0.00, -0.00, -1.00, 224.2, 106.0)">w</text><text xml:space="preserve" font-family="Helvetica" font-size="21.2" fill="#4A4A4A" transform="matrix(1.00, 0.00, -0.00, -1.00, 240.3, 106.0)">s</text><text xml:space="preserve" font-family="Helvetica" font-size="21.2" fill="#4A4A4A" transform="matrix(1.00, 0.00, -0.00, -1.00, 251.6, 106.0)"> </text><text xml:space="preserve" font-family="Helvetica" font-size="21.2" fill="#4A4A4A" transform="matrix(1.00, 0.00, -0.00, -1.00, 258.2, 106.0)">c</text><text xml:space="preserve" font-family="Helvetica" font-size="21.2" fill="#4A4A4A" transform="matrix(1.00, 0.00, -0.00, -1.00, 269.6, 106.0)">o</text><text xml:space="preserve" font-family="Helvetica" font-size="21.2" fill="#4A4A4A" transform="matrix(1.00, 0.00, -0.00, -1.00, 282.1, 106.0)">n</text><text xml:space="preserve" font-family="Helvetica" font-size="21.2" fill="#4A4A4A" transform="matrix(1.00, 0.00, -0.00, -1.00, 294.6, 106.0)">s</text><text xml:space="preserve" font-family="Helvetica" font-size="21.2" fill="#4A4A4A" transform="matrix(1.00, 0.00, -0.00, -1.00, 306.0, 106.0)">u</text><text xml:space="preserve" font-family="Helvetica" font-size="21.2" fill="#4A4A4A" transform="matrix(1.00, 0.00, -0.00, -1.00, 318.5, 106.0)">m</text><text xml:space="preserve" font-family="Helvetica" font-size="21.2" fill="#4A4A4A" transform="matrix(1.00, 0.00, -0.00, -1.00, 336.9, 106.0)">p</text><text xml:space="preserve" font-family="Helvetica" font-size="21.2" fill="#4A4A4A" transform="matrix(1.00, 0.00, -0.00, -1.00, 349.4, 106.0)">t</text><text xml:space="preserve" font-family="Helvetica" font-size="21.2" fill="#4A4A4A" transform="matrix(1.00, 0.00, -0.00, -1.00, 356.0, 106.0)">i</text><text xml:space="preserve" font-family="Helvetica" font-size="21.2" fill="#4A4A4A" transform="matrix(1.00, 0.00, -0.00, -1.00, 361.4, 106.0)">o</text><text xml:space="preserve" font-family="Helvetica" font-size="21.2" fill="#4A4A4A" transform="matrix(1.00, 0.00, -0.00, -1.00, 374.0, 106.0)">n</text><text xml:space="preserve" font-family="Helvetica" font-size="21.2" fill="#4A4A4A" transform="matrix(1.00, 0.00, -0.00, -1.00, 386.5, 106.0)"> </text><text xml:space="preserve" font-family="Helvetica" font-size="21.2" fill="#4A4A4A" transform="matrix(1.00, 0.00, -0.00, -1.00, 393.1, 106.0)">h</text><text xml:space="preserve" font-family="Helvetica" font-size="21.2" fill="#4A4A4A" transform="matrix(1.00, 0.00, -0.00, -1.00, 405.6, 106.0)">a</text><text xml:space="preserve" font-family="Helvetica" font-size="21.2" fill="#4A4A4A" transform="matrix(1.00, 0.00, -0.00, -1.00, 418.2, 106.0)">b</text><text xml:space="preserve" font-family="Helvetica" font-size="21.2" fill="#4A4A4A" transform="matrix(1.00, 0.00, -0.00, -1.00, 430.7, 106.0)">i</text><text xml:space="preserve" font-family="Helvetica" font-size="21.2" fill="#4A4A4A" transform="matrix(1.00, 0.00, -0.00, -1.00, 436.1, 106.0)">t</text><text xml:space="preserve" font-family="Helvetica" font-size="21.2" fill="#4A4A4A" transform="matrix(1.00, 0.00, -0.00, -1.00, 442.8, 106.0)">s</text><text xml:space="preserve" font-family="Helvetica" font-size="21.2" fill="#4A4A4A" transform="matrix(1.00, 0.00, -0.00, -1.00, 454.1, 106.0)"> </text><text xml:space="preserve" font-family="Helvetica" font-size="21.2" fill="#4A4A4A" transform="matrix(1.00, 0.00, -0.00, -1.00, 460.7, 106.0)">b</text><text xml:space="preserve" font-family="Helvetica" font-size="21.2" fill="#4A4A4A" transform="matrix(1.00, 0.00, -0.00, -1.00, 473.2, 106.0)">y</text><text xml:space="preserve" font-family="Helvetica" font-size="21.2" fill="#4A4A4A" transform="matrix(1.00, 0.00, -0.00, -1.00, 484.5, 106.0)"> </text><text xml:space="preserve" font-family="Helvetica" font-size="21.2" fill="#4A4A4A" transform="matrix(1.00, 0.00, -0.00, -1.00, 491.1, 106.0)">s</text><text xml:space="preserve" font-family="Helvetica" font-size="21.2" fill="#4A4A4A" transform="matrix(1.00, 0.00, -0.00, -1.00, 502.4, 106.0)">e</text><text xml:space="preserve" font-family="Helvetica" font-size="21.2" fill="#4A4A4A" transform="matrix(1.00, 0.00, -0.00, -1.00, 515.0, 106.0)">a</text><text xml:space="preserve" font-family="Helvetica" font-size="21.2" fill="#4A4A4A" transform="matrix(1.00, 0.00, -0.00, -1.00, 527.5, 106.0)">m</text><text xml:space="preserve" font-family="Helvetica" font-size="21.2" fill="#4A4A4A" transform="matrix(1.00, 0.00, -0.00, -1.00, 545.9, 106.0)">l</text><text xml:space="preserve" font-family="Helvetica" font-size="21.2" fill="#4A4A4A" transform="matrix(1.00, 0.00, -0.00, -1.00, 551.3, 106.0)">e</text><text xml:space="preserve" font-family="Helvetica" font-size="21.2" fill="#4A4A4A" transform="matrix(1.00, 0.00, -0.00, -1.00, 563.9, 106.0)">s</text><text xml:space="preserve" font-family="Helvetica" font-size="21.2" fill="#4A4A4A" transform="matrix(1.00, 0.00, -0.00, -1.00, 575.1, 106.0)">s</text><text xml:space="preserve" font-family="Helvetica" font-size="21.2" fill="#4A4A4A" transform="matrix(1.00, 0.00, -0.00, -1.00, 586.4, 106.0)">l</text><text xml:space="preserve" font-family="Helvetica" font-size="21.2" fill="#4A4A4A" transform="matrix(1.00, 0.00, -0.00, -1.00, 591.8, 106.0)">y</text><text xml:space="preserve" font-family="Helvetica" font-size="21.2" fill="#4A4A4A" transform="matrix(1.00, 0.00, -0.00, -1.00, 603.1, 106.0)"> </text><text xml:space="preserve" font-family="Helvetica" font-size="21.2" fill="#4A4A4A" transform="matrix(1.00, 0.00, -0.00, -1.00, 1.0, 56.0)">i</text><text xml:space="preserve" font-family="Helvetica" font-size="21.2" fill="#4A4A4A" transform="matrix(1.00, 0.00, -0.00, -1.00, 6.4, 56.0)">n</text><text xml:space="preserve" font-family="Helvetica" font-size="21.2" fill="#4A4A4A" transform="matrix(1.00, 0.00, -0.00, -1.00, 19.0, 56.0)">f</text><text xml:space="preserve" font-family="Helvetica" font-size="21.2" fill="#4A4A4A" transform="matrix(1.00, 0.00, -0.00, -1.00, 25.6, 56.0)">o</text><text xml:space="preserve" font-family="Helvetica" font-size="21.2" fill="#4A4A4A" transform="matrix(1.00, 0.00, -0.00, -1.00, 38.1, 56.0)">r</text><text xml:space="preserve" font-family="Helvetica" font-size="21.2" fill="#4A4A4A" transform="matrix(1.00, 0.00, -0.00, -1.00, 45.9, 56.0)">m</text><text xml:space="preserve" font-family="Helvetica" font-size="21.2" fill="#4A4A4A" transform="matrix(1.00, 0.00, -0.00, -1.00, 64.3, 56.0)">i</text><text xml:space="preserve" font-family="Helvetica" font-size="21.2" fill="#4A4A4A" transform="matrix(1.00, 0.00, -0.00, -1.00, 69.7, 56.0)">n</text><text xml:space="preserve" font-family="Helvetica" font-size="21.2" fill="#4A4A4A" transform="matrix(1.00, 0.00, -0.00, -1.00, 82.3, 56.0)">g</text><text xml:space="preserve" font-family="Helvetica" font-size="21.2" fill="#4A4A4A" transform="matrix(1.00, 0.00, -0.00, -1.00, 94.8, 56.0)"> </text><text xml:space="preserve" font-family="Helvetica" font-size="21.2" fill="#4A4A4A" transform="matrix(1.00, 0.00, -0.00, -1.00, 101.4, 56.0)">s</text><text xml:space="preserve" font-family="Helvetica" font-size="21.2" fill="#4A4A4A" transform="matrix(1.00, 0.00, -0.00, -1.00, 112.7, 56.0)">t</text><text xml:space="preserve" font-family="Helvetica" font-size="21.2" fill="#4A4A4A" transform="matrix(1.00, 0.00, -0.00, -1.00, 119.3, 56.0)">u</text><text xml:space="preserve" font-family="Helvetica" font-size="21.2" fill="#4A4A4A" transform="matrix(1.00, 0.00, -0.00, -1.00, 131.9, 56.0)">d</text><text xml:space="preserve" font-family="Helvetica" font-size="21.2" fill="#4A4A4A" transform="matrix(1.00, 0.00, -0.00, -1.00, 144.4, 56.0)">e</text><text xml:space="preserve" font-family="Helvetica" font-size="21.2" fill="#4A4A4A" transform="matrix(1.00, 0.00, -0.00, -1.00, 156.9, 56.0)">n</text><text xml:space="preserve" font-family="Helvetica" font-size="21.2" fill="#4A4A4A" transform="matrix(1.00, 0.00, -0.00, -1.00, 169.5, 56.0)">t</text><text xml:space="preserve" font-family="Helvetica" font-size="21.2" fill="#4A4A4A" transform="matrix(1.00, 0.00, -0.00, -1.00, 176.1, 56.0)">s</text><text xml:space="preserve" font-family="Helvetica" font-size="21.2" fill="#4A4A4A" transform="matrix(1.00, 0.00, -0.00, -1.00, 187.4, 56.0)"> </text><text xml:space="preserve" font-family="Helvetica" font-size="21.2" fill="#4A4A4A" transform="matrix(1.00, 0.00, -0.00, -1.00, 194.0, 56.0)">o</text><text xml:space="preserve" font-family="Helvetica" font-size="21.2" fill="#4A4A4A" transform="matrix(1.00, 0.00, -0.00, -1.00, 206.5, 56.0)">n</text><text xml:space="preserve" font-family="Helvetica" font-size="21.2" fill="#4A4A4A" transform="matrix(1.00, 0.00, -0.00, -1.00, 219.1, 56.0)"> </text><text xml:space="preserve" font-family="Helvetica" font-size="21.2" fill="#4A4A4A" transform="matrix(1.00, 0.00, -0.00, -1.00, 225.7, 56.0)">h</text><text xml:space="preserve" font-family="Helvetica" font-size="21.2" fill="#4A4A4A" transform="matrix(1.00, 0.00, -0.00, -1.00, 238.2, 56.0)">o</text><text xml:space="preserve" font-family="Helvetica" font-size="21.2" fill="#4A4A4A" transform="matrix(1.00, 0.00, -0.00, -1.00, 250.6, 56.0)">w</text><text xml:space="preserve" font-family="Helvetica" font-size="21.2" fill="#4A4A4A" transform="matrix(1.00, 0.00, -0.00, -1.00, 266.7, 56.0)"> </text><text xml:space="preserve" font-family="Helvetica" font-size="21.2" fill="#4A4A4A" transform="matrix(1.00, 0.00, -0.00, -1.00, 273.3, 56.0)">t</text><text xml:space="preserve" font-family="Helvetica" font-size="21.2" fill="#4A4A4A" transform="matrix(1.00, 0.00, -0.00, -1.00, 279.9, 56.0)">o</text><text xml:space="preserve" font-family="Helvetica" font-size="21.2" fill="#4A4A4A" transform="matrix(1.00, 0.00, -0.00, -1.00, 292.5, 56.0)"> </text><text xml:space="preserve" font-family="Helvetica" font-size="21.2" fill="#4A4A4A" transform="matrix(1.00, 0.00, -0.00, -1.00, 299.1, 56.0)">e</text><text xml:space="preserve" font-family="Helvetica" font-size="21.2" fill="#4A4A4A" transform="matrix(1.00, 0.00, -0.00, -1.00, 311.6, 56.0)">v</text><text xml:space="preserve" font-family="Helvetica" font-size="21.2" fill="#4A4A4A" transform="matrix(1.00, 0.00, -0.00, -1.00, 322.8, 56.0)">a</text><text xml:space="preserve" font-family="Helvetica" font-size="21.2" fill="#4A4A4A" transform="matrix(1.00, 0.00, -0.00, -1.00, 335.3, 56.0)">l</text><text xml:space="preserve" font-family="Helvetica" font-size="21.2" fill="#4A4A4A" transform="matrix(1.00, 0.00, -0.00, -1.00, 340.8, 56.0)">u</text><text xml:space="preserve" font-family="Helvetica" font-size="21.2" fill="#4A4A4A" transform="matrix(1.00, 0.00, -0.00, -1.00, 353.3, 56.0)">a</text><text xml:space="preserve" font-family="Helvetica" font-size="21.2" fill="#4A4A4A" transform="matrix(1.00, 0.00, -0.00, -1.00, 365.8, 56.0)">t</text><text xml:space="preserve" font-family="Helvetica" font-size="21.2" fill="#4A4A4A" transform="matrix(1.00, 0.00, -0.00, -1.00, 372.4, 56.0)">e</text><text xml:space="preserve" font-family="Helvetica" font-size="21.2" fill="#4A4A4A" transform="matrix(1.00, 0.00, -0.00, -1.00, 385.0, 56.0)"> </text><text xml:space="preserve" font-family="Helvetica" font-size="21.2" fill="#4A4A4A" transform="matrix(1.00, 0.00, -0.00, -1.00, 391.6, 56.0)">j</text><text xml:space="preserve" font-family="Helvetica" font-size="21.2" fill="#4A4A4A" transform="matrix(1.00, 0.00, -0.00, -1.00, 397.0, 56.0)">o</text><text xml:space="preserve" font-family="Helvetica" font-size="21.2" fill="#4A4A4A" transform="matrix(1.00, 0.00, -0.00, -1.00, 409.6, 56.0)">u</text><text xml:space="preserve" font-family="Helvetica" font-size="21.2" fill="#4A4A4A" transform="matrix(1.00, 0.00, -0.00, -1.00, 422.1, 56.0)">r</text><text xml:space="preserve" font-family="Helvetica" font-size="21.2" fill="#4A4A4A" transform="matrix(1.00, 0.00, -0.00, -1.00, 429.9, 56.0)">n</text><text xml:space="preserve" font-family="Helvetica" font-size="21.2" fill="#4A4A4A" transform="matrix(1.00, 0.00, -0.00, -1.00, 442.4, 56.0)">a</text><text xml:space="preserve" font-family="Helvetica" font-size="21.2" fill="#4A4A4A" transform="matrix(1.00, 0.00, -0.00, -1.00, 454.9, 56.0)">l</text><text xml:space="preserve" font-family="Helvetica" font-size="21.2" fill="#4A4A4A" transform="matrix(1.00, 0.00, -0.00, -1.00, 460.4, 56.0)">i</text><text xml:space="preserve" font-family="Helvetica" font-size="21.2" fill="#4A4A4A" transform="matrix(1.00, 0.00, -0.00, -1.00, 465.8, 56.0)">s</text><text xml:space="preserve" font-family="Helvetica" font-size="21.2" fill="#4A4A4A" transform="matrix(1.00, 0.00, -0.00, -1.00, 477.1, 56.0)">t</text><text xml:space="preserve" font-family="Helvetica" font-size="21.2" fill="#4A4A4A" transform="matrix(1.00, 0.00, -0.00, -1.00, 483.7, 56.0)">i</text><text xml:space="preserve" font-family="Helvetica" font-size="21.2" fill="#4A4A4A" transform="matrix(1.00, 0.00, -0.00, -1.00, 489.2, 56.0)">c</text><text xml:space="preserve" font-family="Helvetica" font-size="21.2" fill="#4A4A4A" transform="matrix(1.00, 0.00, -0.00, -1.00, 500.5, 56.0)"> </text><text xml:space="preserve" font-family="Helvetica" font-size="21.2" fill="#4A4A4A" transform="matrix(1.00, 0.00, -0.00, -1.00, 507.1, 56.0)">c</text><text xml:space="preserve" font-family="Helvetica" font-size="21.2" fill="#4A4A4A" transform="matrix(1.00, 0.00, -0.00, -1.00, 518.4, 56.0)">r</text><text xml:space="preserve" font-family="Helvetica" font-size="21.2" fill="#4A4A4A" transform="matrix(1.00, 0.00, -0.00, -1.00, 525.8, 56.0)">e</text><text xml:space="preserve" font-family="Helvetica" font-size="21.2" fill="#4A4A4A" transform="matrix(1.00, 0.00, -0.00, -1.00, 538.4, 56.0)">d</text><text xml:space="preserve" font-family="Helvetica" font-size="21.2" fill="#4A4A4A" transform="matrix(1.00, 0.00, -0.00, -1.00, 550.9, 56.0)">i</text><text xml:space="preserve" font-family="Helvetica" font-size="21.2" fill="#4A4A4A" transform="matrix(1.00, 0.00, -0.00, -1.00, 556.3, 56.0)">b</text><text xml:space="preserve" font-family="Helvetica" font-size="21.2" fill="#4A4A4A" transform="matrix(1.00, 0.00, -0.00, -1.00, 568.8, 56.0)">l</text><text xml:space="preserve" font-family="Helvetica" font-size="21.2" fill="#4A4A4A" transform="matrix(1.00, 0.00, -0.00, -1.00, 574.3, 56.0)">i</text><text xml:space="preserve" font-family="Helvetica" font-size="21.2" fill="#4A4A4A" transform="matrix(1.00, 0.00, -0.00, -1.00, 579.7, 56.0)">t</text><text xml:space="preserve" font-family="Helvetica" font-size="21.2" fill="#4A4A4A" transform="matrix(1.00, 0.00, -0.00, -1.00, 586.1, 56.0)">y</text><text xml:space="preserve" font-family="Helvetica" font-size="21.2" fill="#4A4A4A" transform="matrix(1.00, 0.00, -0.00, -1.00, 597.4, 56.0)"> </text><text xml:space="preserve" font-family="Helvetica" font-size="21.2" fill="#4A4A4A" transform="matrix(1.00, 0.00, -0.00, -1.00, 1.0, 6.0)">w</text><text xml:space="preserve" font-family="Helvetica" font-size="21.2" fill="#4A4A4A" transform="matrix(1.00, 0.00, -0.00, -1.00, 17.1, 6.0)">h</text><text xml:space="preserve" font-family="Helvetica" font-size="21.2" fill="#4A4A4A" transform="matrix(1.00, 0.00, -0.00, -1.00, 29.6, 6.0)">i</text><text xml:space="preserve" font-family="Helvetica" font-size="21.2" fill="#4A4A4A" transform="matrix(1.00, 0.00, -0.00, -1.00, 35.0, 6.0)">l</text><text xml:space="preserve" font-family="Helvetica" font-size="21.2" fill="#4A4A4A" transform="matrix(1.00, 0.00, -0.00, -1.00, 40.4, 6.0)">e</text><text xml:space="preserve" font-family="Helvetica" font-size="21.2" fill="#4A4A4A" transform="matrix(1.00, 0.00, -0.00, -1.00, 53.0, 6.0)"> </text><text xml:space="preserve" font-family="Helvetica" font-size="21.2" fill="#4A4A4A" transform="matrix(1.00, 0.00, -0.00, -1.00, 59.6, 6.0)">t</text><text xml:space="preserve" font-family="Helvetica" font-size="21.2" fill="#4A4A4A" transform="matrix(1.00, 0.00, -0.00, -1.00, 66.2, 6.0)">h</text><text xml:space="preserve" font-family="Helvetica" font-size="21.2" fill="#4A4A4A" transform="matrix(1.00, 0.00, -0.00, -1.00, 78.7, 6.0)">e</text><text xml:space="preserve" font-family="Helvetica" font-size="21.2" fill="#4A4A4A" transform="matrix(1.00, 0.00, -0.00, -1.00, 91.2, 6.0)">y</text><text xml:space="preserve" font-family="Helvetica" font-size="21.2" fill="#4A4A4A" transform="matrix(1.00, 0.00, -0.00, -1.00, 102.6, 6.0)"> </text><text xml:space="preserve" font-family="Helvetica" font-size="21.2" fill="#4A4A4A" transform="matrix(1.00, 0.00, -0.00, -1.00, 109.2, 6.0)">e</text><text xml:space="preserve" font-family="Helvetica" font-size="21.2" fill="#4A4A4A" transform="matrix(1.00, 0.00, -0.00, -1.00, 121.7, 6.0)">n</text><text xml:space="preserve" font-family="Helvetica" font-size="21.2" fill="#4A4A4A" transform="matrix(1.00, 0.00, -0.00, -1.00, 134.2, 6.0)">g</text><text xml:space="preserve" font-family="Helvetica" font-size="21.2" fill="#4A4A4A" transform="matrix(1.00, 0.00, -0.00, -1.00, 146.6, 6.0)">a</text><text xml:space="preserve" font-family="Helvetica" font-size="21.2" fill="#4A4A4A" transform="matrix(1.00, 0.00, -0.00, -1.00, 159.2, 6.0)">g</text><text xml:space="preserve" font-family="Helvetica" font-size="21.2" fill="#4A4A4A" transform="matrix(1.00, 0.00, -0.00, -1.00, 171.7, 6.0)">e</text><text xml:space="preserve" font-family="Helvetica" font-size="21.2" fill="#4A4A4A" transform="matrix(1.00, 0.00, -0.00, -1.00, 184.2, 6.0)"> </text><text xml:space="preserve" font-family="Helvetica" font-size="21.2" fill="#4A4A4A" transform="matrix(1.00, 0.00, -0.00, -1.00, 190.8, 6.0)">w</text><text xml:space="preserve" font-family="Helvetica" font-size="21.2" fill="#4A4A4A" transform="matrix(1.00, 0.00, -0.00, -1.00, 206.9, 6.0)">i</text><text xml:space="preserve" font-family="Helvetica" font-size="21.2" fill="#4A4A4A" transform="matrix(1.00, 0.00, -0.00, -1.00, 212.3, 6.0)">t</text><text xml:space="preserve" font-family="Helvetica" font-size="21.2" fill="#4A4A4A" transform="matrix(1.00, 0.00, -0.00, -1.00, 218.9, 6.0)">h</text><text xml:space="preserve" font-family="Helvetica" font-size="21.2" fill="#4A4A4A" transform="matrix(1.00, 0.00, -0.00, -1.00, 231.4, 6.0)"> </text><text xml:space="preserve" font-family="Helvetica" font-size="21.2" fill="#4A4A4A" transform="matrix(1.00, 0.00, -0.00, -1.00, 238.1, 6.0)">f</text><text xml:space="preserve" font-family="Helvetica" font-size="21.2" fill="#4A4A4A" transform="matrix(1.00, 0.00, -0.00, -1.00, 244.7, 6.0)">u</text><text xml:space="preserve" font-family="Helvetica" font-size="21.2" fill="#4A4A4A" transform="matrix(1.00, 0.00, -0.00, -1.00, 257.2, 6.0)">l</text><text xml:space="preserve" font-family="Helvetica" font-size="21.2" fill="#4A4A4A" transform="matrix(1.00, 0.00, -0.00, -1.00, 262.8, 6.0)">l</text><text xml:space="preserve" font-family="Helvetica" font-size="21.2" fill="#4A4A4A" transform="matrix(1.00, 0.00, -0.00, -1.00, 268.3, 6.0)"> </text><text xml:space="preserve" font-family="Helvetica" font-size="21.2" fill="#4A4A4A" transform="matrix(1.00, 0.00, -0.00, -1.00, 274.9, 6.0)">l</text><text xml:space="preserve" font-family="Helvetica" font-size="21.2" fill="#4A4A4A" transform="matrix(1.00, 0.00, -0.00, -1.00, 280.3, 6.0)">e</text><text xml:space="preserve" font-family="Helvetica" font-size="21.2" fill="#4A4A4A" transform="matrix(1.00, 0.00, -0.00, -1.00, 292.8, 6.0)">n</text><text xml:space="preserve" font-family="Helvetica" font-size="21.2" fill="#4A4A4A" transform="matrix(1.00, 0.00, -0.00, -1.00, 305.4, 6.0)">g</text><text xml:space="preserve" font-family="Helvetica" font-size="21.2" fill="#4A4A4A" transform="matrix(1.00, 0.00, -0.00, -1.00, 317.9, 6.0)">t</text><text xml:space="preserve" font-family="Helvetica" font-size="21.2" fill="#4A4A4A" transform="matrix(1.00, 0.00, -0.00, -1.00, 324.5, 6.0)">h</text><text xml:space="preserve" font-family="Helvetica" font-size="21.2" fill="#4A4A4A" transform="matrix(1.00, 0.00, -0.00, -1.00, 337.0, 6.0)"> </text><text xml:space="preserve" font-family="Helvetica" font-size="21.2" fill="#4A4A4A" transform="matrix(1.00, 0.00, -0.00, -1.00, 343.6, 6.0)">a</text><text xml:space="preserve" font-family="Helvetica" font-size="21.2" fill="#4A4A4A" transform="matrix(1.00, 0.00, -0.00, -1.00, 356.2, 6.0)">r</text><text xml:space="preserve" font-family="Helvetica" font-size="21.2" fill="#4A4A4A" transform="matrix(1.00, 0.00, -0.00, -1.00, 363.9, 6.0)">t</text><text xml:space="preserve" font-family="Helvetica" font-size="21.2" fill="#4A4A4A" transform="matrix(1.00, 0.00, -0.00, -1.00, 370.5, 6.0)">i</text><text xml:space="preserve" font-family="Helvetica" font-size="21.2" fill="#4A4A4A" transform="matrix(1.00, 0.00, -0.00, -1.00, 376.0, 6.0)">c</text><text xml:space="preserve" font-family="Helvetica" font-size="21.2" fill="#4A4A4A" transform="matrix(1.00, 0.00, -0.00, -1.00, 387.3, 6.0)">l</text><text xml:space="preserve" font-family="Helvetica" font-size="21.2" fill="#4A4A4A" transform="matrix(1.00, 0.00, -0.00, -1.00, 392.7, 6.0)">e</text><text xml:space="preserve" font-family="Helvetica" font-size="21.2" fill="#4A4A4A" transform="matrix(1.00, 0.00, -0.00, -1.00, 405.3, 6.0)">s</text></g></g><g><clipPath id="clip-223"><path d="M 1.0 172.0 L 566.0 172.0 L 566.0 186.0 L 1.0 186.0 Z M 1.0 172.0 "></path></clipPath><g clip-path="url(#clip-223)"><text xml:space="preserve" font-family="Helvetica" font-size="17.5" fill="#4A4A4A" transform="matrix(1.00, 0.00, -0.00, -1.00, 1.0, 172.2)">E</text><text xml:space="preserve" font-family="Helvetica" font-size="17.5" fill="#4A4A4A" transform="matrix(1.00, 0.00, -0.00, -1.00, 17.4, 172.2)">V</text><text xml:space="preserve" font-family="Helvetica" font-size="17.5" fill="#4A4A4A" transform="matrix(1.00, 0.00, -0.00, -1.00, 32.8, 172.2)">A</text><text xml:space="preserve" font-family="Helvetica" font-size="17.5" fill="#4A4A4A" transform="matrix(1.00, 0.00, -0.00, -1.00, 49.2, 172.2)">L</text><text xml:space="preserve" font-family="Helvetica" font-size="17.5" fill="#4A4A4A" transform="matrix(1.00, 0.00, -0.00, -1.00, 63.2, 172.2)">U</text><text xml:space="preserve" font-family="Helvetica" font-size="17.5" fill="#4A4A4A" transform="matrix(1.00, 0.00, -0.00, -1.00, 79.9, 172.2)">A</text><text xml:space="preserve" font-family="Helvetica" font-size="17.5" fill="#4A4A4A" transform="matrix(1.00, 0.00, -0.00, -1.00, 95.2, 172.2)">T</text><text xml:space="preserve" font-family="Helvetica" font-size="17.5" fill="#4A4A4A" transform="matrix(1.00, 0.00, -0.00, -1.00, 110.6, 172.2)">I</text><text xml:space="preserve" font-family="Helvetica" font-size="17.5" fill="#4A4A4A" transform="matrix(1.00, 0.00, -0.00, -1.00, 120.1, 172.2)">N</text><text xml:space="preserve" font-family="Helvetica" font-size="17.5" fill="#4A4A4A" transform="matrix(1.00, 0.00, -0.00, -1.00, 137.5, 172.2)">G</text><text xml:space="preserve" font-family="Helvetica" font-size="17.5" fill="#4A4A4A" transform="matrix(1.00, 0.00, -0.00, -1.00, 155.8, 172.2)"> </text><text xml:space="preserve" font-family="Helvetica" font-size="17.5" fill="#4A4A4A" transform="matrix(1.00, 0.00, -0.00, -1.00, 165.4, 172.2)">J</text><text xml:space="preserve" font-family="Helvetica" font-size="17.5" fill="#4A4A4A" transform="matrix(1.00, 0.00, -0.00, -1.00, 178.9, 172.2)">O</text><text xml:space="preserve" font-family="Helvetica" font-size="17.5" fill="#4A4A4A" transform="matrix(1.00, 0.00, -0.00, -1.00, 197.2, 172.2)">U</text><text xml:space="preserve" font-family="Helvetica" font-size="17.5" fill="#4A4A4A" transform="matrix(1.00, 0.00, -0.00, -1.00, 214.5, 172.2)">R</text><text xml:space="preserve" font-family="Helvetica" font-size="17.5" fill="#4A4A4A" transform="matrix(1.00, 0.00, -0.00, -1.00, 231.9, 172.2)">N</text><text xml:space="preserve" font-family="Helvetica" font-size="17.5" fill="#4A4A4A" transform="matrix(1.00, 0.00, -0.00, -1.00, 249.1, 172.2)">A</text><text xml:space="preserve" font-family="Helvetica" font-size="17.5" fill="#4A4A4A" transform="matrix(1.00, 0.00, -0.00, -1.00, 265.5, 172.2)">L</text><text xml:space="preserve" font-family="Helvetica" font-size="17.5" fill="#4A4A4A" transform="matrix(1.00, 0.00, -0.00, -1.00, 279.9, 172.2)">I</text><text xml:space="preserve" font-family="Helvetica" font-size="17.5" fill="#4A4A4A" transform="matrix(1.00, 0.00, -0.00, -1.00, 289.5, 172.2)">S</text><text xml:space="preserve" font-family="Helvetica" font-size="17.5" fill="#4A4A4A" transform="matrix(1.00, 0.00, -0.00, -1.00, 305.6, 172.2)">T</text><text xml:space="preserve" font-family="Helvetica" font-size="17.5" fill="#4A4A4A" transform="matrix(1.00, 0.00, -0.00, -1.00, 321.0, 172.2)">I</text><text xml:space="preserve" font-family="Helvetica" font-size="17.5" fill="#4A4A4A" transform="matrix(1.00, 0.00, -0.00, -1.00, 330.6, 172.2)">C</text><text xml:space="preserve" font-family="Helvetica" font-size="17.5" fill="#4A4A4A" transform="matrix(1.00, 0.00, -0.00, -1.00, 347.9, 172.2)"> </text><text xml:space="preserve" font-family="Helvetica" font-size="17.5" fill="#4A4A4A" transform="matrix(1.00, 0.00, -0.00, -1.00, 357.5, 172.2)">C</text><text xml:space="preserve" font-family="Helvetica" font-size="17.5" fill="#4A4A4A" transform="matrix(1.00, 0.00, -0.00, -1.00, 374.9, 172.2)">R</text><text xml:space="preserve" font-family="Helvetica" font-size="17.5" fill="#4A4A4A" transform="matrix(1.00, 0.00, -0.00, -1.00, 392.2, 172.2)">E</text><text xml:space="preserve" font-family="Helvetica" font-size="17.5" fill="#4A4A4A" transform="matrix(1.00, 0.00, -0.00, -1.00, 408.6, 172.2)">D</text><text xml:space="preserve" font-family="Helvetica" font-size="17.5" fill="#4A4A4A" transform="matrix(1.00, 0.00, -0.00, -1.00, 426.0, 172.2)">I</text><text xml:space="preserve" font-family="Helvetica" font-size="17.5" fill="#4A4A4A" transform="matrix(1.00, 0.00, -0.00, -1.00, 435.5, 172.2)">B</text><text xml:space="preserve" font-family="Helvetica" font-size="17.5" fill="#4A4A4A" transform="matrix(1.00, 0.00, -0.00, -1.00, 451.9, 172.2)">I</text><text xml:space="preserve" font-family="Helvetica" font-size="17.5" fill="#4A4A4A" transform="matrix(1.00, 0.00, -0.00, -1.00, 461.5, 172.2)">L</text><text xml:space="preserve" font-family="Helvetica" font-size="17.5" fill="#4A4A4A" transform="matrix(1.00, 0.00, -0.00, -1.00, 476.0, 172.2)">I</text><text xml:space="preserve" font-family="Helvetica" font-size="17.5" fill="#4A4A4A" transform="matrix(1.00, 0.00, -0.00, -1.00, 485.5, 172.2)">T</text><text xml:space="preserve" font-family="Helvetica" font-size="17.5" fill="#4A4A4A" transform="matrix(1.00, 0.00, -0.00, -1.00, 500.9, 172.2)">Y</text></g></g></g></svg>