<?xml version="1.0" encoding="UTF-8" standalone="no"?><svg xmlns="http://www.w3.org/2000/svg" xmlns:xlink="http://www.w3.org/1999/xlink" clip-rule="evenodd" stroke-miterlimit="4.00" viewBox="0 0 1074 86"><desc>SVG generated by Keynote</desc><defs></defs><g transform="matrix(1.00, 0.00, -0.00, -1.00, 0.0, 86.0)"><g><clipPath id="clip-79"><path d="M 1.0 1.0 L 1072.0 1.0 L 1072.0 84.0 L 1.0 84.0 Z M 1.0 1.0 "></path></clipPath><g clip-path="url(#clip-79)"><path d="M 6.0 4.0 L 6.0 62.1 " fill="none" stroke="#D0D0D0" stroke-width="5.00" stroke-miterlimit="0.00" stroke-linecap="round" transform="matrix(0.39, 0.00, 0.00, -0.39, 278.6, 54.5)"></path><path d="M 6.0 4.0 L 6.0 62.1 " fill="none" stroke="#D0D0D0" stroke-width="5.00" stroke-miterlimit="0.00" stroke-linecap="round" transform="matrix(0.39, 0.00, 0.00, -0.39, 301.9, 54.5)"></path><path d="M 6.0 4.0 L 6.0 62.1 " fill="none" stroke="#D0D0D0" stroke-width="5.00" stroke-miterlimit="0.00" stroke-linecap="round" transform="matrix(0.39, 0.00, 0.00, -0.39, 325.1, 54.5)"></path><path d="M 6.0 2.0 L 6.0 110.0 " fill="none" stroke="#B2B2B2" stroke-width="6.00" stroke-miterlimit="0.00" stroke-linecap="round" transform="matrix(0.39, 0.00, 0.00, -0.39, 348.3, 63.8)"></path><path d="M 6.0 2.0 L 6.0 110.0 " fill="none" stroke="#B2B2B2" stroke-width="6.00" stroke-miterlimit="0.00" stroke-linecap="round" transform="matrix(0.39, 0.00, 0.00, -0.39, 348.3, 63.8)"></path><path d="M 6.0 2.0 L 6.0 110.0 " fill="none" stroke="#B2B2B2" stroke-width="6.00" stroke-miterlimit="0.00" stroke-linecap="round" transform="matrix(0.39, 0.00, 0.00, -0.39, 441.2, 63.8)"></path><path d="M 6.0 4.0 L 6.0 62.1 " fill="none" stroke="#D0D0D0" stroke-width="5.00" stroke-miterlimit="0.00" stroke-linecap="round" transform="matrix(0.39, 0.00, 0.00, -0.39, 371.6, 54.5)"></path><path d="M 6.0 4.0 L 6.0 62.1 " fill="none" stroke="#D0D0D0" stroke-width="5.00" stroke-miterlimit="0.00" stroke-linecap="round" transform="matrix(0.39, 0.00, 0.00, -0.39, 394.8, 54.5)"></path><path d="M 6.0 4.0 L 6.0 62.1 " fill="none" stroke="#D0D0D0" stroke-width="5.00" stroke-miterlimit="0.00" stroke-linecap="round" transform="matrix(0.39, 0.00, 0.00, -0.39, 418.0, 54.5)"></path><path d="M 6.0 4.0 L 6.0 62.1 " fill="none" stroke="#D0D0D0" stroke-width="5.00" stroke-miterlimit="0.00" stroke-linecap="round" transform="matrix(0.39, 0.00, 0.00, -0.39, 464.5, 54.5)"></path><path d="M 6.0 4.0 L 6.0 62.1 " fill="none" stroke="#D0D0D0" stroke-width="5.00" stroke-miterlimit="0.00" stroke-linecap="round" transform="matrix(0.39, 0.00, 0.00, -0.39, 487.7, 54.5)"></path><path d="M 6.0 4.0 L 6.0 62.1 " fill="none" stroke="#D0D0D0" stroke-width="5.00" stroke-miterlimit="0.00" stroke-linecap="round" transform="matrix(0.39, 0.00, 0.00, -0.39, 510.9, 54.5)"></path><path d="M 6.0 2.0 L 6.0 110.0 " fill="none" stroke="#B2B2B2" stroke-width="6.00" stroke-miterlimit="0.00" stroke-linecap="round" transform="matrix(0.39, 0.00, 0.00, -0.39, 255.4, 63.8)"></path></g></g><g><clipPath id="clip-80"><path d="M 257.7 38.2 C 259.4 38.2 260.8 39.6 260.8 41.3 C 260.8 43.1 259.4 44.4 257.7 44.4 C 256.0 44.4 254.6 43.1 254.6 41.3 C 254.6 39.6 256.0 38.2 257.7 38.2 Z M 257.7 38.2 "></path></clipPath><g clip-path="url(#clip-80)"><g><clipPath id="clip-81"><path d="M 1.0 1.0 L 1072.0 1.0 L 1072.0 84.0 L 1.0 84.0 Z M 1.0 1.0 "></path></clipPath><g clip-path="url(#clip-81)"><path d="M 253.5 37.1 L 262.0 37.1 L 262.0 45.6 L 253.5 45.6 Z M 253.5 37.1 " fill="#FCFCFC"></path></g></g></g></g><g><clipPath id="clip-82"><path d="M 250.0 49.1 L 265.5 49.1 L 265.5 33.6 L 250.0 33.6 Z M 257.7 39.0 C 259.0 39.0 260.0 40.1 260.0 41.3 C 260.0 42.6 259.0 43.7 257.7 43.7 C 256.4 43.7 255.4 42.6 255.4 41.3 C 255.4 40.1 256.4 39.0 257.7 39.0 Z M 257.7 39.0 "></path></clipPath><g clip-path="url(#clip-82)"><g><clipPath id="clip-83"><path d="M 1.0 1.0 L 1072.0 1.0 L 1072.0 84.0 L 1.0 84.0 Z M 1.0 1.0 "></path></clipPath><g clip-path="url(#clip-83)"><path d="M 6.0 12.0 C 9.3 12.0 12.0 9.3 12.0 6.0 C 12.0 2.7 9.3 0.0 6.0 0.0 C 2.7 0.0 0.0 2.7 0.0 6.0 C 0.0 9.3 2.7 12.0 6.0 12.0 Z M 6.0 12.0 " fill="none" stroke="#B1B1B1" stroke-width="8.00" stroke-miterlimit="0.00" transform="matrix(0.39, 0.00, 0.00, -0.39, 255.4, 43.7)"></path></g></g></g></g><g><clipPath id="clip-84"><path d="M 1.0 1.0 L 1072.0 1.0 L 1072.0 84.0 L 1.0 84.0 Z M 1.0 1.0 "></path></clipPath><g clip-path="url(#clip-84)"><path d="M 6.0 4.0 L 6.0 62.1 " fill="none" stroke="#D0D0D0" stroke-width="5.00" stroke-miterlimit="0.00" stroke-linecap="round" transform="matrix(0.39, 0.00, 0.00, -0.39, 278.6, 54.5)"></path><path d="M 6.0 4.0 L 6.0 62.1 " fill="none" stroke="#D0D0D0" stroke-width="5.00" stroke-miterlimit="0.00" stroke-linecap="round" transform="matrix(0.39, 0.00, 0.00, -0.39, 301.9, 54.5)"></path><path d="M 6.0 4.0 L 6.0 62.1 " fill="none" stroke="#D0D0D0" stroke-width="5.00" stroke-miterlimit="0.00" stroke-linecap="round" transform="matrix(0.39, 0.00, 0.00, -0.39, 325.1, 54.5)"></path><path d="M 6.0 2.0 L 6.0 110.0 " fill="none" stroke="#B2B2B2" stroke-width="6.00" stroke-miterlimit="0.00" stroke-linecap="round" transform="matrix(0.39, 0.00, 0.00, -0.39, 348.3, 63.8)"></path><path d="M 6.0 2.0 L 6.0 110.0 " fill="none" stroke="#B2B2B2" stroke-width="6.00" stroke-miterlimit="0.00" stroke-linecap="round" transform="matrix(0.39, 0.00, 0.00, -0.39, 348.3, 63.8)"></path><path d="M 6.0 2.0 L 6.0 110.0 " fill="none" stroke="#B2B2B2" stroke-width="6.00" stroke-miterlimit="0.00" stroke-linecap="round" transform="matrix(0.39, 0.00, 0.00, -0.39, 441.2, 63.8)"></path><path d="M 6.0 4.0 L 6.0 62.1 " fill="none" stroke="#D0D0D0" stroke-width="5.00" stroke-miterlimit="0.00" stroke-linecap="round" transform="matrix(0.39, 0.00, 0.00, -0.39, 371.6, 54.5)"></path><path d="M 6.0 4.0 L 6.0 62.1 " fill="none" stroke="#D0D0D0" stroke-width="5.00" stroke-miterlimit="0.00" stroke-linecap="round" transform="matrix(0.39, 0.00, 0.00, -0.39, 394.8, 54.5)"></path><path d="M 6.0 4.0 L 6.0 62.1 " fill="none" stroke="#D0D0D0" stroke-width="5.00" stroke-miterlimit="0.00" stroke-linecap="round" transform="matrix(0.39, 0.00, 0.00, -0.39, 418.0, 54.5)"></path><path d="M 6.0 4.0 L 6.0 62.1 " fill="none" stroke="#D0D0D0" stroke-width="5.00" stroke-miterlimit="0.00" stroke-linecap="round" transform="matrix(0.39, 0.00, 0.00, -0.39, 464.5, 54.5)"></path><path d="M 6.0 4.0 L 6.0 62.1 " fill="none" stroke="#D0D0D0" stroke-width="5.00" stroke-miterlimit="0.00" stroke-linecap="round" transform="matrix(0.39, 0.00, 0.00, -0.39, 487.7, 54.5)"></path><path d="M 6.0 4.0 L 6.0 62.1 " fill="none" stroke="#D0D0D0" stroke-width="5.00" stroke-miterlimit="0.00" stroke-linecap="round" transform="matrix(0.39, 0.00, 0.00, -0.39, 510.9, 54.5)"></path></g></g><g><clipPath id="clip-85"><path d="M 350.6 38.2 C 352.4 38.2 353.7 39.6 353.7 41.3 C 353.7 43.1 352.4 44.4 350.6 44.4 C 348.9 44.4 347.5 43.1 347.5 41.3 C 347.5 39.6 348.9 38.2 350.6 38.2 Z M 350.6 38.2 "></path></clipPath><g clip-path="url(#clip-85)"><g><clipPath id="clip-86"><path d="M 1.0 1.0 L 1072.0 1.0 L 1072.0 84.0 L 1.0 84.0 Z M 1.0 1.0 "></path></clipPath><g clip-path="url(#clip-86)"><path d="M 346.4 37.1 L 354.9 37.1 L 354.9 45.6 L 346.4 45.6 Z M 346.4 37.1 " fill="#FCFCFC"></path></g></g></g></g><g><clipPath id="clip-87"><path d="M 342.9 49.1 L 358.4 49.1 L 358.4 33.6 L 342.9 33.6 Z M 350.6 39.0 C 351.9 39.0 353.0 40.1 353.0 41.3 C 353.0 42.6 351.9 43.7 350.6 43.7 C 349.4 43.7 348.3 42.6 348.3 41.3 C 348.3 40.1 349.4 39.0 350.6 39.0 Z M 350.6 39.0 "></path></clipPath><g clip-path="url(#clip-87)"><g><clipPath id="clip-88"><path d="M 1.0 1.0 L 1072.0 1.0 L 1072.0 84.0 L 1.0 84.0 Z M 1.0 1.0 "></path></clipPath><g clip-path="url(#clip-88)"><path d="M 6.0 12.0 C 9.3 12.0 12.0 9.3 12.0 6.0 C 12.0 2.7 9.3 0.0 6.0 0.0 C 2.7 0.0 0.0 2.7 0.0 6.0 C 0.0 9.3 2.7 12.0 6.0 12.0 Z M 6.0 12.0 " fill="none" stroke="#B1B1B1" stroke-width="8.00" stroke-miterlimit="0.00" transform="matrix(0.39, 0.00, 0.00, -0.39, 348.3, 43.7)"></path></g></g></g></g><g><clipPath id="clip-89"><path d="M 443.6 38.2 C 445.3 38.2 446.7 39.6 446.7 41.3 C 446.7 43.1 445.3 44.4 443.6 44.4 C 441.9 44.4 440.5 43.1 440.5 41.3 C 440.5 39.6 441.9 38.2 443.6 38.2 Z M 443.6 38.2 "></path></clipPath><g clip-path="url(#clip-89)"><g><clipPath id="clip-90"><path d="M 1.0 1.0 L 1072.0 1.0 L 1072.0 84.0 L 1.0 84.0 Z M 1.0 1.0 "></path></clipPath><g clip-path="url(#clip-90)"><path d="M 439.3 37.1 L 447.8 37.1 L 447.8 45.6 L 439.3 45.6 Z M 439.3 37.1 " fill="#FCFCFC"></path></g></g></g></g><g><clipPath id="clip-91"><path d="M 435.8 49.1 L 451.3 49.1 L 451.3 33.6 L 435.8 33.6 Z M 443.6 39.0 C 444.9 39.0 445.9 40.1 445.9 41.3 C 445.9 42.6 444.9 43.7 443.6 43.7 C 442.3 43.7 441.2 42.6 441.2 41.3 C 441.2 40.1 442.3 39.0 443.6 39.0 Z M 443.6 39.0 "></path></clipPath><g clip-path="url(#clip-91)"><g><clipPath id="clip-92"><path d="M 1.0 1.0 L 1072.0 1.0 L 1072.0 84.0 L 1.0 84.0 Z M 1.0 1.0 "></path></clipPath><g clip-path="url(#clip-92)"><path d="M 6.0 12.0 C 9.3 12.0 12.0 9.3 12.0 6.0 C 12.0 2.7 9.3 0.0 6.0 0.0 C 2.7 0.0 0.0 2.7 0.0 6.0 C 0.0 9.3 2.7 12.0 6.0 12.0 Z M 6.0 12.0 " fill="none" stroke="#B1B1B1" stroke-width="8.00" stroke-miterlimit="0.00" transform="matrix(0.39, 0.00, 0.00, -0.39, 441.2, 43.7)"></path></g></g></g></g><g><clipPath id="clip-93"><path d="M 1.0 1.0 L 1072.0 1.0 L 1072.0 84.0 L 1.0 84.0 Z M 1.0 1.0 "></path></clipPath><g clip-path="url(#clip-93)"><path d="M 6.0 2.0 L 6.0 110.0 " fill="none" stroke="#B2B2B2" stroke-width="6.00" stroke-miterlimit="0.00" stroke-linecap="round" transform="matrix(0.39, 0.00, 0.00, -0.39, 534.2, 63.8)"></path></g></g><g><clipPath id="clip-94"><path d="M 536.5 38.2 C 538.2 38.2 539.6 39.6 539.6 41.3 C 539.6 43.1 538.2 44.4 536.5 44.4 C 534.8 44.4 533.4 43.1 533.4 41.3 C 533.4 39.6 534.8 38.2 536.5 38.2 Z M 536.5 38.2 "></path></clipPath><g clip-path="url(#clip-94)"><g><clipPath id="clip-95"><path d="M 1.0 1.0 L 1072.0 1.0 L 1072.0 84.0 L 1.0 84.0 Z M 1.0 1.0 "></path></clipPath><g clip-path="url(#clip-95)"><path d="M 532.2 37.1 L 540.8 37.1 L 540.8 45.6 L 532.2 45.6 Z M 532.2 37.1 " fill="#FCFCFC"></path></g></g></g></g><g><clipPath id="clip-96"><path d="M 528.8 49.1 L 544.2 49.1 L 544.2 33.6 L 528.8 33.6 Z M 536.5 39.0 C 537.8 39.0 538.8 40.1 538.8 41.3 C 538.8 42.6 537.8 43.7 536.5 43.7 C 535.2 43.7 534.2 42.6 534.2 41.3 C 534.2 40.1 535.2 39.0 536.5 39.0 Z M 536.5 39.0 "></path></clipPath><g clip-path="url(#clip-96)"><g><clipPath id="clip-97"><path d="M 1.0 1.0 L 1072.0 1.0 L 1072.0 84.0 L 1.0 84.0 Z M 1.0 1.0 "></path></clipPath><g clip-path="url(#clip-97)"><path d="M 6.0 12.0 C 9.3 12.0 12.0 9.3 12.0 6.0 C 12.0 2.7 9.3 0.0 6.0 0.0 C 2.7 0.0 0.0 2.7 0.0 6.0 C 0.0 9.3 2.7 12.0 6.0 12.0 Z M 6.0 12.0 " fill="none" stroke="#B1B1B1" stroke-width="8.00" stroke-miterlimit="0.00" transform="matrix(0.39, 0.00, 0.00, -0.39, 534.2, 43.7)"></path></g></g></g></g><g><clipPath id="clip-98"><path d="M 1.0 1.0 L 1072.0 1.0 L 1072.0 84.0 L 1.0 84.0 Z M 1.0 1.0 "></path></clipPath><g clip-path="url(#clip-98)"><path d="M 6.0 4.0 L 6.0 62.1 " fill="none" stroke="#D0D0D0" stroke-width="5.00" stroke-miterlimit="0.00" stroke-linecap="round" transform="matrix(0.39, 0.00, 0.00, -0.39, -0.2, 54.5)"></path><path d="M 6.0 4.0 L 6.0 62.1 " fill="none" stroke="#D0D0D0" stroke-width="5.00" stroke-miterlimit="0.00" stroke-linecap="round" transform="matrix(0.39, 0.00, 0.00, -0.39, 23.1, 54.5)"></path><path d="M 6.0 4.0 L 6.0 62.1 " fill="none" stroke="#D0D0D0" stroke-width="5.00" stroke-miterlimit="0.00" stroke-linecap="round" transform="matrix(0.39, 0.00, 0.00, -0.39, 46.3, 54.5)"></path><path d="M 6.0 2.0 L 6.0 110.0 " fill="none" stroke="#B2B2B2" stroke-width="6.00" stroke-miterlimit="0.00" stroke-linecap="round" transform="matrix(0.39, 0.00, 0.00, -0.39, 69.5, 63.8)"></path><path d="M 6.0 2.0 L 6.0 110.0 " fill="none" stroke="#B2B2B2" stroke-width="6.00" stroke-miterlimit="0.00" stroke-linecap="round" transform="matrix(0.39, 0.00, 0.00, -0.39, 69.5, 63.8)"></path><path d="M 6.0 2.0 L 6.0 110.0 " fill="none" stroke="#B2B2B2" stroke-width="6.00" stroke-miterlimit="0.00" stroke-linecap="round" transform="matrix(0.39, 0.00, 0.00, -0.39, 162.5, 63.8)"></path><path d="M 6.0 4.0 L 6.0 62.1 " fill="none" stroke="#D0D0D0" stroke-width="5.00" stroke-miterlimit="0.00" stroke-linecap="round" transform="matrix(0.39, 0.00, 0.00, -0.39, 92.8, 54.5)"></path><path d="M 6.0 4.0 L 6.0 62.1 " fill="none" stroke="#D0D0D0" stroke-width="5.00" stroke-miterlimit="0.00" stroke-linecap="round" transform="matrix(0.39, 0.00, 0.00, -0.39, 116.0, 54.5)"></path><path d="M 6.0 4.0 L 6.0 62.1 " fill="none" stroke="#D0D0D0" stroke-width="5.00" stroke-miterlimit="0.00" stroke-linecap="round" transform="matrix(0.39, 0.00, 0.00, -0.39, 139.2, 54.5)"></path><path d="M 6.0 4.0 L 6.0 62.1 " fill="none" stroke="#D0D0D0" stroke-width="5.00" stroke-miterlimit="0.00" stroke-linecap="round" transform="matrix(0.39, 0.00, 0.00, -0.39, 185.7, 54.5)"></path><path d="M 6.0 4.0 L 6.0 62.1 " fill="none" stroke="#D0D0D0" stroke-width="5.00" stroke-miterlimit="0.00" stroke-linecap="round" transform="matrix(0.39, 0.00, 0.00, -0.39, 208.9, 54.5)"></path><path d="M 6.0 4.0 L 6.0 62.1 " fill="none" stroke="#D0D0D0" stroke-width="5.00" stroke-miterlimit="0.00" stroke-linecap="round" transform="matrix(0.39, 0.00, 0.00, -0.39, 232.2, 54.5)"></path></g></g><g><clipPath id="clip-99"><path d="M 71.9 38.2 C 73.6 38.2 75.0 39.6 75.0 41.3 C 75.0 43.1 73.6 44.4 71.9 44.4 C 70.1 44.4 68.8 43.1 68.8 41.3 C 68.8 39.6 70.1 38.2 71.9 38.2 Z M 71.9 38.2 "></path></clipPath><g clip-path="url(#clip-99)"><g><clipPath id="clip-100"><path d="M 1.0 1.0 L 1072.0 1.0 L 1072.0 84.0 L 1.0 84.0 Z M 1.0 1.0 "></path></clipPath><g clip-path="url(#clip-100)"><path d="M 67.6 37.1 L 76.1 37.1 L 76.1 45.6 L 67.6 45.6 Z M 67.6 37.1 " fill="#FCFCFC"></path></g></g></g></g><g><clipPath id="clip-101"><path d="M 64.1 49.1 L 79.6 49.1 L 79.6 33.6 L 64.1 33.6 Z M 71.9 39.0 C 73.1 39.0 74.2 40.1 74.2 41.3 C 74.2 42.6 73.1 43.7 71.9 43.7 C 70.6 43.7 69.5 42.6 69.5 41.3 C 69.5 40.1 70.6 39.0 71.9 39.0 Z M 71.9 39.0 "></path></clipPath><g clip-path="url(#clip-101)"><g><clipPath id="clip-102"><path d="M 1.0 1.0 L 1072.0 1.0 L 1072.0 84.0 L 1.0 84.0 Z M 1.0 1.0 "></path></clipPath><g clip-path="url(#clip-102)"><path d="M 6.0 12.0 C 9.3 12.0 12.0 9.3 12.0 6.0 C 12.0 2.7 9.3 0.0 6.0 0.0 C 2.7 0.0 0.0 2.7 0.0 6.0 C 0.0 9.3 2.7 12.0 6.0 12.0 Z M 6.0 12.0 " fill="none" stroke="#B1B1B1" stroke-width="8.00" stroke-miterlimit="0.00" transform="matrix(0.39, 0.00, 0.00, -0.39, 69.5, 43.7)"></path></g></g></g></g><g><clipPath id="clip-103"><path d="M 164.8 38.2 C 166.5 38.2 167.9 39.6 167.9 41.3 C 167.9 43.1 166.5 44.4 164.8 44.4 C 163.1 44.4 161.7 43.1 161.7 41.3 C 161.7 39.6 163.1 38.2 164.8 38.2 Z M 164.8 38.2 "></path></clipPath><g clip-path="url(#clip-103)"><g><clipPath id="clip-104"><path d="M 1.0 1.0 L 1072.0 1.0 L 1072.0 84.0 L 1.0 84.0 Z M 1.0 1.0 "></path></clipPath><g clip-path="url(#clip-104)"><path d="M 160.5 37.1 L 169.0 37.1 L 169.0 45.6 L 160.5 45.6 Z M 160.5 37.1 " fill="#FCFCFC"></path></g></g></g></g><g><clipPath id="clip-105"><path d="M 157.0 49.1 L 172.5 49.1 L 172.5 33.6 L 157.0 33.6 Z M 164.8 39.0 C 166.1 39.0 167.1 40.1 167.1 41.3 C 167.1 42.6 166.1 43.7 164.8 43.7 C 163.5 43.7 162.5 42.6 162.5 41.3 C 162.5 40.1 163.5 39.0 164.8 39.0 Z M 164.8 39.0 "></path></clipPath><g clip-path="url(#clip-105)"><g><clipPath id="clip-106"><path d="M 1.0 1.0 L 1072.0 1.0 L 1072.0 84.0 L 1.0 84.0 Z M 1.0 1.0 "></path></clipPath><g clip-path="url(#clip-106)"><path d="M 6.0 12.0 C 9.3 12.0 12.0 9.3 12.0 6.0 C 12.0 2.7 9.3 0.0 6.0 0.0 C 2.7 0.0 0.0 2.7 0.0 6.0 C 0.0 9.3 2.7 12.0 6.0 12.0 Z M 6.0 12.0 " fill="none" stroke="#B1B1B1" stroke-width="8.00" stroke-miterlimit="0.00" transform="matrix(0.39, 0.00, 0.00, -0.39, 162.5, 43.7)"></path></g></g></g></g><g><clipPath id="clip-107"><path d="M 1.0 1.0 L 1072.0 1.0 L 1072.0 84.0 L 1.0 84.0 Z M 1.0 1.0 "></path></clipPath><g clip-path="url(#clip-107)"><path d="M 6.0 4.0 L 6.0 62.1 " fill="none" stroke="#D0D0D0" stroke-width="5.00" stroke-miterlimit="0.00" stroke-linecap="round" transform="matrix(0.39, 0.00, 0.00, -0.39, 557.4, 54.5)"></path><path d="M 6.0 4.0 L 6.0 62.1 " fill="none" stroke="#D0D0D0" stroke-width="5.00" stroke-miterlimit="0.00" stroke-linecap="round" transform="matrix(0.39, 0.00, 0.00, -0.39, 580.6, 54.5)"></path><path d="M 6.0 4.0 L 6.0 62.1 " fill="none" stroke="#D0D0D0" stroke-width="5.00" stroke-miterlimit="0.00" stroke-linecap="round" transform="matrix(0.39, 0.00, 0.00, -0.39, 603.9, 54.5)"></path><path d="M 6.0 4.0 L 6.0 62.1 " fill="none" stroke="#D0D0D0" stroke-width="5.00" stroke-miterlimit="0.00" stroke-linecap="round" transform="matrix(0.39, 0.00, 0.00, -0.39, 650.3, 54.5)"></path><path d="M 6.0 4.0 L 6.0 62.1 " fill="none" stroke="#D0D0D0" stroke-width="5.00" stroke-miterlimit="0.00" stroke-linecap="round" transform="matrix(0.39, 0.00, 0.00, -0.39, 673.6, 54.5)"></path><path d="M 6.0 4.0 L 6.0 62.1 " fill="none" stroke="#D0D0D0" stroke-width="5.00" stroke-miterlimit="0.00" stroke-linecap="round" transform="matrix(0.39, 0.00, 0.00, -0.39, 696.8, 54.5)"></path><path d="M 6.0 4.0 L 6.0 62.1 " fill="none" stroke="#D0D0D0" stroke-width="5.00" stroke-miterlimit="0.00" stroke-linecap="round" transform="matrix(0.39, 0.00, 0.00, -0.39, 743.3, 54.5)"></path><path d="M 6.0 4.0 L 6.0 62.1 " fill="none" stroke="#D0D0D0" stroke-width="5.00" stroke-miterlimit="0.00" stroke-linecap="round" transform="matrix(0.39, 0.00, 0.00, -0.39, 766.5, 54.5)"></path><path d="M 6.0 4.0 L 6.0 62.1 " fill="none" stroke="#D0D0D0" stroke-width="5.00" stroke-miterlimit="0.00" stroke-linecap="round" transform="matrix(0.39, 0.00, 0.00, -0.39, 789.7, 54.5)"></path><path d="M 6.0 2.0 L 6.0 110.0 " fill="none" stroke="#B1B1B1" stroke-width="6.00" stroke-miterlimit="0.00" stroke-linecap="round" transform="matrix(0.39, 0.00, 0.00, -0.39, 627.1, 63.8)"></path></g></g><g><clipPath id="clip-108"><path d="M 629.4 38.2 C 631.1 38.2 632.5 39.6 632.5 41.3 C 632.5 43.1 631.1 44.4 629.4 44.4 C 627.7 44.4 626.3 43.1 626.3 41.3 C 626.3 39.6 627.7 38.2 629.4 38.2 Z M 629.4 38.2 "></path></clipPath><g clip-path="url(#clip-108)"><g><clipPath id="clip-109"><path d="M 1.0 1.0 L 1072.0 1.0 L 1072.0 84.0 L 1.0 84.0 Z M 1.0 1.0 "></path></clipPath><g clip-path="url(#clip-109)"><path d="M 625.2 37.1 L 633.7 37.1 L 633.7 45.6 L 625.2 45.6 Z M 625.2 37.1 " fill="#FCFCFC"></path></g></g></g></g><g><clipPath id="clip-110"><path d="M 621.7 49.1 L 637.2 49.1 L 637.2 33.6 L 621.7 33.6 Z M 629.4 39.0 C 630.7 39.0 631.8 40.1 631.8 41.3 C 631.8 42.6 630.7 43.7 629.4 43.7 C 628.1 43.7 627.1 42.6 627.1 41.3 C 627.1 40.1 628.1 39.0 629.4 39.0 Z M 629.4 39.0 "></path></clipPath><g clip-path="url(#clip-110)"><g><clipPath id="clip-111"><path d="M 1.0 1.0 L 1072.0 1.0 L 1072.0 84.0 L 1.0 84.0 Z M 1.0 1.0 "></path></clipPath><g clip-path="url(#clip-111)"><path d="M 6.0 12.0 C 9.3 12.0 12.0 9.3 12.0 6.0 C 12.0 2.7 9.3 0.0 6.0 0.0 C 2.7 0.0 0.0 2.7 0.0 6.0 C 0.0 9.3 2.7 12.0 6.0 12.0 Z M 6.0 12.0 " fill="none" stroke="#B1B1B1" stroke-width="8.00" stroke-miterlimit="0.00" transform="matrix(0.39, 0.00, 0.00, -0.39, 627.1, 43.7)"></path></g></g></g></g><g><clipPath id="clip-112"><path d="M 1.0 1.0 L 1072.0 1.0 L 1072.0 84.0 L 1.0 84.0 Z M 1.0 1.0 "></path></clipPath><g clip-path="url(#clip-112)"><path d="M 6.0 2.0 L 6.0 110.0 " fill="none" stroke="#B1B1B1" stroke-width="6.00" stroke-miterlimit="0.00" stroke-linecap="round" transform="matrix(0.39, 0.00, 0.00, -0.39, 720.0, 63.8)"></path></g></g><g><clipPath id="clip-113"><path d="M 722.4 38.2 C 724.1 38.2 725.5 39.6 725.5 41.3 C 725.5 43.1 724.1 44.4 722.4 44.4 C 720.6 44.4 719.3 43.1 719.3 41.3 C 719.3 39.6 720.6 38.2 722.4 38.2 Z M 722.4 38.2 "></path></clipPath><g clip-path="url(#clip-113)"><g><clipPath id="clip-114"><path d="M 1.0 1.0 L 1072.0 1.0 L 1072.0 84.0 L 1.0 84.0 Z M 1.0 1.0 "></path></clipPath><g clip-path="url(#clip-114)"><path d="M 718.1 37.1 L 726.6 37.1 L 726.6 45.6 L 718.1 45.6 Z M 718.1 37.1 " fill="#FCFCFC"></path></g></g></g></g><g><clipPath id="clip-115"><path d="M 714.6 49.1 L 730.1 49.1 L 730.1 33.6 L 714.6 33.6 Z M 722.4 39.0 C 723.6 39.0 724.7 40.1 724.7 41.3 C 724.7 42.6 723.6 43.7 722.4 43.7 C 721.1 43.7 720.0 42.6 720.0 41.3 C 720.0 40.1 721.1 39.0 722.4 39.0 Z M 722.4 39.0 "></path></clipPath><g clip-path="url(#clip-115)"><g><clipPath id="clip-116"><path d="M 1.0 1.0 L 1072.0 1.0 L 1072.0 84.0 L 1.0 84.0 Z M 1.0 1.0 "></path></clipPath><g clip-path="url(#clip-116)"><path d="M 6.0 12.0 C 9.3 12.0 12.0 9.3 12.0 6.0 C 12.0 2.7 9.3 0.0 6.0 0.0 C 2.7 0.0 0.0 2.7 0.0 6.0 C 0.0 9.3 2.7 12.0 6.0 12.0 Z M 6.0 12.0 " fill="none" stroke="#B1B1B1" stroke-width="8.00" stroke-miterlimit="0.00" transform="matrix(0.39, 0.00, 0.00, -0.39, 720.0, 43.7)"></path></g></g></g></g><g><clipPath id="clip-117"><path d="M 1.0 1.0 L 1072.0 1.0 L 1072.0 84.0 L 1.0 84.0 Z M 1.0 1.0 "></path></clipPath><g clip-path="url(#clip-117)"><path d="M 6.0 4.0 L 6.0 62.1 " fill="none" stroke="#D0D0D0" stroke-width="5.00" stroke-miterlimit="0.00" stroke-linecap="round" transform="matrix(0.39, 0.00, 0.00, -0.39, 836.2, 54.5)"></path><path d="M 6.0 4.0 L 6.0 62.1 " fill="none" stroke="#D0D0D0" stroke-width="5.00" stroke-miterlimit="0.00" stroke-linecap="round" transform="matrix(0.39, 0.00, 0.00, -0.39, 859.4, 54.5)"></path><path d="M 6.0 4.0 L 6.0 62.1 " fill="none" stroke="#D0D0D0" stroke-width="5.00" stroke-miterlimit="0.00" stroke-linecap="round" transform="matrix(0.39, 0.00, 0.00, -0.39, 882.7, 54.5)"></path><path d="M 6.0 2.0 L 6.0 110.0 " fill="none" stroke="#B1B1B1" stroke-width="6.00" stroke-miterlimit="0.00" stroke-linecap="round" transform="matrix(0.39, 0.00, 0.00, -0.39, 813.0, 63.8)"></path></g></g><g><clipPath id="clip-118"><path d="M 815.3 38.2 C 817.0 38.2 818.4 39.6 818.4 41.3 C 818.4 43.1 817.0 44.4 815.3 44.4 C 813.6 44.4 812.2 43.1 812.2 41.3 C 812.2 39.6 813.6 38.2 815.3 38.2 Z M 815.3 38.2 "></path></clipPath><g clip-path="url(#clip-118)"><g><clipPath id="clip-119"><path d="M 1.0 1.0 L 1072.0 1.0 L 1072.0 84.0 L 1.0 84.0 Z M 1.0 1.0 "></path></clipPath><g clip-path="url(#clip-119)"><path d="M 811.0 37.1 L 819.5 37.1 L 819.5 45.6 L 811.0 45.6 Z M 811.0 37.1 " fill="#FCFCFC"></path></g></g></g></g><g><clipPath id="clip-120"><path d="M 807.5 49.1 L 823.0 49.1 L 823.0 33.6 L 807.5 33.6 Z M 815.3 39.0 C 816.6 39.0 817.6 40.1 817.6 41.3 C 817.6 42.6 816.6 43.7 815.3 43.7 C 814.0 43.7 813.0 42.6 813.0 41.3 C 813.0 40.1 814.0 39.0 815.3 39.0 Z M 815.3 39.0 "></path></clipPath><g clip-path="url(#clip-120)"><g><clipPath id="clip-121"><path d="M 1.0 1.0 L 1072.0 1.0 L 1072.0 84.0 L 1.0 84.0 Z M 1.0 1.0 "></path></clipPath><g clip-path="url(#clip-121)"><path d="M 6.0 12.0 C 9.3 12.0 12.0 9.3 12.0 6.0 C 12.0 2.7 9.3 0.0 6.0 0.0 C 2.7 0.0 0.0 2.7 0.0 6.0 C 0.0 9.3 2.7 12.0 6.0 12.0 Z M 6.0 12.0 " fill="none" stroke="#B1B1B1" stroke-width="8.00" stroke-miterlimit="0.00" transform="matrix(0.39, 0.00, 0.00, -0.39, 813.0, 43.7)"></path></g></g></g></g><g><clipPath id="clip-122"><path d="M 1.0 1.0 L 1072.0 1.0 L 1072.0 84.0 L 1.0 84.0 Z M 1.0 1.0 "></path></clipPath><g clip-path="url(#clip-122)"><path d="M 6.0 4.0 L 6.0 62.1 " fill="none" stroke="#D0D0D0" stroke-width="5.00" stroke-miterlimit="0.00" stroke-linecap="round" transform="matrix(0.39, 0.00, 0.00, -0.39, 929.1, 54.5)"></path><path d="M 6.0 4.0 L 6.0 62.1 " fill="none" stroke="#D0D0D0" stroke-width="5.00" stroke-miterlimit="0.00" stroke-linecap="round" transform="matrix(0.39, 0.00, 0.00, -0.39, 952.4, 54.5)"></path><path d="M 6.0 4.0 L 6.0 62.1 " fill="none" stroke="#D0D0D0" stroke-width="5.00" stroke-miterlimit="0.00" stroke-linecap="round" transform="matrix(0.39, 0.00, 0.00, -0.39, 975.6, 54.5)"></path><path d="M 6.0 2.0 L 6.0 110.0 " fill="none" stroke="#B1B1B1" stroke-width="6.00" stroke-miterlimit="0.00" stroke-linecap="round" transform="matrix(0.39, 0.00, 0.00, -0.39, 905.9, 63.8)"></path></g></g><g><clipPath id="clip-123"><path d="M 908.2 38.2 C 909.9 38.2 911.3 39.6 911.3 41.3 C 911.3 43.1 909.9 44.4 908.2 44.4 C 906.5 44.4 905.1 43.1 905.1 41.3 C 905.1 39.6 906.5 38.2 908.2 38.2 Z M 908.2 38.2 "></path></clipPath><g clip-path="url(#clip-123)"><g><clipPath id="clip-124"><path d="M 1.0 1.0 L 1072.0 1.0 L 1072.0 84.0 L 1.0 84.0 Z M 1.0 1.0 "></path></clipPath><g clip-path="url(#clip-124)"><path d="M 904.0 37.1 L 912.5 37.1 L 912.5 45.6 L 904.0 45.6 Z M 904.0 37.1 " fill="#FCFCFC"></path></g></g></g></g><g><clipPath id="clip-125"><path d="M 900.5 49.1 L 916.0 49.1 L 916.0 33.6 L 900.5 33.6 Z M 908.2 39.0 C 909.5 39.0 910.5 40.1 910.5 41.3 C 910.5 42.6 909.5 43.7 908.2 43.7 C 906.9 43.7 905.9 42.6 905.9 41.3 C 905.9 40.1 906.9 39.0 908.2 39.0 Z M 908.2 39.0 "></path></clipPath><g clip-path="url(#clip-125)"><g><clipPath id="clip-126"><path d="M 1.0 1.0 L 1072.0 1.0 L 1072.0 84.0 L 1.0 84.0 Z M 1.0 1.0 "></path></clipPath><g clip-path="url(#clip-126)"><path d="M 6.0 12.0 C 9.3 12.0 12.0 9.3 12.0 6.0 C 12.0 2.7 9.3 0.0 6.0 0.0 C 2.7 0.0 0.0 2.7 0.0 6.0 C 0.0 9.3 2.7 12.0 6.0 12.0 Z M 6.0 12.0 " fill="none" stroke="#B1B1B1" stroke-width="8.00" stroke-miterlimit="0.00" transform="matrix(0.39, 0.00, 0.00, -0.39, 905.9, 43.7)"></path></g></g></g></g><g><clipPath id="clip-127"><path d="M 1.0 1.0 L 1072.0 1.0 L 1072.0 84.0 L 1.0 84.0 Z M 1.0 1.0 "></path></clipPath><g clip-path="url(#clip-127)"><path d="M 6.0 4.0 L 6.0 62.1 " fill="none" stroke="#D0D0D0" stroke-width="5.00" stroke-miterlimit="0.00" stroke-linecap="round" transform="matrix(0.39, 0.00, 0.00, -0.39, 1022.1, 54.5)"></path><path d="M 6.0 4.0 L 6.0 62.1 " fill="none" stroke="#D0D0D0" stroke-width="5.00" stroke-miterlimit="0.00" stroke-linecap="round" transform="matrix(0.39, 0.00, 0.00, -0.39, 1045.3, 54.5)"></path><path d="M 6.0 4.0 L 6.0 62.1 " fill="none" stroke="#D0D0D0" stroke-width="5.00" stroke-miterlimit="0.00" stroke-linecap="round" transform="matrix(0.39, 0.00, 0.00, -0.39, 1068.5, 54.5)"></path><path d="M 6.0 2.0 L 6.0 110.0 " fill="none" stroke="#B1B1B1" stroke-width="6.00" stroke-miterlimit="0.00" stroke-linecap="round" transform="matrix(0.39, 0.00, 0.00, -0.39, 998.8, 63.8)"></path></g></g><g><clipPath id="clip-128"><path d="M 1001.1 38.2 C 1002.9 38.2 1004.2 39.6 1004.2 41.3 C 1004.2 43.1 1002.9 44.4 1001.1 44.4 C 999.4 44.4 998.0 43.1 998.0 41.3 C 998.0 39.6 999.4 38.2 1001.1 38.2 Z M 1001.1 38.2 "></path></clipPath><g clip-path="url(#clip-128)"><g><clipPath id="clip-129"><path d="M 1.0 1.0 L 1072.0 1.0 L 1072.0 84.0 L 1.0 84.0 Z M 1.0 1.0 "></path></clipPath><g clip-path="url(#clip-129)"><path d="M 996.9 37.1 L 1005.4 37.1 L 1005.4 45.6 L 996.9 45.6 Z M 996.9 37.1 " fill="#FCFCFC"></path></g></g></g></g><g><clipPath id="clip-130"><path d="M 993.4 49.1 L 1008.9 49.1 L 1008.9 33.6 L 993.4 33.6 Z M 1001.1 39.0 C 1002.4 39.0 1003.5 40.1 1003.5 41.3 C 1003.5 42.6 1002.4 43.7 1001.1 43.7 C 999.9 43.7 998.8 42.6 998.8 41.3 C 998.8 40.1 999.9 39.0 1001.1 39.0 Z M 1001.1 39.0 "></path></clipPath><g clip-path="url(#clip-130)"><g><clipPath id="clip-131"><path d="M 1.0 1.0 L 1072.0 1.0 L 1072.0 84.0 L 1.0 84.0 Z M 1.0 1.0 "></path></clipPath><g clip-path="url(#clip-131)"><path d="M 6.0 12.0 C 9.3 12.0 12.0 9.3 12.0 6.0 C 12.0 2.7 9.3 0.0 6.0 0.0 C 2.7 0.0 0.0 2.7 0.0 6.0 C 0.0 9.3 2.7 12.0 6.0 12.0 Z M 6.0 12.0 " fill="none" stroke="#B1B1B1" stroke-width="8.00" stroke-miterlimit="0.00" transform="matrix(0.39, 0.00, 0.00, -0.39, 998.8, 43.7)"></path></g></g></g></g><g><clipPath id="clip-132"><path d="M 1.0 1.0 L 1072.0 1.0 L 1072.0 84.0 L 1.0 84.0 Z M 1.0 1.0 "></path></clipPath><g clip-path="url(#clip-132)"><path d="M 6.0 0.0 L 6.0 202.0 " fill="none" stroke="#3D3D3D" stroke-width="12.00" stroke-miterlimit="0.00" stroke-linecap="round" transform="matrix(0.39, 0.00, 0.00, -0.39, 534.2, 81.7)"></path></g></g><g><clipPath id="clip-133"><path d="M 536.5 31.3 C 542.5 31.3 547.3 36.1 547.3 42.1 C 547.3 48.1 542.5 53.0 536.5 53.0 C 530.5 53.0 525.7 48.1 525.7 42.1 C 525.7 36.1 530.5 31.3 536.5 31.3 Z M 536.5 31.3 "></path></clipPath><g clip-path="url(#clip-133)"><g><clipPath id="clip-134"><path d="M 1.0 1.0 L 1072.0 1.0 L 1072.0 84.0 L 1.0 84.0 Z M 1.0 1.0 "></path></clipPath><g clip-path="url(#clip-134)"><path d="M 523.7 29.3 L 549.3 29.3 L 549.3 54.9 L 523.7 54.9 Z M 523.7 29.3 " fill="#FFFFFF"></path></g></g></g></g><g><clipPath id="clip-135"><path d="M 1.0 1.0 L 1072.0 1.0 L 1072.0 84.0 L 1.0 84.0 Z M 1.0 1.0 "></path></clipPath><g clip-path="url(#clip-135)"><path d="M 28.0 56.0 C 43.5 56.0 56.0 43.5 56.0 28.0 C 56.0 12.5 43.5 0.0 28.0 0.0 C 12.5 0.0 0.0 12.5 0.0 28.0 C 0.0 43.5 12.5 56.0 28.0 56.0 Z M 28.0 56.0 " fill="none" stroke="#3D3D3D" stroke-width="10.00" stroke-miterlimit="0.00" transform="matrix(0.39, 0.00, 0.00, -0.39, 525.7, 53.0)"></path></g></g><g><clipPath id="clip-136"><path d="M 536.5 34.4 C 540.8 34.4 544.2 37.8 544.2 42.1 C 544.2 46.4 540.8 49.9 536.5 49.9 C 532.2 49.9 528.8 46.4 528.8 42.1 C 528.8 37.8 532.2 34.4 536.5 34.4 Z M 536.5 34.4 "></path></clipPath><g clip-path="url(#clip-136)"><g><clipPath id="clip-137"><path d="M 1.0 1.0 L 1072.0 1.0 L 1072.0 84.0 L 1.0 84.0 Z M 1.0 1.0 "></path></clipPath><g clip-path="url(#clip-137)"><path d="M 526.8 32.4 L 546.2 32.4 L 546.2 51.8 L 526.8 51.8 Z M 526.8 32.4 " fill="#3D3D3D"></path></g></g></g></g></g></svg>