<?xml version="1.0" encoding="UTF-8" standalone="no"?><svg xmlns="http://www.w3.org/2000/svg" xmlns:xlink="http://www.w3.org/1999/xlink" clip-rule="evenodd" stroke-miterlimit="4.00" viewBox="0 0 1920 1080"><desc>SVG generated by Keynote</desc><defs></defs><g transform="matrix(1.00, 0.00, -0.00, -1.00, 0.0, 1080.0)"><path d="M 0.0 1080.0 L 1920.0 1080.0 L 1920.0 0.0 L 0.0 0.0 Z M 0.0 1080.0 " fill="#FEFFFF"></path><image xlink:href="7B7B2F767413C2BADFA3BA479FFCDAF6.png" width="678.00" height="1470.00" transform="matrix(0.65, 0.00, -0.00, -0.65, 1176.0, 1018.0)"></image><image xlink:href="../../92781B55-4545-4BD3-BBDB-614C28A10D1C/assets/4C33093035FF5A63CD495BF73EC42311.png" width="353.00" height="540.00" transform="matrix(3.52, 0.00, -0.00, -3.51, 783.0, 1408.0)"></image><g><clipPath id="clip-138"><path d="M 150.0 432.0 L 839.0 432.0 L 839.0 647.0 L 150.0 647.0 Z M 150.0 432.0 "></path></clipPath><g clip-path="url(#clip-138)"><text xml:space="preserve" font-family="Helvetica" font-size="16.2" fill="#979797" transform="matrix(1.00, 0.00, -0.00, -1.00, 150.0, 635.0)">0</text><text xml:space="preserve" font-family="Helvetica" font-size="16.2" fill="#979797" transform="matrix(1.00, 0.00, -0.00, -1.00, 162.3, 635.0)">2</text><text xml:space="preserve" font-family="Helvetica" font-size="16.2" fill="#979797" transform="matrix(1.00, 0.00, -0.00, -1.00, 180.0, 635.0)">T</text><text xml:space="preserve" font-family="Helvetica" font-size="16.2" fill="#979797" transform="matrix(1.00, 0.00, -0.00, -1.00, 193.2, 635.0)">I</text><text xml:space="preserve" font-family="Helvetica" font-size="16.2" fill="#979797" transform="matrix(1.00, 0.00, -0.00, -1.00, 200.9, 635.0)">M</text><text xml:space="preserve" font-family="Helvetica" font-size="16.2" fill="#979797" transform="matrix(1.00, 0.00, -0.00, -1.00, 217.7, 635.0)">E</text><text xml:space="preserve" font-family="Helvetica" font-size="16.2" fill="#979797" transform="matrix(1.00, 0.00, -0.00, -1.00, 231.8, 635.0)">L</text><text xml:space="preserve" font-family="Helvetica" font-size="16.2" fill="#979797" transform="matrix(1.00, 0.00, -0.00, -1.00, 244.1, 635.0)">I</text><text xml:space="preserve" font-family="Helvetica" font-size="16.2" fill="#979797" transform="matrix(1.00, 0.00, -0.00, -1.00, 251.9, 635.0)">N</text><text xml:space="preserve" font-family="Helvetica" font-size="16.2" fill="#979797" transform="matrix(1.00, 0.00, -0.00, -1.00, 266.9, 635.0)">E</text><path d="M 0.6 1.9 L 257.8 1.9 " fill="none" stroke="#979797" stroke-width="0.62" stroke-miterlimit="0.00" stroke-linecap="square" transform="matrix(1.00, 0.00, 0.00, -1.00, 294.0, 642.0)"></path><path d="M 0.6 1.0 L 401.6 1.0 " fill="none" stroke="#979797" stroke-width="0.62" stroke-miterlimit="0.00" stroke-linecap="square" transform="matrix(1.00, 0.00, 0.00, -1.00, 150.0, 583.0)"></path></g></g><g><clipPath id="clip-139"><path d="M 150.0 432.0 L 839.0 432.0 L 839.0 569.0 L 150.0 569.0 Z M 150.0 432.0 "></path></clipPath><g clip-path="url(#clip-139)"><text xml:space="preserve" font-family="Helvetica" font-size="21.2" fill="#4A4A4A" transform="matrix(1.00, 0.00, -0.00, -1.00, 150.0, 537.0)">I</text><text xml:space="preserve" font-family="Helvetica" font-size="21.2" fill="#4A4A4A" transform="matrix(1.00, 0.00, -0.00, -1.00, 156.4, 537.0)">n</text><text xml:space="preserve" font-family="Helvetica" font-size="21.2" fill="#4A4A4A" transform="matrix(1.00, 0.00, -0.00, -1.00, 168.9, 537.0)">c</text><text xml:space="preserve" font-family="Helvetica" font-size="21.2" fill="#4A4A4A" transform="matrix(1.00, 0.00, -0.00, -1.00, 180.3, 537.0)">r</text><text xml:space="preserve" font-family="Helvetica" font-size="21.2" fill="#4A4A4A" transform="matrix(1.00, 0.00, -0.00, -1.00, 187.7, 537.0)">e</text><text xml:space="preserve" font-family="Helvetica" font-size="21.2" fill="#4A4A4A" transform="matrix(1.00, 0.00, -0.00, -1.00, 200.2, 537.0)">a</text><text xml:space="preserve" font-family="Helvetica" font-size="21.2" fill="#4A4A4A" transform="matrix(1.00, 0.00, -0.00, -1.00, 212.7, 537.0)">s</text><text xml:space="preserve" font-family="Helvetica" font-size="21.2" fill="#4A4A4A" transform="matrix(1.00, 0.00, -0.00, -1.00, 224.1, 537.0)">e</text><text xml:space="preserve" font-family="Helvetica" font-size="21.2" fill="#4A4A4A" transform="matrix(1.00, 0.00, -0.00, -1.00, 236.6, 537.0)"> </text><text xml:space="preserve" font-family="Helvetica" font-size="21.2" fill="#4A4A4A" transform="matrix(1.00, 0.00, -0.00, -1.00, 243.2, 537.0)">t</text><text xml:space="preserve" font-family="Helvetica" font-size="21.2" fill="#4A4A4A" transform="matrix(1.00, 0.00, -0.00, -1.00, 249.8, 537.0)">h</text><text xml:space="preserve" font-family="Helvetica" font-size="21.2" fill="#4A4A4A" transform="matrix(1.00, 0.00, -0.00, -1.00, 262.4, 537.0)">e</text><text xml:space="preserve" font-family="Helvetica" font-size="21.2" fill="#4A4A4A" transform="matrix(1.00, 0.00, -0.00, -1.00, 274.9, 537.0)"> </text><text xml:space="preserve" font-family="Helvetica" font-size="21.2" fill="#4A4A4A" transform="matrix(1.00, 0.00, -0.00, -1.00, 281.5, 537.0)">p</text><text xml:space="preserve" font-family="Helvetica" font-size="21.2" fill="#4A4A4A" transform="matrix(1.00, 0.00, -0.00, -1.00, 294.1, 537.0)">e</text><text xml:space="preserve" font-family="Helvetica" font-size="21.2" fill="#4A4A4A" transform="matrix(1.00, 0.00, -0.00, -1.00, 306.6, 537.0)">r</text><text xml:space="preserve" font-family="Helvetica" font-size="21.2" fill="#4A4A4A" transform="matrix(1.00, 0.00, -0.00, -1.00, 314.0, 537.0)">c</text><text xml:space="preserve" font-family="Helvetica" font-size="21.2" fill="#4A4A4A" transform="matrix(1.00, 0.00, -0.00, -1.00, 325.3, 537.0)">i</text><text xml:space="preserve" font-family="Helvetica" font-size="21.2" fill="#4A4A4A" transform="matrix(1.00, 0.00, -0.00, -1.00, 330.7, 537.0)">e</text><text xml:space="preserve" font-family="Helvetica" font-size="21.2" fill="#4A4A4A" transform="matrix(1.00, 0.00, -0.00, -1.00, 343.3, 537.0)">v</text><text xml:space="preserve" font-family="Helvetica" font-size="21.2" fill="#4A4A4A" transform="matrix(1.00, 0.00, -0.00, -1.00, 354.5, 537.0)">e</text><text xml:space="preserve" font-family="Helvetica" font-size="21.2" fill="#4A4A4A" transform="matrix(1.00, 0.00, -0.00, -1.00, 367.0, 537.0)">d</text><text xml:space="preserve" font-family="Helvetica" font-size="21.2" fill="#4A4A4A" transform="matrix(1.00, 0.00, -0.00, -1.00, 379.6, 537.0)"> </text><text xml:space="preserve" font-family="Helvetica" font-size="21.2" fill="#4A4A4A" transform="matrix(1.00, 0.00, -0.00, -1.00, 386.2, 537.0)">v</text><text xml:space="preserve" font-family="Helvetica" font-size="21.2" fill="#4A4A4A" transform="matrix(1.00, 0.00, -0.00, -1.00, 397.4, 537.0)">a</text><text xml:space="preserve" font-family="Helvetica" font-size="21.2" fill="#4A4A4A" transform="matrix(1.00, 0.00, -0.00, -1.00, 410.0, 537.0)">l</text><text xml:space="preserve" font-family="Helvetica" font-size="21.2" fill="#4A4A4A" transform="matrix(1.00, 0.00, -0.00, -1.00, 415.4, 537.0)">u</text><text xml:space="preserve" font-family="Helvetica" font-size="21.2" fill="#4A4A4A" transform="matrix(1.00, 0.00, -0.00, -1.00, 427.9, 537.0)">e</text><text xml:space="preserve" font-family="Helvetica" font-size="21.2" fill="#4A4A4A" transform="matrix(1.00, 0.00, -0.00, -1.00, 440.5, 537.0)"> </text><text xml:space="preserve" font-family="Helvetica" font-size="21.2" fill="#4A4A4A" transform="matrix(1.00, 0.00, -0.00, -1.00, 447.1, 537.0)">o</text><text xml:space="preserve" font-family="Helvetica" font-size="21.2" fill="#4A4A4A" transform="matrix(1.00, 0.00, -0.00, -1.00, 459.6, 537.0)">f</text><text xml:space="preserve" font-family="Helvetica" font-size="21.2" fill="#4A4A4A" transform="matrix(1.00, 0.00, -0.00, -1.00, 466.2, 537.0)"> </text><text xml:space="preserve" font-family="Helvetica" font-size="21.2" fill="#4A4A4A" transform="matrix(1.00, 0.00, -0.00, -1.00, 472.9, 537.0)">l</text><text xml:space="preserve" font-family="Helvetica" font-size="21.2" fill="#4A4A4A" transform="matrix(1.00, 0.00, -0.00, -1.00, 478.3, 537.0)">o</text><text xml:space="preserve" font-family="Helvetica" font-size="21.2" fill="#4A4A4A" transform="matrix(1.00, 0.00, -0.00, -1.00, 490.8, 537.0)">n</text><text xml:space="preserve" font-family="Helvetica" font-size="21.2" fill="#4A4A4A" transform="matrix(1.00, 0.00, -0.00, -1.00, 503.4, 537.0)">g</text><text xml:space="preserve" font-family="Helvetica" font-size="21.2" fill="#4A4A4A" transform="matrix(1.00, 0.00, -0.00, -1.00, 515.9, 537.0)"> </text><text xml:space="preserve" font-family="Helvetica" font-size="21.2" fill="#4A4A4A" transform="matrix(1.00, 0.00, -0.00, -1.00, 522.5, 537.0)">f</text><text xml:space="preserve" font-family="Helvetica" font-size="21.2" fill="#4A4A4A" transform="matrix(1.00, 0.00, -0.00, -1.00, 529.1, 537.0)">o</text><text xml:space="preserve" font-family="Helvetica" font-size="21.2" fill="#4A4A4A" transform="matrix(1.00, 0.00, -0.00, -1.00, 541.7, 537.0)">r</text><text xml:space="preserve" font-family="Helvetica" font-size="21.2" fill="#4A4A4A" transform="matrix(1.00, 0.00, -0.00, -1.00, 549.5, 537.0)">m</text><text xml:space="preserve" font-family="Helvetica" font-size="21.2" fill="#4A4A4A" transform="matrix(1.00, 0.00, -0.00, -1.00, 567.9, 537.0)"> </text><text xml:space="preserve" font-family="Helvetica" font-size="21.2" fill="#4A4A4A" transform="matrix(1.00, 0.00, -0.00, -1.00, 574.5, 537.0)">j</text><text xml:space="preserve" font-family="Helvetica" font-size="21.2" fill="#4A4A4A" transform="matrix(1.00, 0.00, -0.00, -1.00, 579.9, 537.0)">o</text><text xml:space="preserve" font-family="Helvetica" font-size="21.2" fill="#4A4A4A" transform="matrix(1.00, 0.00, -0.00, -1.00, 592.5, 537.0)">u</text><text xml:space="preserve" font-family="Helvetica" font-size="21.2" fill="#4A4A4A" transform="matrix(1.00, 0.00, -0.00, -1.00, 605.0, 537.0)">r</text><text xml:space="preserve" font-family="Helvetica" font-size="21.2" fill="#4A4A4A" transform="matrix(1.00, 0.00, -0.00, -1.00, 612.8, 537.0)">n</text><text xml:space="preserve" font-family="Helvetica" font-size="21.2" fill="#4A4A4A" transform="matrix(1.00, 0.00, -0.00, -1.00, 625.3, 537.0)">a</text><text xml:space="preserve" font-family="Helvetica" font-size="21.2" fill="#4A4A4A" transform="matrix(1.00, 0.00, -0.00, -1.00, 637.9, 537.0)">l</text><text xml:space="preserve" font-family="Helvetica" font-size="21.2" fill="#4A4A4A" transform="matrix(1.00, 0.00, -0.00, -1.00, 643.3, 537.0)">i</text><text xml:space="preserve" font-family="Helvetica" font-size="21.2" fill="#4A4A4A" transform="matrix(1.00, 0.00, -0.00, -1.00, 648.8, 537.0)">s</text><text xml:space="preserve" font-family="Helvetica" font-size="21.2" fill="#4A4A4A" transform="matrix(1.00, 0.00, -0.00, -1.00, 660.1, 537.0)">m</text><text xml:space="preserve" font-family="Helvetica" font-size="21.2" fill="#4A4A4A" transform="matrix(1.00, 0.00, -0.00, -1.00, 678.5, 537.0)"> </text><text xml:space="preserve" font-family="Helvetica" font-size="21.2" fill="#4A4A4A" transform="matrix(1.00, 0.00, -0.00, -1.00, 685.1, 537.0)">t</text><text xml:space="preserve" font-family="Helvetica" font-size="21.2" fill="#4A4A4A" transform="matrix(1.00, 0.00, -0.00, -1.00, 691.8, 537.0)">h</text><text xml:space="preserve" font-family="Helvetica" font-size="21.2" fill="#4A4A4A" transform="matrix(1.00, 0.00, -0.00, -1.00, 704.3, 537.0)">r</text><text xml:space="preserve" font-family="Helvetica" font-size="21.2" fill="#4A4A4A" transform="matrix(1.00, 0.00, -0.00, -1.00, 711.8, 537.0)">o</text><text xml:space="preserve" font-family="Helvetica" font-size="21.2" fill="#4A4A4A" transform="matrix(1.00, 0.00, -0.00, -1.00, 724.3, 537.0)">u</text><text xml:space="preserve" font-family="Helvetica" font-size="21.2" fill="#4A4A4A" transform="matrix(1.00, 0.00, -0.00, -1.00, 736.8, 537.0)">g</text><text xml:space="preserve" font-family="Helvetica" font-size="21.2" fill="#4A4A4A" transform="matrix(1.00, 0.00, -0.00, -1.00, 749.4, 537.0)">h</text><text xml:space="preserve" font-family="Helvetica" font-size="21.2" fill="#4A4A4A" transform="matrix(1.00, 0.00, -0.00, -1.00, 761.9, 537.0)"> </text><text xml:space="preserve" font-family="Helvetica" font-size="21.2" fill="#4A4A4A" transform="matrix(1.00, 0.00, -0.00, -1.00, 768.5, 537.0)">v</text><text xml:space="preserve" font-family="Helvetica" font-size="21.2" fill="#4A4A4A" transform="matrix(1.00, 0.00, -0.00, -1.00, 779.9, 537.0)">i</text><text xml:space="preserve" font-family="Helvetica" font-size="21.2" fill="#4A4A4A" transform="matrix(1.00, 0.00, -0.00, -1.00, 785.3, 537.0)">s</text><text xml:space="preserve" font-family="Helvetica" font-size="21.2" fill="#4A4A4A" transform="matrix(1.00, 0.00, -0.00, -1.00, 796.6, 537.0)">u</text><text xml:space="preserve" font-family="Helvetica" font-size="21.2" fill="#4A4A4A" transform="matrix(1.00, 0.00, -0.00, -1.00, 809.2, 537.0)">a</text><text xml:space="preserve" font-family="Helvetica" font-size="21.2" fill="#4A4A4A" transform="matrix(1.00, 0.00, -0.00, -1.00, 821.7, 537.0)">l</text><text xml:space="preserve" font-family="Helvetica" font-size="21.2" fill="#4A4A4A" transform="matrix(1.00, 0.00, -0.00, -1.00, 827.1, 537.0)"> </text><text xml:space="preserve" font-family="Helvetica" font-size="21.2" fill="#4A4A4A" transform="matrix(1.00, 0.00, -0.00, -1.00, 150.0, 487.0)">s</text><text xml:space="preserve" font-family="Helvetica" font-size="21.2" fill="#4A4A4A" transform="matrix(1.00, 0.00, -0.00, -1.00, 161.3, 487.0)">t</text><text xml:space="preserve" font-family="Helvetica" font-size="21.2" fill="#4A4A4A" transform="matrix(1.00, 0.00, -0.00, -1.00, 167.9, 487.0)">o</text><text xml:space="preserve" font-family="Helvetica" font-size="21.2" fill="#4A4A4A" transform="matrix(1.00, 0.00, -0.00, -1.00, 180.5, 487.0)">r</text><text xml:space="preserve" font-family="Helvetica" font-size="21.2" fill="#4A4A4A" transform="matrix(1.00, 0.00, -0.00, -1.00, 188.3, 487.0)">y</text><text xml:space="preserve" font-family="Helvetica" font-size="21.2" fill="#4A4A4A" transform="matrix(1.00, 0.00, -0.00, -1.00, 199.6, 487.0)">t</text><text xml:space="preserve" font-family="Helvetica" font-size="21.2" fill="#4A4A4A" transform="matrix(1.00, 0.00, -0.00, -1.00, 206.2, 487.0)">e</text><text xml:space="preserve" font-family="Helvetica" font-size="21.2" fill="#4A4A4A" transform="matrix(1.00, 0.00, -0.00, -1.00, 218.7, 487.0)">l</text><text xml:space="preserve" font-family="Helvetica" font-size="21.2" fill="#4A4A4A" transform="matrix(1.00, 0.00, -0.00, -1.00, 224.4, 487.0)">l</text><text xml:space="preserve" font-family="Helvetica" font-size="21.2" fill="#4A4A4A" transform="matrix(1.00, 0.00, -0.00, -1.00, 229.8, 487.0)">i</text><text xml:space="preserve" font-family="Helvetica" font-size="21.2" fill="#4A4A4A" transform="matrix(1.00, 0.00, -0.00, -1.00, 235.2, 487.0)">n</text><text xml:space="preserve" font-family="Helvetica" font-size="21.2" fill="#4A4A4A" transform="matrix(1.00, 0.00, -0.00, -1.00, 247.7, 487.0)">g</text><text xml:space="preserve" font-family="Helvetica" font-size="21.2" fill="#4A4A4A" transform="matrix(1.00, 0.00, -0.00, -1.00, 260.3, 487.0)"> </text><text xml:space="preserve" font-family="Helvetica" font-size="21.2" fill="#4A4A4A" transform="matrix(1.00, 0.00, -0.00, -1.00, 266.9, 487.0)">w</text><text xml:space="preserve" font-family="Helvetica" font-size="21.2" fill="#4A4A4A" transform="matrix(1.00, 0.00, -0.00, -1.00, 282.9, 487.0)">i</text><text xml:space="preserve" font-family="Helvetica" font-size="21.2" fill="#4A4A4A" transform="matrix(1.00, 0.00, -0.00, -1.00, 288.4, 487.0)">t</text><text xml:space="preserve" font-family="Helvetica" font-size="21.2" fill="#4A4A4A" transform="matrix(1.00, 0.00, -0.00, -1.00, 295.0, 487.0)">h</text><text xml:space="preserve" font-family="Helvetica" font-size="21.2" fill="#4A4A4A" transform="matrix(1.00, 0.00, -0.00, -1.00, 307.5, 487.0)">i</text><text xml:space="preserve" font-family="Helvetica" font-size="21.2" fill="#4A4A4A" transform="matrix(1.00, 0.00, -0.00, -1.00, 312.9, 487.0)">n</text><text xml:space="preserve" font-family="Helvetica" font-size="21.2" fill="#4A4A4A" transform="matrix(1.00, 0.00, -0.00, -1.00, 325.5, 487.0)"> </text><text xml:space="preserve" font-family="Helvetica" font-size="21.2" fill="#4A4A4A" transform="matrix(1.00, 0.00, -0.00, -1.00, 332.1, 487.0)">a</text><text xml:space="preserve" font-family="Helvetica" font-size="21.2" fill="#4A4A4A" transform="matrix(1.00, 0.00, -0.00, -1.00, 344.6, 487.0)"> </text><text xml:space="preserve" font-family="Helvetica" font-size="21.2" fill="#4A4A4A" transform="matrix(1.00, 0.00, -0.00, -1.00, 351.2, 487.0)">t</text><text xml:space="preserve" font-family="Helvetica" font-size="21.2" fill="#4A4A4A" transform="matrix(1.00, 0.00, -0.00, -1.00, 357.8, 487.0)">i</text><text xml:space="preserve" font-family="Helvetica" font-size="21.2" fill="#4A4A4A" transform="matrix(1.00, 0.00, -0.00, -1.00, 363.2, 487.0)">m</text><text xml:space="preserve" font-family="Helvetica" font-size="21.2" fill="#4A4A4A" transform="matrix(1.00, 0.00, -0.00, -1.00, 381.7, 487.0)">e</text><text xml:space="preserve" font-family="Helvetica" font-size="21.2" fill="#4A4A4A" transform="matrix(1.00, 0.00, -0.00, -1.00, 394.2, 487.0)">l</text><text xml:space="preserve" font-family="Helvetica" font-size="21.2" fill="#4A4A4A" transform="matrix(1.00, 0.00, -0.00, -1.00, 399.6, 487.0)">i</text><text xml:space="preserve" font-family="Helvetica" font-size="21.2" fill="#4A4A4A" transform="matrix(1.00, 0.00, -0.00, -1.00, 405.0, 487.0)">n</text><text xml:space="preserve" font-family="Helvetica" font-size="21.2" fill="#4A4A4A" transform="matrix(1.00, 0.00, -0.00, -1.00, 417.6, 487.0)">e</text><text xml:space="preserve" font-family="Helvetica" font-size="21.2" fill="#4A4A4A" transform="matrix(1.00, 0.00, -0.00, -1.00, 430.1, 487.0)"> </text><text xml:space="preserve" font-family="Helvetica" font-size="21.2" fill="#4A4A4A" transform="matrix(1.00, 0.00, -0.00, -1.00, 436.7, 487.0)">f</text><text xml:space="preserve" font-family="Helvetica" font-size="21.2" fill="#4A4A4A" transform="matrix(1.00, 0.00, -0.00, -1.00, 443.3, 487.0)">o</text><text xml:space="preserve" font-family="Helvetica" font-size="21.2" fill="#4A4A4A" transform="matrix(1.00, 0.00, -0.00, -1.00, 455.8, 487.0)">r</text><text xml:space="preserve" font-family="Helvetica" font-size="21.2" fill="#4A4A4A" transform="matrix(1.00, 0.00, -0.00, -1.00, 463.6, 487.0)">m</text><text xml:space="preserve" font-family="Helvetica" font-size="21.2" fill="#4A4A4A" transform="matrix(1.00, 0.00, -0.00, -1.00, 482.0, 487.0)">a</text><text xml:space="preserve" font-family="Helvetica" font-size="21.2" fill="#4A4A4A" transform="matrix(1.00, 0.00, -0.00, -1.00, 494.6, 487.0)">t</text><text xml:space="preserve" font-family="Helvetica" font-size="21.2" fill="#4A4A4A" transform="matrix(1.00, 0.00, -0.00, -1.00, 501.2, 487.0)"> </text><text xml:space="preserve" font-family="Helvetica" font-size="21.2" fill="#4A4A4A" transform="matrix(1.00, 0.00, -0.00, -1.00, 507.8, 487.0)">t</text><text xml:space="preserve" font-family="Helvetica" font-size="21.2" fill="#4A4A4A" transform="matrix(1.00, 0.00, -0.00, -1.00, 514.4, 487.0)">h</text><text xml:space="preserve" font-family="Helvetica" font-size="21.2" fill="#4A4A4A" transform="matrix(1.00, 0.00, -0.00, -1.00, 526.9, 487.0)">a</text><text xml:space="preserve" font-family="Helvetica" font-size="21.2" fill="#4A4A4A" transform="matrix(1.00, 0.00, -0.00, -1.00, 539.4, 487.0)">t</text><text xml:space="preserve" font-family="Helvetica" font-size="21.2" fill="#4A4A4A" transform="matrix(1.00, 0.00, -0.00, -1.00, 546.1, 487.0)"> </text><text xml:space="preserve" font-family="Helvetica" font-size="21.2" fill="#4A4A4A" transform="matrix(1.00, 0.00, -0.00, -1.00, 552.7, 487.0)">s</text><text xml:space="preserve" font-family="Helvetica" font-size="21.2" fill="#4A4A4A" transform="matrix(1.00, 0.00, -0.00, -1.00, 564.0, 487.0)">t</text><text xml:space="preserve" font-family="Helvetica" font-size="21.2" fill="#4A4A4A" transform="matrix(1.00, 0.00, -0.00, -1.00, 570.6, 487.0)">i</text><text xml:space="preserve" font-family="Helvetica" font-size="21.2" fill="#4A4A4A" transform="matrix(1.00, 0.00, -0.00, -1.00, 576.0, 487.0)">t</text><text xml:space="preserve" font-family="Helvetica" font-size="21.2" fill="#4A4A4A" transform="matrix(1.00, 0.00, -0.00, -1.00, 582.7, 487.0)">c</text><text xml:space="preserve" font-family="Helvetica" font-size="21.2" fill="#4A4A4A" transform="matrix(1.00, 0.00, -0.00, -1.00, 594.0, 487.0)">h</text><text xml:space="preserve" font-family="Helvetica" font-size="21.2" fill="#4A4A4A" transform="matrix(1.00, 0.00, -0.00, -1.00, 606.5, 487.0)">e</text><text xml:space="preserve" font-family="Helvetica" font-size="21.2" fill="#4A4A4A" transform="matrix(1.00, 0.00, -0.00, -1.00, 619.0, 487.0)">s</text><text xml:space="preserve" font-family="Helvetica" font-size="21.2" fill="#4A4A4A" transform="matrix(1.00, 0.00, -0.00, -1.00, 630.4, 487.0)"> </text><text xml:space="preserve" font-family="Helvetica" font-size="21.2" fill="#4A4A4A" transform="matrix(1.00, 0.00, -0.00, -1.00, 637.0, 487.0)">d</text><text xml:space="preserve" font-family="Helvetica" font-size="21.2" fill="#4A4A4A" transform="matrix(1.00, 0.00, -0.00, -1.00, 649.5, 487.0)">i</text><text xml:space="preserve" font-family="Helvetica" font-size="21.2" fill="#4A4A4A" transform="matrix(1.00, 0.00, -0.00, -1.00, 654.9, 487.0)">f</text><text xml:space="preserve" font-family="Helvetica" font-size="21.2" fill="#4A4A4A" transform="matrix(1.00, 0.00, -0.00, -1.00, 661.7, 487.0)">f</text><text xml:space="preserve" font-family="Helvetica" font-size="21.2" fill="#4A4A4A" transform="matrix(1.00, 0.00, -0.00, -1.00, 668.3, 487.0)">e</text><text xml:space="preserve" font-family="Helvetica" font-size="21.2" fill="#4A4A4A" transform="matrix(1.00, 0.00, -0.00, -1.00, 680.8, 487.0)">r</text><text xml:space="preserve" font-family="Helvetica" font-size="21.2" fill="#4A4A4A" transform="matrix(1.00, 0.00, -0.00, -1.00, 688.2, 487.0)">e</text><text xml:space="preserve" font-family="Helvetica" font-size="21.2" fill="#4A4A4A" transform="matrix(1.00, 0.00, -0.00, -1.00, 700.7, 487.0)">n</text><text xml:space="preserve" font-family="Helvetica" font-size="21.2" fill="#4A4A4A" transform="matrix(1.00, 0.00, -0.00, -1.00, 713.3, 487.0)">t</text><text xml:space="preserve" font-family="Helvetica" font-size="21.2" fill="#4A4A4A" transform="matrix(1.00, 0.00, -0.00, -1.00, 719.9, 487.0)"> </text><text xml:space="preserve" font-family="Helvetica" font-size="21.2" fill="#4A4A4A" transform="matrix(1.00, 0.00, -0.00, -1.00, 726.5, 487.0)">a</text><text xml:space="preserve" font-family="Helvetica" font-size="21.2" fill="#4A4A4A" transform="matrix(1.00, 0.00, -0.00, -1.00, 739.0, 487.0)">r</text><text xml:space="preserve" font-family="Helvetica" font-size="21.2" fill="#4A4A4A" transform="matrix(1.00, 0.00, -0.00, -1.00, 746.8, 487.0)">t</text><text xml:space="preserve" font-family="Helvetica" font-size="21.2" fill="#4A4A4A" transform="matrix(1.00, 0.00, -0.00, -1.00, 753.4, 487.0)">i</text><text xml:space="preserve" font-family="Helvetica" font-size="21.2" fill="#4A4A4A" transform="matrix(1.00, 0.00, -0.00, -1.00, 758.8, 487.0)">c</text><text xml:space="preserve" font-family="Helvetica" font-size="21.2" fill="#4A4A4A" transform="matrix(1.00, 0.00, -0.00, -1.00, 770.2, 487.0)">l</text><text xml:space="preserve" font-family="Helvetica" font-size="21.2" fill="#4A4A4A" transform="matrix(1.00, 0.00, -0.00, -1.00, 775.6, 487.0)">e</text><text xml:space="preserve" font-family="Helvetica" font-size="21.2" fill="#4A4A4A" transform="matrix(1.00, 0.00, -0.00, -1.00, 788.1, 487.0)">s</text><text xml:space="preserve" font-family="Helvetica" font-size="21.2" fill="#4A4A4A" transform="matrix(1.00, 0.00, -0.00, -1.00, 799.5, 487.0)"> </text><text xml:space="preserve" font-family="Helvetica" font-size="21.2" fill="#4A4A4A" transform="matrix(1.00, 0.00, -0.00, -1.00, 150.0, 437.0)">a</text><text xml:space="preserve" font-family="Helvetica" font-size="21.2" fill="#4A4A4A" transform="matrix(1.00, 0.00, -0.00, -1.00, 162.5, 437.0)">n</text><text xml:space="preserve" font-family="Helvetica" font-size="21.2" fill="#4A4A4A" transform="matrix(1.00, 0.00, -0.00, -1.00, 175.1, 437.0)">d</text><text xml:space="preserve" font-family="Helvetica" font-size="21.2" fill="#4A4A4A" transform="matrix(1.00, 0.00, -0.00, -1.00, 187.6, 437.0)"> </text><text xml:space="preserve" font-family="Helvetica" font-size="21.2" fill="#4A4A4A" transform="matrix(1.00, 0.00, -0.00, -1.00, 194.2, 437.0)">f</text><text xml:space="preserve" font-family="Helvetica" font-size="21.2" fill="#4A4A4A" transform="matrix(1.00, 0.00, -0.00, -1.00, 200.8, 437.0)">o</text><text xml:space="preserve" font-family="Helvetica" font-size="21.2" fill="#4A4A4A" transform="matrix(1.00, 0.00, -0.00, -1.00, 213.4, 437.0)">r</text><text xml:space="preserve" font-family="Helvetica" font-size="21.2" fill="#4A4A4A" transform="matrix(1.00, 0.00, -0.00, -1.00, 221.2, 437.0)">m</text><text xml:space="preserve" font-family="Helvetica" font-size="21.2" fill="#4A4A4A" transform="matrix(1.00, 0.00, -0.00, -1.00, 239.6, 437.0)">s</text><text xml:space="preserve" font-family="Helvetica" font-size="21.2" fill="#4A4A4A" transform="matrix(1.00, 0.00, -0.00, -1.00, 250.9, 437.0)"> </text><text xml:space="preserve" font-family="Helvetica" font-size="21.2" fill="#4A4A4A" transform="matrix(1.00, 0.00, -0.00, -1.00, 257.5, 437.0)">o</text><text xml:space="preserve" font-family="Helvetica" font-size="21.2" fill="#4A4A4A" transform="matrix(1.00, 0.00, -0.00, -1.00, 270.1, 437.0)">f</text><text xml:space="preserve" font-family="Helvetica" font-size="21.2" fill="#4A4A4A" transform="matrix(1.00, 0.00, -0.00, -1.00, 276.7, 437.0)"> </text><text xml:space="preserve" font-family="Helvetica" font-size="21.2" fill="#4A4A4A" transform="matrix(1.00, 0.00, -0.00, -1.00, 283.3, 437.0)">c</text><text xml:space="preserve" font-family="Helvetica" font-size="21.2" fill="#4A4A4A" transform="matrix(1.00, 0.00, -0.00, -1.00, 294.7, 437.0)">o</text><text xml:space="preserve" font-family="Helvetica" font-size="21.2" fill="#4A4A4A" transform="matrix(1.00, 0.00, -0.00, -1.00, 307.2, 437.0)">n</text><text xml:space="preserve" font-family="Helvetica" font-size="21.2" fill="#4A4A4A" transform="matrix(1.00, 0.00, -0.00, -1.00, 319.7, 437.0)">t</text><text xml:space="preserve" font-family="Helvetica" font-size="21.2" fill="#4A4A4A" transform="matrix(1.00, 0.00, -0.00, -1.00, 326.4, 437.0)">e</text><text xml:space="preserve" font-family="Helvetica" font-size="21.2" fill="#4A4A4A" transform="matrix(1.00, 0.00, -0.00, -1.00, 338.9, 437.0)">n</text><text xml:space="preserve" font-family="Helvetica" font-size="21.2" fill="#4A4A4A" transform="matrix(1.00, 0.00, -0.00, -1.00, 351.4, 437.0)">t</text><text xml:space="preserve" font-family="Helvetica" font-size="21.2" fill="#4A4A4A" transform="matrix(1.00, 0.00, -0.00, -1.00, 358.0, 437.0)"> </text><text xml:space="preserve" font-family="Helvetica" font-size="21.2" fill="#4A4A4A" transform="matrix(1.00, 0.00, -0.00, -1.00, 364.7, 437.0)">i</text><text xml:space="preserve" font-family="Helvetica" font-size="21.2" fill="#4A4A4A" transform="matrix(1.00, 0.00, -0.00, -1.00, 370.1, 437.0)">n</text><text xml:space="preserve" font-family="Helvetica" font-size="21.2" fill="#4A4A4A" transform="matrix(1.00, 0.00, -0.00, -1.00, 382.6, 437.0)">t</text><text xml:space="preserve" font-family="Helvetica" font-size="21.2" fill="#4A4A4A" transform="matrix(1.00, 0.00, -0.00, -1.00, 389.3, 437.0)">o</text><text xml:space="preserve" font-family="Helvetica" font-size="21.2" fill="#4A4A4A" transform="matrix(1.00, 0.00, -0.00, -1.00, 401.8, 437.0)"> </text><text xml:space="preserve" font-family="Helvetica" font-size="21.2" fill="#4A4A4A" transform="matrix(1.00, 0.00, -0.00, -1.00, 408.4, 437.0)">a</text><text xml:space="preserve" font-family="Helvetica" font-size="21.2" fill="#4A4A4A" transform="matrix(1.00, 0.00, -0.00, -1.00, 420.9, 437.0)"> </text><text xml:space="preserve" font-family="Helvetica" font-size="21.2" fill="#4A4A4A" transform="matrix(1.00, 0.00, -0.00, -1.00, 427.6, 437.0)">c</text><text xml:space="preserve" font-family="Helvetica" font-size="21.2" fill="#4A4A4A" transform="matrix(1.00, 0.00, -0.00, -1.00, 438.9, 437.0)">o</text><text xml:space="preserve" font-family="Helvetica" font-size="21.2" fill="#4A4A4A" transform="matrix(1.00, 0.00, -0.00, -1.00, 451.4, 437.0)">m</text><text xml:space="preserve" font-family="Helvetica" font-size="21.2" fill="#4A4A4A" transform="matrix(1.00, 0.00, -0.00, -1.00, 469.9, 437.0)">p</text><text xml:space="preserve" font-family="Helvetica" font-size="21.2" fill="#4A4A4A" transform="matrix(1.00, 0.00, -0.00, -1.00, 482.4, 437.0)">r</text><text xml:space="preserve" font-family="Helvetica" font-size="21.2" fill="#4A4A4A" transform="matrix(1.00, 0.00, -0.00, -1.00, 489.8, 437.0)">e</text><text xml:space="preserve" font-family="Helvetica" font-size="21.2" fill="#4A4A4A" transform="matrix(1.00, 0.00, -0.00, -1.00, 502.3, 437.0)">h</text><text xml:space="preserve" font-family="Helvetica" font-size="21.2" fill="#4A4A4A" transform="matrix(1.00, 0.00, -0.00, -1.00, 514.8, 437.0)">e</text><text xml:space="preserve" font-family="Helvetica" font-size="21.2" fill="#4A4A4A" transform="matrix(1.00, 0.00, -0.00, -1.00, 527.4, 437.0)">n</text><text xml:space="preserve" font-family="Helvetica" font-size="21.2" fill="#4A4A4A" transform="matrix(1.00, 0.00, -0.00, -1.00, 539.9, 437.0)">s</text><text xml:space="preserve" font-family="Helvetica" font-size="21.2" fill="#4A4A4A" transform="matrix(1.00, 0.00, -0.00, -1.00, 551.2, 437.0)">i</text><text xml:space="preserve" font-family="Helvetica" font-size="21.2" fill="#4A4A4A" transform="matrix(1.00, 0.00, -0.00, -1.00, 556.6, 437.0)">v</text><text xml:space="preserve" font-family="Helvetica" font-size="21.2" fill="#4A4A4A" transform="matrix(1.00, 0.00, -0.00, -1.00, 567.8, 437.0)">e</text><text xml:space="preserve" font-family="Helvetica" font-size="21.2" fill="#4A4A4A" transform="matrix(1.00, 0.00, -0.00, -1.00, 580.4, 437.0)"> </text><text xml:space="preserve" font-family="Helvetica" font-size="21.2" fill="#4A4A4A" transform="matrix(1.00, 0.00, -0.00, -1.00, 587.0, 437.0)">s</text><text xml:space="preserve" font-family="Helvetica" font-size="21.2" fill="#4A4A4A" transform="matrix(1.00, 0.00, -0.00, -1.00, 598.3, 437.0)">t</text><text xml:space="preserve" font-family="Helvetica" font-size="21.2" fill="#4A4A4A" transform="matrix(1.00, 0.00, -0.00, -1.00, 604.9, 437.0)">o</text><text xml:space="preserve" font-family="Helvetica" font-size="21.2" fill="#4A4A4A" transform="matrix(1.00, 0.00, -0.00, -1.00, 617.5, 437.0)">r</text><text xml:space="preserve" font-family="Helvetica" font-size="21.2" fill="#4A4A4A" transform="matrix(1.00, 0.00, -0.00, -1.00, 625.3, 437.0)">y</text></g></g><g><clipPath id="clip-140"><path d="M 150.0 603.0 L 715.0 603.0 L 715.0 617.0 L 150.0 617.0 Z M 150.0 603.0 "></path></clipPath><g clip-path="url(#clip-140)"><text xml:space="preserve" font-family="Helvetica" font-size="17.5" fill="#4A4A4A" transform="matrix(1.00, 0.00, -0.00, -1.00, 150.0, 603.2)">S</text><text xml:space="preserve" font-family="Helvetica" font-size="17.5" fill="#4A4A4A" transform="matrix(1.00, 0.00, -0.00, -1.00, 166.1, 603.2)">T</text><text xml:space="preserve" font-family="Helvetica" font-size="17.5" fill="#4A4A4A" transform="matrix(1.00, 0.00, -0.00, -1.00, 181.5, 603.2)">R</text><text xml:space="preserve" font-family="Helvetica" font-size="17.5" fill="#4A4A4A" transform="matrix(1.00, 0.00, -0.00, -1.00, 198.9, 603.2)">E</text><text xml:space="preserve" font-family="Helvetica" font-size="17.5" fill="#4A4A4A" transform="matrix(1.00, 0.00, -0.00, -1.00, 215.3, 603.2)">A</text><text xml:space="preserve" font-family="Helvetica" font-size="17.5" fill="#4A4A4A" transform="matrix(1.00, 0.00, -0.00, -1.00, 231.7, 603.2)">M</text><text xml:space="preserve" font-family="Helvetica" font-size="17.5" fill="#4A4A4A" transform="matrix(1.00, 0.00, -0.00, -1.00, 250.9, 603.2)">L</text><text xml:space="preserve" font-family="Helvetica" font-size="17.5" fill="#4A4A4A" transform="matrix(1.00, 0.00, -0.00, -1.00, 265.4, 603.2)">I</text><text xml:space="preserve" font-family="Helvetica" font-size="17.5" fill="#4A4A4A" transform="matrix(1.00, 0.00, -0.00, -1.00, 275.0, 603.2)">N</text><text xml:space="preserve" font-family="Helvetica" font-size="17.5" fill="#4A4A4A" transform="matrix(1.00, 0.00, -0.00, -1.00, 292.3, 603.2)">I</text><text xml:space="preserve" font-family="Helvetica" font-size="17.5" fill="#4A4A4A" transform="matrix(1.00, 0.00, -0.00, -1.00, 301.9, 603.2)">N</text><text xml:space="preserve" font-family="Helvetica" font-size="17.5" fill="#4A4A4A" transform="matrix(1.00, 0.00, -0.00, -1.00, 319.3, 603.2)">G</text><text xml:space="preserve" font-family="Helvetica" font-size="17.5" fill="#4A4A4A" transform="matrix(1.00, 0.00, -0.00, -1.00, 337.6, 603.2)"> </text><text xml:space="preserve" font-family="Helvetica" font-size="17.5" fill="#4A4A4A" transform="matrix(1.00, 0.00, -0.00, -1.00, 346.8, 603.2)">V</text><text xml:space="preserve" font-family="Helvetica" font-size="17.5" fill="#4A4A4A" transform="matrix(1.00, 0.00, -0.00, -1.00, 363.2, 603.2)">I</text><text xml:space="preserve" font-family="Helvetica" font-size="17.5" fill="#4A4A4A" transform="matrix(1.00, 0.00, -0.00, -1.00, 372.8, 603.2)">S</text><text xml:space="preserve" font-family="Helvetica" font-size="17.5" fill="#4A4A4A" transform="matrix(1.00, 0.00, -0.00, -1.00, 389.2, 603.2)">U</text><text xml:space="preserve" font-family="Helvetica" font-size="17.5" fill="#4A4A4A" transform="matrix(1.00, 0.00, -0.00, -1.00, 405.9, 603.2)">A</text><text xml:space="preserve" font-family="Helvetica" font-size="17.5" fill="#4A4A4A" transform="matrix(1.00, 0.00, -0.00, -1.00, 422.3, 603.2)">L</text><text xml:space="preserve" font-family="Helvetica" font-size="17.5" fill="#4A4A4A" transform="matrix(1.00, 0.00, -0.00, -1.00, 436.7, 603.2)"> </text><text xml:space="preserve" font-family="Helvetica" font-size="17.5" fill="#4A4A4A" transform="matrix(1.00, 0.00, -0.00, -1.00, 446.3, 603.2)">C</text><text xml:space="preserve" font-family="Helvetica" font-size="17.5" fill="#4A4A4A" transform="matrix(1.00, 0.00, -0.00, -1.00, 463.7, 603.2)">O</text><text xml:space="preserve" font-family="Helvetica" font-size="17.5" fill="#4A4A4A" transform="matrix(1.00, 0.00, -0.00, -1.00, 482.0, 603.2)">N</text><text xml:space="preserve" font-family="Helvetica" font-size="17.5" fill="#4A4A4A" transform="matrix(1.00, 0.00, -0.00, -1.00, 499.3, 603.2)">T</text><text xml:space="preserve" font-family="Helvetica" font-size="17.5" fill="#4A4A4A" transform="matrix(1.00, 0.00, -0.00, -1.00, 514.7, 603.2)">E</text><text xml:space="preserve" font-family="Helvetica" font-size="17.5" fill="#4A4A4A" transform="matrix(1.00, 0.00, -0.00, -1.00, 531.1, 603.2)">N</text><text xml:space="preserve" font-family="Helvetica" font-size="17.5" fill="#4A4A4A" transform="matrix(1.00, 0.00, -0.00, -1.00, 548.5, 603.2)">T</text></g></g><g><clipPath id="clip-141"><path d="M 45.0 260.0 L 1116.0 260.0 L 1116.0 343.0 L 45.0 343.0 Z M 45.0 260.0 "></path></clipPath><g clip-path="url(#clip-141)"><path d="M 6.0 4.0 L 6.0 62.1 " fill="none" stroke="#D0D0D0" stroke-width="5.00" stroke-miterlimit="0.00" stroke-linecap="round" transform="matrix(0.39, 0.00, 0.00, -0.39, 322.6, 313.5)"></path><path d="M 6.0 4.0 L 6.0 62.1 " fill="none" stroke="#D0D0D0" stroke-width="5.00" stroke-miterlimit="0.00" stroke-linecap="round" transform="matrix(0.39, 0.00, 0.00, -0.39, 345.9, 313.5)"></path><path d="M 6.0 4.0 L 6.0 62.1 " fill="none" stroke="#D0D0D0" stroke-width="5.00" stroke-miterlimit="0.00" stroke-linecap="round" transform="matrix(0.39, 0.00, 0.00, -0.39, 369.1, 313.5)"></path><path d="M 6.0 2.0 L 6.0 110.0 " fill="none" stroke="#B2B2B2" stroke-width="6.00" stroke-miterlimit="0.00" stroke-linecap="round" transform="matrix(0.39, 0.00, 0.00, -0.39, 392.3, 322.8)"></path><path d="M 6.0 2.0 L 6.0 110.0 " fill="none" stroke="#B2B2B2" stroke-width="6.00" stroke-miterlimit="0.00" stroke-linecap="round" transform="matrix(0.39, 0.00, 0.00, -0.39, 392.3, 322.8)"></path><path d="M 6.0 2.0 L 6.0 110.0 " fill="none" stroke="#B2B2B2" stroke-width="6.00" stroke-miterlimit="0.00" stroke-linecap="round" transform="matrix(0.39, 0.00, 0.00, -0.39, 485.2, 322.8)"></path><path d="M 6.0 4.0 L 6.0 62.1 " fill="none" stroke="#D0D0D0" stroke-width="5.00" stroke-miterlimit="0.00" stroke-linecap="round" transform="matrix(0.39, 0.00, 0.00, -0.39, 415.6, 313.5)"></path><path d="M 6.0 4.0 L 6.0 62.1 " fill="none" stroke="#D0D0D0" stroke-width="5.00" stroke-miterlimit="0.00" stroke-linecap="round" transform="matrix(0.39, 0.00, 0.00, -0.39, 438.8, 313.5)"></path><path d="M 6.0 4.0 L 6.0 62.1 " fill="none" stroke="#D0D0D0" stroke-width="5.00" stroke-miterlimit="0.00" stroke-linecap="round" transform="matrix(0.39, 0.00, 0.00, -0.39, 462.0, 313.5)"></path><path d="M 6.0 4.0 L 6.0 62.1 " fill="none" stroke="#D0D0D0" stroke-width="5.00" stroke-miterlimit="0.00" stroke-linecap="round" transform="matrix(0.39, 0.00, 0.00, -0.39, 508.5, 313.5)"></path><path d="M 6.0 4.0 L 6.0 62.1 " fill="none" stroke="#D0D0D0" stroke-width="5.00" stroke-miterlimit="0.00" stroke-linecap="round" transform="matrix(0.39, 0.00, 0.00, -0.39, 531.7, 313.5)"></path><path d="M 6.0 4.0 L 6.0 62.1 " fill="none" stroke="#D0D0D0" stroke-width="5.00" stroke-miterlimit="0.00" stroke-linecap="round" transform="matrix(0.39, 0.00, 0.00, -0.39, 554.9, 313.5)"></path><path d="M 6.0 2.0 L 6.0 110.0 " fill="none" stroke="#B2B2B2" stroke-width="6.00" stroke-miterlimit="0.00" stroke-linecap="round" transform="matrix(0.39, 0.00, 0.00, -0.39, 299.4, 322.8)"></path></g></g><g><clipPath id="clip-142"><path d="M 301.7 297.2 C 303.4 297.2 304.8 298.6 304.8 300.3 C 304.8 302.1 303.4 303.4 301.7 303.4 C 300.0 303.4 298.6 302.1 298.6 300.3 C 298.6 298.6 300.0 297.2 301.7 297.2 Z M 301.7 297.2 "></path></clipPath><g clip-path="url(#clip-142)"><g><clipPath id="clip-143"><path d="M 45.0 260.0 L 1116.0 260.0 L 1116.0 343.0 L 45.0 343.0 Z M 45.0 260.0 "></path></clipPath><g clip-path="url(#clip-143)"><path d="M 297.5 296.1 L 306.0 296.1 L 306.0 304.6 L 297.5 304.6 Z M 297.5 296.1 " fill="#FCFCFC"></path></g></g></g></g><g><clipPath id="clip-144"><path d="M 294.0 308.1 L 309.5 308.1 L 309.5 292.6 L 294.0 292.6 Z M 301.7 298.0 C 303.0 298.0 304.0 299.1 304.0 300.3 C 304.0 301.6 303.0 302.7 301.7 302.7 C 300.4 302.7 299.4 301.6 299.4 300.3 C 299.4 299.1 300.4 298.0 301.7 298.0 Z M 301.7 298.0 "></path></clipPath><g clip-path="url(#clip-144)"><g><clipPath id="clip-145"><path d="M 45.0 260.0 L 1116.0 260.0 L 1116.0 343.0 L 45.0 343.0 Z M 45.0 260.0 "></path></clipPath><g clip-path="url(#clip-145)"><path d="M 6.0 12.0 C 9.3 12.0 12.0 9.3 12.0 6.0 C 12.0 2.7 9.3 0.0 6.0 0.0 C 2.7 0.0 0.0 2.7 0.0 6.0 C 0.0 9.3 2.7 12.0 6.0 12.0 Z M 6.0 12.0 " fill="none" stroke="#B1B1B1" stroke-width="8.00" stroke-miterlimit="0.00" transform="matrix(0.39, 0.00, 0.00, -0.39, 299.4, 302.7)"></path></g></g></g></g><g><clipPath id="clip-146"><path d="M 45.0 260.0 L 1116.0 260.0 L 1116.0 343.0 L 45.0 343.0 Z M 45.0 260.0 "></path></clipPath><g clip-path="url(#clip-146)"><path d="M 6.0 4.0 L 6.0 62.1 " fill="none" stroke="#D0D0D0" stroke-width="5.00" stroke-miterlimit="0.00" stroke-linecap="round" transform="matrix(0.39, 0.00, 0.00, -0.39, 322.6, 313.5)"></path><path d="M 6.0 4.0 L 6.0 62.1 " fill="none" stroke="#D0D0D0" stroke-width="5.00" stroke-miterlimit="0.00" stroke-linecap="round" transform="matrix(0.39, 0.00, 0.00, -0.39, 345.9, 313.5)"></path><path d="M 6.0 4.0 L 6.0 62.1 " fill="none" stroke="#D0D0D0" stroke-width="5.00" stroke-miterlimit="0.00" stroke-linecap="round" transform="matrix(0.39, 0.00, 0.00, -0.39, 369.1, 313.5)"></path><path d="M 6.0 2.0 L 6.0 110.0 " fill="none" stroke="#B2B2B2" stroke-width="6.00" stroke-miterlimit="0.00" stroke-linecap="round" transform="matrix(0.39, 0.00, 0.00, -0.39, 392.3, 322.8)"></path><path d="M 6.0 2.0 L 6.0 110.0 " fill="none" stroke="#B2B2B2" stroke-width="6.00" stroke-miterlimit="0.00" stroke-linecap="round" transform="matrix(0.39, 0.00, 0.00, -0.39, 392.3, 322.8)"></path><path d="M 6.0 2.0 L 6.0 110.0 " fill="none" stroke="#B2B2B2" stroke-width="6.00" stroke-miterlimit="0.00" stroke-linecap="round" transform="matrix(0.39, 0.00, 0.00, -0.39, 485.2, 322.8)"></path><path d="M 6.0 4.0 L 6.0 62.1 " fill="none" stroke="#D0D0D0" stroke-width="5.00" stroke-miterlimit="0.00" stroke-linecap="round" transform="matrix(0.39, 0.00, 0.00, -0.39, 415.6, 313.5)"></path><path d="M 6.0 4.0 L 6.0 62.1 " fill="none" stroke="#D0D0D0" stroke-width="5.00" stroke-miterlimit="0.00" stroke-linecap="round" transform="matrix(0.39, 0.00, 0.00, -0.39, 438.8, 313.5)"></path><path d="M 6.0 4.0 L 6.0 62.1 " fill="none" stroke="#D0D0D0" stroke-width="5.00" stroke-miterlimit="0.00" stroke-linecap="round" transform="matrix(0.39, 0.00, 0.00, -0.39, 462.0, 313.5)"></path><path d="M 6.0 4.0 L 6.0 62.1 " fill="none" stroke="#D0D0D0" stroke-width="5.00" stroke-miterlimit="0.00" stroke-linecap="round" transform="matrix(0.39, 0.00, 0.00, -0.39, 508.5, 313.5)"></path><path d="M 6.0 4.0 L 6.0 62.1 " fill="none" stroke="#D0D0D0" stroke-width="5.00" stroke-miterlimit="0.00" stroke-linecap="round" transform="matrix(0.39, 0.00, 0.00, -0.39, 531.7, 313.5)"></path><path d="M 6.0 4.0 L 6.0 62.1 " fill="none" stroke="#D0D0D0" stroke-width="5.00" stroke-miterlimit="0.00" stroke-linecap="round" transform="matrix(0.39, 0.00, 0.00, -0.39, 554.9, 313.5)"></path></g></g><g><clipPath id="clip-147"><path d="M 394.6 297.2 C 396.4 297.2 397.7 298.6 397.7 300.3 C 397.7 302.1 396.4 303.4 394.6 303.4 C 392.9 303.4 391.5 302.1 391.5 300.3 C 391.5 298.6 392.9 297.2 394.6 297.2 Z M 394.6 297.2 "></path></clipPath><g clip-path="url(#clip-147)"><g><clipPath id="clip-148"><path d="M 45.0 260.0 L 1116.0 260.0 L 1116.0 343.0 L 45.0 343.0 Z M 45.0 260.0 "></path></clipPath><g clip-path="url(#clip-148)"><path d="M 390.4 296.1 L 398.9 296.1 L 398.9 304.6 L 390.4 304.6 Z M 390.4 296.1 " fill="#FCFCFC"></path></g></g></g></g><g><clipPath id="clip-149"><path d="M 386.9 308.1 L 402.4 308.1 L 402.4 292.6 L 386.9 292.6 Z M 394.6 298.0 C 395.9 298.0 397.0 299.1 397.0 300.3 C 397.0 301.6 395.9 302.7 394.6 302.7 C 393.4 302.7 392.3 301.6 392.3 300.3 C 392.3 299.1 393.4 298.0 394.6 298.0 Z M 394.6 298.0 "></path></clipPath><g clip-path="url(#clip-149)"><g><clipPath id="clip-150"><path d="M 45.0 260.0 L 1116.0 260.0 L 1116.0 343.0 L 45.0 343.0 Z M 45.0 260.0 "></path></clipPath><g clip-path="url(#clip-150)"><path d="M 6.0 12.0 C 9.3 12.0 12.0 9.3 12.0 6.0 C 12.0 2.7 9.3 0.0 6.0 0.0 C 2.7 0.0 0.0 2.7 0.0 6.0 C 0.0 9.3 2.7 12.0 6.0 12.0 Z M 6.0 12.0 " fill="none" stroke="#B1B1B1" stroke-width="8.00" stroke-miterlimit="0.00" transform="matrix(0.39, 0.00, 0.00, -0.39, 392.3, 302.7)"></path></g></g></g></g><g><clipPath id="clip-151"><path d="M 487.6 297.2 C 489.3 297.2 490.7 298.6 490.7 300.3 C 490.7 302.1 489.3 303.4 487.6 303.4 C 485.9 303.4 484.5 302.1 484.5 300.3 C 484.5 298.6 485.9 297.2 487.6 297.2 Z M 487.6 297.2 "></path></clipPath><g clip-path="url(#clip-151)"><g><clipPath id="clip-152"><path d="M 45.0 260.0 L 1116.0 260.0 L 1116.0 343.0 L 45.0 343.0 Z M 45.0 260.0 "></path></clipPath><g clip-path="url(#clip-152)"><path d="M 483.3 296.1 L 491.8 296.1 L 491.8 304.6 L 483.3 304.6 Z M 483.3 296.1 " fill="#FCFCFC"></path></g></g></g></g><g><clipPath id="clip-153"><path d="M 479.8 308.1 L 495.3 308.1 L 495.3 292.6 L 479.8 292.6 Z M 487.6 298.0 C 488.9 298.0 489.9 299.1 489.9 300.3 C 489.9 301.6 488.9 302.7 487.6 302.7 C 486.3 302.7 485.2 301.6 485.2 300.3 C 485.2 299.1 486.3 298.0 487.6 298.0 Z M 487.6 298.0 "></path></clipPath><g clip-path="url(#clip-153)"><g><clipPath id="clip-154"><path d="M 45.0 260.0 L 1116.0 260.0 L 1116.0 343.0 L 45.0 343.0 Z M 45.0 260.0 "></path></clipPath><g clip-path="url(#clip-154)"><path d="M 6.0 12.0 C 9.3 12.0 12.0 9.3 12.0 6.0 C 12.0 2.7 9.3 0.0 6.0 0.0 C 2.7 0.0 0.0 2.7 0.0 6.0 C 0.0 9.3 2.7 12.0 6.0 12.0 Z M 6.0 12.0 " fill="none" stroke="#B1B1B1" stroke-width="8.00" stroke-miterlimit="0.00" transform="matrix(0.39, 0.00, 0.00, -0.39, 485.2, 302.7)"></path></g></g></g></g><g><clipPath id="clip-155"><path d="M 45.0 260.0 L 1116.0 260.0 L 1116.0 343.0 L 45.0 343.0 Z M 45.0 260.0 "></path></clipPath><g clip-path="url(#clip-155)"><path d="M 6.0 2.0 L 6.0 110.0 " fill="none" stroke="#B2B2B2" stroke-width="6.00" stroke-miterlimit="0.00" stroke-linecap="round" transform="matrix(0.39, 0.00, 0.00, -0.39, 578.2, 322.8)"></path></g></g><g><clipPath id="clip-156"><path d="M 580.5 297.2 C 582.2 297.2 583.6 298.6 583.6 300.3 C 583.6 302.1 582.2 303.4 580.5 303.4 C 578.8 303.4 577.4 302.1 577.4 300.3 C 577.4 298.6 578.8 297.2 580.5 297.2 Z M 580.5 297.2 "></path></clipPath><g clip-path="url(#clip-156)"><g><clipPath id="clip-157"><path d="M 45.0 260.0 L 1116.0 260.0 L 1116.0 343.0 L 45.0 343.0 Z M 45.0 260.0 "></path></clipPath><g clip-path="url(#clip-157)"><path d="M 576.2 296.1 L 584.8 296.1 L 584.8 304.6 L 576.2 304.6 Z M 576.2 296.1 " fill="#FCFCFC"></path></g></g></g></g><g><clipPath id="clip-158"><path d="M 572.8 308.1 L 588.2 308.1 L 588.2 292.6 L 572.8 292.6 Z M 580.5 298.0 C 581.8 298.0 582.8 299.1 582.8 300.3 C 582.8 301.6 581.8 302.7 580.5 302.7 C 579.2 302.7 578.2 301.6 578.2 300.3 C 578.2 299.1 579.2 298.0 580.5 298.0 Z M 580.5 298.0 "></path></clipPath><g clip-path="url(#clip-158)"><g><clipPath id="clip-159"><path d="M 45.0 260.0 L 1116.0 260.0 L 1116.0 343.0 L 45.0 343.0 Z M 45.0 260.0 "></path></clipPath><g clip-path="url(#clip-159)"><path d="M 6.0 12.0 C 9.3 12.0 12.0 9.3 12.0 6.0 C 12.0 2.7 9.3 0.0 6.0 0.0 C 2.7 0.0 0.0 2.7 0.0 6.0 C 0.0 9.3 2.7 12.0 6.0 12.0 Z M 6.0 12.0 " fill="none" stroke="#B1B1B1" stroke-width="8.00" stroke-miterlimit="0.00" transform="matrix(0.39, 0.00, 0.00, -0.39, 578.2, 302.7)"></path></g></g></g></g><g><clipPath id="clip-160"><path d="M 45.0 260.0 L 1116.0 260.0 L 1116.0 343.0 L 45.0 343.0 Z M 45.0 260.0 "></path></clipPath><g clip-path="url(#clip-160)"><path d="M 6.0 4.0 L 6.0 62.1 " fill="none" stroke="#D0D0D0" stroke-width="5.00" stroke-miterlimit="0.00" stroke-linecap="round" transform="matrix(0.39, 0.00, 0.00, -0.39, 43.8, 313.5)"></path><path d="M 6.0 4.0 L 6.0 62.1 " fill="none" stroke="#D0D0D0" stroke-width="5.00" stroke-miterlimit="0.00" stroke-linecap="round" transform="matrix(0.39, 0.00, 0.00, -0.39, 67.1, 313.5)"></path><path d="M 6.0 4.0 L 6.0 62.1 " fill="none" stroke="#D0D0D0" stroke-width="5.00" stroke-miterlimit="0.00" stroke-linecap="round" transform="matrix(0.39, 0.00, 0.00, -0.39, 90.3, 313.5)"></path><path d="M 6.0 2.0 L 6.0 110.0 " fill="none" stroke="#B2B2B2" stroke-width="6.00" stroke-miterlimit="0.00" stroke-linecap="round" transform="matrix(0.39, 0.00, 0.00, -0.39, 113.5, 322.8)"></path><path d="M 6.0 2.0 L 6.0 110.0 " fill="none" stroke="#B2B2B2" stroke-width="6.00" stroke-miterlimit="0.00" stroke-linecap="round" transform="matrix(0.39, 0.00, 0.00, -0.39, 113.5, 322.8)"></path><path d="M 6.0 2.0 L 6.0 110.0 " fill="none" stroke="#B2B2B2" stroke-width="6.00" stroke-miterlimit="0.00" stroke-linecap="round" transform="matrix(0.39, 0.00, 0.00, -0.39, 206.5, 322.8)"></path><path d="M 6.0 4.0 L 6.0 62.1 " fill="none" stroke="#D0D0D0" stroke-width="5.00" stroke-miterlimit="0.00" stroke-linecap="round" transform="matrix(0.39, 0.00, 0.00, -0.39, 136.8, 313.5)"></path><path d="M 6.0 4.0 L 6.0 62.1 " fill="none" stroke="#D0D0D0" stroke-width="5.00" stroke-miterlimit="0.00" stroke-linecap="round" transform="matrix(0.39, 0.00, 0.00, -0.39, 160.0, 313.5)"></path><path d="M 6.0 4.0 L 6.0 62.1 " fill="none" stroke="#D0D0D0" stroke-width="5.00" stroke-miterlimit="0.00" stroke-linecap="round" transform="matrix(0.39, 0.00, 0.00, -0.39, 183.2, 313.5)"></path><path d="M 6.0 4.0 L 6.0 62.1 " fill="none" stroke="#D0D0D0" stroke-width="5.00" stroke-miterlimit="0.00" stroke-linecap="round" transform="matrix(0.39, 0.00, 0.00, -0.39, 229.7, 313.5)"></path><path d="M 6.0 4.0 L 6.0 62.1 " fill="none" stroke="#D0D0D0" stroke-width="5.00" stroke-miterlimit="0.00" stroke-linecap="round" transform="matrix(0.39, 0.00, 0.00, -0.39, 252.9, 313.5)"></path><path d="M 6.0 4.0 L 6.0 62.1 " fill="none" stroke="#D0D0D0" stroke-width="5.00" stroke-miterlimit="0.00" stroke-linecap="round" transform="matrix(0.39, 0.00, 0.00, -0.39, 276.2, 313.5)"></path></g></g><g><clipPath id="clip-161"><path d="M 115.9 297.2 C 117.6 297.2 119.0 298.6 119.0 300.3 C 119.0 302.1 117.6 303.4 115.9 303.4 C 114.1 303.4 112.8 302.1 112.8 300.3 C 112.8 298.6 114.1 297.2 115.9 297.2 Z M 115.9 297.2 "></path></clipPath><g clip-path="url(#clip-161)"><g><clipPath id="clip-162"><path d="M 45.0 260.0 L 1116.0 260.0 L 1116.0 343.0 L 45.0 343.0 Z M 45.0 260.0 "></path></clipPath><g clip-path="url(#clip-162)"><path d="M 111.6 296.1 L 120.1 296.1 L 120.1 304.6 L 111.6 304.6 Z M 111.6 296.1 " fill="#FCFCFC"></path></g></g></g></g><g><clipPath id="clip-163"><path d="M 108.1 308.1 L 123.6 308.1 L 123.6 292.6 L 108.1 292.6 Z M 115.9 298.0 C 117.1 298.0 118.2 299.1 118.2 300.3 C 118.2 301.6 117.1 302.7 115.9 302.7 C 114.6 302.7 113.5 301.6 113.5 300.3 C 113.5 299.1 114.6 298.0 115.9 298.0 Z M 115.9 298.0 "></path></clipPath><g clip-path="url(#clip-163)"><g><clipPath id="clip-164"><path d="M 45.0 260.0 L 1116.0 260.0 L 1116.0 343.0 L 45.0 343.0 Z M 45.0 260.0 "></path></clipPath><g clip-path="url(#clip-164)"><path d="M 6.0 12.0 C 9.3 12.0 12.0 9.3 12.0 6.0 C 12.0 2.7 9.3 0.0 6.0 0.0 C 2.7 0.0 0.0 2.7 0.0 6.0 C 0.0 9.3 2.7 12.0 6.0 12.0 Z M 6.0 12.0 " fill="none" stroke="#B1B1B1" stroke-width="8.00" stroke-miterlimit="0.00" transform="matrix(0.39, 0.00, 0.00, -0.39, 113.5, 302.7)"></path></g></g></g></g><g><clipPath id="clip-165"><path d="M 208.8 297.2 C 210.5 297.2 211.9 298.6 211.9 300.3 C 211.9 302.1 210.5 303.4 208.8 303.4 C 207.1 303.4 205.7 302.1 205.7 300.3 C 205.7 298.6 207.1 297.2 208.8 297.2 Z M 208.8 297.2 "></path></clipPath><g clip-path="url(#clip-165)"><g><clipPath id="clip-166"><path d="M 45.0 260.0 L 1116.0 260.0 L 1116.0 343.0 L 45.0 343.0 Z M 45.0 260.0 "></path></clipPath><g clip-path="url(#clip-166)"><path d="M 204.5 296.1 L 213.0 296.1 L 213.0 304.6 L 204.5 304.6 Z M 204.5 296.1 " fill="#FCFCFC"></path></g></g></g></g><g><clipPath id="clip-167"><path d="M 201.0 308.1 L 216.5 308.1 L 216.5 292.6 L 201.0 292.6 Z M 208.8 298.0 C 210.1 298.0 211.1 299.1 211.1 300.3 C 211.1 301.6 210.1 302.7 208.8 302.7 C 207.5 302.7 206.5 301.6 206.5 300.3 C 206.5 299.1 207.5 298.0 208.8 298.0 Z M 208.8 298.0 "></path></clipPath><g clip-path="url(#clip-167)"><g><clipPath id="clip-168"><path d="M 45.0 260.0 L 1116.0 260.0 L 1116.0 343.0 L 45.0 343.0 Z M 45.0 260.0 "></path></clipPath><g clip-path="url(#clip-168)"><path d="M 6.0 12.0 C 9.3 12.0 12.0 9.3 12.0 6.0 C 12.0 2.7 9.3 0.0 6.0 0.0 C 2.7 0.0 0.0 2.7 0.0 6.0 C 0.0 9.3 2.7 12.0 6.0 12.0 Z M 6.0 12.0 " fill="none" stroke="#B1B1B1" stroke-width="8.00" stroke-miterlimit="0.00" transform="matrix(0.39, 0.00, 0.00, -0.39, 206.5, 302.7)"></path></g></g></g></g><g><clipPath id="clip-169"><path d="M 45.0 260.0 L 1116.0 260.0 L 1116.0 343.0 L 45.0 343.0 Z M 45.0 260.0 "></path></clipPath><g clip-path="url(#clip-169)"><path d="M 6.0 4.0 L 6.0 62.1 " fill="none" stroke="#D0D0D0" stroke-width="5.00" stroke-miterlimit="0.00" stroke-linecap="round" transform="matrix(0.39, 0.00, 0.00, -0.39, 601.4, 313.5)"></path><path d="M 6.0 4.0 L 6.0 62.1 " fill="none" stroke="#D0D0D0" stroke-width="5.00" stroke-miterlimit="0.00" stroke-linecap="round" transform="matrix(0.39, 0.00, 0.00, -0.39, 624.6, 313.5)"></path><path d="M 6.0 4.0 L 6.0 62.1 " fill="none" stroke="#D0D0D0" stroke-width="5.00" stroke-miterlimit="0.00" stroke-linecap="round" transform="matrix(0.39, 0.00, 0.00, -0.39, 647.9, 313.5)"></path><path d="M 6.0 4.0 L 6.0 62.1 " fill="none" stroke="#D0D0D0" stroke-width="5.00" stroke-miterlimit="0.00" stroke-linecap="round" transform="matrix(0.39, 0.00, 0.00, -0.39, 694.3, 313.5)"></path><path d="M 6.0 4.0 L 6.0 62.1 " fill="none" stroke="#D0D0D0" stroke-width="5.00" stroke-miterlimit="0.00" stroke-linecap="round" transform="matrix(0.39, 0.00, 0.00, -0.39, 717.6, 313.5)"></path><path d="M 6.0 4.0 L 6.0 62.1 " fill="none" stroke="#D0D0D0" stroke-width="5.00" stroke-miterlimit="0.00" stroke-linecap="round" transform="matrix(0.39, 0.00, 0.00, -0.39, 740.8, 313.5)"></path><path d="M 6.0 4.0 L 6.0 62.1 " fill="none" stroke="#D0D0D0" stroke-width="5.00" stroke-miterlimit="0.00" stroke-linecap="round" transform="matrix(0.39, 0.00, 0.00, -0.39, 787.3, 313.5)"></path><path d="M 6.0 4.0 L 6.0 62.1 " fill="none" stroke="#D0D0D0" stroke-width="5.00" stroke-miterlimit="0.00" stroke-linecap="round" transform="matrix(0.39, 0.00, 0.00, -0.39, 810.5, 313.5)"></path><path d="M 6.0 4.0 L 6.0 62.1 " fill="none" stroke="#D0D0D0" stroke-width="5.00" stroke-miterlimit="0.00" stroke-linecap="round" transform="matrix(0.39, 0.00, 0.00, -0.39, 833.7, 313.5)"></path><path d="M 6.0 2.0 L 6.0 110.0 " fill="none" stroke="#B1B1B1" stroke-width="6.00" stroke-miterlimit="0.00" stroke-linecap="round" transform="matrix(0.39, 0.00, 0.00, -0.39, 671.1, 322.8)"></path></g></g><g><clipPath id="clip-170"><path d="M 673.4 297.2 C 675.1 297.2 676.5 298.6 676.5 300.3 C 676.5 302.1 675.1 303.4 673.4 303.4 C 671.7 303.4 670.3 302.1 670.3 300.3 C 670.3 298.6 671.7 297.2 673.4 297.2 Z M 673.4 297.2 "></path></clipPath><g clip-path="url(#clip-170)"><g><clipPath id="clip-171"><path d="M 45.0 260.0 L 1116.0 260.0 L 1116.0 343.0 L 45.0 343.0 Z M 45.0 260.0 "></path></clipPath><g clip-path="url(#clip-171)"><path d="M 669.2 296.1 L 677.7 296.1 L 677.7 304.6 L 669.2 304.6 Z M 669.2 296.1 " fill="#FCFCFC"></path></g></g></g></g><g><clipPath id="clip-172"><path d="M 665.7 308.1 L 681.2 308.1 L 681.2 292.6 L 665.7 292.6 Z M 673.4 298.0 C 674.7 298.0 675.8 299.1 675.8 300.3 C 675.8 301.6 674.7 302.7 673.4 302.7 C 672.1 302.7 671.1 301.6 671.1 300.3 C 671.1 299.1 672.1 298.0 673.4 298.0 Z M 673.4 298.0 "></path></clipPath><g clip-path="url(#clip-172)"><g><clipPath id="clip-173"><path d="M 45.0 260.0 L 1116.0 260.0 L 1116.0 343.0 L 45.0 343.0 Z M 45.0 260.0 "></path></clipPath><g clip-path="url(#clip-173)"><path d="M 6.0 12.0 C 9.3 12.0 12.0 9.3 12.0 6.0 C 12.0 2.7 9.3 0.0 6.0 0.0 C 2.7 0.0 0.0 2.7 0.0 6.0 C 0.0 9.3 2.7 12.0 6.0 12.0 Z M 6.0 12.0 " fill="none" stroke="#B1B1B1" stroke-width="8.00" stroke-miterlimit="0.00" transform="matrix(0.39, 0.00, 0.00, -0.39, 671.1, 302.7)"></path></g></g></g></g><g><clipPath id="clip-174"><path d="M 45.0 260.0 L 1116.0 260.0 L 1116.0 343.0 L 45.0 343.0 Z M 45.0 260.0 "></path></clipPath><g clip-path="url(#clip-174)"><path d="M 6.0 2.0 L 6.0 110.0 " fill="none" stroke="#B1B1B1" stroke-width="6.00" stroke-miterlimit="0.00" stroke-linecap="round" transform="matrix(0.39, 0.00, 0.00, -0.39, 764.0, 322.8)"></path></g></g><g><clipPath id="clip-175"><path d="M 766.4 297.2 C 768.1 297.2 769.5 298.6 769.5 300.3 C 769.5 302.1 768.1 303.4 766.4 303.4 C 764.6 303.4 763.3 302.1 763.3 300.3 C 763.3 298.6 764.6 297.2 766.4 297.2 Z M 766.4 297.2 "></path></clipPath><g clip-path="url(#clip-175)"><g><clipPath id="clip-176"><path d="M 45.0 260.0 L 1116.0 260.0 L 1116.0 343.0 L 45.0 343.0 Z M 45.0 260.0 "></path></clipPath><g clip-path="url(#clip-176)"><path d="M 762.1 296.1 L 770.6 296.1 L 770.6 304.6 L 762.1 304.6 Z M 762.1 296.1 " fill="#FCFCFC"></path></g></g></g></g><g><clipPath id="clip-177"><path d="M 758.6 308.1 L 774.1 308.1 L 774.1 292.6 L 758.6 292.6 Z M 766.4 298.0 C 767.6 298.0 768.7 299.1 768.7 300.3 C 768.7 301.6 767.6 302.7 766.4 302.7 C 765.1 302.7 764.0 301.6 764.0 300.3 C 764.0 299.1 765.1 298.0 766.4 298.0 Z M 766.4 298.0 "></path></clipPath><g clip-path="url(#clip-177)"><g><clipPath id="clip-178"><path d="M 45.0 260.0 L 1116.0 260.0 L 1116.0 343.0 L 45.0 343.0 Z M 45.0 260.0 "></path></clipPath><g clip-path="url(#clip-178)"><path d="M 6.0 12.0 C 9.3 12.0 12.0 9.3 12.0 6.0 C 12.0 2.7 9.3 0.0 6.0 0.0 C 2.7 0.0 0.0 2.7 0.0 6.0 C 0.0 9.3 2.7 12.0 6.0 12.0 Z M 6.0 12.0 " fill="none" stroke="#B1B1B1" stroke-width="8.00" stroke-miterlimit="0.00" transform="matrix(0.39, 0.00, 0.00, -0.39, 764.0, 302.7)"></path></g></g></g></g><g><clipPath id="clip-179"><path d="M 45.0 260.0 L 1116.0 260.0 L 1116.0 343.0 L 45.0 343.0 Z M 45.0 260.0 "></path></clipPath><g clip-path="url(#clip-179)"><path d="M 6.0 4.0 L 6.0 62.1 " fill="none" stroke="#D0D0D0" stroke-width="5.00" stroke-miterlimit="0.00" stroke-linecap="round" transform="matrix(0.39, 0.00, 0.00, -0.39, 880.2, 313.5)"></path><path d="M 6.0 4.0 L 6.0 62.1 " fill="none" stroke="#D0D0D0" stroke-width="5.00" stroke-miterlimit="0.00" stroke-linecap="round" transform="matrix(0.39, 0.00, 0.00, -0.39, 903.4, 313.5)"></path><path d="M 6.0 4.0 L 6.0 62.1 " fill="none" stroke="#D0D0D0" stroke-width="5.00" stroke-miterlimit="0.00" stroke-linecap="round" transform="matrix(0.39, 0.00, 0.00, -0.39, 926.7, 313.5)"></path><path d="M 6.0 2.0 L 6.0 110.0 " fill="none" stroke="#B1B1B1" stroke-width="6.00" stroke-miterlimit="0.00" stroke-linecap="round" transform="matrix(0.39, 0.00, 0.00, -0.39, 857.0, 322.8)"></path></g></g><g><clipPath id="clip-180"><path d="M 859.3 297.2 C 861.0 297.2 862.4 298.6 862.4 300.3 C 862.4 302.1 861.0 303.4 859.3 303.4 C 857.6 303.4 856.2 302.1 856.2 300.3 C 856.2 298.6 857.6 297.2 859.3 297.2 Z M 859.3 297.2 "></path></clipPath><g clip-path="url(#clip-180)"><g><clipPath id="clip-181"><path d="M 45.0 260.0 L 1116.0 260.0 L 1116.0 343.0 L 45.0 343.0 Z M 45.0 260.0 "></path></clipPath><g clip-path="url(#clip-181)"><path d="M 855.0 296.1 L 863.5 296.1 L 863.5 304.6 L 855.0 304.6 Z M 855.0 296.1 " fill="#FCFCFC"></path></g></g></g></g><g><clipPath id="clip-182"><path d="M 851.5 308.1 L 867.0 308.1 L 867.0 292.6 L 851.5 292.6 Z M 859.3 298.0 C 860.6 298.0 861.6 299.1 861.6 300.3 C 861.6 301.6 860.6 302.7 859.3 302.7 C 858.0 302.7 857.0 301.6 857.0 300.3 C 857.0 299.1 858.0 298.0 859.3 298.0 Z M 859.3 298.0 "></path></clipPath><g clip-path="url(#clip-182)"><g><clipPath id="clip-183"><path d="M 45.0 260.0 L 1116.0 260.0 L 1116.0 343.0 L 45.0 343.0 Z M 45.0 260.0 "></path></clipPath><g clip-path="url(#clip-183)"><path d="M 6.0 12.0 C 9.3 12.0 12.0 9.3 12.0 6.0 C 12.0 2.7 9.3 0.0 6.0 0.0 C 2.7 0.0 0.0 2.7 0.0 6.0 C 0.0 9.3 2.7 12.0 6.0 12.0 Z M 6.0 12.0 " fill="none" stroke="#B1B1B1" stroke-width="8.00" stroke-miterlimit="0.00" transform="matrix(0.39, 0.00, 0.00, -0.39, 857.0, 302.7)"></path></g></g></g></g><g><clipPath id="clip-184"><path d="M 45.0 260.0 L 1116.0 260.0 L 1116.0 343.0 L 45.0 343.0 Z M 45.0 260.0 "></path></clipPath><g clip-path="url(#clip-184)"><path d="M 6.0 4.0 L 6.0 62.1 " fill="none" stroke="#D0D0D0" stroke-width="5.00" stroke-miterlimit="0.00" stroke-linecap="round" transform="matrix(0.39, 0.00, 0.00, -0.39, 973.1, 313.5)"></path><path d="M 6.0 4.0 L 6.0 62.1 " fill="none" stroke="#D0D0D0" stroke-width="5.00" stroke-miterlimit="0.00" stroke-linecap="round" transform="matrix(0.39, 0.00, 0.00, -0.39, 996.4, 313.5)"></path><path d="M 6.0 4.0 L 6.0 62.1 " fill="none" stroke="#D0D0D0" stroke-width="5.00" stroke-miterlimit="0.00" stroke-linecap="round" transform="matrix(0.39, 0.00, 0.00, -0.39, 1019.6, 313.5)"></path><path d="M 6.0 2.0 L 6.0 110.0 " fill="none" stroke="#B1B1B1" stroke-width="6.00" stroke-miterlimit="0.00" stroke-linecap="round" transform="matrix(0.39, 0.00, 0.00, -0.39, 949.9, 322.8)"></path></g></g><g><clipPath id="clip-185"><path d="M 952.2 297.2 C 953.9 297.2 955.3 298.6 955.3 300.3 C 955.3 302.1 953.9 303.4 952.2 303.4 C 950.5 303.4 949.1 302.1 949.1 300.3 C 949.1 298.6 950.5 297.2 952.2 297.2 Z M 952.2 297.2 "></path></clipPath><g clip-path="url(#clip-185)"><g><clipPath id="clip-186"><path d="M 45.0 260.0 L 1116.0 260.0 L 1116.0 343.0 L 45.0 343.0 Z M 45.0 260.0 "></path></clipPath><g clip-path="url(#clip-186)"><path d="M 948.0 296.1 L 956.5 296.1 L 956.5 304.6 L 948.0 304.6 Z M 948.0 296.1 " fill="#FCFCFC"></path></g></g></g></g><g><clipPath id="clip-187"><path d="M 944.5 308.1 L 960.0 308.1 L 960.0 292.6 L 944.5 292.6 Z M 952.2 298.0 C 953.5 298.0 954.5 299.1 954.5 300.3 C 954.5 301.6 953.5 302.7 952.2 302.7 C 950.9 302.7 949.9 301.6 949.9 300.3 C 949.9 299.1 950.9 298.0 952.2 298.0 Z M 952.2 298.0 "></path></clipPath><g clip-path="url(#clip-187)"><g><clipPath id="clip-188"><path d="M 45.0 260.0 L 1116.0 260.0 L 1116.0 343.0 L 45.0 343.0 Z M 45.0 260.0 "></path></clipPath><g clip-path="url(#clip-188)"><path d="M 6.0 12.0 C 9.3 12.0 12.0 9.3 12.0 6.0 C 12.0 2.7 9.3 0.0 6.0 0.0 C 2.7 0.0 0.0 2.7 0.0 6.0 C 0.0 9.3 2.7 12.0 6.0 12.0 Z M 6.0 12.0 " fill="none" stroke="#B1B1B1" stroke-width="8.00" stroke-miterlimit="0.00" transform="matrix(0.39, 0.00, 0.00, -0.39, 949.9, 302.7)"></path></g></g></g></g><g><clipPath id="clip-189"><path d="M 45.0 260.0 L 1116.0 260.0 L 1116.0 343.0 L 45.0 343.0 Z M 45.0 260.0 "></path></clipPath><g clip-path="url(#clip-189)"><path d="M 6.0 4.0 L 6.0 62.1 " fill="none" stroke="#D0D0D0" stroke-width="5.00" stroke-miterlimit="0.00" stroke-linecap="round" transform="matrix(0.39, 0.00, 0.00, -0.39, 1066.1, 313.5)"></path><path d="M 6.0 4.0 L 6.0 62.1 " fill="none" stroke="#D0D0D0" stroke-width="5.00" stroke-miterlimit="0.00" stroke-linecap="round" transform="matrix(0.39, 0.00, 0.00, -0.39, 1089.3, 313.5)"></path><path d="M 6.0 4.0 L 6.0 62.1 " fill="none" stroke="#D0D0D0" stroke-width="5.00" stroke-miterlimit="0.00" stroke-linecap="round" transform="matrix(0.39, 0.00, 0.00, -0.39, 1112.5, 313.5)"></path><path d="M 6.0 2.0 L 6.0 110.0 " fill="none" stroke="#B1B1B1" stroke-width="6.00" stroke-miterlimit="0.00" stroke-linecap="round" transform="matrix(0.39, 0.00, 0.00, -0.39, 1042.8, 322.8)"></path></g></g><g><clipPath id="clip-190"><path d="M 1045.1 297.2 C 1046.9 297.2 1048.2 298.6 1048.2 300.3 C 1048.2 302.1 1046.9 303.4 1045.1 303.4 C 1043.4 303.4 1042.0 302.1 1042.0 300.3 C 1042.0 298.6 1043.4 297.2 1045.1 297.2 Z M 1045.1 297.2 "></path></clipPath><g clip-path="url(#clip-190)"><g><clipPath id="clip-191"><path d="M 45.0 260.0 L 1116.0 260.0 L 1116.0 343.0 L 45.0 343.0 Z M 45.0 260.0 "></path></clipPath><g clip-path="url(#clip-191)"><path d="M 1040.9 296.1 L 1049.4 296.1 L 1049.4 304.6 L 1040.9 304.6 Z M 1040.9 296.1 " fill="#FCFCFC"></path></g></g></g></g><g><clipPath id="clip-192"><path d="M 1037.4 308.1 L 1052.9 308.1 L 1052.9 292.6 L 1037.4 292.6 Z M 1045.1 298.0 C 1046.4 298.0 1047.5 299.1 1047.5 300.3 C 1047.5 301.6 1046.4 302.7 1045.1 302.7 C 1043.9 302.7 1042.8 301.6 1042.8 300.3 C 1042.8 299.1 1043.9 298.0 1045.1 298.0 Z M 1045.1 298.0 "></path></clipPath><g clip-path="url(#clip-192)"><g><clipPath id="clip-193"><path d="M 45.0 260.0 L 1116.0 260.0 L 1116.0 343.0 L 45.0 343.0 Z M 45.0 260.0 "></path></clipPath><g clip-path="url(#clip-193)"><path d="M 6.0 12.0 C 9.3 12.0 12.0 9.3 12.0 6.0 C 12.0 2.7 9.3 0.0 6.0 0.0 C 2.7 0.0 0.0 2.7 0.0 6.0 C 0.0 9.3 2.7 12.0 6.0 12.0 Z M 6.0 12.0 " fill="none" stroke="#B1B1B1" stroke-width="8.00" stroke-miterlimit="0.00" transform="matrix(0.39, 0.00, 0.00, -0.39, 1042.8, 302.7)"></path></g></g></g></g><g><clipPath id="clip-194"><path d="M 45.0 260.0 L 1116.0 260.0 L 1116.0 343.0 L 45.0 343.0 Z M 45.0 260.0 "></path></clipPath><g clip-path="url(#clip-194)"><path d="M 6.0 0.0 L 6.0 202.0 " fill="none" stroke="#3D3D3D" stroke-width="12.00" stroke-miterlimit="0.00" stroke-linecap="round" transform="matrix(0.39, 0.00, 0.00, -0.39, 578.2, 340.7)"></path></g></g><g><clipPath id="clip-195"><path d="M 580.5 290.3 C 586.5 290.3 591.3 295.1 591.3 301.1 C 591.3 307.1 586.5 312.0 580.5 312.0 C 574.5 312.0 569.7 307.1 569.7 301.1 C 569.7 295.1 574.5 290.3 580.5 290.3 Z M 580.5 290.3 "></path></clipPath><g clip-path="url(#clip-195)"><g><clipPath id="clip-196"><path d="M 45.0 260.0 L 1116.0 260.0 L 1116.0 343.0 L 45.0 343.0 Z M 45.0 260.0 "></path></clipPath><g clip-path="url(#clip-196)"><path d="M 567.7 288.3 L 593.3 288.3 L 593.3 313.9 L 567.7 313.9 Z M 567.7 288.3 " fill="#FFFFFF"></path></g></g></g></g><g><clipPath id="clip-197"><path d="M 45.0 260.0 L 1116.0 260.0 L 1116.0 343.0 L 45.0 343.0 Z M 45.0 260.0 "></path></clipPath><g clip-path="url(#clip-197)"><path d="M 28.0 56.0 C 43.5 56.0 56.0 43.5 56.0 28.0 C 56.0 12.5 43.5 0.0 28.0 0.0 C 12.5 0.0 0.0 12.5 0.0 28.0 C 0.0 43.5 12.5 56.0 28.0 56.0 Z M 28.0 56.0 " fill="none" stroke="#3D3D3D" stroke-width="10.00" stroke-miterlimit="0.00" transform="matrix(0.39, 0.00, 0.00, -0.39, 569.7, 312.0)"></path></g></g><g><clipPath id="clip-198"><path d="M 580.5 293.4 C 584.8 293.4 588.2 296.8 588.2 301.1 C 588.2 305.4 584.8 308.9 580.5 308.9 C 576.2 308.9 572.8 305.4 572.8 301.1 C 572.8 296.8 576.2 293.4 580.5 293.4 Z M 580.5 293.4 "></path></clipPath><g clip-path="url(#clip-198)"><g><clipPath id="clip-199"><path d="M 45.0 260.0 L 1116.0 260.0 L 1116.0 343.0 L 45.0 343.0 Z M 45.0 260.0 "></path></clipPath><g clip-path="url(#clip-199)"><path d="M 570.8 291.4 L 590.2 291.4 L 590.2 310.8 L 570.8 310.8 Z M 570.8 291.4 " fill="#3D3D3D"></path></g></g></g></g></g></svg>