<?xml version="1.0" encoding="UTF-8" standalone="no"?><svg xmlns="http://www.w3.org/2000/svg" xmlns:xlink="http://www.w3.org/1999/xlink" clip-rule="evenodd" stroke-miterlimit="4.00" viewBox="0 0 1920 1080"><desc>SVG generated by Keynote</desc><defs></defs><g transform="matrix(1.00, 0.00, -0.00, -1.00, 0.0, 1080.0)"><path d="M 0.0 1080.0 L 1920.0 1080.0 L 1920.0 0.0 L 0.0 0.0 Z M 0.0 1080.0 " fill="#FEFFFF"></path><g><clipPath id="clip-485"><path d="M 0.0 0.0 L 1795.0 0.0 L 1795.0 1080.0 L 0.0 1080.0 Z M 0.0 0.0 "></path></clipPath><g clip-path="url(#clip-485)"><path d="M 0.0 0.0 L 958.4 0.0 L 958.4 1080.0 L 0.0 1080.0 Z M 0.0 0.0 " fill="#D1DBDB"></path><text xml:space="preserve" font-family="Helvetica" font-size="20.0" fill="#171D58" transform="matrix(1.50, 0.00, -0.00, -1.50, 154.9, 577.2)">“</text><text xml:space="preserve" font-family="Helvetica" font-size="20.0" fill="#171D58" transform="matrix(1.50, 0.00, -0.00, -1.50, 164.4, 577.2)">Q</text><text xml:space="preserve" font-family="Helvetica" font-size="20.0" fill="#171D58" transform="matrix(1.50, 0.00, -0.00, -1.50, 187.6, 577.2)">u</text><text xml:space="preserve" font-family="Helvetica" font-size="20.0" fill="#171D58" transform="matrix(1.50, 0.00, -0.00, -1.50, 204.3, 577.2)">i</text><text xml:space="preserve" font-family="Helvetica" font-size="20.0" fill="#171D58" transform="matrix(1.50, 0.00, -0.00, -1.50, 210.9, 577.2)">k</text><text xml:space="preserve" font-family="Helvetica" font-size="20.0" fill="#171D58" transform="matrix(1.50, 0.00, -0.00, -1.50, 225.9, 577.2)">s</text><text xml:space="preserve" font-family="Helvetica" font-size="20.0" fill="#171D58" transform="matrix(1.50, 0.00, -0.00, -1.50, 240.9, 577.2)">i</text><text xml:space="preserve" font-family="Helvetica" font-size="20.0" fill="#171D58" transform="matrix(1.50, 0.00, -0.00, -1.50, 247.6, 577.2)">l</text><text xml:space="preserve" font-family="Helvetica" font-size="20.0" fill="#171D58" transform="matrix(1.50, 0.00, -0.00, -1.50, 254.3, 577.2)">v</text><text xml:space="preserve" font-family="Helvetica" font-size="20.0" fill="#171D58" transform="matrix(1.50, 0.00, -0.00, -1.50, 268.8, 577.2)">e</text><text xml:space="preserve" font-family="Helvetica" font-size="20.0" fill="#171D58" transform="matrix(1.50, 0.00, -0.00, -1.50, 285.5, 577.2)">r</text><text xml:space="preserve" font-family="Helvetica" font-size="20.0" fill="#171D58" transform="matrix(1.50, 0.00, -0.00, -1.50, 295.5, 577.2)"> </text><text xml:space="preserve" font-family="Helvetica" font-size="20.0" fill="#171D58" transform="matrix(1.50, 0.00, -0.00, -1.50, 303.8, 577.2)">h</text><text xml:space="preserve" font-family="Helvetica" font-size="20.0" fill="#171D58" transform="matrix(1.50, 0.00, -0.00, -1.50, 320.5, 577.2)">a</text><text xml:space="preserve" font-family="Helvetica" font-size="20.0" fill="#171D58" transform="matrix(1.50, 0.00, -0.00, -1.50, 337.1, 577.2)">d</text><text xml:space="preserve" font-family="Helvetica" font-size="20.0" fill="#171D58" transform="matrix(1.50, 0.00, -0.00, -1.50, 353.8, 577.2)"> </text><text xml:space="preserve" font-family="Helvetica" font-size="20.0" fill="#171D58" transform="matrix(1.50, 0.00, -0.00, -1.50, 362.1, 577.2)">d</text><text xml:space="preserve" font-family="Helvetica" font-size="20.0" fill="#171D58" transform="matrix(1.50, 0.00, -0.00, -1.50, 378.8, 577.2)">i</text><text xml:space="preserve" font-family="Helvetica" font-size="20.0" fill="#171D58" transform="matrix(1.50, 0.00, -0.00, -1.50, 385.5, 577.2)">v</text><text xml:space="preserve" font-family="Helvetica" font-size="20.0" fill="#171D58" transform="matrix(1.50, 0.00, -0.00, -1.50, 400.0, 577.2)">e</text><text xml:space="preserve" font-family="Helvetica" font-size="20.0" fill="#171D58" transform="matrix(1.50, 0.00, -0.00, -1.50, 416.7, 577.2)">r</text><text xml:space="preserve" font-family="Helvetica" font-size="20.0" fill="#171D58" transform="matrix(1.50, 0.00, -0.00, -1.50, 426.7, 577.2)">g</text><text xml:space="preserve" font-family="Helvetica" font-size="20.0" fill="#171D58" transform="matrix(1.50, 0.00, -0.00, -1.50, 443.3, 577.2)">e</text><text xml:space="preserve" font-family="Helvetica" font-size="20.0" fill="#171D58" transform="matrix(1.50, 0.00, -0.00, -1.50, 460.0, 577.2)">d</text><text xml:space="preserve" font-family="Helvetica" font-size="20.0" fill="#171D58" transform="matrix(1.50, 0.00, -0.00, -1.50, 476.7, 577.2)"> </text><text xml:space="preserve" font-family="Helvetica" font-size="20.0" fill="#171D58" transform="matrix(1.50, 0.00, -0.00, -1.50, 485.0, 577.2)">f</text><text xml:space="preserve" font-family="Helvetica" font-size="20.0" fill="#171D58" transform="matrix(1.50, 0.00, -0.00, -1.50, 493.4, 577.2)">r</text><text xml:space="preserve" font-family="Helvetica" font-size="20.0" fill="#171D58" transform="matrix(1.50, 0.00, -0.00, -1.50, 503.3, 577.2)">o</text><text xml:space="preserve" font-family="Helvetica" font-size="20.0" fill="#171D58" transform="matrix(1.50, 0.00, -0.00, -1.50, 520.0, 577.2)">m</text><text xml:space="preserve" font-family="Helvetica" font-size="20.0" fill="#171D58" transform="matrix(1.50, 0.00, -0.00, -1.50, 545.0, 577.2)"> </text><text xml:space="preserve" font-family="Helvetica" font-size="20.0" fill="#171D58" transform="matrix(1.50, 0.00, -0.00, -1.50, 553.3, 577.2)">t</text><text xml:space="preserve" font-family="Helvetica" font-size="20.0" fill="#171D58" transform="matrix(1.50, 0.00, -0.00, -1.50, 561.0, 577.2)">h</text><text xml:space="preserve" font-family="Helvetica" font-size="20.0" fill="#171D58" transform="matrix(1.50, 0.00, -0.00, -1.50, 577.7, 577.2)">e</text><text xml:space="preserve" font-family="Helvetica" font-size="20.0" fill="#171D58" transform="matrix(1.50, 0.00, -0.00, -1.50, 594.4, 577.2)"> </text><text xml:space="preserve" font-family="Helvetica" font-size="20.0" fill="#171D58" transform="matrix(1.50, 0.00, -0.00, -1.50, 602.7, 577.2)">n</text><text xml:space="preserve" font-family="Helvetica" font-size="20.0" fill="#171D58" transform="matrix(1.50, 0.00, -0.00, -1.50, 619.4, 577.2)">e</text><text xml:space="preserve" font-family="Helvetica" font-size="20.0" fill="#171D58" transform="matrix(1.50, 0.00, -0.00, -1.50, 636.1, 577.2)">e</text><text xml:space="preserve" font-family="Helvetica" font-size="20.0" fill="#171D58" transform="matrix(1.50, 0.00, -0.00, -1.50, 652.7, 577.2)">d</text><text xml:space="preserve" font-family="Helvetica" font-size="20.0" fill="#171D58" transform="matrix(1.50, 0.00, -0.00, -1.50, 669.4, 577.2)">s</text><text xml:space="preserve" font-family="Helvetica" font-size="20.0" fill="#171D58" transform="matrix(1.50, 0.00, -0.00, -1.50, 684.4, 577.2)"> </text><text xml:space="preserve" font-family="Helvetica" font-size="20.0" fill="#171D58" transform="matrix(1.50, 0.00, -0.00, -1.50, 692.8, 577.2)">a</text><text xml:space="preserve" font-family="Helvetica" font-size="20.0" fill="#171D58" transform="matrix(1.50, 0.00, -0.00, -1.50, 709.4, 577.2)">n</text><text xml:space="preserve" font-family="Helvetica" font-size="20.0" fill="#171D58" transform="matrix(1.50, 0.00, -0.00, -1.50, 726.1, 577.2)">d</text><text xml:space="preserve" font-family="Helvetica" font-size="20.0" fill="#171D58" transform="matrix(1.50, 0.00, -0.00, -1.50, 742.8, 577.2)"> </text><text xml:space="preserve" font-family="Helvetica" font-size="20.0" fill="#171D58" transform="matrix(1.50, 0.00, -0.00, -1.50, 154.9, 524.7)">w</text><text xml:space="preserve" font-family="Helvetica" font-size="20.0" fill="#171D58" transform="matrix(1.50, 0.00, -0.00, -1.50, 176.5, 524.7)">a</text><text xml:space="preserve" font-family="Helvetica" font-size="20.0" fill="#171D58" transform="matrix(1.50, 0.00, -0.00, -1.50, 193.1, 524.7)">n</text><text xml:space="preserve" font-family="Helvetica" font-size="20.0" fill="#171D58" transform="matrix(1.50, 0.00, -0.00, -1.50, 209.8, 524.7)">t</text><text xml:space="preserve" font-family="Helvetica" font-size="20.0" fill="#171D58" transform="matrix(1.50, 0.00, -0.00, -1.50, 218.6, 524.7)">s</text><text xml:space="preserve" font-family="Helvetica" font-size="20.0" fill="#171D58" transform="matrix(1.50, 0.00, -0.00, -1.50, 233.6, 524.7)"> </text><text xml:space="preserve" font-family="Helvetica" font-size="20.0" fill="#171D58" transform="matrix(1.50, 0.00, -0.00, -1.50, 241.9, 524.7)">o</text><text xml:space="preserve" font-family="Helvetica" font-size="20.0" fill="#171D58" transform="matrix(1.50, 0.00, -0.00, -1.50, 258.6, 524.7)">f</text><text xml:space="preserve" font-family="Helvetica" font-size="20.0" fill="#171D58" transform="matrix(1.50, 0.00, -0.00, -1.50, 266.9, 524.7)"> </text><text xml:space="preserve" font-family="Helvetica" font-size="20.0" fill="#171D58" transform="matrix(1.50, 0.00, -0.00, -1.50, 275.3, 524.7)">i</text><text xml:space="preserve" font-family="Helvetica" font-size="20.0" fill="#171D58" transform="matrix(1.50, 0.00, -0.00, -1.50, 281.9, 524.7)">t</text><text xml:space="preserve" font-family="Helvetica" font-size="20.0" fill="#171D58" transform="matrix(1.50, 0.00, -0.00, -1.50, 290.7, 524.7)">s</text><text xml:space="preserve" font-family="Helvetica" font-size="20.0" fill="#171D58" transform="matrix(1.50, 0.00, -0.00, -1.50, 305.7, 524.7)"> </text><text xml:space="preserve" font-family="Helvetica" font-size="20.0" fill="#171D58" transform="matrix(1.50, 0.00, -0.00, -1.50, 314.0, 524.7)">c</text><text xml:space="preserve" font-family="Helvetica" font-size="20.0" fill="#171D58" transform="matrix(1.50, 0.00, -0.00, -1.50, 328.9, 524.7)">o</text><text xml:space="preserve" font-family="Helvetica" font-size="20.0" fill="#171D58" transform="matrix(1.50, 0.00, -0.00, -1.50, 345.5, 524.7)">r</text><text xml:space="preserve" font-family="Helvetica" font-size="20.0" fill="#171D58" transform="matrix(1.50, 0.00, -0.00, -1.50, 355.5, 524.7)">e</text><text xml:space="preserve" font-family="Helvetica" font-size="20.0" fill="#171D58" transform="matrix(1.50, 0.00, -0.00, -1.50, 372.1, 524.7)"> </text><text xml:space="preserve" font-family="Helvetica" font-size="20.0" fill="#171D58" transform="matrix(1.50, 0.00, -0.00, -1.50, 380.5, 524.7)">c</text><text xml:space="preserve" font-family="Helvetica" font-size="20.0" fill="#171D58" transform="matrix(1.50, 0.00, -0.00, -1.50, 395.2, 524.7)">u</text><text xml:space="preserve" font-family="Helvetica" font-size="20.0" fill="#171D58" transform="matrix(1.50, 0.00, -0.00, -1.50, 411.9, 524.7)">s</text><text xml:space="preserve" font-family="Helvetica" font-size="20.0" fill="#171D58" transform="matrix(1.50, 0.00, -0.00, -1.50, 426.9, 524.7)">t</text><text xml:space="preserve" font-family="Helvetica" font-size="20.0" fill="#171D58" transform="matrix(1.50, 0.00, -0.00, -1.50, 435.2, 524.7)">o</text><text xml:space="preserve" font-family="Helvetica" font-size="20.0" fill="#171D58" transform="matrix(1.50, 0.00, -0.00, -1.50, 451.9, 524.7)">m</text><text xml:space="preserve" font-family="Helvetica" font-size="20.0" fill="#171D58" transform="matrix(1.50, 0.00, -0.00, -1.50, 476.9, 524.7)">e</text><text xml:space="preserve" font-family="Helvetica" font-size="20.0" fill="#171D58" transform="matrix(1.50, 0.00, -0.00, -1.50, 493.5, 524.7)">r</text><text xml:space="preserve" font-family="Helvetica" font-size="20.0" fill="#171D58" transform="matrix(1.50, 0.00, -0.00, -1.50, 501.2, 524.7)">,</text><text xml:space="preserve" font-family="Helvetica" font-size="20.0" fill="#171D58" transform="matrix(1.50, 0.00, -0.00, -1.50, 509.5, 524.7)"> </text><text xml:space="preserve" font-family="Helvetica" font-size="20.0" fill="#171D58" transform="matrix(1.50, 0.00, -0.00, -1.50, 517.9, 524.7)">t</text><text xml:space="preserve" font-family="Helvetica" font-size="20.0" fill="#171D58" transform="matrix(1.50, 0.00, -0.00, -1.50, 525.6, 524.7)">h</text><text xml:space="preserve" font-family="Helvetica" font-size="20.0" fill="#171D58" transform="matrix(1.50, 0.00, -0.00, -1.50, 542.2, 524.7)">e</text><text xml:space="preserve" font-family="Helvetica" font-size="20.0" fill="#171D58" transform="matrix(1.50, 0.00, -0.00, -1.50, 558.9, 524.7)"> </text><text xml:space="preserve" font-family="Helvetica" font-size="20.0" fill="#171D58" transform="matrix(1.50, 0.00, -0.00, -1.50, 567.3, 524.7)">a</text><text xml:space="preserve" font-family="Helvetica" font-size="20.0" fill="#171D58" transform="matrix(1.50, 0.00, -0.00, -1.50, 583.9, 524.7)">t</text><text xml:space="preserve" font-family="Helvetica" font-size="20.0" fill="#171D58" transform="matrix(1.50, 0.00, -0.00, -1.50, 591.6, 524.7)">h</text><text xml:space="preserve" font-family="Helvetica" font-size="20.0" fill="#171D58" transform="matrix(1.50, 0.00, -0.00, -1.50, 608.2, 524.7)">l</text><text xml:space="preserve" font-family="Helvetica" font-size="20.0" fill="#171D58" transform="matrix(1.50, 0.00, -0.00, -1.50, 614.9, 524.7)">e</text><text xml:space="preserve" font-family="Helvetica" font-size="20.0" fill="#171D58" transform="matrix(1.50, 0.00, -0.00, -1.50, 631.6, 524.7)">t</text><text xml:space="preserve" font-family="Helvetica" font-size="20.0" fill="#171D58" transform="matrix(1.50, 0.00, -0.00, -1.50, 639.9, 524.7)">e</text><text xml:space="preserve" font-family="Helvetica" font-size="20.0" fill="#171D58" transform="matrix(1.50, 0.00, -0.00, -1.50, 656.2, 524.7)">.</text><text xml:space="preserve" font-family="Helvetica" font-size="20.0" fill="#171D58" transform="matrix(1.50, 0.00, -0.00, -1.50, 664.5, 524.7)">”</text><text xml:space="preserve" font-family="Circular-Medium" font-size="18.0" fill="#171D58" transform="matrix(1.50, 0.00, -0.00, -1.50, 1153.7, 579.4)">T</text><text xml:space="preserve" font-family="Circular-Medium" font-size="18.0" fill="#171D58" transform="matrix(1.50, 0.00, -0.00, -1.50, 1170.1, 579.4)">h</text><text xml:space="preserve" font-family="Circular-Medium" font-size="18.0" fill="#171D58" transform="matrix(1.50, 0.00, -0.00, -1.50, 1185.6, 579.4)">i</text><text xml:space="preserve" font-family="Circular-Medium" font-size="18.0" fill="#171D58" transform="matrix(1.50, 0.00, -0.00, -1.50, 1192.8, 579.4)">s</text><text xml:space="preserve" font-family="Circular-Medium" font-size="18.0" fill="#171D58" transform="matrix(1.50, 0.00, -0.00, -1.50, 1205.1, 579.4)"> </text><text xml:space="preserve" font-family="Circular-Medium" font-size="18.0" fill="#171D58" transform="matrix(1.50, 0.00, -0.00, -1.50, 1211.8, 579.4)">r</text><text xml:space="preserve" font-family="Circular-Medium" font-size="18.0" fill="#171D58" transform="matrix(1.50, 0.00, -0.00, -1.50, 1222.0, 579.4)">e</text><text xml:space="preserve" font-family="Circular-Medium" font-size="18.0" fill="#171D58" transform="matrix(1.50, 0.00, -0.00, -1.50, 1236.8, 579.4)">s</text><text xml:space="preserve" font-family="Circular-Medium" font-size="18.0" fill="#171D58" transform="matrix(1.50, 0.00, -0.00, -1.50, 1249.0, 579.4)">u</text><text xml:space="preserve" font-family="Circular-Medium" font-size="18.0" fill="#171D58" transform="matrix(1.50, 0.00, -0.00, -1.50, 1264.5, 579.4)">l</text><text xml:space="preserve" font-family="Circular-Medium" font-size="18.0" fill="#171D58" transform="matrix(1.50, 0.00, -0.00, -1.50, 1271.7, 579.4)">t</text><text xml:space="preserve" font-family="Circular-Medium" font-size="18.0" fill="#171D58" transform="matrix(1.50, 0.00, -0.00, -1.50, 1281.5, 579.4)">e</text><text xml:space="preserve" font-family="Circular-Medium" font-size="18.0" fill="#171D58" transform="matrix(1.50, 0.00, -0.00, -1.50, 1296.3, 579.4)">d</text><text xml:space="preserve" font-family="Circular-Medium" font-size="18.0" fill="#171D58" transform="matrix(1.50, 0.00, -0.00, -1.50, 1312.5, 579.4)"> </text><text xml:space="preserve" font-family="Circular-Medium" font-size="18.0" fill="#171D58" transform="matrix(1.50, 0.00, -0.00, -1.50, 1319.2, 579.4)">i</text><text xml:space="preserve" font-family="Circular-Medium" font-size="18.0" fill="#171D58" transform="matrix(1.50, 0.00, -0.00, -1.50, 1326.4, 579.4)">n</text><text xml:space="preserve" font-family="Circular-Medium" font-size="18.0" fill="#171D58" transform="matrix(1.50, 0.00, -0.00, -1.50, 1341.9, 579.4)"> </text><text xml:space="preserve" font-family="Circular-Medium" font-size="18.0" fill="#171D58" transform="matrix(1.50, 0.00, -0.00, -1.50, 1348.6, 579.4)">a</text><text xml:space="preserve" font-family="Circular-Medium" font-size="18.0" fill="#171D58" transform="matrix(1.50, 0.00, -0.00, -1.50, 1362.9, 579.4)"> </text><text xml:space="preserve" font-family="Circular-Medium" font-size="18.0" fill="#718AE8" transform="matrix(1.50, 0.00, -0.00, -1.50, 1369.6, 579.4)">b</text><text xml:space="preserve" font-family="Circular-Medium" font-size="18.0" fill="#718AE8" transform="matrix(1.50, 0.00, -0.00, -1.50, 1385.9, 579.4)">r</text><text xml:space="preserve" font-family="Circular-Medium" font-size="18.0" fill="#718AE8" transform="matrix(1.50, 0.00, -0.00, -1.50, 1396.3, 579.4)">a</text><text xml:space="preserve" font-family="Circular-Medium" font-size="18.0" fill="#718AE8" transform="matrix(1.50, 0.00, -0.00, -1.50, 1410.7, 579.4)">n</text><text xml:space="preserve" font-family="Circular-Medium" font-size="18.0" fill="#718AE8" transform="matrix(1.50, 0.00, -0.00, -1.50, 1426.1, 579.4)">d</text><text xml:space="preserve" font-family="Circular-Medium" font-size="18.0" fill="#718AE8" transform="matrix(1.50, 0.00, -0.00, -1.50, 1442.4, 579.4)"> </text><text xml:space="preserve" font-family="Circular-Medium" font-size="18.0" fill="#718AE8" transform="matrix(1.50, 0.00, -0.00, -1.50, 1449.1, 579.4)">m</text><text xml:space="preserve" font-family="Circular-Medium" font-size="18.0" fill="#718AE8" transform="matrix(1.50, 0.00, -0.00, -1.50, 1472.7, 579.4)">i</text><text xml:space="preserve" font-family="Circular-Medium" font-size="18.0" fill="#718AE8" transform="matrix(1.50, 0.00, -0.00, -1.50, 1479.8, 579.4)">s</text><text xml:space="preserve" font-family="Circular-Medium" font-size="18.0" fill="#718AE8" transform="matrix(1.50, 0.00, -0.00, -1.50, 1492.2, 579.4)">p</text><text xml:space="preserve" font-family="Circular-Medium" font-size="18.0" fill="#718AE8" transform="matrix(1.50, 0.00, -0.00, -1.50, 1508.5, 579.4)">e</text><text xml:space="preserve" font-family="Circular-Medium" font-size="18.0" fill="#718AE8" transform="matrix(1.50, 0.00, -0.00, -1.50, 1523.3, 579.4)">r</text><text xml:space="preserve" font-family="Circular-Medium" font-size="18.0" fill="#718AE8" transform="matrix(1.50, 0.00, -0.00, -1.50, 1533.4, 579.4)">c</text><text xml:space="preserve" font-family="Circular-Medium" font-size="18.0" fill="#718AE8" transform="matrix(1.50, 0.00, -0.00, -1.50, 1547.9, 579.4)">e</text><text xml:space="preserve" font-family="Circular-Medium" font-size="18.0" fill="#718AE8" transform="matrix(1.50, 0.00, -0.00, -1.50, 1562.7, 579.4)">p</text><text xml:space="preserve" font-family="Circular-Medium" font-size="18.0" fill="#718AE8" transform="matrix(1.50, 0.00, -0.00, -1.50, 1578.9, 579.4)">t</text><text xml:space="preserve" font-family="Circular-Medium" font-size="18.0" fill="#718AE8" transform="matrix(1.50, 0.00, -0.00, -1.50, 1588.8, 579.4)">i</text><text xml:space="preserve" font-family="Circular-Medium" font-size="18.0" fill="#718AE8" transform="matrix(1.50, 0.00, -0.00, -1.50, 1596.0, 579.4)">o</text><text xml:space="preserve" font-family="Circular-Medium" font-size="18.0" fill="#718AE8" transform="matrix(1.50, 0.00, -0.00, -1.50, 1611.6, 579.4)">n</text><text xml:space="preserve" font-family="Circular-Medium" font-size="18.0" fill="#171D58" transform="matrix(1.50, 0.00, -0.00, -1.50, 1627.1, 579.4)"> </text><text xml:space="preserve" font-family="Circular-Medium" font-size="18.0" fill="#171D58" transform="matrix(1.50, 0.00, -0.00, -1.50, 1633.8, 579.4)">a</text><text xml:space="preserve" font-family="Circular-Medium" font-size="18.0" fill="#171D58" transform="matrix(1.50, 0.00, -0.00, -1.50, 1648.2, 579.4)">n</text><text xml:space="preserve" font-family="Circular-Medium" font-size="18.0" fill="#171D58" transform="matrix(1.50, 0.00, -0.00, -1.50, 1663.7, 579.4)">d</text><text xml:space="preserve" font-family="Circular-Medium" font-size="18.0" fill="#171D58" transform="matrix(1.50, 0.00, -0.00, -1.50, 1679.9, 579.4)"> </text><text xml:space="preserve" font-family="Circular-Medium" font-size="18.0" fill="#171D58" transform="matrix(1.50, 0.00, -0.00, -1.50, 1686.6, 579.4)">a</text><text xml:space="preserve" font-family="Circular-Medium" font-size="18.0" fill="#171D58" transform="matrix(1.50, 0.00, -0.00, -1.50, 1701.0, 579.4)"> </text><text xml:space="preserve" font-family="Circular-Medium" font-size="18.0" fill="#171D58" transform="matrix(1.50, 0.00, -0.00, -1.50, 1707.7, 579.4)">“</text><text xml:space="preserve" font-family="Circular-Medium" font-size="18.0" fill="#171D58" transform="matrix(1.50, 0.00, -0.00, -1.50, 1719.2, 579.4)">1</text><text xml:space="preserve" font-family="Circular-Medium" font-size="18.0" fill="#171D58" transform="matrix(1.50, 0.00, -0.00, -1.50, 1729.5, 579.4)">3</text><text xml:space="preserve" font-family="Circular-Medium" font-size="18.0" fill="#171D58" transform="matrix(1.50, 0.00, -0.00, -1.50, 1744.2, 579.4)">%</text><text xml:space="preserve" font-family="Circular-Medium" font-size="18.0" fill="#171D58" transform="matrix(1.50, 0.00, -0.00, -1.50, 1766.8, 579.4)"> </text><text xml:space="preserve" font-family="Circular-Medium" font-size="18.0" fill="#171D58" transform="matrix(1.50, 0.00, -0.00, -1.50, 1153.7, 541.8)">d</text><text xml:space="preserve" font-family="Circular-Medium" font-size="18.0" fill="#171D58" transform="matrix(1.50, 0.00, -0.00, -1.50, 1169.9, 541.8)">e</text><text xml:space="preserve" font-family="Circular-Medium" font-size="18.0" fill="#171D58" transform="matrix(1.50, 0.00, -0.00, -1.50, 1184.7, 541.8)">c</text><text xml:space="preserve" font-family="Circular-Medium" font-size="18.0" fill="#171D58" transform="matrix(1.50, 0.00, -0.00, -1.50, 1199.3, 541.8)">l</text><text xml:space="preserve" font-family="Circular-Medium" font-size="18.0" fill="#171D58" transform="matrix(1.50, 0.00, -0.00, -1.50, 1206.5, 541.8)">i</text><text xml:space="preserve" font-family="Circular-Medium" font-size="18.0" fill="#171D58" transform="matrix(1.50, 0.00, -0.00, -1.50, 1213.7, 541.8)">n</text><text xml:space="preserve" font-family="Circular-Medium" font-size="18.0" fill="#171D58" transform="matrix(1.50, 0.00, -0.00, -1.50, 1229.2, 541.8)">e</text><text xml:space="preserve" font-family="Circular-Medium" font-size="18.0" fill="#171D58" transform="matrix(1.50, 0.00, -0.00, -1.50, 1243.9, 541.8)"> </text><text xml:space="preserve" font-family="Circular-Medium" font-size="18.0" fill="#171D58" transform="matrix(1.50, 0.00, -0.00, -1.50, 1250.6, 541.8)">i</text><text xml:space="preserve" font-family="Circular-Medium" font-size="18.0" fill="#171D58" transform="matrix(1.50, 0.00, -0.00, -1.50, 1257.8, 541.8)">n</text><text xml:space="preserve" font-family="Circular-Medium" font-size="18.0" fill="#171D58" transform="matrix(1.50, 0.00, -0.00, -1.50, 1273.3, 541.8)"> </text><text xml:space="preserve" font-family="Circular-Medium" font-size="18.0" fill="#171D58" transform="matrix(1.50, 0.00, -0.00, -1.50, 1280.0, 541.8)">s</text><text xml:space="preserve" font-family="Circular-Medium" font-size="18.0" fill="#171D58" transform="matrix(1.50, 0.00, -0.00, -1.50, 1292.1, 541.8)">a</text><text xml:space="preserve" font-family="Circular-Medium" font-size="18.0" fill="#171D58" transform="matrix(1.50, 0.00, -0.00, -1.50, 1306.5, 541.8)">l</text><text xml:space="preserve" font-family="Circular-Medium" font-size="18.0" fill="#171D58" transform="matrix(1.50, 0.00, -0.00, -1.50, 1313.7, 541.8)">e</text><text xml:space="preserve" font-family="Circular-Medium" font-size="18.0" fill="#171D58" transform="matrix(1.50, 0.00, -0.00, -1.50, 1328.5, 541.8)">s</text><text xml:space="preserve" font-family="Circular-Medium" font-size="18.0" fill="#171D58" transform="matrix(1.50, 0.00, -0.00, -1.50, 1340.8, 541.8)"> </text><text xml:space="preserve" font-family="Circular-Medium" font-size="18.0" fill="#171D58" transform="matrix(1.50, 0.00, -0.00, -1.50, 1347.5, 541.8)">i</text><text xml:space="preserve" font-family="Circular-Medium" font-size="18.0" fill="#171D58" transform="matrix(1.50, 0.00, -0.00, -1.50, 1354.7, 541.8)">n</text><text xml:space="preserve" font-family="Circular-Medium" font-size="18.0" fill="#171D58" transform="matrix(1.50, 0.00, -0.00, -1.50, 1370.2, 541.8)"> </text><text xml:space="preserve" font-family="Circular-Medium" font-size="18.0" fill="#171D58" transform="matrix(1.50, 0.00, -0.00, -1.50, 1376.9, 541.8)">2</text><text xml:space="preserve" font-family="Circular-Medium" font-size="18.0" fill="#171D58" transform="matrix(1.50, 0.00, -0.00, -1.50, 1391.3, 541.8)">0</text><text xml:space="preserve" font-family="Circular-Medium" font-size="18.0" fill="#171D58" transform="matrix(1.50, 0.00, -0.00, -1.50, 1407.8, 541.8)">1</text><text xml:space="preserve" font-family="Circular-Medium" font-size="18.0" fill="#171D58" transform="matrix(1.50, 0.00, -0.00, -1.50, 1418.1, 541.8)">5</text><text xml:space="preserve" font-family="Circular-Medium" font-size="18.0" fill="#171D58" transform="matrix(1.50, 0.00, -0.00, -1.50, 1433.0, 541.8)"> </text><text xml:space="preserve" font-family="Circular-Medium" font-size="18.0" fill="#171D58" transform="matrix(1.50, 0.00, -0.00, -1.50, 1439.7, 541.8)">w</text><text xml:space="preserve" font-family="Circular-Medium" font-size="18.0" fill="#171D58" transform="matrix(1.50, 0.00, -0.00, -1.50, 1461.7, 541.8)">i</text><text xml:space="preserve" font-family="Circular-Medium" font-size="18.0" fill="#171D58" transform="matrix(1.50, 0.00, -0.00, -1.50, 1468.8, 541.8)">t</text><text xml:space="preserve" font-family="Circular-Medium" font-size="18.0" fill="#171D58" transform="matrix(1.50, 0.00, -0.00, -1.50, 1478.4, 541.8)">h</text><text xml:space="preserve" font-family="Circular-Medium" font-size="18.0" fill="#171D58" transform="matrix(1.50, 0.00, -0.00, -1.50, 1493.9, 541.8)"> </text><text xml:space="preserve" font-family="Circular-Medium" font-size="18.0" fill="#171D58" transform="matrix(1.50, 0.00, -0.00, -1.50, 1500.5, 541.8)">a</text><text xml:space="preserve" font-family="Circular-Medium" font-size="18.0" fill="#171D58" transform="matrix(1.50, 0.00, -0.00, -1.50, 1514.9, 541.8)"> </text><text xml:space="preserve" font-family="Circular-Medium" font-size="18.0" fill="#171D58" transform="matrix(1.50, 0.00, -0.00, -1.50, 1521.6, 541.8)">n</text><text xml:space="preserve" font-family="Circular-Medium" font-size="18.0" fill="#171D58" transform="matrix(1.50, 0.00, -0.00, -1.50, 1537.1, 541.8)">e</text><text xml:space="preserve" font-family="Circular-Medium" font-size="18.0" fill="#171D58" transform="matrix(1.50, 0.00, -0.00, -1.50, 1551.9, 541.8)">t</text><text xml:space="preserve" font-family="Circular-Medium" font-size="18.0" fill="#171D58" transform="matrix(1.50, 0.00, -0.00, -1.50, 1561.8, 541.8)"> </text><text xml:space="preserve" font-family="Circular-Medium" font-size="18.0" fill="#171D58" transform="matrix(1.50, 0.00, -0.00, -1.50, 1568.4, 541.8)">l</text><text xml:space="preserve" font-family="Circular-Medium" font-size="18.0" fill="#171D58" transform="matrix(1.50, 0.00, -0.00, -1.50, 1575.6, 541.8)">o</text><text xml:space="preserve" font-family="Circular-Medium" font-size="18.0" fill="#171D58" transform="matrix(1.50, 0.00, -0.00, -1.50, 1591.3, 541.8)">s</text><text xml:space="preserve" font-family="Circular-Medium" font-size="18.0" fill="#171D58" transform="matrix(1.50, 0.00, -0.00, -1.50, 1603.6, 541.8)">s</text><text xml:space="preserve" font-family="Circular-Medium" font-size="18.0" fill="#171D58" transform="matrix(1.50, 0.00, -0.00, -1.50, 1615.9, 541.8)"> </text><text xml:space="preserve" font-family="Circular-Medium" font-size="18.0" fill="#171D58" transform="matrix(1.50, 0.00, -0.00, -1.50, 1153.7, 504.3)">w</text><text xml:space="preserve" font-family="Circular-Medium" font-size="18.0" fill="#171D58" transform="matrix(1.50, 0.00, -0.00, -1.50, 1175.6, 504.3)">i</text><text xml:space="preserve" font-family="Circular-Medium" font-size="18.0" fill="#171D58" transform="matrix(1.50, 0.00, -0.00, -1.50, 1182.8, 504.3)">d</text><text xml:space="preserve" font-family="Circular-Medium" font-size="18.0" fill="#171D58" transform="matrix(1.50, 0.00, -0.00, -1.50, 1199.1, 504.3)">e</text><text xml:space="preserve" font-family="Circular-Medium" font-size="18.0" fill="#171D58" transform="matrix(1.50, 0.00, -0.00, -1.50, 1213.8, 504.3)">n</text><text xml:space="preserve" font-family="Circular-Medium" font-size="18.0" fill="#171D58" transform="matrix(1.50, 0.00, -0.00, -1.50, 1229.3, 504.3)">e</text><text xml:space="preserve" font-family="Circular-Medium" font-size="18.0" fill="#171D58" transform="matrix(1.50, 0.00, -0.00, -1.50, 1244.1, 504.3)">d</text><text xml:space="preserve" font-family="Circular-Medium" font-size="18.0" fill="#171D58" transform="matrix(1.50, 0.00, -0.00, -1.50, 1260.4, 504.3)"> </text><text xml:space="preserve" font-family="Circular-Medium" font-size="18.0" fill="#171D58" transform="matrix(1.50, 0.00, -0.00, -1.50, 1267.1, 504.3)">t</text><text xml:space="preserve" font-family="Circular-Medium" font-size="18.0" fill="#171D58" transform="matrix(1.50, 0.00, -0.00, -1.50, 1276.9, 504.3)">o</text><text xml:space="preserve" font-family="Circular-Medium" font-size="18.0" fill="#171D58" transform="matrix(1.50, 0.00, -0.00, -1.50, 1292.5, 504.3)"> </text><text xml:space="preserve" font-family="Circular-Medium" font-size="18.0" fill="#171D58" transform="matrix(1.50, 0.00, -0.00, -1.50, 1299.2, 504.3)">3</text><text xml:space="preserve" font-family="Circular-Medium" font-size="18.0" fill="#171D58" transform="matrix(1.50, 0.00, -0.00, -1.50, 1314.0, 504.3)">0</text><text xml:space="preserve" font-family="Circular-Medium" font-size="18.0" fill="#171D58" transform="matrix(1.50, 0.00, -0.00, -1.50, 1330.7, 504.3)">9</text><text xml:space="preserve" font-family="Circular-Medium" font-size="18.0" fill="#171D58" transform="matrix(1.50, 0.00, -0.00, -1.50, 1345.3, 504.3)">.</text><text xml:space="preserve" font-family="Circular-Medium" font-size="18.0" fill="#171D58" transform="matrix(1.50, 0.00, -0.00, -1.50, 1352.3, 504.3)">4</text><text xml:space="preserve" font-family="Circular-Medium" font-size="18.0" fill="#171D58" transform="matrix(1.50, 0.00, -0.00, -1.50, 1368.1, 504.3)"> </text><text xml:space="preserve" font-family="Circular-Medium" font-size="18.0" fill="#171D58" transform="matrix(1.50, 0.00, -0.00, -1.50, 1374.8, 504.3)">m</text><text xml:space="preserve" font-family="Circular-Medium" font-size="18.0" fill="#171D58" transform="matrix(1.50, 0.00, -0.00, -1.50, 1398.4, 504.3)">i</text><text xml:space="preserve" font-family="Circular-Medium" font-size="18.0" fill="#171D58" transform="matrix(1.50, 0.00, -0.00, -1.50, 1405.5, 504.3)">l</text><text xml:space="preserve" font-family="Circular-Medium" font-size="18.0" fill="#171D58" transform="matrix(1.50, 0.00, -0.00, -1.50, 1412.7, 504.3)">l</text><text xml:space="preserve" font-family="Circular-Medium" font-size="18.0" fill="#171D58" transform="matrix(1.50, 0.00, -0.00, -1.50, 1419.9, 504.3)">i</text><text xml:space="preserve" font-family="Circular-Medium" font-size="18.0" fill="#171D58" transform="matrix(1.50, 0.00, -0.00, -1.50, 1427.0, 504.3)">o</text><text xml:space="preserve" font-family="Circular-Medium" font-size="18.0" fill="#171D58" transform="matrix(1.50, 0.00, -0.00, -1.50, 1442.7, 504.3)">n</text><text xml:space="preserve" font-family="Circular-Medium" font-size="18.0" fill="#171D58" transform="matrix(1.50, 0.00, -0.00, -1.50, 1456.9, 504.3)">”</text><text xml:space="preserve" font-family="Circular-Medium" font-size="18.0" fill="#171D58" transform="matrix(1.50, 0.00, -0.00, -1.50, 1468.0, 504.3)"> </text></g></g><g><clipPath id="clip-486"><path d="M 0.0 1080.0 L 1795.0 1080.0 L 1795.0 0.0 L 0.0 0.0 Z M 0.0 1080.0 "></path></clipPath><g clip-path="url(#clip-486)"><g><clipPath id="clip-487"><path d="M 0.0 0.0 L 1795.0 0.0 L 1795.0 1080.0 L 0.0 1080.0 Z M 0.0 0.0 "></path></clipPath><g clip-path="url(#clip-487)"><g opacity="0.50"><g><clipPath id="clip-488"><path d="M 1153.7 462.5 L 1277.0 462.5 L 1277.0 478.9 L 1153.7 478.9 Z M 1153.7 462.5 "></path></clipPath><g clip-path="url(#clip-488)"><text xml:space="preserve" font-family="Circular-Medium" font-size="10.0" fill="#171D58" transform="matrix(1.50, 0.00, -0.00, -1.50, 1153.7, 466.1)">-</text><text xml:space="preserve" font-family="Circular-Medium" font-size="10.0" fill="#171D58" transform="matrix(1.50, 0.00, -0.00, -1.50, 1158.5, 466.1)"> </text><text xml:space="preserve" font-family="Circular-Medium" font-size="10.0" fill="#171D58" transform="matrix(1.50, 0.00, -0.00, -1.50, 1162.2, 466.1)">B</text><text xml:space="preserve" font-family="Circular-Medium" font-size="10.0" fill="#171D58" transform="matrix(1.50, 0.00, -0.00, -1.50, 1171.3, 466.1)">l</text><text xml:space="preserve" font-family="Circular-Medium" font-size="10.0" fill="#171D58" transform="matrix(1.50, 0.00, -0.00, -1.50, 1175.3, 466.1)">o</text><text xml:space="preserve" font-family="Circular-Medium" font-size="10.0" fill="#171D58" transform="matrix(1.50, 0.00, -0.00, -1.50, 1184.0, 466.1)">o</text><text xml:space="preserve" font-family="Circular-Medium" font-size="10.0" fill="#171D58" transform="matrix(1.50, 0.00, -0.00, -1.50, 1192.7, 466.1)">m</text><text xml:space="preserve" font-family="Circular-Medium" font-size="10.0" fill="#171D58" transform="matrix(1.50, 0.00, -0.00, -1.50, 1205.8, 466.1)">b</text><text xml:space="preserve" font-family="Circular-Medium" font-size="10.0" fill="#171D58" transform="matrix(1.50, 0.00, -0.00, -1.50, 1214.8, 466.1)">e</text><text xml:space="preserve" font-family="Circular-Medium" font-size="10.0" fill="#171D58" transform="matrix(1.50, 0.00, -0.00, -1.50, 1223.1, 466.1)">r</text><text xml:space="preserve" font-family="Circular-Medium" font-size="10.0" fill="#171D58" transform="matrix(1.50, 0.00, -0.00, -1.50, 1228.7, 466.1)">g</text><text xml:space="preserve" font-family="Circular-Medium" font-size="10.0" fill="#171D58" transform="matrix(1.50, 0.00, -0.00, -1.50, 1237.5, 466.1)">,</text><text xml:space="preserve" font-family="Circular-Medium" font-size="10.0" fill="#171D58" transform="matrix(1.50, 0.00, -0.00, -1.50, 1242.1, 466.1)"> </text><text xml:space="preserve" font-family="Circular-Medium" font-size="10.0" fill="#171D58" transform="matrix(1.50, 0.00, -0.00, -1.50, 1245.8, 466.1)">2</text><text xml:space="preserve" font-family="Circular-Medium" font-size="10.0" fill="#171D58" transform="matrix(1.50, 0.00, -0.00, -1.50, 1253.8, 466.1)">0</text><text xml:space="preserve" font-family="Circular-Medium" font-size="10.0" fill="#171D58" transform="matrix(1.50, 0.00, -0.00, -1.50, 1263.0, 466.1)">1</text><text xml:space="preserve" font-family="Circular-Medium" font-size="10.0" fill="#171D58" transform="matrix(1.50, 0.00, -0.00, -1.50, 1268.7, 466.1)">5</text></g></g></g></g></g></g></g><g><clipPath id="clip-489"><path d="M 0.0 0.0 L 1795.0 0.0 L 1795.0 1080.0 L 0.0 1080.0 Z M 0.0 0.0 "></path></clipPath><g clip-path="url(#clip-489)"><text xml:space="preserve" font-family="Helvetica" font-size="12.0" fill="#171D58" transform="matrix(1.50, 0.00, -0.00, -1.50, 157.5, 647.9)">B</text><text xml:space="preserve" font-family="Helvetica" font-size="12.0" fill="#171D58" transform="matrix(1.50, 0.00, -0.00, -1.50, 177.6, 647.9)">U</text><text xml:space="preserve" font-family="Helvetica" font-size="12.0" fill="#171D58" transform="matrix(1.50, 0.00, -0.00, -1.50, 198.7, 647.9)">S</text><text xml:space="preserve" font-family="Helvetica" font-size="12.0" fill="#171D58" transform="matrix(1.50, 0.00, -0.00, -1.50, 218.8, 647.9)">I</text><text xml:space="preserve" font-family="Helvetica" font-size="12.0" fill="#171D58" transform="matrix(1.50, 0.00, -0.00, -1.50, 231.9, 647.9)">N</text><text xml:space="preserve" font-family="Helvetica" font-size="12.0" fill="#171D58" transform="matrix(1.50, 0.00, -0.00, -1.50, 253.0, 647.9)">E</text><text xml:space="preserve" font-family="Helvetica" font-size="12.0" fill="#171D58" transform="matrix(1.50, 0.00, -0.00, -1.50, 273.1, 647.9)">S</text><text xml:space="preserve" font-family="Helvetica" font-size="12.0" fill="#171D58" transform="matrix(1.50, 0.00, -0.00, -1.50, 293.2, 647.9)">S</text><text xml:space="preserve" font-family="Helvetica" font-size="12.0" fill="#171D58" transform="matrix(1.50, 0.00, -0.00, -1.50, 313.3, 647.9)"> </text><text xml:space="preserve" font-family="Helvetica" font-size="12.0" fill="#171D58" transform="matrix(1.50, 0.00, -0.00, -1.50, 326.4, 647.9)">C</text><text xml:space="preserve" font-family="Helvetica" font-size="12.0" fill="#171D58" transform="matrix(1.50, 0.00, -0.00, -1.50, 347.0, 647.9)">A</text><text xml:space="preserve" font-family="Helvetica" font-size="12.0" fill="#171D58" transform="matrix(1.50, 0.00, -0.00, -1.50, 367.1, 647.9)">S</text><text xml:space="preserve" font-family="Helvetica" font-size="12.0" fill="#171D58" transform="matrix(1.50, 0.00, -0.00, -1.50, 387.2, 647.9)">E</text><path d="M 1024.3 581.6 L 893.2 581.6 L 893.2 586.3 L 1024.3 586.3 Z M 1024.3 581.6 " fill="#171D58"></path></g></g></g></svg>