<?xml version="1.0" encoding="UTF-8" standalone="no"?><svg xmlns="http://www.w3.org/2000/svg" xmlns:xlink="http://www.w3.org/1999/xlink" clip-rule="evenodd" stroke-miterlimit="4.00" viewBox="0 0 1920 1080"><desc>SVG generated by Keynote</desc><defs></defs><g transform="matrix(1.00, 0.00, -0.00, -1.00, 0.0, 1080.0)"><path d="M 0.0 1080.0 L 1920.0 1080.0 L 1920.0 0.0 L 0.0 0.0 Z M 0.0 1080.0 " fill="#FEFFFF"></path><g><clipPath id="clip-520"><path d="M 0.0 0.0 L 1920.0 0.0 L 1920.0 1080.0 L 0.0 1080.0 Z M 0.0 0.0 "></path></clipPath><g clip-path="url(#clip-520)"><path d="M 0.0 0.0 L 1920.0 0.0 L 1920.0 1080.0 L 0.0 1080.0 Z M 0.0 0.0 " fill="#96AEAD"></path><text xml:space="preserve" font-family="Circular-Medium" font-size="20.0" fill="#171D58" transform="matrix(1.50, 0.00, -0.00, -1.50, 621.6, 450.4)">W</text><text xml:space="preserve" font-family="Circular-Medium" font-size="20.0" fill="#171D58" transform="matrix(1.50, 0.00, -0.00, -1.50, 651.0, 450.4)">e</text><text xml:space="preserve" font-family="Circular-Medium" font-size="20.0" fill="#171D58" transform="matrix(1.50, 0.00, -0.00, -1.50, 667.4, 450.4)"> </text><text xml:space="preserve" font-family="Circular-Medium" font-size="20.0" fill="#171D58" transform="matrix(1.50, 0.00, -0.00, -1.50, 674.8, 450.4)">m</text><text xml:space="preserve" font-family="Circular-Medium" font-size="20.0" fill="#171D58" transform="matrix(1.50, 0.00, -0.00, -1.50, 700.8, 450.4)">u</text><text xml:space="preserve" font-family="Circular-Medium" font-size="20.0" fill="#171D58" transform="matrix(1.50, 0.00, -0.00, -1.50, 718.1, 450.4)">s</text><text xml:space="preserve" font-family="Circular-Medium" font-size="20.0" fill="#171D58" transform="matrix(1.50, 0.00, -0.00, -1.50, 731.8, 450.4)">t</text><text xml:space="preserve" font-family="Circular-Medium" font-size="20.0" fill="#171D58" transform="matrix(1.50, 0.00, -0.00, -1.50, 742.8, 450.4)"> </text><text xml:space="preserve" font-family="Circular-Medium" font-size="20.0" fill="#171D58" transform="matrix(1.50, 0.00, -0.00, -1.50, 750.2, 450.4)">f</text><text xml:space="preserve" font-family="Circular-Medium" font-size="20.0" fill="#171D58" transform="matrix(1.50, 0.00, -0.00, -1.50, 760.3, 450.4)">o</text><text xml:space="preserve" font-family="Circular-Medium" font-size="20.0" fill="#171D58" transform="matrix(1.50, 0.00, -0.00, -1.50, 777.7, 450.4)">c</text><text xml:space="preserve" font-family="Circular-Medium" font-size="20.0" fill="#171D58" transform="matrix(1.50, 0.00, -0.00, -1.50, 793.7, 450.4)">u</text><text xml:space="preserve" font-family="Circular-Medium" font-size="20.0" fill="#171D58" transform="matrix(1.50, 0.00, -0.00, -1.50, 811.0, 450.4)">s</text><text xml:space="preserve" font-family="Circular-Medium" font-size="20.0" fill="#171D58" transform="matrix(1.50, 0.00, -0.00, -1.50, 824.7, 450.4)"> </text><text xml:space="preserve" font-family="Circular-Medium" font-size="20.0" fill="#171D58" transform="matrix(1.50, 0.00, -0.00, -1.50, 832.1, 450.4)">o</text><text xml:space="preserve" font-family="Circular-Medium" font-size="20.0" fill="#171D58" transform="matrix(1.50, 0.00, -0.00, -1.50, 849.5, 450.4)">n</text><text xml:space="preserve" font-family="Circular-Medium" font-size="20.0" fill="#171D58" transform="matrix(1.50, 0.00, -0.00, -1.50, 866.7, 450.4)"> </text><text xml:space="preserve" font-family="Circular-Medium" font-size="20.0" fill="#171D58" transform="matrix(1.50, 0.00, -0.00, -1.50, 874.2, 450.4)">o</text><text xml:space="preserve" font-family="Circular-Medium" font-size="20.0" fill="#171D58" transform="matrix(1.50, 0.00, -0.00, -1.50, 891.4, 450.4)">u</text><text xml:space="preserve" font-family="Circular-Medium" font-size="20.0" fill="#171D58" transform="matrix(1.50, 0.00, -0.00, -1.50, 908.8, 450.4)">r</text><text xml:space="preserve" font-family="Circular-Medium" font-size="20.0" fill="#171D58" transform="matrix(1.50, 0.00, -0.00, -1.50, 920.2, 450.4)"> </text><text xml:space="preserve" font-family="Circular-Medium" font-size="20.0" fill="#171D58" transform="matrix(1.50, 0.00, -0.00, -1.50, 927.6, 450.4)">k</text><text xml:space="preserve" font-family="Circular-Medium" font-size="20.0" fill="#171D58" transform="matrix(1.50, 0.00, -0.00, -1.50, 943.2, 450.4)">e</text><text xml:space="preserve" font-family="Circular-Medium" font-size="20.0" fill="#171D58" transform="matrix(1.50, 0.00, -0.00, -1.50, 959.4, 450.4)">y</text><text xml:space="preserve" font-family="Circular-Medium" font-size="20.0" fill="#171D58" transform="matrix(1.50, 0.00, -0.00, -1.50, 975.7, 450.4)"> </text><text xml:space="preserve" font-family="Circular-Medium" font-size="20.0" fill="#171D58" transform="matrix(1.50, 0.00, -0.00, -1.50, 983.2, 450.4)">b</text><text xml:space="preserve" font-family="Circular-Medium" font-size="20.0" fill="#171D58" transform="matrix(1.50, 0.00, -0.00, -1.50, 1001.3, 450.4)">r</text><text xml:space="preserve" font-family="Circular-Medium" font-size="20.0" fill="#171D58" transform="matrix(1.50, 0.00, -0.00, -1.50, 1012.8, 450.4)">a</text><text xml:space="preserve" font-family="Circular-Medium" font-size="20.0" fill="#171D58" transform="matrix(1.50, 0.00, -0.00, -1.50, 1028.7, 450.4)">n</text><text xml:space="preserve" font-family="Circular-Medium" font-size="20.0" fill="#171D58" transform="matrix(1.50, 0.00, -0.00, -1.50, 1045.9, 450.4)">d</text><text xml:space="preserve" font-family="Circular-Medium" font-size="20.0" fill="#171D58" transform="matrix(1.50, 0.00, -0.00, -1.50, 1064.0, 450.4)">s</text><text xml:space="preserve" font-family="Circular-Medium" font-size="20.0" fill="#171D58" transform="matrix(1.50, 0.00, -0.00, -1.50, 1077.7, 450.4)">,</text><text xml:space="preserve" font-family="Circular-Medium" font-size="20.0" fill="#171D58" transform="matrix(1.50, 0.00, -0.00, -1.50, 1086.8, 450.4)"> </text><text xml:space="preserve" font-family="Circular-Medium" font-size="20.0" fill="#171D58" transform="matrix(1.50, 0.00, -0.00, -1.50, 1094.3, 450.4)">k</text><text xml:space="preserve" font-family="Circular-Medium" font-size="20.0" fill="#171D58" transform="matrix(1.50, 0.00, -0.00, -1.50, 1109.9, 450.4)">e</text><text xml:space="preserve" font-family="Circular-Medium" font-size="20.0" fill="#171D58" transform="matrix(1.50, 0.00, -0.00, -1.50, 1126.1, 450.4)">y</text><text xml:space="preserve" font-family="Circular-Medium" font-size="20.0" fill="#171D58" transform="matrix(1.50, 0.00, -0.00, -1.50, 1142.4, 450.4)"> </text><text xml:space="preserve" font-family="Circular-Medium" font-size="20.0" fill="#171D58" transform="matrix(1.50, 0.00, -0.00, -1.50, 1149.8, 450.4)">a</text><text xml:space="preserve" font-family="Circular-Medium" font-size="20.0" fill="#171D58" transform="matrix(1.50, 0.00, -0.00, -1.50, 1165.7, 450.4)">t</text><text xml:space="preserve" font-family="Circular-Medium" font-size="20.0" fill="#171D58" transform="matrix(1.50, 0.00, -0.00, -1.50, 1176.3, 450.4)">h</text><text xml:space="preserve" font-family="Circular-Medium" font-size="20.0" fill="#171D58" transform="matrix(1.50, 0.00, -0.00, -1.50, 1193.5, 450.4)">l</text><text xml:space="preserve" font-family="Circular-Medium" font-size="20.0" fill="#171D58" transform="matrix(1.50, 0.00, -0.00, -1.50, 1201.5, 450.4)">e</text><text xml:space="preserve" font-family="Circular-Medium" font-size="20.0" fill="#171D58" transform="matrix(1.50, 0.00, -0.00, -1.50, 1218.0, 450.4)">t</text><text xml:space="preserve" font-family="Circular-Medium" font-size="20.0" fill="#171D58" transform="matrix(1.50, 0.00, -0.00, -1.50, 1228.8, 450.4)">e</text><text xml:space="preserve" font-family="Circular-Medium" font-size="20.0" fill="#171D58" transform="matrix(1.50, 0.00, -0.00, -1.50, 1245.3, 450.4)">s</text><text xml:space="preserve" font-family="Circular-Medium" font-size="20.0" fill="#171D58" transform="matrix(1.50, 0.00, -0.00, -1.50, 1259.0, 450.4)"> </text><text xml:space="preserve" font-family="Circular-Medium" font-size="20.0" fill="#171D58" transform="matrix(1.50, 0.00, -0.00, -1.50, 1266.4, 450.4)">a</text><text xml:space="preserve" font-family="Circular-Medium" font-size="20.0" fill="#171D58" transform="matrix(1.50, 0.00, -0.00, -1.50, 1282.4, 450.4)">n</text><text xml:space="preserve" font-family="Circular-Medium" font-size="20.0" fill="#171D58" transform="matrix(1.50, 0.00, -0.00, -1.50, 1299.6, 450.4)">d</text><text xml:space="preserve" font-family="Circular-Medium" font-size="20.0" fill="#171D58" transform="matrix(1.50, 0.00, -0.00, -1.50, 1317.7, 450.4)"> </text><text xml:space="preserve" font-family="Circular-Medium" font-size="20.0" fill="#171D58" transform="matrix(1.50, 0.00, -0.00, -1.50, 621.6, 405.4)">k</text><text xml:space="preserve" font-family="Circular-Medium" font-size="20.0" fill="#171D58" transform="matrix(1.50, 0.00, -0.00, -1.50, 637.2, 405.4)">e</text><text xml:space="preserve" font-family="Circular-Medium" font-size="20.0" fill="#171D58" transform="matrix(1.50, 0.00, -0.00, -1.50, 653.4, 405.4)">y</text><text xml:space="preserve" font-family="Circular-Medium" font-size="20.0" fill="#171D58" transform="matrix(1.50, 0.00, -0.00, -1.50, 669.7, 405.4)"> </text><text xml:space="preserve" font-family="Circular-Medium" font-size="20.0" fill="#171D58" transform="matrix(1.50, 0.00, -0.00, -1.50, 677.1, 405.4)">c</text><text xml:space="preserve" font-family="Circular-Medium" font-size="20.0" fill="#171D58" transform="matrix(1.50, 0.00, -0.00, -1.50, 693.3, 405.4)">a</text><text xml:space="preserve" font-family="Circular-Medium" font-size="20.0" fill="#171D58" transform="matrix(1.50, 0.00, -0.00, -1.50, 709.2, 405.4)">t</text><text xml:space="preserve" font-family="Circular-Medium" font-size="20.0" fill="#171D58" transform="matrix(1.50, 0.00, -0.00, -1.50, 720.0, 405.4)">e</text><text xml:space="preserve" font-family="Circular-Medium" font-size="20.0" fill="#171D58" transform="matrix(1.50, 0.00, -0.00, -1.50, 736.5, 405.4)">g</text><text xml:space="preserve" font-family="Circular-Medium" font-size="20.0" fill="#171D58" transform="matrix(1.50, 0.00, -0.00, -1.50, 754.1, 405.4)">o</text><text xml:space="preserve" font-family="Circular-Medium" font-size="20.0" fill="#171D58" transform="matrix(1.50, 0.00, -0.00, -1.50, 771.5, 405.4)">r</text><text xml:space="preserve" font-family="Circular-Medium" font-size="20.0" fill="#171D58" transform="matrix(1.50, 0.00, -0.00, -1.50, 783.0, 405.4)">i</text><text xml:space="preserve" font-family="Circular-Medium" font-size="20.0" fill="#171D58" transform="matrix(1.50, 0.00, -0.00, -1.50, 790.9, 405.4)">e</text><text xml:space="preserve" font-family="Circular-Medium" font-size="20.0" fill="#171D58" transform="matrix(1.50, 0.00, -0.00, -1.50, 807.4, 405.4)">s</text><text xml:space="preserve" font-family="Circular-Medium" font-size="20.0" fill="#171D58" transform="matrix(1.50, 0.00, -0.00, -1.50, 821.1, 405.4)"> </text><text xml:space="preserve" font-family="Circular-Medium" font-size="20.0" fill="#171D58" transform="matrix(1.50, 0.00, -0.00, -1.50, 828.5, 405.4)">i</text><text xml:space="preserve" font-family="Circular-Medium" font-size="20.0" fill="#171D58" transform="matrix(1.50, 0.00, -0.00, -1.50, 836.5, 405.4)">n</text><text xml:space="preserve" font-family="Circular-Medium" font-size="20.0" fill="#171D58" transform="matrix(1.50, 0.00, -0.00, -1.50, 853.7, 405.4)"> </text><text xml:space="preserve" font-family="Circular-Medium" font-size="20.0" fill="#171D58" transform="matrix(1.50, 0.00, -0.00, -1.50, 861.1, 405.4)">o</text><text xml:space="preserve" font-family="Circular-Medium" font-size="20.0" fill="#171D58" transform="matrix(1.50, 0.00, -0.00, -1.50, 878.5, 405.4)">r</text><text xml:space="preserve" font-family="Circular-Medium" font-size="20.0" fill="#171D58" transform="matrix(1.50, 0.00, -0.00, -1.50, 889.8, 405.4)">d</text><text xml:space="preserve" font-family="Circular-Medium" font-size="20.0" fill="#171D58" transform="matrix(1.50, 0.00, -0.00, -1.50, 907.9, 405.4)">e</text><text xml:space="preserve" font-family="Circular-Medium" font-size="20.0" fill="#171D58" transform="matrix(1.50, 0.00, -0.00, -1.50, 924.3, 405.4)">r</text><text xml:space="preserve" font-family="Circular-Medium" font-size="20.0" fill="#171D58" transform="matrix(1.50, 0.00, -0.00, -1.50, 935.7, 405.4)"> </text><text xml:space="preserve" font-family="Circular-Medium" font-size="20.0" fill="#171D58" transform="matrix(1.50, 0.00, -0.00, -1.50, 943.1, 405.4)">t</text><text xml:space="preserve" font-family="Circular-Medium" font-size="20.0" fill="#171D58" transform="matrix(1.50, 0.00, -0.00, -1.50, 954.0, 405.4)">o</text><text xml:space="preserve" font-family="Circular-Medium" font-size="20.0" fill="#171D58" transform="matrix(1.50, 0.00, -0.00, -1.50, 971.4, 405.4)"> </text><text xml:space="preserve" font-family="Circular-Medium" font-size="20.0" fill="#171D58" transform="matrix(1.50, 0.00, -0.00, -1.50, 978.8, 405.4)">c</text><text xml:space="preserve" font-family="Circular-Medium" font-size="20.0" fill="#171D58" transform="matrix(1.50, 0.00, -0.00, -1.50, 994.9, 405.4)">o</text><text xml:space="preserve" font-family="Circular-Medium" font-size="20.0" fill="#171D58" transform="matrix(1.50, 0.00, -0.00, -1.50, 1012.3, 405.4)">m</text><text xml:space="preserve" font-family="Circular-Medium" font-size="20.0" fill="#171D58" transform="matrix(1.50, 0.00, -0.00, -1.50, 1038.4, 405.4)">p</text><text xml:space="preserve" font-family="Circular-Medium" font-size="20.0" fill="#171D58" transform="matrix(1.50, 0.00, -0.00, -1.50, 1056.6, 405.4)">e</text><text xml:space="preserve" font-family="Circular-Medium" font-size="20.0" fill="#171D58" transform="matrix(1.50, 0.00, -0.00, -1.50, 1073.0, 405.4)">t</text><text xml:space="preserve" font-family="Circular-Medium" font-size="20.0" fill="#171D58" transform="matrix(1.50, 0.00, -0.00, -1.50, 1083.9, 405.4)">e</text><text xml:space="preserve" font-family="Circular-Medium" font-size="20.0" fill="#171D58" transform="matrix(1.50, 0.00, -0.00, -1.50, 1100.3, 405.4)"> </text><text xml:space="preserve" font-family="Circular-Medium" font-size="20.0" fill="#171D58" transform="matrix(1.50, 0.00, -0.00, -1.50, 1107.7, 405.4)">a</text><text xml:space="preserve" font-family="Circular-Medium" font-size="20.0" fill="#171D58" transform="matrix(1.50, 0.00, -0.00, -1.50, 1123.7, 405.4)">n</text><text xml:space="preserve" font-family="Circular-Medium" font-size="20.0" fill="#171D58" transform="matrix(1.50, 0.00, -0.00, -1.50, 1140.9, 405.4)">d</text><text xml:space="preserve" font-family="Circular-Medium" font-size="20.0" fill="#171D58" transform="matrix(1.50, 0.00, -0.00, -1.50, 1159.0, 405.4)"> </text><text xml:space="preserve" font-family="Circular-Medium" font-size="20.0" fill="#171D58" transform="matrix(1.50, 0.00, -0.00, -1.50, 1166.4, 405.4)">g</text><text xml:space="preserve" font-family="Circular-Medium" font-size="20.0" fill="#171D58" transform="matrix(1.50, 0.00, -0.00, -1.50, 1184.1, 405.4)">r</text><text xml:space="preserve" font-family="Circular-Medium" font-size="20.0" fill="#171D58" transform="matrix(1.50, 0.00, -0.00, -1.50, 1195.4, 405.4)">o</text><text xml:space="preserve" font-family="Circular-Medium" font-size="20.0" fill="#171D58" transform="matrix(1.50, 0.00, -0.00, -1.50, 1212.4, 405.4)">w</text><text xml:space="preserve" font-family="Circular-Medium" font-size="20.0" fill="#171D58" transform="matrix(1.50, 0.00, -0.00, -1.50, 1235.5, 405.4)">.</text><text xml:space="preserve" font-family="Circular-Medium" font-size="20.0" fill="#171D58" transform="matrix(1.50, 0.00, -0.00, -1.50, 1244.4, 405.4)">”</text><text xml:space="preserve" font-family="Circular-Medium" font-size="20.0" fill="#171D58" transform="matrix(1.50, 0.00, -0.00, -1.50, 1256.8, 405.4)"> </text></g></g><g><clipPath id="clip-521"><path d="M 0.0 1080.0 L 1920.0 1080.0 L 1920.0 0.0 L 0.0 0.0 Z M 0.0 1080.0 "></path></clipPath><g clip-path="url(#clip-521)"><g><clipPath id="clip-522"><path d="M 0.0 0.0 L 1920.0 0.0 L 1920.0 1080.0 L 0.0 1080.0 Z M 0.0 0.0 "></path></clipPath><g clip-path="url(#clip-522)"><g opacity="0.50"><g><clipPath id="clip-523"><path d="M 621.6 296.1 L 1235.7 296.1 L 1235.7 352.7 L 621.6 352.7 Z M 621.6 296.1 "></path></clipPath><g clip-path="url(#clip-523)"><text xml:space="preserve" font-family="Circular-Medium" font-size="10.0" fill="#171D58" transform="matrix(1.50, 0.00, -0.00, -1.50, 621.6, 339.9)">-</text><text xml:space="preserve" font-family="Circular-Medium" font-size="10.0" fill="#171D58" transform="matrix(1.50, 0.00, -0.00, -1.50, 626.4, 339.9)"> </text><text xml:space="preserve" font-family="Circular-Medium" font-size="10.0" fill="#171D58" transform="matrix(1.50, 0.00, -0.00, -1.50, 630.1, 339.9)">A</text><text xml:space="preserve" font-family="Circular-Medium" font-size="10.0" fill="#171D58" transform="matrix(1.50, 0.00, -0.00, -1.50, 640.7, 339.9)">n</text><text xml:space="preserve" font-family="Circular-Medium" font-size="10.0" fill="#171D58" transform="matrix(1.50, 0.00, -0.00, -1.50, 649.3, 339.9)">d</text><text xml:space="preserve" font-family="Circular-Medium" font-size="10.0" fill="#171D58" transform="matrix(1.50, 0.00, -0.00, -1.50, 658.4, 339.9)">y</text><text xml:space="preserve" font-family="Circular-Medium" font-size="10.0" fill="#171D58" transform="matrix(1.50, 0.00, -0.00, -1.50, 666.5, 339.9)"> </text><text xml:space="preserve" font-family="Circular-Medium" font-size="10.0" fill="#171D58" transform="matrix(1.50, 0.00, -0.00, -1.50, 670.2, 339.9)">M</text><text xml:space="preserve" font-family="Circular-Medium" font-size="10.0" fill="#171D58" transform="matrix(1.50, 0.00, -0.00, -1.50, 684.5, 339.9)">o</text><text xml:space="preserve" font-family="Circular-Medium" font-size="10.0" fill="#171D58" transform="matrix(1.50, 0.00, -0.00, -1.50, 693.1, 339.9)">o</text><text xml:space="preserve" font-family="Circular-Medium" font-size="10.0" fill="#171D58" transform="matrix(1.50, 0.00, -0.00, -1.50, 701.8, 339.9)">n</text><text xml:space="preserve" font-family="Circular-Medium" font-size="10.0" fill="#171D58" transform="matrix(1.50, 0.00, -0.00, -1.50, 710.4, 339.9)">e</text><text xml:space="preserve" font-family="Circular-Medium" font-size="10.0" fill="#171D58" transform="matrix(1.50, 0.00, -0.00, -1.50, 718.5, 339.9)">y</text><text xml:space="preserve" font-family="Circular-Medium" font-size="10.0" fill="#171D58" transform="matrix(1.50, 0.00, -0.00, -1.50, 725.1, 339.9)">,</text><text xml:space="preserve" font-family="Circular-Medium" font-size="10.0" fill="#171D58" transform="matrix(1.50, 0.00, -0.00, -1.50, 729.7, 339.9)"> </text><text xml:space="preserve" font-family="Circular-Medium" font-size="10.0" fill="#171D58" transform="matrix(1.50, 0.00, -0.00, -1.50, 733.4, 339.9)">Q</text><text xml:space="preserve" font-family="Circular-Medium" font-size="10.0" fill="#171D58" transform="matrix(1.50, 0.00, -0.00, -1.50, 745.5, 339.9)">u</text><text xml:space="preserve" font-family="Circular-Medium" font-size="10.0" fill="#171D58" transform="matrix(1.50, 0.00, -0.00, -1.50, 754.1, 339.9)">i</text><text xml:space="preserve" font-family="Circular-Medium" font-size="10.0" fill="#171D58" transform="matrix(1.50, 0.00, -0.00, -1.50, 758.1, 339.9)">k</text><text xml:space="preserve" font-family="Circular-Medium" font-size="10.0" fill="#171D58" transform="matrix(1.50, 0.00, -0.00, -1.50, 766.3, 339.9)">s</text><text xml:space="preserve" font-family="Circular-Medium" font-size="10.0" fill="#171D58" transform="matrix(1.50, 0.00, -0.00, -1.50, 773.1, 339.9)">i</text><text xml:space="preserve" font-family="Circular-Medium" font-size="10.0" fill="#171D58" transform="matrix(1.50, 0.00, -0.00, -1.50, 777.1, 339.9)">l</text><text xml:space="preserve" font-family="Circular-Medium" font-size="10.0" fill="#171D58" transform="matrix(1.50, 0.00, -0.00, -1.50, 781.1, 339.9)">v</text><text xml:space="preserve" font-family="Circular-Medium" font-size="10.0" fill="#171D58" transform="matrix(1.50, 0.00, -0.00, -1.50, 788.7, 339.9)">e</text><text xml:space="preserve" font-family="Circular-Medium" font-size="10.0" fill="#171D58" transform="matrix(1.50, 0.00, -0.00, -1.50, 796.9, 339.9)">r</text><text xml:space="preserve" font-family="Circular-Medium" font-size="10.0" fill="#171D58" transform="matrix(1.50, 0.00, -0.00, -1.50, 802.6, 339.9)"> </text><text xml:space="preserve" font-family="Circular-Medium" font-size="10.0" fill="#171D58" transform="matrix(1.50, 0.00, -0.00, -1.50, 806.4, 339.9)">C</text><text xml:space="preserve" font-family="Circular-Medium" font-size="10.0" fill="#171D58" transform="matrix(1.50, 0.00, -0.00, -1.50, 817.7, 339.9)">E</text><text xml:space="preserve" font-family="Circular-Medium" font-size="10.0" fill="#171D58" transform="matrix(1.50, 0.00, -0.00, -1.50, 826.4, 339.9)">O</text><text xml:space="preserve" font-family="Circular-Medium" font-size="10.0" fill="#171D58" transform="matrix(1.50, 0.00, -0.00, -1.50, 838.5, 339.9)"> </text><text xml:space="preserve" font-family="Circular-Medium" font-size="10.0" fill="#171D58" transform="matrix(1.50, 0.00, -0.00, -1.50, 842.2, 339.9)">2</text><text xml:space="preserve" font-family="Circular-Medium" font-size="10.0" fill="#171D58" transform="matrix(1.50, 0.00, -0.00, -1.50, 850.3, 339.9)">0</text><text xml:space="preserve" font-family="Circular-Medium" font-size="10.0" fill="#171D58" transform="matrix(1.50, 0.00, -0.00, -1.50, 859.4, 339.9)">1</text><text xml:space="preserve" font-family="Circular-Medium" font-size="10.0" fill="#171D58" transform="matrix(1.50, 0.00, -0.00, -1.50, 865.2, 339.9)">3</text></g></g></g></g></g></g></g><g><clipPath id="clip-524"><path d="M 0.0 0.0 L 1920.0 0.0 L 1920.0 1080.0 L 0.0 1080.0 Z M 0.0 0.0 "></path></clipPath><g clip-path="url(#clip-524)"><text xml:space="preserve" font-family="Circular-Medium" font-size="20.0" fill="#171D58" transform="matrix(1.50, 0.00, -0.00, -1.50, 621.6, 610.7)"> </text><text xml:space="preserve" font-family="Circular-Medium" font-size="40.0" fill="#171D58" transform="matrix(1.50, 0.00, -0.00, -1.50, 629.0, 610.7)">F</text><text xml:space="preserve" font-family="Circular-Medium" font-size="40.0" fill="#171D58" transform="matrix(1.50, 0.00, -0.00, -1.50, 660.4, 610.7)">o</text><text xml:space="preserve" font-family="Circular-Medium" font-size="40.0" fill="#171D58" transform="matrix(1.50, 0.00, -0.00, -1.50, 695.2, 610.7)">c</text><text xml:space="preserve" font-family="Circular-Medium" font-size="40.0" fill="#171D58" transform="matrix(1.50, 0.00, -0.00, -1.50, 727.2, 610.7)">u</text><text xml:space="preserve" font-family="Circular-Medium" font-size="40.0" fill="#171D58" transform="matrix(1.50, 0.00, -0.00, -1.50, 761.8, 610.7)">s</text><text xml:space="preserve" font-family="Circular-Medium" font-size="40.0" fill="#171D58" transform="matrix(1.50, 0.00, -0.00, -1.50, 789.3, 610.7)"> </text><text xml:space="preserve" font-family="Circular-Medium" font-size="40.0" fill="#171D58" transform="matrix(1.50, 0.00, -0.00, -1.50, 804.1, 610.7)">i</text><text xml:space="preserve" font-family="Circular-Medium" font-size="40.0" fill="#171D58" transform="matrix(1.50, 0.00, -0.00, -1.50, 820.0, 610.7)">s</text><text xml:space="preserve" font-family="Circular-Medium" font-size="40.0" fill="#171D58" transform="matrix(1.50, 0.00, -0.00, -1.50, 847.5, 610.7)"> </text><text xml:space="preserve" font-family="Circular-Medium" font-size="40.0" fill="#171D58" transform="matrix(1.50, 0.00, -0.00, -1.50, 862.3, 610.7)">a</text><text xml:space="preserve" font-family="Circular-Medium" font-size="40.0" fill="#171D58" transform="matrix(1.50, 0.00, -0.00, -1.50, 894.3, 610.7)"> </text><text xml:space="preserve" font-family="Circular-Medium" font-size="40.0" fill="#171D58" transform="matrix(1.50, 0.00, -0.00, -1.50, 909.1, 610.7)">r</text><text xml:space="preserve" font-family="Circular-Medium" font-size="40.0" fill="#171D58" transform="matrix(1.50, 0.00, -0.00, -1.50, 931.8, 610.7)">e</text><text xml:space="preserve" font-family="Circular-Medium" font-size="40.0" fill="#171D58" transform="matrix(1.50, 0.00, -0.00, -1.50, 964.6, 610.7)">c</text><text xml:space="preserve" font-family="Circular-Medium" font-size="40.0" fill="#171D58" transform="matrix(1.50, 0.00, -0.00, -1.50, 996.7, 610.7)">u</text><text xml:space="preserve" font-family="Circular-Medium" font-size="40.0" fill="#171D58" transform="matrix(1.50, 0.00, -0.00, -1.50, 1031.3, 610.7)">r</text><text xml:space="preserve" font-family="Circular-Medium" font-size="40.0" fill="#171D58" transform="matrix(1.50, 0.00, -0.00, -1.50, 1054.2, 610.7)">r</text><text xml:space="preserve" font-family="Circular-Medium" font-size="40.0" fill="#171D58" transform="matrix(1.50, 0.00, -0.00, -1.50, 1077.1, 610.7)">i</text><text xml:space="preserve" font-family="Circular-Medium" font-size="40.0" fill="#171D58" transform="matrix(1.50, 0.00, -0.00, -1.50, 1093.0, 610.7)">n</text><text xml:space="preserve" font-family="Circular-Medium" font-size="40.0" fill="#171D58" transform="matrix(1.50, 0.00, -0.00, -1.50, 1127.5, 610.7)">g</text><text xml:space="preserve" font-family="Circular-Medium" font-size="40.0" fill="#171D58" transform="matrix(1.50, 0.00, -0.00, -1.50, 1162.8, 610.7)"> </text><text xml:space="preserve" font-family="Circular-Medium" font-size="40.0" fill="#171D58" transform="matrix(1.50, 0.00, -0.00, -1.50, 1177.7, 610.7)">t</text><text xml:space="preserve" font-family="Circular-Medium" font-size="40.0" fill="#171D58" transform="matrix(1.50, 0.00, -0.00, -1.50, 1198.9, 610.7)">h</text><text xml:space="preserve" font-family="Circular-Medium" font-size="40.0" fill="#171D58" transform="matrix(1.50, 0.00, -0.00, -1.50, 1233.3, 610.7)">e</text><text xml:space="preserve" font-family="Circular-Medium" font-size="40.0" fill="#171D58" transform="matrix(1.50, 0.00, -0.00, -1.50, 1266.2, 610.7)">m</text><text xml:space="preserve" font-family="Circular-Medium" font-size="40.0" fill="#171D58" transform="matrix(1.50, 0.00, -0.00, -1.50, 1318.6, 610.7)">e</text><text xml:space="preserve" font-family="Circular-Medium" font-size="40.0" fill="#171D58" transform="matrix(1.50, 0.00, -0.00, -1.50, 1351.5, 610.7)"> </text><text xml:space="preserve" font-family="Circular-Medium" font-size="40.0" fill="#171D58" transform="matrix(1.50, 0.00, -0.00, -1.50, 621.6, 535.7)">y</text><text xml:space="preserve" font-family="Circular-Medium" font-size="40.0" fill="#171D58" transform="matrix(1.50, 0.00, -0.00, -1.50, 652.8, 535.7)">o</text><text xml:space="preserve" font-family="Circular-Medium" font-size="40.0" fill="#171D58" transform="matrix(1.50, 0.00, -0.00, -1.50, 687.4, 535.7)">u</text><text xml:space="preserve" font-family="Circular-Medium" font-size="40.0" fill="#171D58" transform="matrix(1.50, 0.00, -0.00, -1.50, 721.8, 535.7)">’</text><text xml:space="preserve" font-family="Circular-Medium" font-size="40.0" fill="#171D58" transform="matrix(1.50, 0.00, -0.00, -1.50, 735.6, 535.7)">l</text><text xml:space="preserve" font-family="Circular-Medium" font-size="40.0" fill="#171D58" transform="matrix(1.50, 0.00, -0.00, -1.50, 751.6, 535.7)">l</text><text xml:space="preserve" font-family="Circular-Medium" font-size="40.0" fill="#171D58" transform="matrix(1.50, 0.00, -0.00, -1.50, 767.5, 535.7)"> </text><text xml:space="preserve" font-family="Circular-Medium" font-size="40.0" fill="#171D58" transform="matrix(1.50, 0.00, -0.00, -1.50, 782.4, 535.7)">h</text><text xml:space="preserve" font-family="Circular-Medium" font-size="40.0" fill="#171D58" transform="matrix(1.50, 0.00, -0.00, -1.50, 816.9, 535.7)">e</text><text xml:space="preserve" font-family="Circular-Medium" font-size="40.0" fill="#171D58" transform="matrix(1.50, 0.00, -0.00, -1.50, 849.7, 535.7)">a</text><text xml:space="preserve" font-family="Circular-Medium" font-size="40.0" fill="#171D58" transform="matrix(1.50, 0.00, -0.00, -1.50, 881.7, 535.7)">r</text><text xml:space="preserve" font-family="Circular-Medium" font-size="40.0" fill="#171D58" transform="matrix(1.50, 0.00, -0.00, -1.50, 904.5, 535.7)"> </text><text xml:space="preserve" font-family="Circular-Medium" font-size="40.0" fill="#171D58" transform="matrix(1.50, 0.00, -0.00, -1.50, 919.3, 535.7)">g</text><text xml:space="preserve" font-family="Circular-Medium" font-size="40.0" fill="#171D58" transform="matrix(1.50, 0.00, -0.00, -1.50, 954.7, 535.7)">o</text><text xml:space="preserve" font-family="Circular-Medium" font-size="40.0" fill="#171D58" transform="matrix(1.50, 0.00, -0.00, -1.50, 989.4, 535.7)">i</text><text xml:space="preserve" font-family="Circular-Medium" font-size="40.0" fill="#171D58" transform="matrix(1.50, 0.00, -0.00, -1.50, 1005.3, 535.7)">n</text><text xml:space="preserve" font-family="Circular-Medium" font-size="40.0" fill="#171D58" transform="matrix(1.50, 0.00, -0.00, -1.50, 1039.8, 535.7)">g</text><text xml:space="preserve" font-family="Circular-Medium" font-size="40.0" fill="#171D58" transform="matrix(1.50, 0.00, -0.00, -1.50, 1075.1, 535.7)"> </text><text xml:space="preserve" font-family="Circular-Medium" font-size="40.0" fill="#171D58" transform="matrix(1.50, 0.00, -0.00, -1.50, 1090.0, 535.7)">f</text><text xml:space="preserve" font-family="Circular-Medium" font-size="40.0" fill="#171D58" transform="matrix(1.50, 0.00, -0.00, -1.50, 1110.1, 535.7)">o</text><text xml:space="preserve" font-family="Circular-Medium" font-size="40.0" fill="#171D58" transform="matrix(1.50, 0.00, -0.00, -1.50, 1144.8, 535.7)">r</text><text xml:space="preserve" font-family="Circular-Medium" font-size="40.0" fill="#171D58" transform="matrix(1.50, 0.00, -0.00, -1.50, 1168.4, 535.7)">w</text><text xml:space="preserve" font-family="Circular-Medium" font-size="40.0" fill="#171D58" transform="matrix(1.50, 0.00, -0.00, -1.50, 1217.1, 535.7)">a</text><text xml:space="preserve" font-family="Circular-Medium" font-size="40.0" fill="#171D58" transform="matrix(1.50, 0.00, -0.00, -1.50, 1249.0, 535.7)">r</text><text xml:space="preserve" font-family="Circular-Medium" font-size="40.0" fill="#171D58" transform="matrix(1.50, 0.00, -0.00, -1.50, 1271.6, 535.7)">d</text><text xml:space="preserve" font-family="Circular-Medium" font-size="40.0" fill="#171D58" transform="matrix(1.50, 0.00, -0.00, -1.50, 1307.5, 535.7)">.</text><text xml:space="preserve" font-family="Circular-Medium" font-size="40.0" fill="#171D58" transform="matrix(1.50, 0.00, -0.00, -1.50, 1325.3, 535.7)"> </text><text xml:space="preserve" font-family="Helvetica" font-size="12.0" fill="#FFFFFF" transform="matrix(1.50, 0.00, -0.00, -1.50, 621.6, 729.5)">R</text><text xml:space="preserve" font-family="Helvetica" font-size="12.0" fill="#FFFFFF" transform="matrix(1.50, 0.00, -0.00, -1.50, 642.7, 729.5)">E</text><text xml:space="preserve" font-family="Helvetica" font-size="12.0" fill="#FFFFFF" transform="matrix(1.50, 0.00, -0.00, -1.50, 662.8, 729.5)">P</text><text xml:space="preserve" font-family="Helvetica" font-size="12.0" fill="#FFFFFF" transform="matrix(1.50, 0.00, -0.00, -1.50, 682.9, 729.5)">O</text><text xml:space="preserve" font-family="Helvetica" font-size="12.0" fill="#FFFFFF" transform="matrix(1.50, 0.00, -0.00, -1.50, 704.9, 729.5)">S</text><text xml:space="preserve" font-family="Helvetica" font-size="12.0" fill="#FFFFFF" transform="matrix(1.50, 0.00, -0.00, -1.50, 725.0, 729.5)">I</text><text xml:space="preserve" font-family="Helvetica" font-size="12.0" fill="#FFFFFF" transform="matrix(1.50, 0.00, -0.00, -1.50, 738.2, 729.5)">T</text><text xml:space="preserve" font-family="Helvetica" font-size="12.0" fill="#FFFFFF" transform="matrix(1.50, 0.00, -0.00, -1.50, 757.2, 729.5)">I</text><text xml:space="preserve" font-family="Helvetica" font-size="12.0" fill="#FFFFFF" transform="matrix(1.50, 0.00, -0.00, -1.50, 770.3, 729.5)">O</text><text xml:space="preserve" font-family="Helvetica" font-size="12.0" fill="#FFFFFF" transform="matrix(1.50, 0.00, -0.00, -1.50, 792.4, 729.5)">N</text><text xml:space="preserve" font-family="Circular-Medium" font-size="20.0" fill="#171D58" transform="matrix(1.50, 0.00, -0.00, -1.50, 615.6, 631.4)">“</text></g></g></g></svg>