<?xml version="1.0" encoding="UTF-8" standalone="no"?><svg xmlns="http://www.w3.org/2000/svg" xmlns:xlink="http://www.w3.org/1999/xlink" clip-rule="evenodd" stroke-miterlimit="4.00" viewBox="0 0 1920 1080"><desc>SVG generated by Keynote</desc><defs></defs><g transform="matrix(1.00, 0.00, -0.00, -1.00, 0.0, 1080.0)"><path d="M 0.0 1080.0 L 1920.0 1080.0 L 1920.0 0.0 L 0.0 0.0 Z M 0.0 1080.0 " fill="#FEFFFF"></path><image xlink:href="9EDF54E928AC88054AB4EE8A985156CB.png" width="249.00" height="541.00" transform="matrix(1.78, 0.00, -0.00, -1.78, 1176.0, 1018.0)"></image><image xlink:href="../../92781B55-4545-4BD3-BBDB-614C28A10D1C/assets/4C33093035FF5A63CD495BF73EC42311.png" width="353.00" height="540.00" transform="matrix(3.52, 0.00, -0.00, -3.51, 783.0, 1408.0)"></image><g><clipPath id="clip-218"><path d="M 156.0 432.0 L 770.0 432.0 L 770.0 647.0 L 156.0 647.0 Z M 156.0 432.0 "></path></clipPath><g clip-path="url(#clip-218)"><text xml:space="preserve" font-family="Helvetica" font-size="16.2" fill="#979797" transform="matrix(1.00, 0.00, -0.00, -1.00, 156.0, 635.0)">0</text><text xml:space="preserve" font-family="Helvetica" font-size="16.2" fill="#979797" transform="matrix(1.00, 0.00, -0.00, -1.00, 168.3, 635.0)">4</text><text xml:space="preserve" font-family="Helvetica" font-size="16.2" fill="#979797" transform="matrix(1.00, 0.00, -0.00, -1.00, 186.0, 635.0)">F</text><text xml:space="preserve" font-family="Helvetica" font-size="16.2" fill="#979797" transform="matrix(1.00, 0.00, -0.00, -1.00, 199.2, 635.0)">U</text><text xml:space="preserve" font-family="Helvetica" font-size="16.2" fill="#979797" transform="matrix(1.00, 0.00, -0.00, -1.00, 214.2, 635.0)">L</text><text xml:space="preserve" font-family="Helvetica" font-size="16.2" fill="#979797" transform="matrix(1.00, 0.00, -0.00, -1.00, 226.3, 635.0)">L</text><text xml:space="preserve" font-family="Helvetica" font-size="16.2" fill="#979797" transform="matrix(1.00, 0.00, -0.00, -1.00, 238.5, 635.0)"> </text><text xml:space="preserve" font-family="Helvetica" font-size="16.2" fill="#979797" transform="matrix(1.00, 0.00, -0.00, -1.00, 245.5, 635.0)">A</text><text xml:space="preserve" font-family="Helvetica" font-size="16.2" fill="#979797" transform="matrix(1.00, 0.00, -0.00, -1.00, 259.6, 635.0)">R</text><text xml:space="preserve" font-family="Helvetica" font-size="16.2" fill="#979797" transform="matrix(1.00, 0.00, -0.00, -1.00, 274.3, 635.0)">T</text><text xml:space="preserve" font-family="Helvetica" font-size="16.2" fill="#979797" transform="matrix(1.00, 0.00, -0.00, -1.00, 287.4, 635.0)">I</text><text xml:space="preserve" font-family="Helvetica" font-size="16.2" fill="#979797" transform="matrix(1.00, 0.00, -0.00, -1.00, 295.2, 635.0)">C</text><text xml:space="preserve" font-family="Helvetica" font-size="16.2" fill="#979797" transform="matrix(1.00, 0.00, -0.00, -1.00, 310.2, 635.0)">L</text><text xml:space="preserve" font-family="Helvetica" font-size="16.2" fill="#979797" transform="matrix(1.00, 0.00, -0.00, -1.00, 322.5, 635.0)">E</text><text xml:space="preserve" font-family="Helvetica" font-size="16.2" fill="#979797" transform="matrix(1.00, 0.00, -0.00, -1.00, 336.6, 635.0)">S</text><path d="M 0.5 1.9 L 255.8 1.9 " fill="none" stroke="#979797" stroke-width="0.62" stroke-miterlimit="0.00" stroke-linecap="square" transform="matrix(1.00, 0.00, 0.00, -1.00, 363.0, 642.0)"></path><path d="M 0.6 1.0 L 463.5 1.0 " fill="none" stroke="#979797" stroke-width="0.62" stroke-miterlimit="0.00" stroke-linecap="square" transform="matrix(1.00, 0.00, 0.00, -1.00, 156.0, 583.0)"></path></g></g><g><clipPath id="clip-219"><path d="M 156.0 432.0 L 770.0 432.0 L 770.0 569.0 L 156.0 569.0 Z M 156.0 432.0 "></path></clipPath><g clip-path="url(#clip-219)"><text xml:space="preserve" font-family="Helvetica" font-size="21.2" fill="#4A4A4A" transform="matrix(1.00, 0.00, -0.00, -1.00, 156.0, 537.0)">H</text><text xml:space="preserve" font-family="Helvetica" font-size="21.2" fill="#4A4A4A" transform="matrix(1.00, 0.00, -0.00, -1.00, 171.6, 537.0)">e</text><text xml:space="preserve" font-family="Helvetica" font-size="21.2" fill="#4A4A4A" transform="matrix(1.00, 0.00, -0.00, -1.00, 184.2, 537.0)">l</text><text xml:space="preserve" font-family="Helvetica" font-size="21.2" fill="#4A4A4A" transform="matrix(1.00, 0.00, -0.00, -1.00, 189.6, 537.0)">p</text><text xml:space="preserve" font-family="Helvetica" font-size="21.2" fill="#4A4A4A" transform="matrix(1.00, 0.00, -0.00, -1.00, 202.1, 537.0)"> </text><text xml:space="preserve" font-family="Helvetica" font-size="21.2" fill="#4A4A4A" transform="matrix(1.00, 0.00, -0.00, -1.00, 208.7, 537.0)">c</text><text xml:space="preserve" font-family="Helvetica" font-size="21.2" fill="#4A4A4A" transform="matrix(1.00, 0.00, -0.00, -1.00, 220.1, 537.0)">e</text><text xml:space="preserve" font-family="Helvetica" font-size="21.2" fill="#4A4A4A" transform="matrix(1.00, 0.00, -0.00, -1.00, 232.6, 537.0)">m</text><text xml:space="preserve" font-family="Helvetica" font-size="21.2" fill="#4A4A4A" transform="matrix(1.00, 0.00, -0.00, -1.00, 251.0, 537.0)">e</text><text xml:space="preserve" font-family="Helvetica" font-size="21.2" fill="#4A4A4A" transform="matrix(1.00, 0.00, -0.00, -1.00, 263.5, 537.0)">n</text><text xml:space="preserve" font-family="Helvetica" font-size="21.2" fill="#4A4A4A" transform="matrix(1.00, 0.00, -0.00, -1.00, 276.1, 537.0)">t</text><text xml:space="preserve" font-family="Helvetica" font-size="21.2" fill="#4A4A4A" transform="matrix(1.00, 0.00, -0.00, -1.00, 282.7, 537.0)"> </text><text xml:space="preserve" font-family="Helvetica" font-size="21.2" fill="#4A4A4A" transform="matrix(1.00, 0.00, -0.00, -1.00, 289.3, 537.0)">b</text><text xml:space="preserve" font-family="Helvetica" font-size="21.2" fill="#4A4A4A" transform="matrix(1.00, 0.00, -0.00, -1.00, 301.8, 537.0)">e</text><text xml:space="preserve" font-family="Helvetica" font-size="21.2" fill="#4A4A4A" transform="matrix(1.00, 0.00, -0.00, -1.00, 314.3, 537.0)">t</text><text xml:space="preserve" font-family="Helvetica" font-size="21.2" fill="#4A4A4A" transform="matrix(1.00, 0.00, -0.00, -1.00, 320.6, 537.0)">t</text><text xml:space="preserve" font-family="Helvetica" font-size="21.2" fill="#4A4A4A" transform="matrix(1.00, 0.00, -0.00, -1.00, 327.2, 537.0)">e</text><text xml:space="preserve" font-family="Helvetica" font-size="21.2" fill="#4A4A4A" transform="matrix(1.00, 0.00, -0.00, -1.00, 339.8, 537.0)">r</text><text xml:space="preserve" font-family="Helvetica" font-size="21.2" fill="#4A4A4A" transform="matrix(1.00, 0.00, -0.00, -1.00, 347.6, 537.0)"> </text><text xml:space="preserve" font-family="Helvetica" font-size="21.2" fill="#4A4A4A" transform="matrix(1.00, 0.00, -0.00, -1.00, 354.2, 537.0)">n</text><text xml:space="preserve" font-family="Helvetica" font-size="21.2" fill="#4A4A4A" transform="matrix(1.00, 0.00, -0.00, -1.00, 366.7, 537.0)">e</text><text xml:space="preserve" font-family="Helvetica" font-size="21.2" fill="#4A4A4A" transform="matrix(1.00, 0.00, -0.00, -1.00, 379.2, 537.0)">w</text><text xml:space="preserve" font-family="Helvetica" font-size="21.2" fill="#4A4A4A" transform="matrix(1.00, 0.00, -0.00, -1.00, 395.3, 537.0)">s</text><text xml:space="preserve" font-family="Helvetica" font-size="21.2" fill="#4A4A4A" transform="matrix(1.00, 0.00, -0.00, -1.00, 406.6, 537.0)"> </text><text xml:space="preserve" font-family="Helvetica" font-size="21.2" fill="#4A4A4A" transform="matrix(1.00, 0.00, -0.00, -1.00, 413.2, 537.0)">c</text><text xml:space="preserve" font-family="Helvetica" font-size="21.2" fill="#4A4A4A" transform="matrix(1.00, 0.00, -0.00, -1.00, 424.6, 537.0)">o</text><text xml:space="preserve" font-family="Helvetica" font-size="21.2" fill="#4A4A4A" transform="matrix(1.00, 0.00, -0.00, -1.00, 437.1, 537.0)">n</text><text xml:space="preserve" font-family="Helvetica" font-size="21.2" fill="#4A4A4A" transform="matrix(1.00, 0.00, -0.00, -1.00, 449.6, 537.0)">s</text><text xml:space="preserve" font-family="Helvetica" font-size="21.2" fill="#4A4A4A" transform="matrix(1.00, 0.00, -0.00, -1.00, 461.0, 537.0)">u</text><text xml:space="preserve" font-family="Helvetica" font-size="21.2" fill="#4A4A4A" transform="matrix(1.00, 0.00, -0.00, -1.00, 473.5, 537.0)">m</text><text xml:space="preserve" font-family="Helvetica" font-size="21.2" fill="#4A4A4A" transform="matrix(1.00, 0.00, -0.00, -1.00, 491.9, 537.0)">p</text><text xml:space="preserve" font-family="Helvetica" font-size="21.2" fill="#4A4A4A" transform="matrix(1.00, 0.00, -0.00, -1.00, 504.4, 537.0)">t</text><text xml:space="preserve" font-family="Helvetica" font-size="21.2" fill="#4A4A4A" transform="matrix(1.00, 0.00, -0.00, -1.00, 511.0, 537.0)">i</text><text xml:space="preserve" font-family="Helvetica" font-size="21.2" fill="#4A4A4A" transform="matrix(1.00, 0.00, -0.00, -1.00, 516.4, 537.0)">o</text><text xml:space="preserve" font-family="Helvetica" font-size="21.2" fill="#4A4A4A" transform="matrix(1.00, 0.00, -0.00, -1.00, 529.0, 537.0)">n</text><text xml:space="preserve" font-family="Helvetica" font-size="21.2" fill="#4A4A4A" transform="matrix(1.00, 0.00, -0.00, -1.00, 541.5, 537.0)"> </text><text xml:space="preserve" font-family="Helvetica" font-size="21.2" fill="#4A4A4A" transform="matrix(1.00, 0.00, -0.00, -1.00, 548.1, 537.0)">h</text><text xml:space="preserve" font-family="Helvetica" font-size="21.2" fill="#4A4A4A" transform="matrix(1.00, 0.00, -0.00, -1.00, 560.6, 537.0)">a</text><text xml:space="preserve" font-family="Helvetica" font-size="21.2" fill="#4A4A4A" transform="matrix(1.00, 0.00, -0.00, -1.00, 573.2, 537.0)">b</text><text xml:space="preserve" font-family="Helvetica" font-size="21.2" fill="#4A4A4A" transform="matrix(1.00, 0.00, -0.00, -1.00, 585.7, 537.0)">i</text><text xml:space="preserve" font-family="Helvetica" font-size="21.2" fill="#4A4A4A" transform="matrix(1.00, 0.00, -0.00, -1.00, 591.1, 537.0)">t</text><text xml:space="preserve" font-family="Helvetica" font-size="21.2" fill="#4A4A4A" transform="matrix(1.00, 0.00, -0.00, -1.00, 597.8, 537.0)">s</text><text xml:space="preserve" font-family="Helvetica" font-size="21.2" fill="#4A4A4A" transform="matrix(1.00, 0.00, -0.00, -1.00, 609.1, 537.0)"> </text><text xml:space="preserve" font-family="Helvetica" font-size="21.2" fill="#4A4A4A" transform="matrix(1.00, 0.00, -0.00, -1.00, 615.7, 537.0)">b</text><text xml:space="preserve" font-family="Helvetica" font-size="21.2" fill="#4A4A4A" transform="matrix(1.00, 0.00, -0.00, -1.00, 628.2, 537.0)">y</text><text xml:space="preserve" font-family="Helvetica" font-size="21.2" fill="#4A4A4A" transform="matrix(1.00, 0.00, -0.00, -1.00, 639.5, 537.0)"> </text><text xml:space="preserve" font-family="Helvetica" font-size="21.2" fill="#4A4A4A" transform="matrix(1.00, 0.00, -0.00, -1.00, 646.1, 537.0)">s</text><text xml:space="preserve" font-family="Helvetica" font-size="21.2" fill="#4A4A4A" transform="matrix(1.00, 0.00, -0.00, -1.00, 657.4, 537.0)">e</text><text xml:space="preserve" font-family="Helvetica" font-size="21.2" fill="#4A4A4A" transform="matrix(1.00, 0.00, -0.00, -1.00, 670.0, 537.0)">a</text><text xml:space="preserve" font-family="Helvetica" font-size="21.2" fill="#4A4A4A" transform="matrix(1.00, 0.00, -0.00, -1.00, 682.5, 537.0)">m</text><text xml:space="preserve" font-family="Helvetica" font-size="21.2" fill="#4A4A4A" transform="matrix(1.00, 0.00, -0.00, -1.00, 700.9, 537.0)">l</text><text xml:space="preserve" font-family="Helvetica" font-size="21.2" fill="#4A4A4A" transform="matrix(1.00, 0.00, -0.00, -1.00, 706.3, 537.0)">e</text><text xml:space="preserve" font-family="Helvetica" font-size="21.2" fill="#4A4A4A" transform="matrix(1.00, 0.00, -0.00, -1.00, 718.9, 537.0)">s</text><text xml:space="preserve" font-family="Helvetica" font-size="21.2" fill="#4A4A4A" transform="matrix(1.00, 0.00, -0.00, -1.00, 730.1, 537.0)">s</text><text xml:space="preserve" font-family="Helvetica" font-size="21.2" fill="#4A4A4A" transform="matrix(1.00, 0.00, -0.00, -1.00, 741.4, 537.0)">l</text><text xml:space="preserve" font-family="Helvetica" font-size="21.2" fill="#4A4A4A" transform="matrix(1.00, 0.00, -0.00, -1.00, 746.8, 537.0)">y</text><text xml:space="preserve" font-family="Helvetica" font-size="21.2" fill="#4A4A4A" transform="matrix(1.00, 0.00, -0.00, -1.00, 758.1, 537.0)"> </text><text xml:space="preserve" font-family="Helvetica" font-size="21.2" fill="#4A4A4A" transform="matrix(1.00, 0.00, -0.00, -1.00, 156.0, 487.0)">i</text><text xml:space="preserve" font-family="Helvetica" font-size="21.2" fill="#4A4A4A" transform="matrix(1.00, 0.00, -0.00, -1.00, 161.4, 487.0)">n</text><text xml:space="preserve" font-family="Helvetica" font-size="21.2" fill="#4A4A4A" transform="matrix(1.00, 0.00, -0.00, -1.00, 174.0, 487.0)">f</text><text xml:space="preserve" font-family="Helvetica" font-size="21.2" fill="#4A4A4A" transform="matrix(1.00, 0.00, -0.00, -1.00, 180.6, 487.0)">o</text><text xml:space="preserve" font-family="Helvetica" font-size="21.2" fill="#4A4A4A" transform="matrix(1.00, 0.00, -0.00, -1.00, 193.1, 487.0)">r</text><text xml:space="preserve" font-family="Helvetica" font-size="21.2" fill="#4A4A4A" transform="matrix(1.00, 0.00, -0.00, -1.00, 200.9, 487.0)">m</text><text xml:space="preserve" font-family="Helvetica" font-size="21.2" fill="#4A4A4A" transform="matrix(1.00, 0.00, -0.00, -1.00, 219.3, 487.0)">i</text><text xml:space="preserve" font-family="Helvetica" font-size="21.2" fill="#4A4A4A" transform="matrix(1.00, 0.00, -0.00, -1.00, 224.7, 487.0)">n</text><text xml:space="preserve" font-family="Helvetica" font-size="21.2" fill="#4A4A4A" transform="matrix(1.00, 0.00, -0.00, -1.00, 237.3, 487.0)">g</text><text xml:space="preserve" font-family="Helvetica" font-size="21.2" fill="#4A4A4A" transform="matrix(1.00, 0.00, -0.00, -1.00, 249.8, 487.0)"> </text><text xml:space="preserve" font-family="Helvetica" font-size="21.2" fill="#4A4A4A" transform="matrix(1.00, 0.00, -0.00, -1.00, 256.4, 487.0)">s</text><text xml:space="preserve" font-family="Helvetica" font-size="21.2" fill="#4A4A4A" transform="matrix(1.00, 0.00, -0.00, -1.00, 267.7, 487.0)">t</text><text xml:space="preserve" font-family="Helvetica" font-size="21.2" fill="#4A4A4A" transform="matrix(1.00, 0.00, -0.00, -1.00, 274.3, 487.0)">u</text><text xml:space="preserve" font-family="Helvetica" font-size="21.2" fill="#4A4A4A" transform="matrix(1.00, 0.00, -0.00, -1.00, 286.9, 487.0)">d</text><text xml:space="preserve" font-family="Helvetica" font-size="21.2" fill="#4A4A4A" transform="matrix(1.00, 0.00, -0.00, -1.00, 299.4, 487.0)">e</text><text xml:space="preserve" font-family="Helvetica" font-size="21.2" fill="#4A4A4A" transform="matrix(1.00, 0.00, -0.00, -1.00, 311.9, 487.0)">n</text><text xml:space="preserve" font-family="Helvetica" font-size="21.2" fill="#4A4A4A" transform="matrix(1.00, 0.00, -0.00, -1.00, 324.5, 487.0)">t</text><text xml:space="preserve" font-family="Helvetica" font-size="21.2" fill="#4A4A4A" transform="matrix(1.00, 0.00, -0.00, -1.00, 331.1, 487.0)">s</text><text xml:space="preserve" font-family="Helvetica" font-size="21.2" fill="#4A4A4A" transform="matrix(1.00, 0.00, -0.00, -1.00, 342.4, 487.0)"> </text><text xml:space="preserve" font-family="Helvetica" font-size="21.2" fill="#4A4A4A" transform="matrix(1.00, 0.00, -0.00, -1.00, 349.0, 487.0)">o</text><text xml:space="preserve" font-family="Helvetica" font-size="21.2" fill="#4A4A4A" transform="matrix(1.00, 0.00, -0.00, -1.00, 361.5, 487.0)">n</text><text xml:space="preserve" font-family="Helvetica" font-size="21.2" fill="#4A4A4A" transform="matrix(1.00, 0.00, -0.00, -1.00, 374.1, 487.0)"> </text><text xml:space="preserve" font-family="Helvetica" font-size="21.2" fill="#4A4A4A" transform="matrix(1.00, 0.00, -0.00, -1.00, 380.7, 487.0)">h</text><text xml:space="preserve" font-family="Helvetica" font-size="21.2" fill="#4A4A4A" transform="matrix(1.00, 0.00, -0.00, -1.00, 393.2, 487.0)">o</text><text xml:space="preserve" font-family="Helvetica" font-size="21.2" fill="#4A4A4A" transform="matrix(1.00, 0.00, -0.00, -1.00, 405.6, 487.0)">w</text><text xml:space="preserve" font-family="Helvetica" font-size="21.2" fill="#4A4A4A" transform="matrix(1.00, 0.00, -0.00, -1.00, 421.7, 487.0)"> </text><text xml:space="preserve" font-family="Helvetica" font-size="21.2" fill="#4A4A4A" transform="matrix(1.00, 0.00, -0.00, -1.00, 428.3, 487.0)">t</text><text xml:space="preserve" font-family="Helvetica" font-size="21.2" fill="#4A4A4A" transform="matrix(1.00, 0.00, -0.00, -1.00, 434.9, 487.0)">o</text><text xml:space="preserve" font-family="Helvetica" font-size="21.2" fill="#4A4A4A" transform="matrix(1.00, 0.00, -0.00, -1.00, 447.5, 487.0)"> </text><text xml:space="preserve" font-family="Helvetica" font-size="21.2" fill="#4A4A4A" transform="matrix(1.00, 0.00, -0.00, -1.00, 454.1, 487.0)">e</text><text xml:space="preserve" font-family="Helvetica" font-size="21.2" fill="#4A4A4A" transform="matrix(1.00, 0.00, -0.00, -1.00, 466.6, 487.0)">v</text><text xml:space="preserve" font-family="Helvetica" font-size="21.2" fill="#4A4A4A" transform="matrix(1.00, 0.00, -0.00, -1.00, 477.8, 487.0)">a</text><text xml:space="preserve" font-family="Helvetica" font-size="21.2" fill="#4A4A4A" transform="matrix(1.00, 0.00, -0.00, -1.00, 490.3, 487.0)">l</text><text xml:space="preserve" font-family="Helvetica" font-size="21.2" fill="#4A4A4A" transform="matrix(1.00, 0.00, -0.00, -1.00, 495.8, 487.0)">u</text><text xml:space="preserve" font-family="Helvetica" font-size="21.2" fill="#4A4A4A" transform="matrix(1.00, 0.00, -0.00, -1.00, 508.3, 487.0)">a</text><text xml:space="preserve" font-family="Helvetica" font-size="21.2" fill="#4A4A4A" transform="matrix(1.00, 0.00, -0.00, -1.00, 520.8, 487.0)">t</text><text xml:space="preserve" font-family="Helvetica" font-size="21.2" fill="#4A4A4A" transform="matrix(1.00, 0.00, -0.00, -1.00, 527.4, 487.0)">e</text><text xml:space="preserve" font-family="Helvetica" font-size="21.2" fill="#4A4A4A" transform="matrix(1.00, 0.00, -0.00, -1.00, 540.0, 487.0)"> </text><text xml:space="preserve" font-family="Helvetica" font-size="21.2" fill="#4A4A4A" transform="matrix(1.00, 0.00, -0.00, -1.00, 546.6, 487.0)">j</text><text xml:space="preserve" font-family="Helvetica" font-size="21.2" fill="#4A4A4A" transform="matrix(1.00, 0.00, -0.00, -1.00, 552.0, 487.0)">o</text><text xml:space="preserve" font-family="Helvetica" font-size="21.2" fill="#4A4A4A" transform="matrix(1.00, 0.00, -0.00, -1.00, 564.6, 487.0)">u</text><text xml:space="preserve" font-family="Helvetica" font-size="21.2" fill="#4A4A4A" transform="matrix(1.00, 0.00, -0.00, -1.00, 577.1, 487.0)">r</text><text xml:space="preserve" font-family="Helvetica" font-size="21.2" fill="#4A4A4A" transform="matrix(1.00, 0.00, -0.00, -1.00, 584.9, 487.0)">n</text><text xml:space="preserve" font-family="Helvetica" font-size="21.2" fill="#4A4A4A" transform="matrix(1.00, 0.00, -0.00, -1.00, 597.4, 487.0)">a</text><text xml:space="preserve" font-family="Helvetica" font-size="21.2" fill="#4A4A4A" transform="matrix(1.00, 0.00, -0.00, -1.00, 609.9, 487.0)">l</text><text xml:space="preserve" font-family="Helvetica" font-size="21.2" fill="#4A4A4A" transform="matrix(1.00, 0.00, -0.00, -1.00, 615.4, 487.0)">i</text><text xml:space="preserve" font-family="Helvetica" font-size="21.2" fill="#4A4A4A" transform="matrix(1.00, 0.00, -0.00, -1.00, 620.8, 487.0)">s</text><text xml:space="preserve" font-family="Helvetica" font-size="21.2" fill="#4A4A4A" transform="matrix(1.00, 0.00, -0.00, -1.00, 632.1, 487.0)">t</text><text xml:space="preserve" font-family="Helvetica" font-size="21.2" fill="#4A4A4A" transform="matrix(1.00, 0.00, -0.00, -1.00, 638.7, 487.0)">i</text><text xml:space="preserve" font-family="Helvetica" font-size="21.2" fill="#4A4A4A" transform="matrix(1.00, 0.00, -0.00, -1.00, 644.2, 487.0)">c</text><text xml:space="preserve" font-family="Helvetica" font-size="21.2" fill="#4A4A4A" transform="matrix(1.00, 0.00, -0.00, -1.00, 655.5, 487.0)"> </text><text xml:space="preserve" font-family="Helvetica" font-size="21.2" fill="#4A4A4A" transform="matrix(1.00, 0.00, -0.00, -1.00, 662.1, 487.0)">c</text><text xml:space="preserve" font-family="Helvetica" font-size="21.2" fill="#4A4A4A" transform="matrix(1.00, 0.00, -0.00, -1.00, 673.4, 487.0)">r</text><text xml:space="preserve" font-family="Helvetica" font-size="21.2" fill="#4A4A4A" transform="matrix(1.00, 0.00, -0.00, -1.00, 680.8, 487.0)">e</text><text xml:space="preserve" font-family="Helvetica" font-size="21.2" fill="#4A4A4A" transform="matrix(1.00, 0.00, -0.00, -1.00, 693.4, 487.0)">d</text><text xml:space="preserve" font-family="Helvetica" font-size="21.2" fill="#4A4A4A" transform="matrix(1.00, 0.00, -0.00, -1.00, 705.9, 487.0)">i</text><text xml:space="preserve" font-family="Helvetica" font-size="21.2" fill="#4A4A4A" transform="matrix(1.00, 0.00, -0.00, -1.00, 711.3, 487.0)">b</text><text xml:space="preserve" font-family="Helvetica" font-size="21.2" fill="#4A4A4A" transform="matrix(1.00, 0.00, -0.00, -1.00, 723.8, 487.0)">l</text><text xml:space="preserve" font-family="Helvetica" font-size="21.2" fill="#4A4A4A" transform="matrix(1.00, 0.00, -0.00, -1.00, 729.3, 487.0)">i</text><text xml:space="preserve" font-family="Helvetica" font-size="21.2" fill="#4A4A4A" transform="matrix(1.00, 0.00, -0.00, -1.00, 734.7, 487.0)">t</text><text xml:space="preserve" font-family="Helvetica" font-size="21.2" fill="#4A4A4A" transform="matrix(1.00, 0.00, -0.00, -1.00, 741.1, 487.0)">y</text><text xml:space="preserve" font-family="Helvetica" font-size="21.2" fill="#4A4A4A" transform="matrix(1.00, 0.00, -0.00, -1.00, 752.4, 487.0)"> </text><text xml:space="preserve" font-family="Helvetica" font-size="21.2" fill="#4A4A4A" transform="matrix(1.00, 0.00, -0.00, -1.00, 156.0, 437.0)">w</text><text xml:space="preserve" font-family="Helvetica" font-size="21.2" fill="#4A4A4A" transform="matrix(1.00, 0.00, -0.00, -1.00, 172.1, 437.0)">h</text><text xml:space="preserve" font-family="Helvetica" font-size="21.2" fill="#4A4A4A" transform="matrix(1.00, 0.00, -0.00, -1.00, 184.6, 437.0)">i</text><text xml:space="preserve" font-family="Helvetica" font-size="21.2" fill="#4A4A4A" transform="matrix(1.00, 0.00, -0.00, -1.00, 190.0, 437.0)">l</text><text xml:space="preserve" font-family="Helvetica" font-size="21.2" fill="#4A4A4A" transform="matrix(1.00, 0.00, -0.00, -1.00, 195.4, 437.0)">e</text><text xml:space="preserve" font-family="Helvetica" font-size="21.2" fill="#4A4A4A" transform="matrix(1.00, 0.00, -0.00, -1.00, 208.0, 437.0)"> </text><text xml:space="preserve" font-family="Helvetica" font-size="21.2" fill="#4A4A4A" transform="matrix(1.00, 0.00, -0.00, -1.00, 214.6, 437.0)">t</text><text xml:space="preserve" font-family="Helvetica" font-size="21.2" fill="#4A4A4A" transform="matrix(1.00, 0.00, -0.00, -1.00, 221.2, 437.0)">h</text><text xml:space="preserve" font-family="Helvetica" font-size="21.2" fill="#4A4A4A" transform="matrix(1.00, 0.00, -0.00, -1.00, 233.7, 437.0)">e</text><text xml:space="preserve" font-family="Helvetica" font-size="21.2" fill="#4A4A4A" transform="matrix(1.00, 0.00, -0.00, -1.00, 246.2, 437.0)">y</text><text xml:space="preserve" font-family="Helvetica" font-size="21.2" fill="#4A4A4A" transform="matrix(1.00, 0.00, -0.00, -1.00, 257.6, 437.0)"> </text><text xml:space="preserve" font-family="Helvetica" font-size="21.2" fill="#4A4A4A" transform="matrix(1.00, 0.00, -0.00, -1.00, 264.2, 437.0)">e</text><text xml:space="preserve" font-family="Helvetica" font-size="21.2" fill="#4A4A4A" transform="matrix(1.00, 0.00, -0.00, -1.00, 276.7, 437.0)">n</text><text xml:space="preserve" font-family="Helvetica" font-size="21.2" fill="#4A4A4A" transform="matrix(1.00, 0.00, -0.00, -1.00, 289.2, 437.0)">g</text><text xml:space="preserve" font-family="Helvetica" font-size="21.2" fill="#4A4A4A" transform="matrix(1.00, 0.00, -0.00, -1.00, 301.6, 437.0)">a</text><text xml:space="preserve" font-family="Helvetica" font-size="21.2" fill="#4A4A4A" transform="matrix(1.00, 0.00, -0.00, -1.00, 314.2, 437.0)">g</text><text xml:space="preserve" font-family="Helvetica" font-size="21.2" fill="#4A4A4A" transform="matrix(1.00, 0.00, -0.00, -1.00, 326.7, 437.0)">e</text><text xml:space="preserve" font-family="Helvetica" font-size="21.2" fill="#4A4A4A" transform="matrix(1.00, 0.00, -0.00, -1.00, 339.2, 437.0)"> </text><text xml:space="preserve" font-family="Helvetica" font-size="21.2" fill="#4A4A4A" transform="matrix(1.00, 0.00, -0.00, -1.00, 345.8, 437.0)">w</text><text xml:space="preserve" font-family="Helvetica" font-size="21.2" fill="#4A4A4A" transform="matrix(1.00, 0.00, -0.00, -1.00, 361.9, 437.0)">i</text><text xml:space="preserve" font-family="Helvetica" font-size="21.2" fill="#4A4A4A" transform="matrix(1.00, 0.00, -0.00, -1.00, 367.3, 437.0)">t</text><text xml:space="preserve" font-family="Helvetica" font-size="21.2" fill="#4A4A4A" transform="matrix(1.00, 0.00, -0.00, -1.00, 373.9, 437.0)">h</text><text xml:space="preserve" font-family="Helvetica" font-size="21.2" fill="#4A4A4A" transform="matrix(1.00, 0.00, -0.00, -1.00, 386.4, 437.0)"> </text><text xml:space="preserve" font-family="Helvetica" font-size="21.2" fill="#4A4A4A" transform="matrix(1.00, 0.00, -0.00, -1.00, 393.1, 437.0)">f</text><text xml:space="preserve" font-family="Helvetica" font-size="21.2" fill="#4A4A4A" transform="matrix(1.00, 0.00, -0.00, -1.00, 399.7, 437.0)">u</text><text xml:space="preserve" font-family="Helvetica" font-size="21.2" fill="#4A4A4A" transform="matrix(1.00, 0.00, -0.00, -1.00, 412.2, 437.0)">l</text><text xml:space="preserve" font-family="Helvetica" font-size="21.2" fill="#4A4A4A" transform="matrix(1.00, 0.00, -0.00, -1.00, 417.8, 437.0)">l</text><text xml:space="preserve" font-family="Helvetica" font-size="21.2" fill="#4A4A4A" transform="matrix(1.00, 0.00, -0.00, -1.00, 423.3, 437.0)"> </text><text xml:space="preserve" font-family="Helvetica" font-size="21.2" fill="#4A4A4A" transform="matrix(1.00, 0.00, -0.00, -1.00, 429.9, 437.0)">l</text><text xml:space="preserve" font-family="Helvetica" font-size="21.2" fill="#4A4A4A" transform="matrix(1.00, 0.00, -0.00, -1.00, 435.3, 437.0)">e</text><text xml:space="preserve" font-family="Helvetica" font-size="21.2" fill="#4A4A4A" transform="matrix(1.00, 0.00, -0.00, -1.00, 447.8, 437.0)">n</text><text xml:space="preserve" font-family="Helvetica" font-size="21.2" fill="#4A4A4A" transform="matrix(1.00, 0.00, -0.00, -1.00, 460.4, 437.0)">g</text><text xml:space="preserve" font-family="Helvetica" font-size="21.2" fill="#4A4A4A" transform="matrix(1.00, 0.00, -0.00, -1.00, 472.9, 437.0)">t</text><text xml:space="preserve" font-family="Helvetica" font-size="21.2" fill="#4A4A4A" transform="matrix(1.00, 0.00, -0.00, -1.00, 479.5, 437.0)">h</text><text xml:space="preserve" font-family="Helvetica" font-size="21.2" fill="#4A4A4A" transform="matrix(1.00, 0.00, -0.00, -1.00, 492.0, 437.0)"> </text><text xml:space="preserve" font-family="Helvetica" font-size="21.2" fill="#4A4A4A" transform="matrix(1.00, 0.00, -0.00, -1.00, 498.6, 437.0)">a</text><text xml:space="preserve" font-family="Helvetica" font-size="21.2" fill="#4A4A4A" transform="matrix(1.00, 0.00, -0.00, -1.00, 511.2, 437.0)">r</text><text xml:space="preserve" font-family="Helvetica" font-size="21.2" fill="#4A4A4A" transform="matrix(1.00, 0.00, -0.00, -1.00, 518.9, 437.0)">t</text><text xml:space="preserve" font-family="Helvetica" font-size="21.2" fill="#4A4A4A" transform="matrix(1.00, 0.00, -0.00, -1.00, 525.5, 437.0)">i</text><text xml:space="preserve" font-family="Helvetica" font-size="21.2" fill="#4A4A4A" transform="matrix(1.00, 0.00, -0.00, -1.00, 531.0, 437.0)">c</text><text xml:space="preserve" font-family="Helvetica" font-size="21.2" fill="#4A4A4A" transform="matrix(1.00, 0.00, -0.00, -1.00, 542.3, 437.0)">l</text><text xml:space="preserve" font-family="Helvetica" font-size="21.2" fill="#4A4A4A" transform="matrix(1.00, 0.00, -0.00, -1.00, 547.7, 437.0)">e</text><text xml:space="preserve" font-family="Helvetica" font-size="21.2" fill="#4A4A4A" transform="matrix(1.00, 0.00, -0.00, -1.00, 560.3, 437.0)">s</text></g></g><g><clipPath id="clip-220"><path d="M 156.0 603.0 L 721.0 603.0 L 721.0 617.0 L 156.0 617.0 Z M 156.0 603.0 "></path></clipPath><g clip-path="url(#clip-220)"><text xml:space="preserve" font-family="Helvetica" font-size="17.5" fill="#4A4A4A" transform="matrix(1.00, 0.00, -0.00, -1.00, 156.0, 603.2)">E</text><text xml:space="preserve" font-family="Helvetica" font-size="17.5" fill="#4A4A4A" transform="matrix(1.00, 0.00, -0.00, -1.00, 172.4, 603.2)">V</text><text xml:space="preserve" font-family="Helvetica" font-size="17.5" fill="#4A4A4A" transform="matrix(1.00, 0.00, -0.00, -1.00, 187.8, 603.2)">A</text><text xml:space="preserve" font-family="Helvetica" font-size="17.5" fill="#4A4A4A" transform="matrix(1.00, 0.00, -0.00, -1.00, 204.2, 603.2)">L</text><text xml:space="preserve" font-family="Helvetica" font-size="17.5" fill="#4A4A4A" transform="matrix(1.00, 0.00, -0.00, -1.00, 218.2, 603.2)">U</text><text xml:space="preserve" font-family="Helvetica" font-size="17.5" fill="#4A4A4A" transform="matrix(1.00, 0.00, -0.00, -1.00, 234.9, 603.2)">A</text><text xml:space="preserve" font-family="Helvetica" font-size="17.5" fill="#4A4A4A" transform="matrix(1.00, 0.00, -0.00, -1.00, 250.2, 603.2)">T</text><text xml:space="preserve" font-family="Helvetica" font-size="17.5" fill="#4A4A4A" transform="matrix(1.00, 0.00, -0.00, -1.00, 265.6, 603.2)">I</text><text xml:space="preserve" font-family="Helvetica" font-size="17.5" fill="#4A4A4A" transform="matrix(1.00, 0.00, -0.00, -1.00, 275.1, 603.2)">N</text><text xml:space="preserve" font-family="Helvetica" font-size="17.5" fill="#4A4A4A" transform="matrix(1.00, 0.00, -0.00, -1.00, 292.5, 603.2)">G</text><text xml:space="preserve" font-family="Helvetica" font-size="17.5" fill="#4A4A4A" transform="matrix(1.00, 0.00, -0.00, -1.00, 310.8, 603.2)"> </text><text xml:space="preserve" font-family="Helvetica" font-size="17.5" fill="#4A4A4A" transform="matrix(1.00, 0.00, -0.00, -1.00, 320.4, 603.2)">J</text><text xml:space="preserve" font-family="Helvetica" font-size="17.5" fill="#4A4A4A" transform="matrix(1.00, 0.00, -0.00, -1.00, 333.9, 603.2)">O</text><text xml:space="preserve" font-family="Helvetica" font-size="17.5" fill="#4A4A4A" transform="matrix(1.00, 0.00, -0.00, -1.00, 352.2, 603.2)">U</text><text xml:space="preserve" font-family="Helvetica" font-size="17.5" fill="#4A4A4A" transform="matrix(1.00, 0.00, -0.00, -1.00, 369.5, 603.2)">R</text><text xml:space="preserve" font-family="Helvetica" font-size="17.5" fill="#4A4A4A" transform="matrix(1.00, 0.00, -0.00, -1.00, 386.9, 603.2)">N</text><text xml:space="preserve" font-family="Helvetica" font-size="17.5" fill="#4A4A4A" transform="matrix(1.00, 0.00, -0.00, -1.00, 404.1, 603.2)">A</text><text xml:space="preserve" font-family="Helvetica" font-size="17.5" fill="#4A4A4A" transform="matrix(1.00, 0.00, -0.00, -1.00, 420.5, 603.2)">L</text><text xml:space="preserve" font-family="Helvetica" font-size="17.5" fill="#4A4A4A" transform="matrix(1.00, 0.00, -0.00, -1.00, 434.9, 603.2)">I</text><text xml:space="preserve" font-family="Helvetica" font-size="17.5" fill="#4A4A4A" transform="matrix(1.00, 0.00, -0.00, -1.00, 444.5, 603.2)">S</text><text xml:space="preserve" font-family="Helvetica" font-size="17.5" fill="#4A4A4A" transform="matrix(1.00, 0.00, -0.00, -1.00, 460.6, 603.2)">T</text><text xml:space="preserve" font-family="Helvetica" font-size="17.5" fill="#4A4A4A" transform="matrix(1.00, 0.00, -0.00, -1.00, 476.0, 603.2)">I</text><text xml:space="preserve" font-family="Helvetica" font-size="17.5" fill="#4A4A4A" transform="matrix(1.00, 0.00, -0.00, -1.00, 485.6, 603.2)">C</text><text xml:space="preserve" font-family="Helvetica" font-size="17.5" fill="#4A4A4A" transform="matrix(1.00, 0.00, -0.00, -1.00, 502.9, 603.2)"> </text><text xml:space="preserve" font-family="Helvetica" font-size="17.5" fill="#4A4A4A" transform="matrix(1.00, 0.00, -0.00, -1.00, 512.5, 603.2)">C</text><text xml:space="preserve" font-family="Helvetica" font-size="17.5" fill="#4A4A4A" transform="matrix(1.00, 0.00, -0.00, -1.00, 529.9, 603.2)">R</text><text xml:space="preserve" font-family="Helvetica" font-size="17.5" fill="#4A4A4A" transform="matrix(1.00, 0.00, -0.00, -1.00, 547.2, 603.2)">E</text><text xml:space="preserve" font-family="Helvetica" font-size="17.5" fill="#4A4A4A" transform="matrix(1.00, 0.00, -0.00, -1.00, 563.6, 603.2)">D</text><text xml:space="preserve" font-family="Helvetica" font-size="17.5" fill="#4A4A4A" transform="matrix(1.00, 0.00, -0.00, -1.00, 581.0, 603.2)">I</text><text xml:space="preserve" font-family="Helvetica" font-size="17.5" fill="#4A4A4A" transform="matrix(1.00, 0.00, -0.00, -1.00, 590.5, 603.2)">B</text><text xml:space="preserve" font-family="Helvetica" font-size="17.5" fill="#4A4A4A" transform="matrix(1.00, 0.00, -0.00, -1.00, 606.9, 603.2)">I</text><text xml:space="preserve" font-family="Helvetica" font-size="17.5" fill="#4A4A4A" transform="matrix(1.00, 0.00, -0.00, -1.00, 616.5, 603.2)">L</text><text xml:space="preserve" font-family="Helvetica" font-size="17.5" fill="#4A4A4A" transform="matrix(1.00, 0.00, -0.00, -1.00, 631.0, 603.2)">I</text><text xml:space="preserve" font-family="Helvetica" font-size="17.5" fill="#4A4A4A" transform="matrix(1.00, 0.00, -0.00, -1.00, 640.5, 603.2)">T</text><text xml:space="preserve" font-family="Helvetica" font-size="17.5" fill="#4A4A4A" transform="matrix(1.00, 0.00, -0.00, -1.00, 655.9, 603.2)">Y</text></g></g></g></svg>