<?xml version="1.0" encoding="UTF-8" standalone="no"?><svg xmlns="http://www.w3.org/2000/svg" xmlns:xlink="http://www.w3.org/1999/xlink" clip-rule="evenodd" stroke-miterlimit="4.00" viewBox="0 0 1920 1080"><desc>SVG generated by Keynote</desc><defs></defs><g transform="matrix(1.00, 0.00, -0.00, -1.00, 0.0, 1080.0)"><path d="M 0.0 1080.0 L 1920.0 1080.0 L 1920.0 0.0 L 0.0 0.0 Z M 0.0 1080.0 " fill="#FEFFFF"></path><image xlink:href="EC20B5BF0B58E34D089B7ADC3865420C.png" width="678.00" height="1470.00" transform="matrix(0.66, 0.00, -0.00, -0.66, 1175.5, 1017.6)"></image><image xlink:href="../../92781B55-4545-4BD3-BBDB-614C28A10D1C/assets/4C33093035FF5A63CD495BF73EC42311.png" width="353.00" height="540.00" transform="matrix(3.52, 0.00, -0.00, -3.51, 783.0, 1408.0)"></image><g><clipPath id="clip-10"><path d="M 150.0 379.0 L 760.0 379.0 L 760.0 692.0 L 150.0 692.0 Z M 150.0 379.0 "></path></clipPath><g clip-path="url(#clip-10)"><text xml:space="preserve" font-family="Helvetica" font-size="16.2" fill="#979797" transform="matrix(1.00, 0.00, -0.00, -1.00, 150.0, 680.0)">0</text><text xml:space="preserve" font-family="Helvetica" font-size="16.2" fill="#979797" transform="matrix(1.00, 0.00, -0.00, -1.00, 162.3, 680.0)">1</text><text xml:space="preserve" font-family="Helvetica" font-size="16.2" fill="#979797" transform="matrix(1.00, 0.00, -0.00, -1.00, 182.5, 680.0)">L</text><text xml:space="preserve" font-family="Helvetica" font-size="16.2" fill="#979797" transform="matrix(1.00, 0.00, -0.00, -1.00, 194.6, 680.0)">A</text><text xml:space="preserve" font-family="Helvetica" font-size="16.2" fill="#979797" transform="matrix(1.00, 0.00, -0.00, -1.00, 208.6, 680.0)">N</text><text xml:space="preserve" font-family="Helvetica" font-size="16.2" fill="#979797" transform="matrix(1.00, 0.00, -0.00, -1.00, 223.6, 680.0)">D</text><text xml:space="preserve" font-family="Helvetica" font-size="16.2" fill="#979797" transform="matrix(1.00, 0.00, -0.00, -1.00, 238.6, 680.0)">I</text><text xml:space="preserve" font-family="Helvetica" font-size="16.2" fill="#979797" transform="matrix(1.00, 0.00, -0.00, -1.00, 246.4, 680.0)">N</text><text xml:space="preserve" font-family="Helvetica" font-size="16.2" fill="#979797" transform="matrix(1.00, 0.00, -0.00, -1.00, 261.4, 680.0)">G</text><text xml:space="preserve" font-family="Helvetica" font-size="16.2" fill="#979797" transform="matrix(1.00, 0.00, -0.00, -1.00, 277.3, 680.0)"> </text><text xml:space="preserve" font-family="Helvetica" font-size="16.2" fill="#979797" transform="matrix(1.00, 0.00, -0.00, -1.00, 285.0, 680.0)">S</text><text xml:space="preserve" font-family="Helvetica" font-size="16.2" fill="#979797" transform="matrix(1.00, 0.00, -0.00, -1.00, 299.1, 680.0)">C</text><text xml:space="preserve" font-family="Helvetica" font-size="16.2" fill="#979797" transform="matrix(1.00, 0.00, -0.00, -1.00, 314.1, 680.0)">R</text><text xml:space="preserve" font-family="Helvetica" font-size="16.2" fill="#979797" transform="matrix(1.00, 0.00, -0.00, -1.00, 329.1, 680.0)">E</text><text xml:space="preserve" font-family="Helvetica" font-size="16.2" fill="#979797" transform="matrix(1.00, 0.00, -0.00, -1.00, 343.2, 680.0)">E</text><text xml:space="preserve" font-family="Helvetica" font-size="16.2" fill="#979797" transform="matrix(1.00, 0.00, -0.00, -1.00, 357.3, 680.0)">N</text><path d="M 0.6 1.9 L 128.1 1.9 " fill="none" stroke="#979797" stroke-width="0.62" stroke-miterlimit="0.00" stroke-linecap="square" transform="matrix(1.00, 0.00, 0.00, -1.00, 392.5, 687.5)"></path><path d="M 0.6 1.9 L 369.4 1.9 " fill="none" stroke="#979797" stroke-width="0.62" stroke-miterlimit="0.00" stroke-linecap="square" transform="matrix(1.00, 0.00, 0.00, -1.00, 150.0, 629.4)"></path></g></g><g><clipPath id="clip-11"><path d="M 150.0 413.8 L 760.0 413.8 L 760.0 611.2 L 150.0 611.2 Z M 150.0 413.8 "></path></clipPath><g clip-path="url(#clip-11)"><text xml:space="preserve" font-family="Helvetica" font-size="21.2" fill="#4A4A4A" transform="matrix(1.00, 0.00, -0.00, -1.00, 150.0, 582.2)">“</text><text xml:space="preserve" font-family="Helvetica" font-size="21.2" fill="#4A4A4A" transform="matrix(1.00, 0.00, -0.00, -1.00, 160.5, 582.2)">C</text><text xml:space="preserve" font-family="Helvetica" font-size="21.2" fill="#4A4A4A" transform="matrix(1.00, 0.00, -0.00, -1.00, 176.8, 582.2)">h</text><text xml:space="preserve" font-family="Helvetica" font-size="21.2" fill="#4A4A4A" transform="matrix(1.00, 0.00, -0.00, -1.00, 189.3, 582.2)">a</text><text xml:space="preserve" font-family="Helvetica" font-size="21.2" fill="#4A4A4A" transform="matrix(1.00, 0.00, -0.00, -1.00, 201.8, 582.2)">r</text><text xml:space="preserve" font-family="Helvetica" font-size="21.2" fill="#4A4A4A" transform="matrix(1.00, 0.00, -0.00, -1.00, 209.6, 582.2)">l</text><text xml:space="preserve" font-family="Helvetica" font-size="21.2" fill="#4A4A4A" transform="matrix(1.00, 0.00, -0.00, -1.00, 215.0, 582.2)">o</text><text xml:space="preserve" font-family="Helvetica" font-size="21.2" fill="#4A4A4A" transform="matrix(1.00, 0.00, -0.00, -1.00, 227.5, 582.2)">t</text><text xml:space="preserve" font-family="Helvetica" font-size="21.2" fill="#4A4A4A" transform="matrix(1.00, 0.00, -0.00, -1.00, 233.8, 582.2)">t</text><text xml:space="preserve" font-family="Helvetica" font-size="21.2" fill="#4A4A4A" transform="matrix(1.00, 0.00, -0.00, -1.00, 240.4, 582.2)">e</text><text xml:space="preserve" font-family="Helvetica" font-size="21.2" fill="#4A4A4A" transform="matrix(1.00, 0.00, -0.00, -1.00, 253.0, 582.2)">s</text><text xml:space="preserve" font-family="Helvetica" font-size="21.2" fill="#4A4A4A" transform="matrix(1.00, 0.00, -0.00, -1.00, 264.3, 582.2)">v</text><text xml:space="preserve" font-family="Helvetica" font-size="21.2" fill="#4A4A4A" transform="matrix(1.00, 0.00, -0.00, -1.00, 275.6, 582.2)">i</text><text xml:space="preserve" font-family="Helvetica" font-size="21.2" fill="#4A4A4A" transform="matrix(1.00, 0.00, -0.00, -1.00, 281.0, 582.2)">l</text><text xml:space="preserve" font-family="Helvetica" font-size="21.2" fill="#4A4A4A" transform="matrix(1.00, 0.00, -0.00, -1.00, 286.7, 582.2)">l</text><text xml:space="preserve" font-family="Helvetica" font-size="21.2" fill="#4A4A4A" transform="matrix(1.00, 0.00, -0.00, -1.00, 292.1, 582.2)">e</text><text xml:space="preserve" font-family="Helvetica" font-size="21.2" fill="#4A4A4A" transform="matrix(1.00, 0.00, -0.00, -1.00, 304.6, 582.2)"> </text><text xml:space="preserve" font-family="Helvetica" font-size="21.2" fill="#4A4A4A" transform="matrix(1.00, 0.00, -0.00, -1.00, 311.2, 582.2)">t</text><text xml:space="preserve" font-family="Helvetica" font-size="21.2" fill="#4A4A4A" transform="matrix(1.00, 0.00, -0.00, -1.00, 317.8, 582.2)">e</text><text xml:space="preserve" font-family="Helvetica" font-size="21.2" fill="#4A4A4A" transform="matrix(1.00, 0.00, -0.00, -1.00, 330.4, 582.2)">a</text><text xml:space="preserve" font-family="Helvetica" font-size="21.2" fill="#4A4A4A" transform="matrix(1.00, 0.00, -0.00, -1.00, 342.9, 582.2)">c</text><text xml:space="preserve" font-family="Helvetica" font-size="21.2" fill="#4A4A4A" transform="matrix(1.00, 0.00, -0.00, -1.00, 354.2, 582.2)">h</text><text xml:space="preserve" font-family="Helvetica" font-size="21.2" fill="#4A4A4A" transform="matrix(1.00, 0.00, -0.00, -1.00, 366.8, 582.2)">e</text><text xml:space="preserve" font-family="Helvetica" font-size="21.2" fill="#4A4A4A" transform="matrix(1.00, 0.00, -0.00, -1.00, 379.3, 582.2)">s</text><text xml:space="preserve" font-family="Helvetica" font-size="21.2" fill="#4A4A4A" transform="matrix(1.00, 0.00, -0.00, -1.00, 390.6, 582.2)"> </text><text xml:space="preserve" font-family="Helvetica" font-size="21.2" fill="#4A4A4A" transform="matrix(1.00, 0.00, -0.00, -1.00, 397.2, 582.2)">u</text><text xml:space="preserve" font-family="Helvetica" font-size="21.2" fill="#4A4A4A" transform="matrix(1.00, 0.00, -0.00, -1.00, 409.7, 582.2)">s</text><text xml:space="preserve" font-family="Helvetica" font-size="21.2" fill="#4A4A4A" transform="matrix(1.00, 0.00, -0.00, -1.00, 421.1, 582.2)"> </text><text xml:space="preserve" font-family="Helvetica" font-size="21.2" fill="#4A4A4A" transform="matrix(1.00, 0.00, -0.00, -1.00, 427.7, 582.2)">a</text><text xml:space="preserve" font-family="Helvetica" font-size="21.2" fill="#4A4A4A" transform="matrix(1.00, 0.00, -0.00, -1.00, 440.2, 582.2)">b</text><text xml:space="preserve" font-family="Helvetica" font-size="21.2" fill="#4A4A4A" transform="matrix(1.00, 0.00, -0.00, -1.00, 452.7, 582.2)">o</text><text xml:space="preserve" font-family="Helvetica" font-size="21.2" fill="#4A4A4A" transform="matrix(1.00, 0.00, -0.00, -1.00, 465.2, 582.2)">u</text><text xml:space="preserve" font-family="Helvetica" font-size="21.2" fill="#4A4A4A" transform="matrix(1.00, 0.00, -0.00, -1.00, 477.8, 582.2)">t</text><text xml:space="preserve" font-family="Helvetica" font-size="21.2" fill="#4A4A4A" transform="matrix(1.00, 0.00, -0.00, -1.00, 484.4, 582.2)"> </text><text xml:space="preserve" font-family="Helvetica" font-size="21.2" fill="#4A4A4A" transform="matrix(1.00, 0.00, -0.00, -1.00, 491.0, 582.2)">p</text><text xml:space="preserve" font-family="Helvetica" font-size="21.2" fill="#4A4A4A" transform="matrix(1.00, 0.00, -0.00, -1.00, 503.5, 582.2)">o</text><text xml:space="preserve" font-family="Helvetica" font-size="21.2" fill="#4A4A4A" transform="matrix(1.00, 0.00, -0.00, -1.00, 516.0, 582.2)">l</text><text xml:space="preserve" font-family="Helvetica" font-size="21.2" fill="#4A4A4A" transform="matrix(1.00, 0.00, -0.00, -1.00, 521.5, 582.2)">i</text><text xml:space="preserve" font-family="Helvetica" font-size="21.2" fill="#4A4A4A" transform="matrix(1.00, 0.00, -0.00, -1.00, 526.9, 582.2)">t</text><text xml:space="preserve" font-family="Helvetica" font-size="21.2" fill="#4A4A4A" transform="matrix(1.00, 0.00, -0.00, -1.00, 533.5, 582.2)">i</text><text xml:space="preserve" font-family="Helvetica" font-size="21.2" fill="#4A4A4A" transform="matrix(1.00, 0.00, -0.00, -1.00, 538.9, 582.2)">c</text><text xml:space="preserve" font-family="Helvetica" font-size="21.2" fill="#4A4A4A" transform="matrix(1.00, 0.00, -0.00, -1.00, 550.1, 582.2)">s</text><text xml:space="preserve" font-family="Helvetica" font-size="21.2" fill="#4A4A4A" transform="matrix(1.00, 0.00, -0.00, -1.00, 561.4, 582.2)">,</text><text xml:space="preserve" font-family="Helvetica" font-size="21.2" fill="#4A4A4A" transform="matrix(1.00, 0.00, -0.00, -1.00, 568.1, 582.2)"> </text><text xml:space="preserve" font-family="Helvetica" font-size="21.2" fill="#4A4A4A" transform="matrix(1.00, 0.00, -0.00, -1.00, 574.7, 582.2)">c</text><text xml:space="preserve" font-family="Helvetica" font-size="21.2" fill="#4A4A4A" transform="matrix(1.00, 0.00, -0.00, -1.00, 586.0, 582.2)">i</text><text xml:space="preserve" font-family="Helvetica" font-size="21.2" fill="#4A4A4A" transform="matrix(1.00, 0.00, -0.00, -1.00, 591.3, 582.2)">v</text><text xml:space="preserve" font-family="Helvetica" font-size="21.2" fill="#4A4A4A" transform="matrix(1.00, 0.00, -0.00, -1.00, 602.7, 582.2)">i</text><text xml:space="preserve" font-family="Helvetica" font-size="21.2" fill="#4A4A4A" transform="matrix(1.00, 0.00, -0.00, -1.00, 608.1, 582.2)">c</text><text xml:space="preserve" font-family="Helvetica" font-size="21.2" fill="#4A4A4A" transform="matrix(1.00, 0.00, -0.00, -1.00, 619.3, 582.2)">s</text><text xml:space="preserve" font-family="Helvetica" font-size="21.2" fill="#4A4A4A" transform="matrix(1.00, 0.00, -0.00, -1.00, 630.6, 582.2)">,</text><text xml:space="preserve" font-family="Helvetica" font-size="21.2" fill="#4A4A4A" transform="matrix(1.00, 0.00, -0.00, -1.00, 637.2, 582.2)"> </text><text xml:space="preserve" font-family="Helvetica" font-size="21.2" fill="#4A4A4A" transform="matrix(1.00, 0.00, -0.00, -1.00, 643.8, 582.2)">s</text><text xml:space="preserve" font-family="Helvetica" font-size="21.2" fill="#4A4A4A" transform="matrix(1.00, 0.00, -0.00, -1.00, 655.2, 582.2)">o</text><text xml:space="preserve" font-family="Helvetica" font-size="21.2" fill="#4A4A4A" transform="matrix(1.00, 0.00, -0.00, -1.00, 667.7, 582.2)">c</text><text xml:space="preserve" font-family="Helvetica" font-size="21.2" fill="#4A4A4A" transform="matrix(1.00, 0.00, -0.00, -1.00, 679.0, 582.2)">i</text><text xml:space="preserve" font-family="Helvetica" font-size="21.2" fill="#4A4A4A" transform="matrix(1.00, 0.00, -0.00, -1.00, 684.4, 582.2)">o</text><text xml:space="preserve" font-family="Helvetica" font-size="21.2" fill="#4A4A4A" transform="matrix(1.00, 0.00, -0.00, -1.00, 697.0, 582.2)">l</text><text xml:space="preserve" font-family="Helvetica" font-size="21.2" fill="#4A4A4A" transform="matrix(1.00, 0.00, -0.00, -1.00, 702.4, 582.2)">o</text><text xml:space="preserve" font-family="Helvetica" font-size="21.2" fill="#4A4A4A" transform="matrix(1.00, 0.00, -0.00, -1.00, 714.9, 582.2)">g</text><text xml:space="preserve" font-family="Helvetica" font-size="21.2" fill="#4A4A4A" transform="matrix(1.00, 0.00, -0.00, -1.00, 727.5, 582.2)">y</text><text xml:space="preserve" font-family="Helvetica" font-size="21.2" fill="#4A4A4A" transform="matrix(1.00, 0.00, -0.00, -1.00, 737.2, 582.2)">,</text><text xml:space="preserve" font-family="Helvetica" font-size="21.2" fill="#4A4A4A" transform="matrix(1.00, 0.00, -0.00, -1.00, 743.8, 582.2)"> </text><text xml:space="preserve" font-family="Helvetica" font-size="21.2" fill="#4A4A4A" transform="matrix(1.00, 0.00, -0.00, -1.00, 150.0, 537.2)">h</text><text xml:space="preserve" font-family="Helvetica" font-size="21.2" fill="#4A4A4A" transform="matrix(1.00, 0.00, -0.00, -1.00, 162.5, 537.2)">i</text><text xml:space="preserve" font-family="Helvetica" font-size="21.2" fill="#4A4A4A" transform="matrix(1.00, 0.00, -0.00, -1.00, 168.0, 537.2)">s</text><text xml:space="preserve" font-family="Helvetica" font-size="21.2" fill="#4A4A4A" transform="matrix(1.00, 0.00, -0.00, -1.00, 179.3, 537.2)">t</text><text xml:space="preserve" font-family="Helvetica" font-size="21.2" fill="#4A4A4A" transform="matrix(1.00, 0.00, -0.00, -1.00, 185.9, 537.2)">o</text><text xml:space="preserve" font-family="Helvetica" font-size="21.2" fill="#4A4A4A" transform="matrix(1.00, 0.00, -0.00, -1.00, 198.4, 537.2)">r</text><text xml:space="preserve" font-family="Helvetica" font-size="21.2" fill="#4A4A4A" transform="matrix(1.00, 0.00, -0.00, -1.00, 206.2, 537.2)">y</text><text xml:space="preserve" font-family="Helvetica" font-size="21.2" fill="#4A4A4A" transform="matrix(1.00, 0.00, -0.00, -1.00, 215.8, 537.2)">,</text><text xml:space="preserve" font-family="Helvetica" font-size="21.2" fill="#4A4A4A" transform="matrix(1.00, 0.00, -0.00, -1.00, 222.5, 537.2)"> </text><text xml:space="preserve" font-family="Helvetica" font-size="21.2" fill="#4A4A4A" transform="matrix(1.00, 0.00, -0.00, -1.00, 229.1, 537.2)">t</text><text xml:space="preserve" font-family="Helvetica" font-size="21.2" fill="#4A4A4A" transform="matrix(1.00, 0.00, -0.00, -1.00, 235.7, 537.2)">h</text><text xml:space="preserve" font-family="Helvetica" font-size="21.2" fill="#4A4A4A" transform="matrix(1.00, 0.00, -0.00, -1.00, 248.2, 537.2)">e</text><text xml:space="preserve" font-family="Helvetica" font-size="21.2" fill="#4A4A4A" transform="matrix(1.00, 0.00, -0.00, -1.00, 260.7, 537.2)"> </text><text xml:space="preserve" font-family="Helvetica" font-size="21.2" fill="#4A4A4A" transform="matrix(1.00, 0.00, -0.00, -1.00, 267.3, 537.2)">h</text><text xml:space="preserve" font-family="Helvetica" font-size="21.2" fill="#4A4A4A" transform="matrix(1.00, 0.00, -0.00, -1.00, 279.9, 537.2)">u</text><text xml:space="preserve" font-family="Helvetica" font-size="21.2" fill="#4A4A4A" transform="matrix(1.00, 0.00, -0.00, -1.00, 292.4, 537.2)">m</text><text xml:space="preserve" font-family="Helvetica" font-size="21.2" fill="#4A4A4A" transform="matrix(1.00, 0.00, -0.00, -1.00, 310.8, 537.2)">a</text><text xml:space="preserve" font-family="Helvetica" font-size="21.2" fill="#4A4A4A" transform="matrix(1.00, 0.00, -0.00, -1.00, 323.3, 537.2)">n</text><text xml:space="preserve" font-family="Helvetica" font-size="21.2" fill="#4A4A4A" transform="matrix(1.00, 0.00, -0.00, -1.00, 335.9, 537.2)"> </text><text xml:space="preserve" font-family="Helvetica" font-size="21.2" fill="#4A4A4A" transform="matrix(1.00, 0.00, -0.00, -1.00, 342.5, 537.2)">c</text><text xml:space="preserve" font-family="Helvetica" font-size="21.2" fill="#4A4A4A" transform="matrix(1.00, 0.00, -0.00, -1.00, 353.8, 537.2)">o</text><text xml:space="preserve" font-family="Helvetica" font-size="21.2" fill="#4A4A4A" transform="matrix(1.00, 0.00, -0.00, -1.00, 366.3, 537.2)">n</text><text xml:space="preserve" font-family="Helvetica" font-size="21.2" fill="#4A4A4A" transform="matrix(1.00, 0.00, -0.00, -1.00, 378.8, 537.2)">d</text><text xml:space="preserve" font-family="Helvetica" font-size="21.2" fill="#4A4A4A" transform="matrix(1.00, 0.00, -0.00, -1.00, 391.4, 537.2)">i</text><text xml:space="preserve" font-family="Helvetica" font-size="21.2" fill="#4A4A4A" transform="matrix(1.00, 0.00, -0.00, -1.00, 396.8, 537.2)">t</text><text xml:space="preserve" font-family="Helvetica" font-size="21.2" fill="#4A4A4A" transform="matrix(1.00, 0.00, -0.00, -1.00, 403.4, 537.2)">i</text><text xml:space="preserve" font-family="Helvetica" font-size="21.2" fill="#4A4A4A" transform="matrix(1.00, 0.00, -0.00, -1.00, 408.8, 537.2)">o</text><text xml:space="preserve" font-family="Helvetica" font-size="21.2" fill="#4A4A4A" transform="matrix(1.00, 0.00, -0.00, -1.00, 421.4, 537.2)">n</text><text xml:space="preserve" font-family="Helvetica" font-size="21.2" fill="#4A4A4A" transform="matrix(1.00, 0.00, -0.00, -1.00, 433.9, 537.2)"> </text><text xml:space="preserve" font-family="Helvetica" font-size="21.2" fill="#4A4A4A" transform="matrix(1.00, 0.00, -0.00, -1.00, 440.5, 537.2)">a</text><text xml:space="preserve" font-family="Helvetica" font-size="21.2" fill="#4A4A4A" transform="matrix(1.00, 0.00, -0.00, -1.00, 453.0, 537.2)">n</text><text xml:space="preserve" font-family="Helvetica" font-size="21.2" fill="#4A4A4A" transform="matrix(1.00, 0.00, -0.00, -1.00, 465.6, 537.2)">d</text><text xml:space="preserve" font-family="Helvetica" font-size="21.2" fill="#4A4A4A" transform="matrix(1.00, 0.00, -0.00, -1.00, 478.1, 537.2)"> </text><text xml:space="preserve" font-family="Helvetica" font-size="21.2" fill="#4A4A4A" transform="matrix(1.00, 0.00, -0.00, -1.00, 484.7, 537.2)">s</text><text xml:space="preserve" font-family="Helvetica" font-size="21.2" fill="#4A4A4A" transform="matrix(1.00, 0.00, -0.00, -1.00, 496.0, 537.2)">o</text><text xml:space="preserve" font-family="Helvetica" font-size="21.2" fill="#4A4A4A" transform="matrix(1.00, 0.00, -0.00, -1.00, 508.6, 537.2)">c</text><text xml:space="preserve" font-family="Helvetica" font-size="21.2" fill="#4A4A4A" transform="matrix(1.00, 0.00, -0.00, -1.00, 519.9, 537.2)">i</text><text xml:space="preserve" font-family="Helvetica" font-size="21.2" fill="#4A4A4A" transform="matrix(1.00, 0.00, -0.00, -1.00, 525.3, 537.2)">a</text><text xml:space="preserve" font-family="Helvetica" font-size="21.2" fill="#4A4A4A" transform="matrix(1.00, 0.00, -0.00, -1.00, 537.8, 537.2)">l</text><text xml:space="preserve" font-family="Helvetica" font-size="21.2" fill="#4A4A4A" transform="matrix(1.00, 0.00, -0.00, -1.00, 543.3, 537.2)"> </text><text xml:space="preserve" font-family="Helvetica" font-size="21.2" fill="#4A4A4A" transform="matrix(1.00, 0.00, -0.00, -1.00, 549.9, 537.2)">m</text><text xml:space="preserve" font-family="Helvetica" font-size="21.2" fill="#4A4A4A" transform="matrix(1.00, 0.00, -0.00, -1.00, 568.3, 537.2)">e</text><text xml:space="preserve" font-family="Helvetica" font-size="21.2" fill="#4A4A4A" transform="matrix(1.00, 0.00, -0.00, -1.00, 580.8, 537.2)">d</text><text xml:space="preserve" font-family="Helvetica" font-size="21.2" fill="#4A4A4A" transform="matrix(1.00, 0.00, -0.00, -1.00, 593.3, 537.2)">i</text><text xml:space="preserve" font-family="Helvetica" font-size="21.2" fill="#4A4A4A" transform="matrix(1.00, 0.00, -0.00, -1.00, 598.8, 537.2)">a</text><text xml:space="preserve" font-family="Helvetica" font-size="21.2" fill="#4A4A4A" transform="matrix(1.00, 0.00, -0.00, -1.00, 611.3, 537.2)">.</text><text xml:space="preserve" font-family="Helvetica" font-size="21.2" fill="#4A4A4A" transform="matrix(1.00, 0.00, -0.00, -1.00, 617.9, 537.2)"> </text><text xml:space="preserve" font-family="Helvetica" font-size="21.2" fill="#4A4A4A" transform="matrix(1.00, 0.00, -0.00, -1.00, 637.1, 537.2)">I</text><text xml:space="preserve" font-family="Helvetica" font-size="21.2" fill="#4A4A4A" transform="matrix(1.00, 0.00, -0.00, -1.00, 643.8, 537.2)"> </text><text xml:space="preserve" font-family="Helvetica" font-size="21.2" fill="#4A4A4A" transform="matrix(1.00, 0.00, -0.00, -1.00, 650.4, 537.2)">d</text><text xml:space="preserve" font-family="Helvetica" font-size="21.2" fill="#4A4A4A" transform="matrix(1.00, 0.00, -0.00, -1.00, 662.9, 537.2)">o</text><text xml:space="preserve" font-family="Helvetica" font-size="21.2" fill="#4A4A4A" transform="matrix(1.00, 0.00, -0.00, -1.00, 675.4, 537.2)">n</text><text xml:space="preserve" font-family="Helvetica" font-size="21.2" fill="#4A4A4A" transform="matrix(1.00, 0.00, -0.00, -1.00, 686.9, 537.2)">’</text><text xml:space="preserve" font-family="Helvetica" font-size="21.2" fill="#4A4A4A" transform="matrix(1.00, 0.00, -0.00, -1.00, 692.1, 537.2)">t</text><text xml:space="preserve" font-family="Helvetica" font-size="21.2" fill="#4A4A4A" transform="matrix(1.00, 0.00, -0.00, -1.00, 698.7, 537.2)"> </text><text xml:space="preserve" font-family="Helvetica" font-size="21.2" fill="#4A4A4A" transform="matrix(1.00, 0.00, -0.00, -1.00, 705.3, 537.2)">k</text><text xml:space="preserve" font-family="Helvetica" font-size="21.2" fill="#4A4A4A" transform="matrix(1.00, 0.00, -0.00, -1.00, 716.7, 537.2)">n</text><text xml:space="preserve" font-family="Helvetica" font-size="21.2" fill="#4A4A4A" transform="matrix(1.00, 0.00, -0.00, -1.00, 729.2, 537.2)">o</text><text xml:space="preserve" font-family="Helvetica" font-size="21.2" fill="#4A4A4A" transform="matrix(1.00, 0.00, -0.00, -1.00, 741.6, 537.2)">w</text><text xml:space="preserve" font-family="Helvetica" font-size="21.2" fill="#4A4A4A" transform="matrix(1.00, 0.00, -0.00, -1.00, 757.7, 537.2)"> </text><text xml:space="preserve" font-family="Helvetica" font-size="21.2" fill="#4A4A4A" transform="matrix(1.00, 0.00, -0.00, -1.00, 150.0, 492.2)">h</text><text xml:space="preserve" font-family="Helvetica" font-size="21.2" fill="#4A4A4A" transform="matrix(1.00, 0.00, -0.00, -1.00, 162.5, 492.2)">o</text><text xml:space="preserve" font-family="Helvetica" font-size="21.2" fill="#4A4A4A" transform="matrix(1.00, 0.00, -0.00, -1.00, 175.0, 492.2)">w</text><text xml:space="preserve" font-family="Helvetica" font-size="21.2" fill="#4A4A4A" transform="matrix(1.00, 0.00, -0.00, -1.00, 191.0, 492.2)"> </text><text xml:space="preserve" font-family="Helvetica" font-size="21.2" fill="#4A4A4A" transform="matrix(1.00, 0.00, -0.00, -1.00, 197.6, 492.2)">I</text><text xml:space="preserve" font-family="Helvetica" font-size="21.2" fill="#4A4A4A" transform="matrix(1.00, 0.00, -0.00, -1.00, 204.2, 492.2)"> </text><text xml:space="preserve" font-family="Helvetica" font-size="21.2" fill="#4A4A4A" transform="matrix(1.00, 0.00, -0.00, -1.00, 210.9, 492.2)">c</text><text xml:space="preserve" font-family="Helvetica" font-size="21.2" fill="#4A4A4A" transform="matrix(1.00, 0.00, -0.00, -1.00, 222.0, 492.2)">a</text><text xml:space="preserve" font-family="Helvetica" font-size="21.2" fill="#4A4A4A" transform="matrix(1.00, 0.00, -0.00, -1.00, 234.5, 492.2)">n</text><text xml:space="preserve" font-family="Helvetica" font-size="21.2" fill="#4A4A4A" transform="matrix(1.00, 0.00, -0.00, -1.00, 247.0, 492.2)"> </text><text xml:space="preserve" font-family="Helvetica" font-size="21.2" fill="#4A4A4A" transform="matrix(1.00, 0.00, -0.00, -1.00, 253.6, 492.2)">b</text><text xml:space="preserve" font-family="Helvetica" font-size="21.2" fill="#4A4A4A" transform="matrix(1.00, 0.00, -0.00, -1.00, 266.2, 492.2)">e</text><text xml:space="preserve" font-family="Helvetica" font-size="21.2" fill="#4A4A4A" transform="matrix(1.00, 0.00, -0.00, -1.00, 278.7, 492.2)"> </text><text xml:space="preserve" font-family="Helvetica" font-size="21.2" fill="#4A4A4A" transform="matrix(1.00, 0.00, -0.00, -1.00, 285.3, 492.2)">a</text><text xml:space="preserve" font-family="Helvetica" font-size="21.2" fill="#4A4A4A" transform="matrix(1.00, 0.00, -0.00, -1.00, 297.8, 492.2)">n</text><text xml:space="preserve" font-family="Helvetica" font-size="21.2" fill="#4A4A4A" transform="matrix(1.00, 0.00, -0.00, -1.00, 310.4, 492.2)"> </text><text xml:space="preserve" font-family="Helvetica" font-size="21.2" fill="#4A4A4A" transform="matrix(1.00, 0.00, -0.00, -1.00, 317.0, 492.2)">e</text><text xml:space="preserve" font-family="Helvetica" font-size="21.2" fill="#4A4A4A" transform="matrix(1.00, 0.00, -0.00, -1.00, 329.5, 492.2)">d</text><text xml:space="preserve" font-family="Helvetica" font-size="21.2" fill="#4A4A4A" transform="matrix(1.00, 0.00, -0.00, -1.00, 342.0, 492.2)">u</text><text xml:space="preserve" font-family="Helvetica" font-size="21.2" fill="#4A4A4A" transform="matrix(1.00, 0.00, -0.00, -1.00, 354.5, 492.2)">c</text><text xml:space="preserve" font-family="Helvetica" font-size="21.2" fill="#4A4A4A" transform="matrix(1.00, 0.00, -0.00, -1.00, 365.7, 492.2)">a</text><text xml:space="preserve" font-family="Helvetica" font-size="21.2" fill="#4A4A4A" transform="matrix(1.00, 0.00, -0.00, -1.00, 378.2, 492.2)">t</text><text xml:space="preserve" font-family="Helvetica" font-size="21.2" fill="#4A4A4A" transform="matrix(1.00, 0.00, -0.00, -1.00, 384.8, 492.2)">o</text><text xml:space="preserve" font-family="Helvetica" font-size="21.2" fill="#4A4A4A" transform="matrix(1.00, 0.00, -0.00, -1.00, 397.3, 492.2)">r</text><text xml:space="preserve" font-family="Helvetica" font-size="21.2" fill="#4A4A4A" transform="matrix(1.00, 0.00, -0.00, -1.00, 405.1, 492.2)"> </text><text xml:space="preserve" font-family="Helvetica" font-size="21.2" fill="#4A4A4A" transform="matrix(1.00, 0.00, -0.00, -1.00, 411.7, 492.2)">a</text><text xml:space="preserve" font-family="Helvetica" font-size="21.2" fill="#4A4A4A" transform="matrix(1.00, 0.00, -0.00, -1.00, 424.2, 492.2)">n</text><text xml:space="preserve" font-family="Helvetica" font-size="21.2" fill="#4A4A4A" transform="matrix(1.00, 0.00, -0.00, -1.00, 436.8, 492.2)">d</text><text xml:space="preserve" font-family="Helvetica" font-size="21.2" fill="#4A4A4A" transform="matrix(1.00, 0.00, -0.00, -1.00, 449.3, 492.2)"> </text><text xml:space="preserve" font-family="Helvetica" font-size="21.2" fill="#4A4A4A" transform="matrix(1.00, 0.00, -0.00, -1.00, 455.9, 492.2)">i</text><text xml:space="preserve" font-family="Helvetica" font-size="21.2" fill="#4A4A4A" transform="matrix(1.00, 0.00, -0.00, -1.00, 461.3, 492.2)">n</text><text xml:space="preserve" font-family="Helvetica" font-size="21.2" fill="#4A4A4A" transform="matrix(1.00, 0.00, -0.00, -1.00, 473.9, 492.2)"> </text><text xml:space="preserve" font-family="Helvetica" font-size="21.2" fill="#4A4A4A" transform="matrix(1.00, 0.00, -0.00, -1.00, 480.5, 492.2)">g</text><text xml:space="preserve" font-family="Helvetica" font-size="21.2" fill="#4A4A4A" transform="matrix(1.00, 0.00, -0.00, -1.00, 493.0, 492.2)">o</text><text xml:space="preserve" font-family="Helvetica" font-size="21.2" fill="#4A4A4A" transform="matrix(1.00, 0.00, -0.00, -1.00, 505.5, 492.2)">o</text><text xml:space="preserve" font-family="Helvetica" font-size="21.2" fill="#4A4A4A" transform="matrix(1.00, 0.00, -0.00, -1.00, 518.1, 492.2)">d</text><text xml:space="preserve" font-family="Helvetica" font-size="21.2" fill="#4A4A4A" transform="matrix(1.00, 0.00, -0.00, -1.00, 530.6, 492.2)"> </text><text xml:space="preserve" font-family="Helvetica" font-size="21.2" fill="#4A4A4A" transform="matrix(1.00, 0.00, -0.00, -1.00, 537.2, 492.2)">c</text><text xml:space="preserve" font-family="Helvetica" font-size="21.2" fill="#4A4A4A" transform="matrix(1.00, 0.00, -0.00, -1.00, 548.5, 492.2)">o</text><text xml:space="preserve" font-family="Helvetica" font-size="21.2" fill="#4A4A4A" transform="matrix(1.00, 0.00, -0.00, -1.00, 561.1, 492.2)">n</text><text xml:space="preserve" font-family="Helvetica" font-size="21.2" fill="#4A4A4A" transform="matrix(1.00, 0.00, -0.00, -1.00, 573.6, 492.2)">s</text><text xml:space="preserve" font-family="Helvetica" font-size="21.2" fill="#4A4A4A" transform="matrix(1.00, 0.00, -0.00, -1.00, 584.9, 492.2)">c</text><text xml:space="preserve" font-family="Helvetica" font-size="21.2" fill="#4A4A4A" transform="matrix(1.00, 0.00, -0.00, -1.00, 596.2, 492.2)">i</text><text xml:space="preserve" font-family="Helvetica" font-size="21.2" fill="#4A4A4A" transform="matrix(1.00, 0.00, -0.00, -1.00, 601.7, 492.2)">e</text><text xml:space="preserve" font-family="Helvetica" font-size="21.2" fill="#4A4A4A" transform="matrix(1.00, 0.00, -0.00, -1.00, 614.2, 492.2)">n</text><text xml:space="preserve" font-family="Helvetica" font-size="21.2" fill="#4A4A4A" transform="matrix(1.00, 0.00, -0.00, -1.00, 626.7, 492.2)">c</text><text xml:space="preserve" font-family="Helvetica" font-size="21.2" fill="#4A4A4A" transform="matrix(1.00, 0.00, -0.00, -1.00, 638.1, 492.2)">e</text><text xml:space="preserve" font-family="Helvetica" font-size="21.2" fill="#4A4A4A" transform="matrix(1.00, 0.00, -0.00, -1.00, 650.6, 492.2)"> </text><text xml:space="preserve" font-family="Helvetica" font-size="21.2" fill="#4A4A4A" transform="matrix(1.00, 0.00, -0.00, -1.00, 657.2, 492.2)">n</text><text xml:space="preserve" font-family="Helvetica" font-size="21.2" fill="#4A4A4A" transform="matrix(1.00, 0.00, -0.00, -1.00, 669.7, 492.2)">o</text><text xml:space="preserve" font-family="Helvetica" font-size="21.2" fill="#4A4A4A" transform="matrix(1.00, 0.00, -0.00, -1.00, 682.2, 492.2)">t</text><text xml:space="preserve" font-family="Helvetica" font-size="21.2" fill="#4A4A4A" transform="matrix(1.00, 0.00, -0.00, -1.00, 688.9, 492.2)"> </text><text xml:space="preserve" font-family="Helvetica" font-size="21.2" fill="#4A4A4A" transform="matrix(1.00, 0.00, -0.00, -1.00, 695.5, 492.2)">p</text><text xml:space="preserve" font-family="Helvetica" font-size="21.2" fill="#4A4A4A" transform="matrix(1.00, 0.00, -0.00, -1.00, 708.0, 492.2)">u</text><text xml:space="preserve" font-family="Helvetica" font-size="21.2" fill="#4A4A4A" transform="matrix(1.00, 0.00, -0.00, -1.00, 720.5, 492.2)">t</text><text xml:space="preserve" font-family="Helvetica" font-size="21.2" fill="#4A4A4A" transform="matrix(1.00, 0.00, -0.00, -1.00, 727.1, 492.2)"> </text><text xml:space="preserve" font-family="Helvetica" font-size="21.2" fill="#4A4A4A" transform="matrix(1.00, 0.00, -0.00, -1.00, 733.7, 492.2)">t</text><text xml:space="preserve" font-family="Helvetica" font-size="21.2" fill="#4A4A4A" transform="matrix(1.00, 0.00, -0.00, -1.00, 740.4, 492.2)">h</text><text xml:space="preserve" font-family="Helvetica" font-size="21.2" fill="#4A4A4A" transform="matrix(1.00, 0.00, -0.00, -1.00, 752.9, 492.2)">i</text><text xml:space="preserve" font-family="Helvetica" font-size="21.2" fill="#4A4A4A" transform="matrix(1.00, 0.00, -0.00, -1.00, 758.3, 492.2)">s</text><text xml:space="preserve" font-family="Helvetica" font-size="21.2" fill="#4A4A4A" transform="matrix(1.00, 0.00, -0.00, -1.00, 769.6, 492.2)"> </text><text xml:space="preserve" font-family="Helvetica" font-size="21.2" fill="#4A4A4A" transform="matrix(1.00, 0.00, -0.00, -1.00, 150.0, 447.2)">c</text><text xml:space="preserve" font-family="Helvetica" font-size="21.2" fill="#4A4A4A" transform="matrix(1.00, 0.00, -0.00, -1.00, 161.3, 447.2)">o</text><text xml:space="preserve" font-family="Helvetica" font-size="21.2" fill="#4A4A4A" transform="matrix(1.00, 0.00, -0.00, -1.00, 173.9, 447.2)">n</text><text xml:space="preserve" font-family="Helvetica" font-size="21.2" fill="#4A4A4A" transform="matrix(1.00, 0.00, -0.00, -1.00, 186.2, 447.2)">v</text><text xml:space="preserve" font-family="Helvetica" font-size="21.2" fill="#4A4A4A" transform="matrix(1.00, 0.00, -0.00, -1.00, 197.4, 447.2)">e</text><text xml:space="preserve" font-family="Helvetica" font-size="21.2" fill="#4A4A4A" transform="matrix(1.00, 0.00, -0.00, -1.00, 209.9, 447.2)">r</text><text xml:space="preserve" font-family="Helvetica" font-size="21.2" fill="#4A4A4A" transform="matrix(1.00, 0.00, -0.00, -1.00, 217.5, 447.2)">s</text><text xml:space="preserve" font-family="Helvetica" font-size="21.2" fill="#4A4A4A" transform="matrix(1.00, 0.00, -0.00, -1.00, 228.8, 447.2)">a</text><text xml:space="preserve" font-family="Helvetica" font-size="21.2" fill="#4A4A4A" transform="matrix(1.00, 0.00, -0.00, -1.00, 241.3, 447.2)">t</text><text xml:space="preserve" font-family="Helvetica" font-size="21.2" fill="#4A4A4A" transform="matrix(1.00, 0.00, -0.00, -1.00, 247.9, 447.2)">i</text><text xml:space="preserve" font-family="Helvetica" font-size="21.2" fill="#4A4A4A" transform="matrix(1.00, 0.00, -0.00, -1.00, 253.4, 447.2)">o</text><text xml:space="preserve" font-family="Helvetica" font-size="21.2" fill="#4A4A4A" transform="matrix(1.00, 0.00, -0.00, -1.00, 265.9, 447.2)">n</text><text xml:space="preserve" font-family="Helvetica" font-size="21.2" fill="#4A4A4A" transform="matrix(1.00, 0.00, -0.00, -1.00, 278.4, 447.2)"> </text><text xml:space="preserve" font-family="Helvetica" font-size="21.2" fill="#4A4A4A" transform="matrix(1.00, 0.00, -0.00, -1.00, 285.0, 447.2)">i</text><text xml:space="preserve" font-family="Helvetica" font-size="21.2" fill="#4A4A4A" transform="matrix(1.00, 0.00, -0.00, -1.00, 290.5, 447.2)">n</text><text xml:space="preserve" font-family="Helvetica" font-size="21.2" fill="#4A4A4A" transform="matrix(1.00, 0.00, -0.00, -1.00, 303.0, 447.2)"> </text><text xml:space="preserve" font-family="Helvetica" font-size="21.2" fill="#4A4A4A" transform="matrix(1.00, 0.00, -0.00, -1.00, 309.6, 447.2)">f</text><text xml:space="preserve" font-family="Helvetica" font-size="21.2" fill="#4A4A4A" transform="matrix(1.00, 0.00, -0.00, -1.00, 316.2, 447.2)">r</text><text xml:space="preserve" font-family="Helvetica" font-size="21.2" fill="#4A4A4A" transform="matrix(1.00, 0.00, -0.00, -1.00, 323.7, 447.2)">o</text><text xml:space="preserve" font-family="Helvetica" font-size="21.2" fill="#4A4A4A" transform="matrix(1.00, 0.00, -0.00, -1.00, 336.2, 447.2)">n</text><text xml:space="preserve" font-family="Helvetica" font-size="21.2" fill="#4A4A4A" transform="matrix(1.00, 0.00, -0.00, -1.00, 348.8, 447.2)">t</text><text xml:space="preserve" font-family="Helvetica" font-size="21.2" fill="#4A4A4A" transform="matrix(1.00, 0.00, -0.00, -1.00, 355.4, 447.2)"> </text><text xml:space="preserve" font-family="Helvetica" font-size="21.2" fill="#4A4A4A" transform="matrix(1.00, 0.00, -0.00, -1.00, 362.0, 447.2)">o</text><text xml:space="preserve" font-family="Helvetica" font-size="21.2" fill="#4A4A4A" transform="matrix(1.00, 0.00, -0.00, -1.00, 374.5, 447.2)">f</text><text xml:space="preserve" font-family="Helvetica" font-size="21.2" fill="#4A4A4A" transform="matrix(1.00, 0.00, -0.00, -1.00, 381.1, 447.2)"> </text><text xml:space="preserve" font-family="Helvetica" font-size="21.2" fill="#4A4A4A" transform="matrix(1.00, 0.00, -0.00, -1.00, 387.7, 447.2)">m</text><text xml:space="preserve" font-family="Helvetica" font-size="21.2" fill="#4A4A4A" transform="matrix(1.00, 0.00, -0.00, -1.00, 405.9, 447.2)">y</text><text xml:space="preserve" font-family="Helvetica" font-size="21.2" fill="#4A4A4A" transform="matrix(1.00, 0.00, -0.00, -1.00, 417.3, 447.2)"> </text><text xml:space="preserve" font-family="Helvetica" font-size="21.2" fill="#4A4A4A" transform="matrix(1.00, 0.00, -0.00, -1.00, 423.9, 447.2)">s</text><text xml:space="preserve" font-family="Helvetica" font-size="21.2" fill="#4A4A4A" transform="matrix(1.00, 0.00, -0.00, -1.00, 435.2, 447.2)">t</text><text xml:space="preserve" font-family="Helvetica" font-size="21.2" fill="#4A4A4A" transform="matrix(1.00, 0.00, -0.00, -1.00, 441.8, 447.2)">u</text><text xml:space="preserve" font-family="Helvetica" font-size="21.2" fill="#4A4A4A" transform="matrix(1.00, 0.00, -0.00, -1.00, 454.4, 447.2)">d</text><text xml:space="preserve" font-family="Helvetica" font-size="21.2" fill="#4A4A4A" transform="matrix(1.00, 0.00, -0.00, -1.00, 466.9, 447.2)">e</text><text xml:space="preserve" font-family="Helvetica" font-size="21.2" fill="#4A4A4A" transform="matrix(1.00, 0.00, -0.00, -1.00, 479.4, 447.2)">n</text><text xml:space="preserve" font-family="Helvetica" font-size="21.2" fill="#4A4A4A" transform="matrix(1.00, 0.00, -0.00, -1.00, 491.9, 447.2)">t</text><text xml:space="preserve" font-family="Helvetica" font-size="21.2" fill="#4A4A4A" transform="matrix(1.00, 0.00, -0.00, -1.00, 498.6, 447.2)">s</text><text xml:space="preserve" font-family="Helvetica" font-size="21.2" fill="#4A4A4A" transform="matrix(1.00, 0.00, -0.00, -1.00, 509.9, 447.2)">.</text><text xml:space="preserve" font-family="Helvetica" font-size="21.2" fill="#4A4A4A" transform="matrix(1.00, 0.00, -0.00, -1.00, 514.4, 447.2)">”</text></g></g><g><clipPath id="clip-12"><path d="M 150.0 648.5 L 752.5 648.5 L 752.5 662.5 L 150.0 662.5 Z M 150.0 648.5 "></path></clipPath><g clip-path="url(#clip-12)"><text xml:space="preserve" font-family="Helvetica" font-size="17.5" fill="#4A4A4A" transform="matrix(1.00, 0.00, -0.00, -1.00, 150.0, 648.8)">R</text><text xml:space="preserve" font-family="Helvetica" font-size="17.5" fill="#4A4A4A" transform="matrix(1.00, 0.00, -0.00, -1.00, 167.4, 648.8)">E</text><text xml:space="preserve" font-family="Helvetica" font-size="17.5" fill="#4A4A4A" transform="matrix(1.00, 0.00, -0.00, -1.00, 183.7, 648.8)">S</text><text xml:space="preserve" font-family="Helvetica" font-size="17.5" fill="#4A4A4A" transform="matrix(1.00, 0.00, -0.00, -1.00, 200.1, 648.8)">E</text><text xml:space="preserve" font-family="Helvetica" font-size="17.5" fill="#4A4A4A" transform="matrix(1.00, 0.00, -0.00, -1.00, 216.5, 648.8)">A</text><text xml:space="preserve" font-family="Helvetica" font-size="17.5" fill="#4A4A4A" transform="matrix(1.00, 0.00, -0.00, -1.00, 232.9, 648.8)">R</text><text xml:space="preserve" font-family="Helvetica" font-size="17.5" fill="#4A4A4A" transform="matrix(1.00, 0.00, -0.00, -1.00, 250.3, 648.8)">C</text><text xml:space="preserve" font-family="Helvetica" font-size="17.5" fill="#4A4A4A" transform="matrix(1.00, 0.00, -0.00, -1.00, 267.6, 648.8)">H</text><text xml:space="preserve" font-family="Helvetica" font-size="17.5" fill="#4A4A4A" transform="matrix(1.00, 0.00, -0.00, -1.00, 285.0, 648.8)"> </text><text xml:space="preserve" font-family="Helvetica" font-size="17.5" fill="#4A4A4A" transform="matrix(1.00, 0.00, -0.00, -1.00, 293.8, 648.8)">A</text><text xml:space="preserve" font-family="Helvetica" font-size="17.5" fill="#4A4A4A" transform="matrix(1.00, 0.00, -0.00, -1.00, 310.2, 648.8)">S</text><text xml:space="preserve" font-family="Helvetica" font-size="17.5" fill="#4A4A4A" transform="matrix(1.00, 0.00, -0.00, -1.00, 326.6, 648.8)"> </text><text xml:space="preserve" font-family="Helvetica" font-size="17.5" fill="#4A4A4A" transform="matrix(1.00, 0.00, -0.00, -1.00, 335.5, 648.8)">A</text><text xml:space="preserve" font-family="Helvetica" font-size="17.5" fill="#4A4A4A" transform="matrix(1.00, 0.00, -0.00, -1.00, 351.9, 648.8)">N</text><text xml:space="preserve" font-family="Helvetica" font-size="17.5" fill="#4A4A4A" transform="matrix(1.00, 0.00, -0.00, -1.00, 369.2, 648.8)"> </text><text xml:space="preserve" font-family="Helvetica" font-size="17.5" fill="#4A4A4A" transform="matrix(1.00, 0.00, -0.00, -1.00, 378.8, 648.8)">E</text><text xml:space="preserve" font-family="Helvetica" font-size="17.5" fill="#4A4A4A" transform="matrix(1.00, 0.00, -0.00, -1.00, 395.2, 648.8)">N</text><text xml:space="preserve" font-family="Helvetica" font-size="17.5" fill="#4A4A4A" transform="matrix(1.00, 0.00, -0.00, -1.00, 412.5, 648.8)">T</text><text xml:space="preserve" font-family="Helvetica" font-size="17.5" fill="#4A4A4A" transform="matrix(1.00, 0.00, -0.00, -1.00, 427.9, 648.8)">R</text><text xml:space="preserve" font-family="Helvetica" font-size="17.5" fill="#4A4A4A" transform="matrix(1.00, 0.00, -0.00, -1.00, 445.1, 648.8)">Y</text><text xml:space="preserve" font-family="Helvetica" font-size="17.5" fill="#4A4A4A" transform="matrix(1.00, 0.00, -0.00, -1.00, 461.5, 648.8)">P</text><text xml:space="preserve" font-family="Helvetica" font-size="17.5" fill="#4A4A4A" transform="matrix(1.00, 0.00, -0.00, -1.00, 477.9, 648.8)">O</text><text xml:space="preserve" font-family="Helvetica" font-size="17.5" fill="#4A4A4A" transform="matrix(1.00, 0.00, -0.00, -1.00, 496.2, 648.8)">I</text><text xml:space="preserve" font-family="Helvetica" font-size="17.5" fill="#4A4A4A" transform="matrix(1.00, 0.00, -0.00, -1.00, 505.8, 648.8)">N</text><text xml:space="preserve" font-family="Helvetica" font-size="17.5" fill="#4A4A4A" transform="matrix(1.00, 0.00, -0.00, -1.00, 523.2, 648.8)">T</text></g></g><g><clipPath id="clip-13"><path d="M 150.0 379.0 L 760.0 379.0 L 760.0 692.0 L 150.0 692.0 Z M 150.0 379.0 "></path></clipPath><g clip-path="url(#clip-13)"><text xml:space="preserve" font-family="Helvetica" font-size="15.0" fill="#979797" transform="matrix(1.00, 0.00, -0.00, -1.00, 150.0, 382.5)">E</text><text xml:space="preserve" font-family="Helvetica" font-size="15.0" fill="#979797" transform="matrix(1.00, 0.00, -0.00, -1.00, 162.9, 382.5)">R</text><text xml:space="preserve" font-family="Helvetica" font-size="15.0" fill="#979797" transform="matrix(1.00, 0.00, -0.00, -1.00, 176.7, 382.5)">I</text><text xml:space="preserve" font-family="Helvetica" font-size="15.0" fill="#979797" transform="matrix(1.00, 0.00, -0.00, -1.00, 183.8, 382.5)">C</text><text xml:space="preserve" font-family="Helvetica" font-size="15.0" fill="#979797" transform="matrix(1.00, 0.00, -0.00, -1.00, 197.6, 382.5)"> </text><text xml:space="preserve" font-family="Helvetica" font-size="15.0" fill="#979797" transform="matrix(1.00, 0.00, -0.00, -1.00, 204.7, 382.5)">B</text><text xml:space="preserve" font-family="Helvetica" font-size="15.0" fill="#979797" transform="matrix(1.00, 0.00, -0.00, -1.00, 217.6, 382.5)">I</text><text xml:space="preserve" font-family="Helvetica" font-size="15.0" fill="#979797" transform="matrix(1.00, 0.00, -0.00, -1.00, 224.7, 382.5)">S</text><text xml:space="preserve" font-family="Helvetica" font-size="15.0" fill="#979797" transform="matrix(1.00, 0.00, -0.00, -1.00, 237.7, 382.5)">H</text><text xml:space="preserve" font-family="Helvetica" font-size="15.0" fill="#979797" transform="matrix(1.00, 0.00, -0.00, -1.00, 251.5, 382.5)">O</text><text xml:space="preserve" font-family="Helvetica" font-size="15.0" fill="#979797" transform="matrix(1.00, 0.00, -0.00, -1.00, 266.1, 382.5)">P</text><text xml:space="preserve" font-family="Helvetica" font-size="15.0" fill="#979797" transform="matrix(1.00, 0.00, -0.00, -1.00, 279.0, 382.5)"> </text><text xml:space="preserve" font-family="Helvetica" font-size="15.0" fill="#979797" transform="matrix(1.00, 0.00, -0.00, -1.00, 286.1, 382.5)">|</text><text xml:space="preserve" font-family="Helvetica" font-size="15.0" fill="#979797" transform="matrix(1.00, 0.00, -0.00, -1.00, 293.0, 382.5)"> </text><text xml:space="preserve" font-family="Helvetica" font-size="15.0" fill="#979797" transform="matrix(1.00, 0.00, -0.00, -1.00, 300.1, 382.5)">U</text><text xml:space="preserve" font-family="Helvetica" font-size="15.0" fill="#979797" transform="matrix(1.00, 0.00, -0.00, -1.00, 313.3, 382.5)">.</text><text xml:space="preserve" font-family="Helvetica" font-size="15.0" fill="#979797" transform="matrix(1.00, 0.00, -0.00, -1.00, 320.4, 382.5)">S</text><text xml:space="preserve" font-family="Helvetica" font-size="15.0" fill="#979797" transform="matrix(1.00, 0.00, -0.00, -1.00, 333.4, 382.5)">.</text><text xml:space="preserve" font-family="Helvetica" font-size="15.0" fill="#979797" transform="matrix(1.00, 0.00, -0.00, -1.00, 340.5, 382.5)"> </text><text xml:space="preserve" font-family="Helvetica" font-size="15.0" fill="#979797" transform="matrix(1.00, 0.00, -0.00, -1.00, 347.6, 382.5)">H</text><text xml:space="preserve" font-family="Helvetica" font-size="15.0" fill="#979797" transform="matrix(1.00, 0.00, -0.00, -1.00, 361.4, 382.5)">I</text><text xml:space="preserve" font-family="Helvetica" font-size="15.0" fill="#979797" transform="matrix(1.00, 0.00, -0.00, -1.00, 368.5, 382.5)">S</text><text xml:space="preserve" font-family="Helvetica" font-size="15.0" fill="#979797" transform="matrix(1.00, 0.00, -0.00, -1.00, 381.0, 382.5)">T</text><text xml:space="preserve" font-family="Helvetica" font-size="15.0" fill="#979797" transform="matrix(1.00, 0.00, -0.00, -1.00, 392.8, 382.5)">O</text><text xml:space="preserve" font-family="Helvetica" font-size="15.0" fill="#979797" transform="matrix(1.00, 0.00, -0.00, -1.00, 407.4, 382.5)">R</text><text xml:space="preserve" font-family="Helvetica" font-size="15.0" fill="#979797" transform="matrix(1.00, 0.00, -0.00, -1.00, 420.9, 382.5)">Y</text><text xml:space="preserve" font-family="Helvetica" font-size="15.0" fill="#979797" transform="matrix(1.00, 0.00, -0.00, -1.00, 433.8, 382.5)"> </text><text xml:space="preserve" font-family="Helvetica" font-size="15.0" fill="#979797" transform="matrix(1.00, 0.00, -0.00, -1.00, 441.0, 382.5)">H</text><text xml:space="preserve" font-family="Helvetica" font-size="15.0" fill="#979797" transform="matrix(1.00, 0.00, -0.00, -1.00, 454.7, 382.5)">I</text><text xml:space="preserve" font-family="Helvetica" font-size="15.0" fill="#979797" transform="matrix(1.00, 0.00, -0.00, -1.00, 461.8, 382.5)">G</text><text xml:space="preserve" font-family="Helvetica" font-size="15.0" fill="#979797" transform="matrix(1.00, 0.00, -0.00, -1.00, 476.4, 382.5)">H</text><text xml:space="preserve" font-family="Helvetica" font-size="15.0" fill="#979797" transform="matrix(1.00, 0.00, -0.00, -1.00, 490.2, 382.5)"> </text><text xml:space="preserve" font-family="Helvetica" font-size="15.0" fill="#979797" transform="matrix(1.00, 0.00, -0.00, -1.00, 497.3, 382.5)">S</text><text xml:space="preserve" font-family="Helvetica" font-size="15.0" fill="#979797" transform="matrix(1.00, 0.00, -0.00, -1.00, 510.3, 382.5)">C</text><text xml:space="preserve" font-family="Helvetica" font-size="15.0" fill="#979797" transform="matrix(1.00, 0.00, -0.00, -1.00, 524.0, 382.5)">H</text><text xml:space="preserve" font-family="Helvetica" font-size="15.0" fill="#979797" transform="matrix(1.00, 0.00, -0.00, -1.00, 537.8, 382.5)">O</text><text xml:space="preserve" font-family="Helvetica" font-size="15.0" fill="#979797" transform="matrix(1.00, 0.00, -0.00, -1.00, 552.4, 382.5)">O</text><text xml:space="preserve" font-family="Helvetica" font-size="15.0" fill="#979797" transform="matrix(1.00, 0.00, -0.00, -1.00, 567.0, 382.5)">L</text><text xml:space="preserve" font-family="Helvetica" font-size="15.0" fill="#979797" transform="matrix(1.00, 0.00, -0.00, -1.00, 578.3, 382.5)"> </text><text xml:space="preserve" font-family="Helvetica" font-size="15.0" fill="#979797" transform="matrix(1.00, 0.00, -0.00, -1.00, 584.5, 382.5)">T</text><text xml:space="preserve" font-family="Helvetica" font-size="15.0" fill="#979797" transform="matrix(1.00, 0.00, -0.00, -1.00, 596.6, 382.5)">E</text><text xml:space="preserve" font-family="Helvetica" font-size="15.0" fill="#979797" transform="matrix(1.00, 0.00, -0.00, -1.00, 609.6, 382.5)">A</text><text xml:space="preserve" font-family="Helvetica" font-size="15.0" fill="#979797" transform="matrix(1.00, 0.00, -0.00, -1.00, 622.3, 382.5)">C</text><text xml:space="preserve" font-family="Helvetica" font-size="15.0" fill="#979797" transform="matrix(1.00, 0.00, -0.00, -1.00, 636.1, 382.5)">H</text><text xml:space="preserve" font-family="Helvetica" font-size="15.0" fill="#979797" transform="matrix(1.00, 0.00, -0.00, -1.00, 649.8, 382.5)">E</text><text xml:space="preserve" font-family="Helvetica" font-size="15.0" fill="#979797" transform="matrix(1.00, 0.00, -0.00, -1.00, 662.8, 382.5)">R</text><text xml:space="preserve" font-family="Helvetica" font-size="15.0" fill="#979797" transform="matrix(1.00, 0.00, -0.00, -1.00, 676.6, 382.5)"> </text><text xml:space="preserve" font-family="Helvetica" font-size="15.0" fill="#979797" transform="matrix(1.00, 0.00, -0.00, -1.00, 683.7, 382.5)">(</text><text xml:space="preserve" font-family="Helvetica" font-size="15.0" fill="#979797" transform="matrix(1.00, 0.00, -0.00, -1.00, 691.6, 382.5)">2</text><text xml:space="preserve" font-family="Helvetica" font-size="15.0" fill="#979797" transform="matrix(1.00, 0.00, -0.00, -1.00, 702.9, 382.5)">0</text><text xml:space="preserve" font-family="Helvetica" font-size="15.0" fill="#979797" transform="matrix(1.00, 0.00, -0.00, -1.00, 714.2, 382.5)">1</text><text xml:space="preserve" font-family="Helvetica" font-size="15.0" fill="#979797" transform="matrix(1.00, 0.00, -0.00, -1.00, 725.4, 382.5)">7</text><text xml:space="preserve" font-family="Helvetica" font-size="15.0" fill="#979797" transform="matrix(1.00, 0.00, -0.00, -1.00, 736.7, 382.5)">)</text></g></g></g></svg>