<?xml version="1.0" encoding="UTF-8" standalone="no"?><svg xmlns="http://www.w3.org/2000/svg" xmlns:xlink="http://www.w3.org/1999/xlink" clip-rule="evenodd" stroke-miterlimit="4.00" viewBox="0 0 613 316"><desc>SVG generated by Keynote</desc><defs></defs><g transform="matrix(1.00, 0.00, -0.00, -1.00, 0.0, 316.0)"><g><clipPath id="clip-6"><path d="M 2.0 1.0 L 612.0 1.0 L 612.0 314.0 L 2.0 314.0 Z M 2.0 1.0 "></path></clipPath><g clip-path="url(#clip-6)"><text xml:space="preserve" font-family="Helvetica" font-size="16.2" fill="#979797" transform="matrix(1.00, 0.00, -0.00, -1.00, 2.0, 302.0)">0</text><text xml:space="preserve" font-family="Helvetica" font-size="16.2" fill="#979797" transform="matrix(1.00, 0.00, -0.00, -1.00, 14.3, 302.0)">1</text><text xml:space="preserve" font-family="Helvetica" font-size="16.2" fill="#979797" transform="matrix(1.00, 0.00, -0.00, -1.00, 34.5, 302.0)">L</text><text xml:space="preserve" font-family="Helvetica" font-size="16.2" fill="#979797" transform="matrix(1.00, 0.00, -0.00, -1.00, 46.6, 302.0)">A</text><text xml:space="preserve" font-family="Helvetica" font-size="16.2" fill="#979797" transform="matrix(1.00, 0.00, -0.00, -1.00, 60.6, 302.0)">N</text><text xml:space="preserve" font-family="Helvetica" font-size="16.2" fill="#979797" transform="matrix(1.00, 0.00, -0.00, -1.00, 75.6, 302.0)">D</text><text xml:space="preserve" font-family="Helvetica" font-size="16.2" fill="#979797" transform="matrix(1.00, 0.00, -0.00, -1.00, 90.6, 302.0)">I</text><text xml:space="preserve" font-family="Helvetica" font-size="16.2" fill="#979797" transform="matrix(1.00, 0.00, -0.00, -1.00, 98.4, 302.0)">N</text><text xml:space="preserve" font-family="Helvetica" font-size="16.2" fill="#979797" transform="matrix(1.00, 0.00, -0.00, -1.00, 113.4, 302.0)">G</text><text xml:space="preserve" font-family="Helvetica" font-size="16.2" fill="#979797" transform="matrix(1.00, 0.00, -0.00, -1.00, 129.3, 302.0)"> </text><text xml:space="preserve" font-family="Helvetica" font-size="16.2" fill="#979797" transform="matrix(1.00, 0.00, -0.00, -1.00, 137.0, 302.0)">S</text><text xml:space="preserve" font-family="Helvetica" font-size="16.2" fill="#979797" transform="matrix(1.00, 0.00, -0.00, -1.00, 151.1, 302.0)">C</text><text xml:space="preserve" font-family="Helvetica" font-size="16.2" fill="#979797" transform="matrix(1.00, 0.00, -0.00, -1.00, 166.1, 302.0)">R</text><text xml:space="preserve" font-family="Helvetica" font-size="16.2" fill="#979797" transform="matrix(1.00, 0.00, -0.00, -1.00, 181.1, 302.0)">E</text><text xml:space="preserve" font-family="Helvetica" font-size="16.2" fill="#979797" transform="matrix(1.00, 0.00, -0.00, -1.00, 195.2, 302.0)">E</text><text xml:space="preserve" font-family="Helvetica" font-size="16.2" fill="#979797" transform="matrix(1.00, 0.00, -0.00, -1.00, 209.3, 302.0)">N</text><path d="M 0.6 1.9 L 128.1 1.9 " fill="none" stroke="#979797" stroke-width="0.62" stroke-miterlimit="0.00" stroke-linecap="square" transform="matrix(1.00, 0.00, 0.00, -1.00, 244.5, 309.5)"></path><path d="M 0.6 1.9 L 369.4 1.9 " fill="none" stroke="#979797" stroke-width="0.62" stroke-miterlimit="0.00" stroke-linecap="square" transform="matrix(1.00, 0.00, 0.00, -1.00, 2.0, 251.4)"></path></g></g><g><clipPath id="clip-7"><path d="M 2.0 35.8 L 612.0 35.8 L 612.0 233.2 L 2.0 233.2 Z M 2.0 35.8 "></path></clipPath><g clip-path="url(#clip-7)"><text xml:space="preserve" font-family="Helvetica" font-size="21.2" fill="#4A4A4A" transform="matrix(1.00, 0.00, -0.00, -1.00, 2.0, 204.2)">“</text><text xml:space="preserve" font-family="Helvetica" font-size="21.2" fill="#4A4A4A" transform="matrix(1.00, 0.00, -0.00, -1.00, 12.5, 204.2)">C</text><text xml:space="preserve" font-family="Helvetica" font-size="21.2" fill="#4A4A4A" transform="matrix(1.00, 0.00, -0.00, -1.00, 28.8, 204.2)">h</text><text xml:space="preserve" font-family="Helvetica" font-size="21.2" fill="#4A4A4A" transform="matrix(1.00, 0.00, -0.00, -1.00, 41.3, 204.2)">a</text><text xml:space="preserve" font-family="Helvetica" font-size="21.2" fill="#4A4A4A" transform="matrix(1.00, 0.00, -0.00, -1.00, 53.8, 204.2)">r</text><text xml:space="preserve" font-family="Helvetica" font-size="21.2" fill="#4A4A4A" transform="matrix(1.00, 0.00, -0.00, -1.00, 61.6, 204.2)">l</text><text xml:space="preserve" font-family="Helvetica" font-size="21.2" fill="#4A4A4A" transform="matrix(1.00, 0.00, -0.00, -1.00, 67.0, 204.2)">o</text><text xml:space="preserve" font-family="Helvetica" font-size="21.2" fill="#4A4A4A" transform="matrix(1.00, 0.00, -0.00, -1.00, 79.5, 204.2)">t</text><text xml:space="preserve" font-family="Helvetica" font-size="21.2" fill="#4A4A4A" transform="matrix(1.00, 0.00, -0.00, -1.00, 85.8, 204.2)">t</text><text xml:space="preserve" font-family="Helvetica" font-size="21.2" fill="#4A4A4A" transform="matrix(1.00, 0.00, -0.00, -1.00, 92.4, 204.2)">e</text><text xml:space="preserve" font-family="Helvetica" font-size="21.2" fill="#4A4A4A" transform="matrix(1.00, 0.00, -0.00, -1.00, 105.0, 204.2)">s</text><text xml:space="preserve" font-family="Helvetica" font-size="21.2" fill="#4A4A4A" transform="matrix(1.00, 0.00, -0.00, -1.00, 116.3, 204.2)">v</text><text xml:space="preserve" font-family="Helvetica" font-size="21.2" fill="#4A4A4A" transform="matrix(1.00, 0.00, -0.00, -1.00, 127.6, 204.2)">i</text><text xml:space="preserve" font-family="Helvetica" font-size="21.2" fill="#4A4A4A" transform="matrix(1.00, 0.00, -0.00, -1.00, 133.0, 204.2)">l</text><text xml:space="preserve" font-family="Helvetica" font-size="21.2" fill="#4A4A4A" transform="matrix(1.00, 0.00, -0.00, -1.00, 138.7, 204.2)">l</text><text xml:space="preserve" font-family="Helvetica" font-size="21.2" fill="#4A4A4A" transform="matrix(1.00, 0.00, -0.00, -1.00, 144.1, 204.2)">e</text><text xml:space="preserve" font-family="Helvetica" font-size="21.2" fill="#4A4A4A" transform="matrix(1.00, 0.00, -0.00, -1.00, 156.6, 204.2)"> </text><text xml:space="preserve" font-family="Helvetica" font-size="21.2" fill="#4A4A4A" transform="matrix(1.00, 0.00, -0.00, -1.00, 163.2, 204.2)">t</text><text xml:space="preserve" font-family="Helvetica" font-size="21.2" fill="#4A4A4A" transform="matrix(1.00, 0.00, -0.00, -1.00, 169.8, 204.2)">e</text><text xml:space="preserve" font-family="Helvetica" font-size="21.2" fill="#4A4A4A" transform="matrix(1.00, 0.00, -0.00, -1.00, 182.4, 204.2)">a</text><text xml:space="preserve" font-family="Helvetica" font-size="21.2" fill="#4A4A4A" transform="matrix(1.00, 0.00, -0.00, -1.00, 194.9, 204.2)">c</text><text xml:space="preserve" font-family="Helvetica" font-size="21.2" fill="#4A4A4A" transform="matrix(1.00, 0.00, -0.00, -1.00, 206.2, 204.2)">h</text><text xml:space="preserve" font-family="Helvetica" font-size="21.2" fill="#4A4A4A" transform="matrix(1.00, 0.00, -0.00, -1.00, 218.8, 204.2)">e</text><text xml:space="preserve" font-family="Helvetica" font-size="21.2" fill="#4A4A4A" transform="matrix(1.00, 0.00, -0.00, -1.00, 231.3, 204.2)">s</text><text xml:space="preserve" font-family="Helvetica" font-size="21.2" fill="#4A4A4A" transform="matrix(1.00, 0.00, -0.00, -1.00, 242.6, 204.2)"> </text><text xml:space="preserve" font-family="Helvetica" font-size="21.2" fill="#4A4A4A" transform="matrix(1.00, 0.00, -0.00, -1.00, 249.2, 204.2)">u</text><text xml:space="preserve" font-family="Helvetica" font-size="21.2" fill="#4A4A4A" transform="matrix(1.00, 0.00, -0.00, -1.00, 261.7, 204.2)">s</text><text xml:space="preserve" font-family="Helvetica" font-size="21.2" fill="#4A4A4A" transform="matrix(1.00, 0.00, -0.00, -1.00, 273.1, 204.2)"> </text><text xml:space="preserve" font-family="Helvetica" font-size="21.2" fill="#4A4A4A" transform="matrix(1.00, 0.00, -0.00, -1.00, 279.7, 204.2)">a</text><text xml:space="preserve" font-family="Helvetica" font-size="21.2" fill="#4A4A4A" transform="matrix(1.00, 0.00, -0.00, -1.00, 292.2, 204.2)">b</text><text xml:space="preserve" font-family="Helvetica" font-size="21.2" fill="#4A4A4A" transform="matrix(1.00, 0.00, -0.00, -1.00, 304.7, 204.2)">o</text><text xml:space="preserve" font-family="Helvetica" font-size="21.2" fill="#4A4A4A" transform="matrix(1.00, 0.00, -0.00, -1.00, 317.2, 204.2)">u</text><text xml:space="preserve" font-family="Helvetica" font-size="21.2" fill="#4A4A4A" transform="matrix(1.00, 0.00, -0.00, -1.00, 329.8, 204.2)">t</text><text xml:space="preserve" font-family="Helvetica" font-size="21.2" fill="#4A4A4A" transform="matrix(1.00, 0.00, -0.00, -1.00, 336.4, 204.2)"> </text><text xml:space="preserve" font-family="Helvetica" font-size="21.2" fill="#4A4A4A" transform="matrix(1.00, 0.00, -0.00, -1.00, 343.0, 204.2)">p</text><text xml:space="preserve" font-family="Helvetica" font-size="21.2" fill="#4A4A4A" transform="matrix(1.00, 0.00, -0.00, -1.00, 355.5, 204.2)">o</text><text xml:space="preserve" font-family="Helvetica" font-size="21.2" fill="#4A4A4A" transform="matrix(1.00, 0.00, -0.00, -1.00, 368.0, 204.2)">l</text><text xml:space="preserve" font-family="Helvetica" font-size="21.2" fill="#4A4A4A" transform="matrix(1.00, 0.00, -0.00, -1.00, 373.5, 204.2)">i</text><text xml:space="preserve" font-family="Helvetica" font-size="21.2" fill="#4A4A4A" transform="matrix(1.00, 0.00, -0.00, -1.00, 378.9, 204.2)">t</text><text xml:space="preserve" font-family="Helvetica" font-size="21.2" fill="#4A4A4A" transform="matrix(1.00, 0.00, -0.00, -1.00, 385.5, 204.2)">i</text><text xml:space="preserve" font-family="Helvetica" font-size="21.2" fill="#4A4A4A" transform="matrix(1.00, 0.00, -0.00, -1.00, 390.9, 204.2)">c</text><text xml:space="preserve" font-family="Helvetica" font-size="21.2" fill="#4A4A4A" transform="matrix(1.00, 0.00, -0.00, -1.00, 402.1, 204.2)">s</text><text xml:space="preserve" font-family="Helvetica" font-size="21.2" fill="#4A4A4A" transform="matrix(1.00, 0.00, -0.00, -1.00, 413.4, 204.2)">,</text><text xml:space="preserve" font-family="Helvetica" font-size="21.2" fill="#4A4A4A" transform="matrix(1.00, 0.00, -0.00, -1.00, 420.1, 204.2)"> </text><text xml:space="preserve" font-family="Helvetica" font-size="21.2" fill="#4A4A4A" transform="matrix(1.00, 0.00, -0.00, -1.00, 426.7, 204.2)">c</text><text xml:space="preserve" font-family="Helvetica" font-size="21.2" fill="#4A4A4A" transform="matrix(1.00, 0.00, -0.00, -1.00, 438.0, 204.2)">i</text><text xml:space="preserve" font-family="Helvetica" font-size="21.2" fill="#4A4A4A" transform="matrix(1.00, 0.00, -0.00, -1.00, 443.3, 204.2)">v</text><text xml:space="preserve" font-family="Helvetica" font-size="21.2" fill="#4A4A4A" transform="matrix(1.00, 0.00, -0.00, -1.00, 454.7, 204.2)">i</text><text xml:space="preserve" font-family="Helvetica" font-size="21.2" fill="#4A4A4A" transform="matrix(1.00, 0.00, -0.00, -1.00, 460.1, 204.2)">c</text><text xml:space="preserve" font-family="Helvetica" font-size="21.2" fill="#4A4A4A" transform="matrix(1.00, 0.00, -0.00, -1.00, 471.3, 204.2)">s</text><text xml:space="preserve" font-family="Helvetica" font-size="21.2" fill="#4A4A4A" transform="matrix(1.00, 0.00, -0.00, -1.00, 482.6, 204.2)">,</text><text xml:space="preserve" font-family="Helvetica" font-size="21.2" fill="#4A4A4A" transform="matrix(1.00, 0.00, -0.00, -1.00, 489.2, 204.2)"> </text><text xml:space="preserve" font-family="Helvetica" font-size="21.2" fill="#4A4A4A" transform="matrix(1.00, 0.00, -0.00, -1.00, 495.8, 204.2)">s</text><text xml:space="preserve" font-family="Helvetica" font-size="21.2" fill="#4A4A4A" transform="matrix(1.00, 0.00, -0.00, -1.00, 507.2, 204.2)">o</text><text xml:space="preserve" font-family="Helvetica" font-size="21.2" fill="#4A4A4A" transform="matrix(1.00, 0.00, -0.00, -1.00, 519.7, 204.2)">c</text><text xml:space="preserve" font-family="Helvetica" font-size="21.2" fill="#4A4A4A" transform="matrix(1.00, 0.00, -0.00, -1.00, 531.0, 204.2)">i</text><text xml:space="preserve" font-family="Helvetica" font-size="21.2" fill="#4A4A4A" transform="matrix(1.00, 0.00, -0.00, -1.00, 536.4, 204.2)">o</text><text xml:space="preserve" font-family="Helvetica" font-size="21.2" fill="#4A4A4A" transform="matrix(1.00, 0.00, -0.00, -1.00, 549.0, 204.2)">l</text><text xml:space="preserve" font-family="Helvetica" font-size="21.2" fill="#4A4A4A" transform="matrix(1.00, 0.00, -0.00, -1.00, 554.4, 204.2)">o</text><text xml:space="preserve" font-family="Helvetica" font-size="21.2" fill="#4A4A4A" transform="matrix(1.00, 0.00, -0.00, -1.00, 566.9, 204.2)">g</text><text xml:space="preserve" font-family="Helvetica" font-size="21.2" fill="#4A4A4A" transform="matrix(1.00, 0.00, -0.00, -1.00, 579.5, 204.2)">y</text><text xml:space="preserve" font-family="Helvetica" font-size="21.2" fill="#4A4A4A" transform="matrix(1.00, 0.00, -0.00, -1.00, 589.2, 204.2)">,</text><text xml:space="preserve" font-family="Helvetica" font-size="21.2" fill="#4A4A4A" transform="matrix(1.00, 0.00, -0.00, -1.00, 595.8, 204.2)"> </text><text xml:space="preserve" font-family="Helvetica" font-size="21.2" fill="#4A4A4A" transform="matrix(1.00, 0.00, -0.00, -1.00, 2.0, 159.2)">h</text><text xml:space="preserve" font-family="Helvetica" font-size="21.2" fill="#4A4A4A" transform="matrix(1.00, 0.00, -0.00, -1.00, 14.5, 159.2)">i</text><text xml:space="preserve" font-family="Helvetica" font-size="21.2" fill="#4A4A4A" transform="matrix(1.00, 0.00, -0.00, -1.00, 20.0, 159.2)">s</text><text xml:space="preserve" font-family="Helvetica" font-size="21.2" fill="#4A4A4A" transform="matrix(1.00, 0.00, -0.00, -1.00, 31.3, 159.2)">t</text><text xml:space="preserve" font-family="Helvetica" font-size="21.2" fill="#4A4A4A" transform="matrix(1.00, 0.00, -0.00, -1.00, 37.9, 159.2)">o</text><text xml:space="preserve" font-family="Helvetica" font-size="21.2" fill="#4A4A4A" transform="matrix(1.00, 0.00, -0.00, -1.00, 50.4, 159.2)">r</text><text xml:space="preserve" font-family="Helvetica" font-size="21.2" fill="#4A4A4A" transform="matrix(1.00, 0.00, -0.00, -1.00, 58.2, 159.2)">y</text><text xml:space="preserve" font-family="Helvetica" font-size="21.2" fill="#4A4A4A" transform="matrix(1.00, 0.00, -0.00, -1.00, 67.8, 159.2)">,</text><text xml:space="preserve" font-family="Helvetica" font-size="21.2" fill="#4A4A4A" transform="matrix(1.00, 0.00, -0.00, -1.00, 74.5, 159.2)"> </text><text xml:space="preserve" font-family="Helvetica" font-size="21.2" fill="#4A4A4A" transform="matrix(1.00, 0.00, -0.00, -1.00, 81.1, 159.2)">t</text><text xml:space="preserve" font-family="Helvetica" font-size="21.2" fill="#4A4A4A" transform="matrix(1.00, 0.00, -0.00, -1.00, 87.7, 159.2)">h</text><text xml:space="preserve" font-family="Helvetica" font-size="21.2" fill="#4A4A4A" transform="matrix(1.00, 0.00, -0.00, -1.00, 100.2, 159.2)">e</text><text xml:space="preserve" font-family="Helvetica" font-size="21.2" fill="#4A4A4A" transform="matrix(1.00, 0.00, -0.00, -1.00, 112.7, 159.2)"> </text><text xml:space="preserve" font-family="Helvetica" font-size="21.2" fill="#4A4A4A" transform="matrix(1.00, 0.00, -0.00, -1.00, 119.3, 159.2)">h</text><text xml:space="preserve" font-family="Helvetica" font-size="21.2" fill="#4A4A4A" transform="matrix(1.00, 0.00, -0.00, -1.00, 131.9, 159.2)">u</text><text xml:space="preserve" font-family="Helvetica" font-size="21.2" fill="#4A4A4A" transform="matrix(1.00, 0.00, -0.00, -1.00, 144.4, 159.2)">m</text><text xml:space="preserve" font-family="Helvetica" font-size="21.2" fill="#4A4A4A" transform="matrix(1.00, 0.00, -0.00, -1.00, 162.8, 159.2)">a</text><text xml:space="preserve" font-family="Helvetica" font-size="21.2" fill="#4A4A4A" transform="matrix(1.00, 0.00, -0.00, -1.00, 175.3, 159.2)">n</text><text xml:space="preserve" font-family="Helvetica" font-size="21.2" fill="#4A4A4A" transform="matrix(1.00, 0.00, -0.00, -1.00, 187.9, 159.2)"> </text><text xml:space="preserve" font-family="Helvetica" font-size="21.2" fill="#4A4A4A" transform="matrix(1.00, 0.00, -0.00, -1.00, 194.5, 159.2)">c</text><text xml:space="preserve" font-family="Helvetica" font-size="21.2" fill="#4A4A4A" transform="matrix(1.00, 0.00, -0.00, -1.00, 205.8, 159.2)">o</text><text xml:space="preserve" font-family="Helvetica" font-size="21.2" fill="#4A4A4A" transform="matrix(1.00, 0.00, -0.00, -1.00, 218.3, 159.2)">n</text><text xml:space="preserve" font-family="Helvetica" font-size="21.2" fill="#4A4A4A" transform="matrix(1.00, 0.00, -0.00, -1.00, 230.8, 159.2)">d</text><text xml:space="preserve" font-family="Helvetica" font-size="21.2" fill="#4A4A4A" transform="matrix(1.00, 0.00, -0.00, -1.00, 243.4, 159.2)">i</text><text xml:space="preserve" font-family="Helvetica" font-size="21.2" fill="#4A4A4A" transform="matrix(1.00, 0.00, -0.00, -1.00, 248.8, 159.2)">t</text><text xml:space="preserve" font-family="Helvetica" font-size="21.2" fill="#4A4A4A" transform="matrix(1.00, 0.00, -0.00, -1.00, 255.4, 159.2)">i</text><text xml:space="preserve" font-family="Helvetica" font-size="21.2" fill="#4A4A4A" transform="matrix(1.00, 0.00, -0.00, -1.00, 260.8, 159.2)">o</text><text xml:space="preserve" font-family="Helvetica" font-size="21.2" fill="#4A4A4A" transform="matrix(1.00, 0.00, -0.00, -1.00, 273.4, 159.2)">n</text><text xml:space="preserve" font-family="Helvetica" font-size="21.2" fill="#4A4A4A" transform="matrix(1.00, 0.00, -0.00, -1.00, 285.9, 159.2)"> </text><text xml:space="preserve" font-family="Helvetica" font-size="21.2" fill="#4A4A4A" transform="matrix(1.00, 0.00, -0.00, -1.00, 292.5, 159.2)">a</text><text xml:space="preserve" font-family="Helvetica" font-size="21.2" fill="#4A4A4A" transform="matrix(1.00, 0.00, -0.00, -1.00, 305.0, 159.2)">n</text><text xml:space="preserve" font-family="Helvetica" font-size="21.2" fill="#4A4A4A" transform="matrix(1.00, 0.00, -0.00, -1.00, 317.6, 159.2)">d</text><text xml:space="preserve" font-family="Helvetica" font-size="21.2" fill="#4A4A4A" transform="matrix(1.00, 0.00, -0.00, -1.00, 330.1, 159.2)"> </text><text xml:space="preserve" font-family="Helvetica" font-size="21.2" fill="#4A4A4A" transform="matrix(1.00, 0.00, -0.00, -1.00, 336.7, 159.2)">s</text><text xml:space="preserve" font-family="Helvetica" font-size="21.2" fill="#4A4A4A" transform="matrix(1.00, 0.00, -0.00, -1.00, 348.0, 159.2)">o</text><text xml:space="preserve" font-family="Helvetica" font-size="21.2" fill="#4A4A4A" transform="matrix(1.00, 0.00, -0.00, -1.00, 360.6, 159.2)">c</text><text xml:space="preserve" font-family="Helvetica" font-size="21.2" fill="#4A4A4A" transform="matrix(1.00, 0.00, -0.00, -1.00, 371.9, 159.2)">i</text><text xml:space="preserve" font-family="Helvetica" font-size="21.2" fill="#4A4A4A" transform="matrix(1.00, 0.00, -0.00, -1.00, 377.3, 159.2)">a</text><text xml:space="preserve" font-family="Helvetica" font-size="21.2" fill="#4A4A4A" transform="matrix(1.00, 0.00, -0.00, -1.00, 389.8, 159.2)">l</text><text xml:space="preserve" font-family="Helvetica" font-size="21.2" fill="#4A4A4A" transform="matrix(1.00, 0.00, -0.00, -1.00, 395.3, 159.2)"> </text><text xml:space="preserve" font-family="Helvetica" font-size="21.2" fill="#4A4A4A" transform="matrix(1.00, 0.00, -0.00, -1.00, 401.9, 159.2)">m</text><text xml:space="preserve" font-family="Helvetica" font-size="21.2" fill="#4A4A4A" transform="matrix(1.00, 0.00, -0.00, -1.00, 420.3, 159.2)">e</text><text xml:space="preserve" font-family="Helvetica" font-size="21.2" fill="#4A4A4A" transform="matrix(1.00, 0.00, -0.00, -1.00, 432.8, 159.2)">d</text><text xml:space="preserve" font-family="Helvetica" font-size="21.2" fill="#4A4A4A" transform="matrix(1.00, 0.00, -0.00, -1.00, 445.3, 159.2)">i</text><text xml:space="preserve" font-family="Helvetica" font-size="21.2" fill="#4A4A4A" transform="matrix(1.00, 0.00, -0.00, -1.00, 450.8, 159.2)">a</text><text xml:space="preserve" font-family="Helvetica" font-size="21.2" fill="#4A4A4A" transform="matrix(1.00, 0.00, -0.00, -1.00, 463.3, 159.2)">.</text><text xml:space="preserve" font-family="Helvetica" font-size="21.2" fill="#4A4A4A" transform="matrix(1.00, 0.00, -0.00, -1.00, 469.9, 159.2)"> </text><text xml:space="preserve" font-family="Helvetica" font-size="21.2" fill="#4A4A4A" transform="matrix(1.00, 0.00, -0.00, -1.00, 489.1, 159.2)">I</text><text xml:space="preserve" font-family="Helvetica" font-size="21.2" fill="#4A4A4A" transform="matrix(1.00, 0.00, -0.00, -1.00, 495.8, 159.2)"> </text><text xml:space="preserve" font-family="Helvetica" font-size="21.2" fill="#4A4A4A" transform="matrix(1.00, 0.00, -0.00, -1.00, 502.4, 159.2)">d</text><text xml:space="preserve" font-family="Helvetica" font-size="21.2" fill="#4A4A4A" transform="matrix(1.00, 0.00, -0.00, -1.00, 514.9, 159.2)">o</text><text xml:space="preserve" font-family="Helvetica" font-size="21.2" fill="#4A4A4A" transform="matrix(1.00, 0.00, -0.00, -1.00, 527.4, 159.2)">n</text><text xml:space="preserve" font-family="Helvetica" font-size="21.2" fill="#4A4A4A" transform="matrix(1.00, 0.00, -0.00, -1.00, 538.9, 159.2)">’</text><text xml:space="preserve" font-family="Helvetica" font-size="21.2" fill="#4A4A4A" transform="matrix(1.00, 0.00, -0.00, -1.00, 544.1, 159.2)">t</text><text xml:space="preserve" font-family="Helvetica" font-size="21.2" fill="#4A4A4A" transform="matrix(1.00, 0.00, -0.00, -1.00, 550.7, 159.2)"> </text><text xml:space="preserve" font-family="Helvetica" font-size="21.2" fill="#4A4A4A" transform="matrix(1.00, 0.00, -0.00, -1.00, 557.3, 159.2)">k</text><text xml:space="preserve" font-family="Helvetica" font-size="21.2" fill="#4A4A4A" transform="matrix(1.00, 0.00, -0.00, -1.00, 568.7, 159.2)">n</text><text xml:space="preserve" font-family="Helvetica" font-size="21.2" fill="#4A4A4A" transform="matrix(1.00, 0.00, -0.00, -1.00, 581.2, 159.2)">o</text><text xml:space="preserve" font-family="Helvetica" font-size="21.2" fill="#4A4A4A" transform="matrix(1.00, 0.00, -0.00, -1.00, 593.6, 159.2)">w</text><text xml:space="preserve" font-family="Helvetica" font-size="21.2" fill="#4A4A4A" transform="matrix(1.00, 0.00, -0.00, -1.00, 609.7, 159.2)"> </text><text xml:space="preserve" font-family="Helvetica" font-size="21.2" fill="#4A4A4A" transform="matrix(1.00, 0.00, -0.00, -1.00, 2.0, 114.2)">h</text><text xml:space="preserve" font-family="Helvetica" font-size="21.2" fill="#4A4A4A" transform="matrix(1.00, 0.00, -0.00, -1.00, 14.5, 114.2)">o</text><text xml:space="preserve" font-family="Helvetica" font-size="21.2" fill="#4A4A4A" transform="matrix(1.00, 0.00, -0.00, -1.00, 27.0, 114.2)">w</text><text xml:space="preserve" font-family="Helvetica" font-size="21.2" fill="#4A4A4A" transform="matrix(1.00, 0.00, -0.00, -1.00, 43.0, 114.2)"> </text><text xml:space="preserve" font-family="Helvetica" font-size="21.2" fill="#4A4A4A" transform="matrix(1.00, 0.00, -0.00, -1.00, 49.6, 114.2)">I</text><text xml:space="preserve" font-family="Helvetica" font-size="21.2" fill="#4A4A4A" transform="matrix(1.00, 0.00, -0.00, -1.00, 56.2, 114.2)"> </text><text xml:space="preserve" font-family="Helvetica" font-size="21.2" fill="#4A4A4A" transform="matrix(1.00, 0.00, -0.00, -1.00, 62.9, 114.2)">c</text><text xml:space="preserve" font-family="Helvetica" font-size="21.2" fill="#4A4A4A" transform="matrix(1.00, 0.00, -0.00, -1.00, 74.0, 114.2)">a</text><text xml:space="preserve" font-family="Helvetica" font-size="21.2" fill="#4A4A4A" transform="matrix(1.00, 0.00, -0.00, -1.00, 86.5, 114.2)">n</text><text xml:space="preserve" font-family="Helvetica" font-size="21.2" fill="#4A4A4A" transform="matrix(1.00, 0.00, -0.00, -1.00, 99.0, 114.2)"> </text><text xml:space="preserve" font-family="Helvetica" font-size="21.2" fill="#4A4A4A" transform="matrix(1.00, 0.00, -0.00, -1.00, 105.6, 114.2)">b</text><text xml:space="preserve" font-family="Helvetica" font-size="21.2" fill="#4A4A4A" transform="matrix(1.00, 0.00, -0.00, -1.00, 118.2, 114.2)">e</text><text xml:space="preserve" font-family="Helvetica" font-size="21.2" fill="#4A4A4A" transform="matrix(1.00, 0.00, -0.00, -1.00, 130.7, 114.2)"> </text><text xml:space="preserve" font-family="Helvetica" font-size="21.2" fill="#4A4A4A" transform="matrix(1.00, 0.00, -0.00, -1.00, 137.3, 114.2)">a</text><text xml:space="preserve" font-family="Helvetica" font-size="21.2" fill="#4A4A4A" transform="matrix(1.00, 0.00, -0.00, -1.00, 149.8, 114.2)">n</text><text xml:space="preserve" font-family="Helvetica" font-size="21.2" fill="#4A4A4A" transform="matrix(1.00, 0.00, -0.00, -1.00, 162.4, 114.2)"> </text><text xml:space="preserve" font-family="Helvetica" font-size="21.2" fill="#4A4A4A" transform="matrix(1.00, 0.00, -0.00, -1.00, 169.0, 114.2)">e</text><text xml:space="preserve" font-family="Helvetica" font-size="21.2" fill="#4A4A4A" transform="matrix(1.00, 0.00, -0.00, -1.00, 181.5, 114.2)">d</text><text xml:space="preserve" font-family="Helvetica" font-size="21.2" fill="#4A4A4A" transform="matrix(1.00, 0.00, -0.00, -1.00, 194.0, 114.2)">u</text><text xml:space="preserve" font-family="Helvetica" font-size="21.2" fill="#4A4A4A" transform="matrix(1.00, 0.00, -0.00, -1.00, 206.5, 114.2)">c</text><text xml:space="preserve" font-family="Helvetica" font-size="21.2" fill="#4A4A4A" transform="matrix(1.00, 0.00, -0.00, -1.00, 217.7, 114.2)">a</text><text xml:space="preserve" font-family="Helvetica" font-size="21.2" fill="#4A4A4A" transform="matrix(1.00, 0.00, -0.00, -1.00, 230.2, 114.2)">t</text><text xml:space="preserve" font-family="Helvetica" font-size="21.2" fill="#4A4A4A" transform="matrix(1.00, 0.00, -0.00, -1.00, 236.8, 114.2)">o</text><text xml:space="preserve" font-family="Helvetica" font-size="21.2" fill="#4A4A4A" transform="matrix(1.00, 0.00, -0.00, -1.00, 249.3, 114.2)">r</text><text xml:space="preserve" font-family="Helvetica" font-size="21.2" fill="#4A4A4A" transform="matrix(1.00, 0.00, -0.00, -1.00, 257.1, 114.2)"> </text><text xml:space="preserve" font-family="Helvetica" font-size="21.2" fill="#4A4A4A" transform="matrix(1.00, 0.00, -0.00, -1.00, 263.7, 114.2)">a</text><text xml:space="preserve" font-family="Helvetica" font-size="21.2" fill="#4A4A4A" transform="matrix(1.00, 0.00, -0.00, -1.00, 276.2, 114.2)">n</text><text xml:space="preserve" font-family="Helvetica" font-size="21.2" fill="#4A4A4A" transform="matrix(1.00, 0.00, -0.00, -1.00, 288.8, 114.2)">d</text><text xml:space="preserve" font-family="Helvetica" font-size="21.2" fill="#4A4A4A" transform="matrix(1.00, 0.00, -0.00, -1.00, 301.3, 114.2)"> </text><text xml:space="preserve" font-family="Helvetica" font-size="21.2" fill="#4A4A4A" transform="matrix(1.00, 0.00, -0.00, -1.00, 307.9, 114.2)">i</text><text xml:space="preserve" font-family="Helvetica" font-size="21.2" fill="#4A4A4A" transform="matrix(1.00, 0.00, -0.00, -1.00, 313.3, 114.2)">n</text><text xml:space="preserve" font-family="Helvetica" font-size="21.2" fill="#4A4A4A" transform="matrix(1.00, 0.00, -0.00, -1.00, 325.9, 114.2)"> </text><text xml:space="preserve" font-family="Helvetica" font-size="21.2" fill="#4A4A4A" transform="matrix(1.00, 0.00, -0.00, -1.00, 332.5, 114.2)">g</text><text xml:space="preserve" font-family="Helvetica" font-size="21.2" fill="#4A4A4A" transform="matrix(1.00, 0.00, -0.00, -1.00, 345.0, 114.2)">o</text><text xml:space="preserve" font-family="Helvetica" font-size="21.2" fill="#4A4A4A" transform="matrix(1.00, 0.00, -0.00, -1.00, 357.5, 114.2)">o</text><text xml:space="preserve" font-family="Helvetica" font-size="21.2" fill="#4A4A4A" transform="matrix(1.00, 0.00, -0.00, -1.00, 370.1, 114.2)">d</text><text xml:space="preserve" font-family="Helvetica" font-size="21.2" fill="#4A4A4A" transform="matrix(1.00, 0.00, -0.00, -1.00, 382.6, 114.2)"> </text><text xml:space="preserve" font-family="Helvetica" font-size="21.2" fill="#4A4A4A" transform="matrix(1.00, 0.00, -0.00, -1.00, 389.2, 114.2)">c</text><text xml:space="preserve" font-family="Helvetica" font-size="21.2" fill="#4A4A4A" transform="matrix(1.00, 0.00, -0.00, -1.00, 400.5, 114.2)">o</text><text xml:space="preserve" font-family="Helvetica" font-size="21.2" fill="#4A4A4A" transform="matrix(1.00, 0.00, -0.00, -1.00, 413.1, 114.2)">n</text><text xml:space="preserve" font-family="Helvetica" font-size="21.2" fill="#4A4A4A" transform="matrix(1.00, 0.00, -0.00, -1.00, 425.6, 114.2)">s</text><text xml:space="preserve" font-family="Helvetica" font-size="21.2" fill="#4A4A4A" transform="matrix(1.00, 0.00, -0.00, -1.00, 436.9, 114.2)">c</text><text xml:space="preserve" font-family="Helvetica" font-size="21.2" fill="#4A4A4A" transform="matrix(1.00, 0.00, -0.00, -1.00, 448.2, 114.2)">i</text><text xml:space="preserve" font-family="Helvetica" font-size="21.2" fill="#4A4A4A" transform="matrix(1.00, 0.00, -0.00, -1.00, 453.7, 114.2)">e</text><text xml:space="preserve" font-family="Helvetica" font-size="21.2" fill="#4A4A4A" transform="matrix(1.00, 0.00, -0.00, -1.00, 466.2, 114.2)">n</text><text xml:space="preserve" font-family="Helvetica" font-size="21.2" fill="#4A4A4A" transform="matrix(1.00, 0.00, -0.00, -1.00, 478.7, 114.2)">c</text><text xml:space="preserve" font-family="Helvetica" font-size="21.2" fill="#4A4A4A" transform="matrix(1.00, 0.00, -0.00, -1.00, 490.1, 114.2)">e</text><text xml:space="preserve" font-family="Helvetica" font-size="21.2" fill="#4A4A4A" transform="matrix(1.00, 0.00, -0.00, -1.00, 502.6, 114.2)"> </text><text xml:space="preserve" font-family="Helvetica" font-size="21.2" fill="#4A4A4A" transform="matrix(1.00, 0.00, -0.00, -1.00, 509.2, 114.2)">n</text><text xml:space="preserve" font-family="Helvetica" font-size="21.2" fill="#4A4A4A" transform="matrix(1.00, 0.00, -0.00, -1.00, 521.7, 114.2)">o</text><text xml:space="preserve" font-family="Helvetica" font-size="21.2" fill="#4A4A4A" transform="matrix(1.00, 0.00, -0.00, -1.00, 534.2, 114.2)">t</text><text xml:space="preserve" font-family="Helvetica" font-size="21.2" fill="#4A4A4A" transform="matrix(1.00, 0.00, -0.00, -1.00, 540.9, 114.2)"> </text><text xml:space="preserve" font-family="Helvetica" font-size="21.2" fill="#4A4A4A" transform="matrix(1.00, 0.00, -0.00, -1.00, 547.5, 114.2)">p</text><text xml:space="preserve" font-family="Helvetica" font-size="21.2" fill="#4A4A4A" transform="matrix(1.00, 0.00, -0.00, -1.00, 560.0, 114.2)">u</text><text xml:space="preserve" font-family="Helvetica" font-size="21.2" fill="#4A4A4A" transform="matrix(1.00, 0.00, -0.00, -1.00, 572.5, 114.2)">t</text><text xml:space="preserve" font-family="Helvetica" font-size="21.2" fill="#4A4A4A" transform="matrix(1.00, 0.00, -0.00, -1.00, 579.1, 114.2)"> </text><text xml:space="preserve" font-family="Helvetica" font-size="21.2" fill="#4A4A4A" transform="matrix(1.00, 0.00, -0.00, -1.00, 585.7, 114.2)">t</text><text xml:space="preserve" font-family="Helvetica" font-size="21.2" fill="#4A4A4A" transform="matrix(1.00, 0.00, -0.00, -1.00, 592.4, 114.2)">h</text><text xml:space="preserve" font-family="Helvetica" font-size="21.2" fill="#4A4A4A" transform="matrix(1.00, 0.00, -0.00, -1.00, 604.9, 114.2)">i</text><text xml:space="preserve" font-family="Helvetica" font-size="21.2" fill="#4A4A4A" transform="matrix(1.00, 0.00, -0.00, -1.00, 610.3, 114.2)">s</text><text xml:space="preserve" font-family="Helvetica" font-size="21.2" fill="#4A4A4A" transform="matrix(1.00, 0.00, -0.00, -1.00, 621.6, 114.2)"> </text><text xml:space="preserve" font-family="Helvetica" font-size="21.2" fill="#4A4A4A" transform="matrix(1.00, 0.00, -0.00, -1.00, 2.0, 69.2)">c</text><text xml:space="preserve" font-family="Helvetica" font-size="21.2" fill="#4A4A4A" transform="matrix(1.00, 0.00, -0.00, -1.00, 13.3, 69.2)">o</text><text xml:space="preserve" font-family="Helvetica" font-size="21.2" fill="#4A4A4A" transform="matrix(1.00, 0.00, -0.00, -1.00, 25.9, 69.2)">n</text><text xml:space="preserve" font-family="Helvetica" font-size="21.2" fill="#4A4A4A" transform="matrix(1.00, 0.00, -0.00, -1.00, 38.2, 69.2)">v</text><text xml:space="preserve" font-family="Helvetica" font-size="21.2" fill="#4A4A4A" transform="matrix(1.00, 0.00, -0.00, -1.00, 49.4, 69.2)">e</text><text xml:space="preserve" font-family="Helvetica" font-size="21.2" fill="#4A4A4A" transform="matrix(1.00, 0.00, -0.00, -1.00, 61.9, 69.2)">r</text><text xml:space="preserve" font-family="Helvetica" font-size="21.2" fill="#4A4A4A" transform="matrix(1.00, 0.00, -0.00, -1.00, 69.5, 69.2)">s</text><text xml:space="preserve" font-family="Helvetica" font-size="21.2" fill="#4A4A4A" transform="matrix(1.00, 0.00, -0.00, -1.00, 80.8, 69.2)">a</text><text xml:space="preserve" font-family="Helvetica" font-size="21.2" fill="#4A4A4A" transform="matrix(1.00, 0.00, -0.00, -1.00, 93.3, 69.2)">t</text><text xml:space="preserve" font-family="Helvetica" font-size="21.2" fill="#4A4A4A" transform="matrix(1.00, 0.00, -0.00, -1.00, 99.9, 69.2)">i</text><text xml:space="preserve" font-family="Helvetica" font-size="21.2" fill="#4A4A4A" transform="matrix(1.00, 0.00, -0.00, -1.00, 105.4, 69.2)">o</text><text xml:space="preserve" font-family="Helvetica" font-size="21.2" fill="#4A4A4A" transform="matrix(1.00, 0.00, -0.00, -1.00, 117.9, 69.2)">n</text><text xml:space="preserve" font-family="Helvetica" font-size="21.2" fill="#4A4A4A" transform="matrix(1.00, 0.00, -0.00, -1.00, 130.4, 69.2)"> </text><text xml:space="preserve" font-family="Helvetica" font-size="21.2" fill="#4A4A4A" transform="matrix(1.00, 0.00, -0.00, -1.00, 137.0, 69.2)">i</text><text xml:space="preserve" font-family="Helvetica" font-size="21.2" fill="#4A4A4A" transform="matrix(1.00, 0.00, -0.00, -1.00, 142.5, 69.2)">n</text><text xml:space="preserve" font-family="Helvetica" font-size="21.2" fill="#4A4A4A" transform="matrix(1.00, 0.00, -0.00, -1.00, 155.0, 69.2)"> </text><text xml:space="preserve" font-family="Helvetica" font-size="21.2" fill="#4A4A4A" transform="matrix(1.00, 0.00, -0.00, -1.00, 161.6, 69.2)">f</text><text xml:space="preserve" font-family="Helvetica" font-size="21.2" fill="#4A4A4A" transform="matrix(1.00, 0.00, -0.00, -1.00, 168.2, 69.2)">r</text><text xml:space="preserve" font-family="Helvetica" font-size="21.2" fill="#4A4A4A" transform="matrix(1.00, 0.00, -0.00, -1.00, 175.7, 69.2)">o</text><text xml:space="preserve" font-family="Helvetica" font-size="21.2" fill="#4A4A4A" transform="matrix(1.00, 0.00, -0.00, -1.00, 188.2, 69.2)">n</text><text xml:space="preserve" font-family="Helvetica" font-size="21.2" fill="#4A4A4A" transform="matrix(1.00, 0.00, -0.00, -1.00, 200.8, 69.2)">t</text><text xml:space="preserve" font-family="Helvetica" font-size="21.2" fill="#4A4A4A" transform="matrix(1.00, 0.00, -0.00, -1.00, 207.4, 69.2)"> </text><text xml:space="preserve" font-family="Helvetica" font-size="21.2" fill="#4A4A4A" transform="matrix(1.00, 0.00, -0.00, -1.00, 214.0, 69.2)">o</text><text xml:space="preserve" font-family="Helvetica" font-size="21.2" fill="#4A4A4A" transform="matrix(1.00, 0.00, -0.00, -1.00, 226.5, 69.2)">f</text><text xml:space="preserve" font-family="Helvetica" font-size="21.2" fill="#4A4A4A" transform="matrix(1.00, 0.00, -0.00, -1.00, 233.1, 69.2)"> </text><text xml:space="preserve" font-family="Helvetica" font-size="21.2" fill="#4A4A4A" transform="matrix(1.00, 0.00, -0.00, -1.00, 239.7, 69.2)">m</text><text xml:space="preserve" font-family="Helvetica" font-size="21.2" fill="#4A4A4A" transform="matrix(1.00, 0.00, -0.00, -1.00, 257.9, 69.2)">y</text><text xml:space="preserve" font-family="Helvetica" font-size="21.2" fill="#4A4A4A" transform="matrix(1.00, 0.00, -0.00, -1.00, 269.3, 69.2)"> </text><text xml:space="preserve" font-family="Helvetica" font-size="21.2" fill="#4A4A4A" transform="matrix(1.00, 0.00, -0.00, -1.00, 275.9, 69.2)">s</text><text xml:space="preserve" font-family="Helvetica" font-size="21.2" fill="#4A4A4A" transform="matrix(1.00, 0.00, -0.00, -1.00, 287.2, 69.2)">t</text><text xml:space="preserve" font-family="Helvetica" font-size="21.2" fill="#4A4A4A" transform="matrix(1.00, 0.00, -0.00, -1.00, 293.8, 69.2)">u</text><text xml:space="preserve" font-family="Helvetica" font-size="21.2" fill="#4A4A4A" transform="matrix(1.00, 0.00, -0.00, -1.00, 306.4, 69.2)">d</text><text xml:space="preserve" font-family="Helvetica" font-size="21.2" fill="#4A4A4A" transform="matrix(1.00, 0.00, -0.00, -1.00, 318.9, 69.2)">e</text><text xml:space="preserve" font-family="Helvetica" font-size="21.2" fill="#4A4A4A" transform="matrix(1.00, 0.00, -0.00, -1.00, 331.4, 69.2)">n</text><text xml:space="preserve" font-family="Helvetica" font-size="21.2" fill="#4A4A4A" transform="matrix(1.00, 0.00, -0.00, -1.00, 343.9, 69.2)">t</text><text xml:space="preserve" font-family="Helvetica" font-size="21.2" fill="#4A4A4A" transform="matrix(1.00, 0.00, -0.00, -1.00, 350.6, 69.2)">s</text><text xml:space="preserve" font-family="Helvetica" font-size="21.2" fill="#4A4A4A" transform="matrix(1.00, 0.00, -0.00, -1.00, 361.9, 69.2)">.</text><text xml:space="preserve" font-family="Helvetica" font-size="21.2" fill="#4A4A4A" transform="matrix(1.00, 0.00, -0.00, -1.00, 366.4, 69.2)">”</text></g></g><g><clipPath id="clip-8"><path d="M 2.0 270.5 L 604.5 270.5 L 604.5 284.5 L 2.0 284.5 Z M 2.0 270.5 "></path></clipPath><g clip-path="url(#clip-8)"><text xml:space="preserve" font-family="Helvetica" font-size="17.5" fill="#4A4A4A" transform="matrix(1.00, 0.00, -0.00, -1.00, 2.0, 270.8)">R</text><text xml:space="preserve" font-family="Helvetica" font-size="17.5" fill="#4A4A4A" transform="matrix(1.00, 0.00, -0.00, -1.00, 19.4, 270.8)">E</text><text xml:space="preserve" font-family="Helvetica" font-size="17.5" fill="#4A4A4A" transform="matrix(1.00, 0.00, -0.00, -1.00, 35.7, 270.8)">S</text><text xml:space="preserve" font-family="Helvetica" font-size="17.5" fill="#4A4A4A" transform="matrix(1.00, 0.00, -0.00, -1.00, 52.1, 270.8)">E</text><text xml:space="preserve" font-family="Helvetica" font-size="17.5" fill="#4A4A4A" transform="matrix(1.00, 0.00, -0.00, -1.00, 68.5, 270.8)">A</text><text xml:space="preserve" font-family="Helvetica" font-size="17.5" fill="#4A4A4A" transform="matrix(1.00, 0.00, -0.00, -1.00, 84.9, 270.8)">R</text><text xml:space="preserve" font-family="Helvetica" font-size="17.5" fill="#4A4A4A" transform="matrix(1.00, 0.00, -0.00, -1.00, 102.3, 270.8)">C</text><text xml:space="preserve" font-family="Helvetica" font-size="17.5" fill="#4A4A4A" transform="matrix(1.00, 0.00, -0.00, -1.00, 119.6, 270.8)">H</text><text xml:space="preserve" font-family="Helvetica" font-size="17.5" fill="#4A4A4A" transform="matrix(1.00, 0.00, -0.00, -1.00, 137.0, 270.8)"> </text><text xml:space="preserve" font-family="Helvetica" font-size="17.5" fill="#4A4A4A" transform="matrix(1.00, 0.00, -0.00, -1.00, 145.8, 270.8)">A</text><text xml:space="preserve" font-family="Helvetica" font-size="17.5" fill="#4A4A4A" transform="matrix(1.00, 0.00, -0.00, -1.00, 162.2, 270.8)">S</text><text xml:space="preserve" font-family="Helvetica" font-size="17.5" fill="#4A4A4A" transform="matrix(1.00, 0.00, -0.00, -1.00, 178.6, 270.8)"> </text><text xml:space="preserve" font-family="Helvetica" font-size="17.5" fill="#4A4A4A" transform="matrix(1.00, 0.00, -0.00, -1.00, 187.5, 270.8)">A</text><text xml:space="preserve" font-family="Helvetica" font-size="17.5" fill="#4A4A4A" transform="matrix(1.00, 0.00, -0.00, -1.00, 203.9, 270.8)">N</text><text xml:space="preserve" font-family="Helvetica" font-size="17.5" fill="#4A4A4A" transform="matrix(1.00, 0.00, -0.00, -1.00, 221.2, 270.8)"> </text><text xml:space="preserve" font-family="Helvetica" font-size="17.5" fill="#4A4A4A" transform="matrix(1.00, 0.00, -0.00, -1.00, 230.8, 270.8)">E</text><text xml:space="preserve" font-family="Helvetica" font-size="17.5" fill="#4A4A4A" transform="matrix(1.00, 0.00, -0.00, -1.00, 247.2, 270.8)">N</text><text xml:space="preserve" font-family="Helvetica" font-size="17.5" fill="#4A4A4A" transform="matrix(1.00, 0.00, -0.00, -1.00, 264.5, 270.8)">T</text><text xml:space="preserve" font-family="Helvetica" font-size="17.5" fill="#4A4A4A" transform="matrix(1.00, 0.00, -0.00, -1.00, 279.9, 270.8)">R</text><text xml:space="preserve" font-family="Helvetica" font-size="17.5" fill="#4A4A4A" transform="matrix(1.00, 0.00, -0.00, -1.00, 297.1, 270.8)">Y</text><text xml:space="preserve" font-family="Helvetica" font-size="17.5" fill="#4A4A4A" transform="matrix(1.00, 0.00, -0.00, -1.00, 313.5, 270.8)">P</text><text xml:space="preserve" font-family="Helvetica" font-size="17.5" fill="#4A4A4A" transform="matrix(1.00, 0.00, -0.00, -1.00, 329.9, 270.8)">O</text><text xml:space="preserve" font-family="Helvetica" font-size="17.5" fill="#4A4A4A" transform="matrix(1.00, 0.00, -0.00, -1.00, 348.2, 270.8)">I</text><text xml:space="preserve" font-family="Helvetica" font-size="17.5" fill="#4A4A4A" transform="matrix(1.00, 0.00, -0.00, -1.00, 357.8, 270.8)">N</text><text xml:space="preserve" font-family="Helvetica" font-size="17.5" fill="#4A4A4A" transform="matrix(1.00, 0.00, -0.00, -1.00, 375.2, 270.8)">T</text></g></g><g><clipPath id="clip-9"><path d="M 2.0 1.0 L 612.0 1.0 L 612.0 314.0 L 2.0 314.0 Z M 2.0 1.0 "></path></clipPath><g clip-path="url(#clip-9)"><text xml:space="preserve" font-family="Helvetica" font-size="15.0" fill="#979797" transform="matrix(1.00, 0.00, -0.00, -1.00, 2.0, 4.5)">E</text><text xml:space="preserve" font-family="Helvetica" font-size="15.0" fill="#979797" transform="matrix(1.00, 0.00, -0.00, -1.00, 14.9, 4.5)">R</text><text xml:space="preserve" font-family="Helvetica" font-size="15.0" fill="#979797" transform="matrix(1.00, 0.00, -0.00, -1.00, 28.7, 4.5)">I</text><text xml:space="preserve" font-family="Helvetica" font-size="15.0" fill="#979797" transform="matrix(1.00, 0.00, -0.00, -1.00, 35.8, 4.5)">C</text><text xml:space="preserve" font-family="Helvetica" font-size="15.0" fill="#979797" transform="matrix(1.00, 0.00, -0.00, -1.00, 49.6, 4.5)"> </text><text xml:space="preserve" font-family="Helvetica" font-size="15.0" fill="#979797" transform="matrix(1.00, 0.00, -0.00, -1.00, 56.7, 4.5)">B</text><text xml:space="preserve" font-family="Helvetica" font-size="15.0" fill="#979797" transform="matrix(1.00, 0.00, -0.00, -1.00, 69.6, 4.5)">I</text><text xml:space="preserve" font-family="Helvetica" font-size="15.0" fill="#979797" transform="matrix(1.00, 0.00, -0.00, -1.00, 76.7, 4.5)">S</text><text xml:space="preserve" font-family="Helvetica" font-size="15.0" fill="#979797" transform="matrix(1.00, 0.00, -0.00, -1.00, 89.7, 4.5)">H</text><text xml:space="preserve" font-family="Helvetica" font-size="15.0" fill="#979797" transform="matrix(1.00, 0.00, -0.00, -1.00, 103.5, 4.5)">O</text><text xml:space="preserve" font-family="Helvetica" font-size="15.0" fill="#979797" transform="matrix(1.00, 0.00, -0.00, -1.00, 118.1, 4.5)">P</text><text xml:space="preserve" font-family="Helvetica" font-size="15.0" fill="#979797" transform="matrix(1.00, 0.00, -0.00, -1.00, 131.0, 4.5)"> </text><text xml:space="preserve" font-family="Helvetica" font-size="15.0" fill="#979797" transform="matrix(1.00, 0.00, -0.00, -1.00, 138.1, 4.5)">|</text><text xml:space="preserve" font-family="Helvetica" font-size="15.0" fill="#979797" transform="matrix(1.00, 0.00, -0.00, -1.00, 145.0, 4.5)"> </text><text xml:space="preserve" font-family="Helvetica" font-size="15.0" fill="#979797" transform="matrix(1.00, 0.00, -0.00, -1.00, 152.1, 4.5)">U</text><text xml:space="preserve" font-family="Helvetica" font-size="15.0" fill="#979797" transform="matrix(1.00, 0.00, -0.00, -1.00, 165.3, 4.5)">.</text><text xml:space="preserve" font-family="Helvetica" font-size="15.0" fill="#979797" transform="matrix(1.00, 0.00, -0.00, -1.00, 172.4, 4.5)">S</text><text xml:space="preserve" font-family="Helvetica" font-size="15.0" fill="#979797" transform="matrix(1.00, 0.00, -0.00, -1.00, 185.4, 4.5)">.</text><text xml:space="preserve" font-family="Helvetica" font-size="15.0" fill="#979797" transform="matrix(1.00, 0.00, -0.00, -1.00, 192.5, 4.5)"> </text><text xml:space="preserve" font-family="Helvetica" font-size="15.0" fill="#979797" transform="matrix(1.00, 0.00, -0.00, -1.00, 199.6, 4.5)">H</text><text xml:space="preserve" font-family="Helvetica" font-size="15.0" fill="#979797" transform="matrix(1.00, 0.00, -0.00, -1.00, 213.4, 4.5)">I</text><text xml:space="preserve" font-family="Helvetica" font-size="15.0" fill="#979797" transform="matrix(1.00, 0.00, -0.00, -1.00, 220.5, 4.5)">S</text><text xml:space="preserve" font-family="Helvetica" font-size="15.0" fill="#979797" transform="matrix(1.00, 0.00, -0.00, -1.00, 233.0, 4.5)">T</text><text xml:space="preserve" font-family="Helvetica" font-size="15.0" fill="#979797" transform="matrix(1.00, 0.00, -0.00, -1.00, 244.8, 4.5)">O</text><text xml:space="preserve" font-family="Helvetica" font-size="15.0" fill="#979797" transform="matrix(1.00, 0.00, -0.00, -1.00, 259.4, 4.5)">R</text><text xml:space="preserve" font-family="Helvetica" font-size="15.0" fill="#979797" transform="matrix(1.00, 0.00, -0.00, -1.00, 272.9, 4.5)">Y</text><text xml:space="preserve" font-family="Helvetica" font-size="15.0" fill="#979797" transform="matrix(1.00, 0.00, -0.00, -1.00, 285.8, 4.5)"> </text><text xml:space="preserve" font-family="Helvetica" font-size="15.0" fill="#979797" transform="matrix(1.00, 0.00, -0.00, -1.00, 293.0, 4.5)">H</text><text xml:space="preserve" font-family="Helvetica" font-size="15.0" fill="#979797" transform="matrix(1.00, 0.00, -0.00, -1.00, 306.7, 4.5)">I</text><text xml:space="preserve" font-family="Helvetica" font-size="15.0" fill="#979797" transform="matrix(1.00, 0.00, -0.00, -1.00, 313.8, 4.5)">G</text><text xml:space="preserve" font-family="Helvetica" font-size="15.0" fill="#979797" transform="matrix(1.00, 0.00, -0.00, -1.00, 328.4, 4.5)">H</text><text xml:space="preserve" font-family="Helvetica" font-size="15.0" fill="#979797" transform="matrix(1.00, 0.00, -0.00, -1.00, 342.2, 4.5)"> </text><text xml:space="preserve" font-family="Helvetica" font-size="15.0" fill="#979797" transform="matrix(1.00, 0.00, -0.00, -1.00, 349.3, 4.5)">S</text><text xml:space="preserve" font-family="Helvetica" font-size="15.0" fill="#979797" transform="matrix(1.00, 0.00, -0.00, -1.00, 362.3, 4.5)">C</text><text xml:space="preserve" font-family="Helvetica" font-size="15.0" fill="#979797" transform="matrix(1.00, 0.00, -0.00, -1.00, 376.0, 4.5)">H</text><text xml:space="preserve" font-family="Helvetica" font-size="15.0" fill="#979797" transform="matrix(1.00, 0.00, -0.00, -1.00, 389.8, 4.5)">O</text><text xml:space="preserve" font-family="Helvetica" font-size="15.0" fill="#979797" transform="matrix(1.00, 0.00, -0.00, -1.00, 404.4, 4.5)">O</text><text xml:space="preserve" font-family="Helvetica" font-size="15.0" fill="#979797" transform="matrix(1.00, 0.00, -0.00, -1.00, 419.0, 4.5)">L</text><text xml:space="preserve" font-family="Helvetica" font-size="15.0" fill="#979797" transform="matrix(1.00, 0.00, -0.00, -1.00, 430.3, 4.5)"> </text><text xml:space="preserve" font-family="Helvetica" font-size="15.0" fill="#979797" transform="matrix(1.00, 0.00, -0.00, -1.00, 436.5, 4.5)">T</text><text xml:space="preserve" font-family="Helvetica" font-size="15.0" fill="#979797" transform="matrix(1.00, 0.00, -0.00, -1.00, 448.6, 4.5)">E</text><text xml:space="preserve" font-family="Helvetica" font-size="15.0" fill="#979797" transform="matrix(1.00, 0.00, -0.00, -1.00, 461.6, 4.5)">A</text><text xml:space="preserve" font-family="Helvetica" font-size="15.0" fill="#979797" transform="matrix(1.00, 0.00, -0.00, -1.00, 474.3, 4.5)">C</text><text xml:space="preserve" font-family="Helvetica" font-size="15.0" fill="#979797" transform="matrix(1.00, 0.00, -0.00, -1.00, 488.1, 4.5)">H</text><text xml:space="preserve" font-family="Helvetica" font-size="15.0" fill="#979797" transform="matrix(1.00, 0.00, -0.00, -1.00, 501.8, 4.5)">E</text><text xml:space="preserve" font-family="Helvetica" font-size="15.0" fill="#979797" transform="matrix(1.00, 0.00, -0.00, -1.00, 514.8, 4.5)">R</text><text xml:space="preserve" font-family="Helvetica" font-size="15.0" fill="#979797" transform="matrix(1.00, 0.00, -0.00, -1.00, 528.6, 4.5)"> </text><text xml:space="preserve" font-family="Helvetica" font-size="15.0" fill="#979797" transform="matrix(1.00, 0.00, -0.00, -1.00, 535.7, 4.5)">(</text><text xml:space="preserve" font-family="Helvetica" font-size="15.0" fill="#979797" transform="matrix(1.00, 0.00, -0.00, -1.00, 543.6, 4.5)">2</text><text xml:space="preserve" font-family="Helvetica" font-size="15.0" fill="#979797" transform="matrix(1.00, 0.00, -0.00, -1.00, 554.9, 4.5)">0</text><text xml:space="preserve" font-family="Helvetica" font-size="15.0" fill="#979797" transform="matrix(1.00, 0.00, -0.00, -1.00, 566.2, 4.5)">1</text><text xml:space="preserve" font-family="Helvetica" font-size="15.0" fill="#979797" transform="matrix(1.00, 0.00, -0.00, -1.00, 577.4, 4.5)">7</text><text xml:space="preserve" font-family="Helvetica" font-size="15.0" fill="#979797" transform="matrix(1.00, 0.00, -0.00, -1.00, 588.7, 4.5)">)</text></g></g></g></svg>